<?xml version="1.0" encoding="UTF-8" standalone="no"?>
<!-- Created with Inkscape (http://www.inkscape.org/) -->

<svg
   width="400"
   height="400"
   viewBox="0 0 400 400"
   version="1.1"
   id="svg1"
   inkscape:version="1.3.2 (1:1.3.2+202311252150+091e20ef0f)"
   sodipodi:docname="curious.svg"
   xmlns:inkscape="http://www.inkscape.org/namespaces/inkscape"
   xmlns:sodipodi="http://sodipodi.sourceforge.net/DTD/sodipodi-0.dtd"
   xmlns="http://www.w3.org/2000/svg"
   xmlns:svg="http://www.w3.org/2000/svg">
  <sodipodi:namedview
     id="namedview1"
     pagecolor="#ffffff"
     bordercolor="#000000"
     borderopacity="0.25"
     inkscape:showpageshadow="2"
     inkscape:pageopacity="0.0"
     inkscape:pagecheckerboard="true"
     inkscape:deskcolor="#d1d1d1"
     inkscape:document-units="px"
     showgrid="true"
     inkscape:zoom="1.42"
     inkscape:cx="197.88732"
     inkscape:cy="215.84507"
     inkscape:window-width="1920"
     inkscape:window-height="1011"
     inkscape:window-x="1920"
     inkscape:window-y="32"
     inkscape:window-maximized="1"
     inkscape:current-layer="layer1">
    <inkscape:grid
       id="grid1"
       units="px"
       originx="0"
       originy="0"
       spacingx="0.26458333"
       spacingy="0.26458333"
       empcolor="#0099e5"
       empopacity="0.30196078"
       color="#0099e5"
       opacity="0.14901961"
       empspacing="5"
       dotted="false"
       gridanglex="30"
       gridanglez="30"
       visible="true" />
  </sodipodi:namedview>
  <defs
     id="defs1" />
  <g
     inkscape:label="Layer 1"
     inkscape:groupmode="layer"
     id="layer1">
    <path
       id="path1"
       style="fill:#33c255;fill-opacity:1;stroke:#33c255;stroke-width:5.79899;stroke-linecap:round"
       d="M 206.375 29.357422 A 161.14217 161.14217 0 0 0 45.232422 190.5 A 161.14217 161.14217 0 0 0 206.375 351.64258 A 161.14217 161.14217 0 0 0 367.51758 190.5 A 161.14217 161.14217 0 0 0 206.375 29.357422 z M 165.52734 42.25 C 179.38925 42.28371 191.03522 46.42734 199.93164 51.96875 C 207.52325 56.69742 213.17657 62.345352 216.9082 67.347656 C 218.77404 69.848811 220.16218 72.170964 221.0918 74.324219 C 222.02141 76.477474 223.30266 78.151733 221.80078 81.800781 A 5 5 0 0 1 215.27344 84.521484 A 5 5 0 0 1 212.55273 77.994141 C 211.59654 80.317485 212.41576 79.460201 211.91016 78.289062 C 211.40455 77.117929 210.38198 75.32271 208.89258 73.326172 C 205.91377 69.333095 201.07842 64.464589 194.64453 60.457031 C 181.7767 52.441916 162.77355 47.476925 136.92969 58.492188 A 5 5 0 0 1 130.36914 55.853516 A 5 5 0 0 1 133.00781 49.292969 C 143.71317 44.730097 153.6655 42.635682 162.72461 42.298828 C 163.66827 42.263739 164.60321 42.247753 165.52734 42.25 z M 162.82031 69.404297 A 38.465488 38.465488 0 0 1 201.28516 107.86914 A 38.465488 38.465488 0 0 1 162.82031 146.33398 A 38.465488 38.465488 0 0 1 124.35352 107.86914 A 38.465488 38.465488 0 0 1 162.82031 69.404297 z M 246.33594 70.449219 C 266.26601 73.474671 286.86965 80.102495 302.66797 85.947266 C 310.56711 88.869649 317.25874 91.59959 322.01367 93.589844 C 324.39116 94.584971 326.28838 95.397264 327.58203 95.943359 C 328.06361 96.146651 328.35985 96.267142 328.65234 96.386719 C 328.43241 96.33612 328.01085 96.321191 327.11523 96.443359 A 5 5 0 0 1 329.02539 96.560547 C 329.00074 96.553737 329.01352 96.555439 328.98047 96.546875 C 328.89453 96.524605 328.8633 96.443948 328.66797 96.392578 C 328.76309 96.431432 328.94913 96.511106 329.01953 96.539062 C 329.16331 96.596182 329.26251 96.632161 329.22461 96.619141 C 329.21549 96.616012 329.14079 96.594616 329.10742 96.583984 A 5 5 0 0 1 332.74609 100.72266 A 5 5 0 0 1 328.4668 106.35156 C 326.65044 106.59933 326.71541 106.29142 326.47266 106.22852 C 326.2299 106.16563 326.10102 106.12012 325.97852 106.07812 C 325.73351 105.99409 325.54713 105.92098 325.32812 105.83398 C 324.89015 105.66001 324.36132 105.43822 323.69336 105.15625 C 322.35743 104.59231 320.49126 103.79344 318.15234 102.81445 C 313.47456 100.85652 306.91869 98.182807 299.19727 95.326172 C 283.75438 89.612901 263.6212 83.187895 244.83398 80.335938 A 5 5 0 0 1 240.64062 74.642578 A 5 5 0 0 1 246.33594 70.449219 z M 274.84766 95.066406 A 38.465488 38.465488 0 0 1 313.3125 133.53125 A 38.465488 38.465488 0 0 1 274.84766 171.99609 A 38.465488 38.465488 0 0 1 236.38086 133.53125 A 38.465488 38.465488 0 0 1 274.84766 95.066406 z M 158.00391 186.28125 C 177.934 189.30671 198.5396 195.93451 214.33789 201.7793 C 222.23704 204.70166 228.92866 207.43357 233.68359 209.42383 C 236.06108 210.41896 237.9583 211.23124 239.25195 211.77734 C 239.73172 211.97987 240.02615 212.09926 240.31836 212.21875 C 240.09796 212.16847 239.67849 212.15548 238.78516 212.27734 A 5 5 0 0 1 240.68945 212.39258 C 240.66712 212.38655 240.67915 212.38831 240.65039 212.38086 C 240.57046 212.36015 240.51934 212.28753 240.35938 212.23633 C 240.44721 212.27217 240.62345 212.34685 240.68945 212.37305 C 240.83323 212.43015 240.93243 212.46417 240.89453 212.45117 C 240.88586 212.4482 240.81332 212.42723 240.7832 212.41797 A 5 5 0 0 1 244.41602 216.55469 A 5 5 0 0 1 240.13672 222.18555 C 238.32036 222.43331 238.38533 222.12345 238.14258 222.06055 C 237.89983 221.99766 237.77094 221.95216 237.64844 221.91016 C 237.40343 221.82609 237.21706 221.75302 236.99805 221.66602 C 236.56003 221.49204 236.03125 221.27221 235.36328 220.99023 C 234.02735 220.42629 232.16115 219.62742 229.82227 218.64844 C 225.14444 216.69046 218.58862 214.01485 210.86719 211.1582 C 195.4243 205.44494 175.2911 199.01993 156.50391 196.16797 A 5 5 0 0 1 152.31055 190.47461 A 5 5 0 0 1 158.00391 186.28125 z " />
  </g>
</svg>
