<?xml version="1.0" encoding="UTF-8" standalone="no"?>
<!-- Created with Inkscape (http://www.inkscape.org/) -->

<svg
   width="240"
   height="240"
   viewBox="0 0 80 80"
   version="1.1"
   id="svg1"
   inkscape:version="1.3 (1:1.3+202307231459+0e150ed6c4)"
   sodipodi:docname="confuse.svg"
   xmlns:inkscape="http://www.inkscape.org/namespaces/inkscape"
   xmlns:sodipodi="http://sodipodi.sourceforge.net/DTD/sodipodi-0.dtd"
   xmlns="http://www.w3.org/2000/svg"
   xmlns:svg="http://www.w3.org/2000/svg">
  <sodipodi:namedview
     id="namedview1"
     pagecolor="#ffffff"
     bordercolor="#111111"
     borderopacity="1"
     inkscape:showpageshadow="false"
     inkscape:pageopacity="0"
     inkscape:pagecheckerboard="1"
     inkscape:deskcolor="#afafaf"
     inkscape:document-units="px"
     showgrid="true"
     labelstyle="default"
     inkscape:zoom="2.9077441"
     inkscape:cx="98.014127"
     inkscape:cy="135.67219"
     inkscape:window-width="1920"
     inkscape:window-height="1043"
     inkscape:window-x="0"
     inkscape:window-y="0"
     inkscape:window-maximized="1"
     inkscape:current-layer="layer1">
    <inkscape:grid
       id="grid1"
       units="px"
       originx="0"
       originy="0"
       spacingx="1"
       spacingy="1"
       empcolor="#0099e5"
       empopacity="0.30196078"
       color="#0099e5"
       opacity="0.14901961"
       empspacing="8"
       dotted="false"
       gridanglex="30"
       gridanglez="30"
       visible="true" />
  </sodipodi:namedview>
  <defs
     id="defs1" />
  <g
     inkscape:label="Layer 1"
     inkscape:groupmode="layer"
     id="layer1">
    <g
       id="g4"
       transform="translate(3,3)">
      <g
         id="g3"
         transform="translate(-8)">
        <path
           id="path2"
           style="fill:#3ecc5f;fill-opacity:1;stroke-width:0.394853;-inkscape-stroke:none"
           d="M 39.936849,8 A 24.063202,24 0 0 0 15.873698,32 24.063202,24 0 0 0 39.936849,56 24.063202,24 0 0 0 42,55.852865 V 39.164062 C 42,38.519015 42.533555,38 43.196615,38 h 12.255208 c 0.663056,0 1.196615,0.519015 1.196615,1.164062 V 49.186849 A 24.063202,24 0 0 0 64,32 24.063202,24 0 0 0 39.936849,8 Z m -12.587891,8 a 6.3488278,2.116276 0 0 1 6.348959,2.116536 6.3488278,2.116276 0 0 1 -6.348959,2.115886 A 6.3488278,2.116276 0 0 1 21,18.116536 6.3488278,2.116276 0 0 1 27.348958,16 Z m 17,0 a 6.3488278,2.116276 0 0 1 6.348959,2.116536 6.3488278,2.116276 0 0 1 -6.348959,2.115886 A 6.3488278,2.116276 0 0 1 38,18.116536 6.3488278,2.116276 0 0 1 44.348958,16 Z M 25.091146,29.877604 H 46.908854 C 47.513217,29.877604 48,30.350856 48,30.938802 48,31.526748 47.513217,32 46.908854,32 H 25.091146 C 24.486783,32 24,31.526748 24,30.938802 c 0,-0.587946 0.486783,-1.061198 1.091146,-1.061198 z" />
        <path
           id="rect3"
           style="fill:#3ecc5f;fill-opacity:1;stroke-width:0.387157;-inkscape-stroke:none"
           d="m 43.739583,39 c -0.604363,0 -1.091145,0.47325 -1.091145,1.061198 v 15.123698 h 7.213541 C 50.492351,55.184896 51,55.706847 51,56.354818 v 9.348307 h 3.908854 C 55.513217,65.703125 56,65.229875 56,64.641927 V 40.061198 C 56,39.47325 55.513217,39 54.908854,39 Z" />
        <rect
           style="fill:#3ecc5f;fill-opacity:1;stroke-width:0.387157;-inkscape-stroke:none"
           id="rect3-7"
           width="13.351636"
           height="26.703272"
           x="55.648365"
           y="-50"
           rx="1.090909"
           ry="1.0612788"
           transform="rotate(90)" />
      </g>
      <text
         xml:space="preserve"
         style="font-weight:bold;font-size:28.4444px;line-height:1;font-family:Manjari;-inkscape-font-specification:'Manjari Bold';text-align:center;text-anchor:middle;fill:#3ecc5f;fill-opacity:1;stroke-width:0.387157;-inkscape-stroke:none"
         x="60"
         y="20"
         id="text3"><tspan
           sodipodi:role="line"
           id="tspan3"
           style="stroke-width:0.387157"
           x="60"
           y="20">?</tspan></text>
    </g>
  </g>
</svg>
