<?xml version="1.0" encoding="UTF-8" standalone="no"?>
<!-- Created with Inkscape (http://www.inkscape.org/) -->

<svg
   width="240"
   height="240"
   viewBox="0 0 80 80"
   version="1.1"
   id="svg1"
   inkscape:version="1.3 (1:1.3+202307231459+0e150ed6c4)"
   sodipodi:docname="text_editor.svg"
   xmlns:inkscape="http://www.inkscape.org/namespaces/inkscape"
   xmlns:sodipodi="http://sodipodi.sourceforge.net/DTD/sodipodi-0.dtd"
   xmlns="http://www.w3.org/2000/svg"
   xmlns:svg="http://www.w3.org/2000/svg">
  <sodipodi:namedview
     id="namedview1"
     pagecolor="#ffffff"
     bordercolor="#111111"
     borderopacity="1"
     inkscape:showpageshadow="false"
     inkscape:pageopacity="0"
     inkscape:pagecheckerboard="1"
     inkscape:deskcolor="#afafaf"
     inkscape:document-units="px"
     showgrid="true"
     labelstyle="default"
     inkscape:zoom="5.8154882"
     inkscape:cx="19.258916"
     inkscape:cy="37.915991"
     inkscape:window-width="1920"
     inkscape:window-height="1043"
     inkscape:window-x="0"
     inkscape:window-y="0"
     inkscape:window-maximized="1"
     inkscape:current-layer="layer1">
    <inkscape:grid
       id="grid1"
       units="px"
       originx="0"
       originy="0"
       spacingx="1"
       spacingy="1"
       empcolor="#0099e5"
       empopacity="0.30196078"
       color="#0099e5"
       opacity="0.14901961"
       empspacing="8"
       dotted="false"
       gridanglex="30"
       gridanglez="30"
       visible="true" />
  </sodipodi:namedview>
  <defs
     id="defs1" />
  <g
     inkscape:label="Layer 1"
     inkscape:groupmode="layer"
     id="layer1">
    <g
       id="g4"
       transform="translate(-8,-16)">
      <path
         id="rect1"
         style="fill:#3ecc5f;stroke-width:1.16147;-inkscape-stroke:none"
         d="M 17.943359,24 C 16.866259,24 16,24.866259 16,25.943359 V 86.056641 C 16,87.133741 16.866259,88 17.943359,88 H 62.056641 C 63.133741,88 64,87.133741 64,86.056641 V 53.265625 L 44.496094,68.777344 41.5,69.154297 v 0.785156 C 41.5,69.973113 41.473113,70 41.439453,70 H 18.060547 C 18.026887,70 18,69.973113 18,69.939453 V 68.060547 C 18,68.026887 18.026887,68 18.060547,68 H 37.179688 L 37.912109,66.011719 39.298828,62.242188 64,42.595703 V 25.943359 C 64,24.866259 63.133741,24 62.056641,24 Z m 0.117188,6 h 9.378906 c 0.03366,0 0.06055,0.02689 0.06055,0.06055 v 1.878906 C 27.5,31.973113 27.473113,32 27.439453,32 H 18.060547 C 18.026887,32 18,31.973113 18,31.939453 V 30.060547 C 18,30.026887 18.026887,30 18.060547,30 Z m 0,4 h 14.378906 c 0.03366,0 0.06055,0.02689 0.06055,0.06055 v 1.878906 C 32.5,35.973113 32.473113,36 32.439453,36 H 18.060547 C 18.026887,36 18,35.973113 18,35.939453 V 34.060547 C 18,34.026887 18.026887,34 18.060547,34 Z m 0,4 h 11.378906 c 0.03366,0 0.06055,0.02689 0.06055,0.06055 v 1.878906 C 29.5,39.973113 29.473113,40 29.439453,40 H 18.060547 C 18.026887,40 18,39.973113 18,39.939453 V 38.060547 C 18,38.026887 18.026887,38 18.060547,38 Z m 0,4 h 21.378906 c 0.03366,0 0.06055,0.02689 0.06055,0.06055 v 1.878906 C 39.5,43.973113 39.473113,44 39.439453,44 H 18.060547 C 18.026887,44 18,43.973113 18,43.939453 V 42.060547 C 18,42.026887 18.026887,42 18.060547,42 Z m 0.181641,4 H 29.257812 C 29.392452,46 29.5,46.107548 29.5,46.242188 v 7.515624 C 29.5,53.892452 29.392452,54 29.257812,54 H 18.242188 C 18.107548,54 18,53.892452 18,53.757812 V 46.242188 C 18,46.107548 18.107548,46 18.242188,46 Z m -0.181641,10 h 25.128906 c 0.03366,0 0.06055,0.02689 0.06055,0.06055 v 1.878906 C 43.25,57.973113 43.223113,58 43.189453,58 H 18.060547 C 18.026887,58 18,57.973113 18,57.939453 V 56.060547 C 18,56.026887 18.026887,56 18.060547,56 Z m 0,4 h 19.378906 c 0.03366,0 0.06055,0.02689 0.06055,0.06055 v 1.878906 C 37.5,61.973113 37.473113,62 37.439453,62 H 18.060547 C 18.026887,62 18,61.973113 18,61.939453 V 60.060547 C 18,60.026887 18.026887,60 18.060547,60 Z m 0,4 h 4.378906 c 0.03366,0 0.06055,0.02689 0.06055,0.06055 v 1.878906 C 22.5,65.973113 22.473113,66 22.439453,66 H 18.060547 C 18.026887,66 18,65.973113 18,65.939453 V 64.060547 C 18,64.026887 18.026887,64 18.060547,64 Z m 0.181641,8 H 31.757812 C 31.892452,72 32,72.107548 32,72.242188 v 7.515624 C 32,79.892452 31.892452,80 31.757812,80 H 18.242188 C 18.107548,80 18,79.892452 18,79.757812 V 72.242188 C 18,72.107548 18.107548,72 18.242188,72 Z m -0.181641,10 h 14.378906 c 0.03366,0 0.06055,0.02689 0.06055,0.06055 v 1.878906 C 32.5,83.973113 32.473113,84 32.439453,84 H 18.060547 C 18.026887,84 18,83.973113 18,83.939453 V 82.060547 C 18,82.026887 18.026887,82 18.060547,82 Z" />
      <path
         sodipodi:type="star"
         style="fill:#3ecc5f;fill-opacity:1;stroke-width:1.16147;-inkscape-stroke:none"
         id="path4"
         inkscape:flatsided="false"
         sodipodi:sides="3"
         sodipodi:cx="10"
         sodipodi:cy="72"
         sodipodi:r1="2.236068"
         sodipodi:r2="1.1180341"
         sodipodi:arg1="2.0943951"
         sodipodi:arg2="3.1415927"
         inkscape:rounded="0"
         inkscape:randomized="0"
         d="M 8.881966,73.936492 8.8819659,72 l 10e-8,-1.936492 1.677051,0.968246 L 12.236068,72 10.559017,72.968246 Z"
         inkscape:transform-center-x="-0.66666724"
         transform="matrix(1.1925695,0,0,1,12.407639,4.0000001)" />
      <g
         id="g3"
         transform="matrix(0.51973488,0.65347724,-0.65347724,0.51973488,47.086268,-36.760029)">
        <rect
           style="fill:#3ecc5f;stroke-width:1.16147;-inkscape-stroke:none"
           id="rect2"
           width="8"
           height="56"
           x="88"
           y="24"
           ry="0"
           rx="0" />
        <rect
           style="fill:#3ecc5f;stroke-width:0.438994;-inkscape-stroke:none"
           id="rect2-5"
           width="8"
           height="8"
           x="88"
           y="16"
           ry="1"
           rx="1" />
        <path
           sodipodi:type="star"
           style="fill:#3ecc5f;stroke-width:1.16147;-inkscape-stroke:none"
           id="path3"
           inkscape:flatsided="false"
           sodipodi:sides="3"
           sodipodi:cx="88"
           sodipodi:cy="88"
           sodipodi:r1="6.0956135"
           sodipodi:r2="3.047807"
           sodipodi:arg1="-2.6179939"
           sodipodi:arg2="-1.5707963"
           inkscape:rounded="0"
           inkscape:randomized="0"
           d="m 82.721044,84.952193 5.278956,0 5.278956,0 -2.639478,4.571711 L 88,94.095613 85.360522,89.523903 Z"
           inkscape:transform-center-y="1.3333335"
           transform="matrix(0.75772515,0,0,0.87494569,25.320185,5.6714451)"
           inkscape:transform-center-x="2.7663655e-06" />
      </g>
    </g>
  </g>
</svg>
