<?xml version="1.0" encoding="UTF-8" standalone="no"?>
<!-- Created with Inkscape (http://www.inkscape.org/) -->

<svg
   width="300"
   height="350"
   viewBox="0 0 300 350"
   version="1.1"
   id="svg1"
   inkscape:version="1.2.2 (b0a8486541, 2022-12-01)"
   sodipodi:docname="face_professional.svg"
   inkscape:export-filename="blue.png"
   inkscape:export-xdpi="96"
   inkscape:export-ydpi="96"
   xmlns:inkscape="http://www.inkscape.org/namespaces/inkscape"
   xmlns:sodipodi="http://sodipodi.sourceforge.net/DTD/sodipodi-0.dtd"
   xmlns="http://www.w3.org/2000/svg"
   xmlns:svg="http://www.w3.org/2000/svg">
  <sodipodi:namedview
     id="namedview1"
     pagecolor="#ffffff"
     bordercolor="#000000"
     borderopacity="0.25"
     inkscape:showpageshadow="2"
     inkscape:pageopacity="0.0"
     inkscape:pagecheckerboard="0"
     inkscape:deskcolor="#d1d1d1"
     inkscape:document-units="px"
     showgrid="true"
     inkscape:zoom="2.1"
     inkscape:cx="105"
     inkscape:cy="181.66667"
     inkscape:window-width="1920"
     inkscape:window-height="1041"
     inkscape:window-x="0"
     inkscape:window-y="0"
     inkscape:window-maximized="1"
     inkscape:current-layer="layer1">
    <inkscape:grid
       id="grid1"
       units="px"
       originx="0"
       originy="0"
       spacingx="1"
       spacingy="1"
       empcolor="#0048e5"
       empopacity="0.30196078"
       color="#0099e5"
       opacity="0.14901961"
       empspacing="10"
       dotted="false"
       gridanglex="30"
       gridanglez="30"
       visible="true"
       snapvisiblegridlinesonly="false"
       enabled="true" />
  </sodipodi:namedview>
  <defs
     id="defs1" />
  <g
     inkscape:label="Layer 1"
     inkscape:groupmode="layer"
     id="layer1">
    <g
       id="g351"
       transform="translate(10.095238,-4.1428611)">
      <circle
         style="fill:#ffffff;stroke-width:4.31454;stroke-linecap:round;stroke-linejoin:round"
         id="path289"
         cx="146.66667"
         cy="146.66667"
         r="119.04762" />
    </g>
    <path
       id="path287"
       style="fill:#77767b;fill-opacity:1;stroke:none;stroke-width:3.63558;stroke-linecap:round;stroke-linejoin:round"
       d="M 150,14.416016 A 135.58331,135.5844 0 0 0 14.416016,150 135.58331,135.5844 0 0 0 150,285.58398 135.58331,135.5844 0 0 0 285.58398,150 135.58331,135.5844 0 0 0 150,14.416016 Z M 140,49.771484 A 30,57.114281 0 0 1 170,106.88477 30,57.114281 0 0 1 140,164 30,57.114281 0 0 1 110,106.88477 30,57.114281 0 0 1 140,49.771484 Z M 220,50 a 30,57.114281 0 0 1 30,57.11523 30,57.114281 0 0 1 -30,57.11329 A 30,57.114281 0 0 1 190,107.11523 30,57.114281 0 0 1 220,50 Z m -75,160 h 70 c 2.77,0 5,2.23 5,5 0,2.77 -2.23,5 -5,5 h -70 c -2.77,0 -5,-2.23 -5,-5 0,-2.77 2.23,-5 5,-5 z" />
    <text
       xml:space="preserve"
       style="font-weight:bold;font-size:37.3333px;font-family:Arial;-inkscape-font-specification:'Arial Bold';text-align:center;text-anchor:middle;fill:#77767b;fill-opacity:1;stroke-width:3.77953;stroke-linecap:round;stroke-linejoin:round"
       x="148.95468"
       y="349.62668"
       id="text1569"><tspan
         sodipodi:role="line"
         id="tspan1567"
         x="148.95468"
         y="349.62668"
         style="font-style:normal;font-variant:normal;font-weight:bold;font-stretch:normal;font-size:37.3333px;font-family:sans-serif;-inkscape-font-specification:'sans-serif Bold';fill:#77767b;fill-opacity:1">PROFESSIONAL</tspan></text>
    <text
       xml:space="preserve"
       style="font-weight:bold;font-size:37.3333px;font-family:sans-serif;-inkscape-font-specification:'sans-serif Bold';text-align:center;text-anchor:middle;fill:#77767b;fill-opacity:1;stroke-width:3.77953;stroke-linecap:round;stroke-linejoin:round"
       x="395.2381"
       y="143.80952"
       id="text4705"><tspan
         sodipodi:role="line"
         id="tspan4703"
         x="395.2381"
         y="143.80952" /></text>
  </g>
</svg>
