<?xml version="1.0" encoding="UTF-8" standalone="no"?>
<!-- Created with Inkscape (http://www.inkscape.org/) -->

<svg
   width="400"
   height="400"
   viewBox="0 0 400 400"
   version="1.1"
   id="svg1"
   inkscape:version="1.3.2 (1:1.3.2+202311252150+091e20ef0f)"
   sodipodi:docname="register.svg"
   xml:space="preserve"
   xmlns:inkscape="http://www.inkscape.org/namespaces/inkscape"
   xmlns:sodipodi="http://sodipodi.sourceforge.net/DTD/sodipodi-0.dtd"
   xmlns="http://www.w3.org/2000/svg"
   xmlns:svg="http://www.w3.org/2000/svg"><sodipodi:namedview
     id="namedview1"
     pagecolor="#ffffff"
     bordercolor="#000000"
     borderopacity="0.25"
     inkscape:showpageshadow="2"
     inkscape:pageopacity="0.0"
     inkscape:pagecheckerboard="true"
     inkscape:deskcolor="#d1d1d1"
     inkscape:document-units="px"
     showgrid="true"
     inkscape:zoom="1.42"
     inkscape:cx="78.169014"
     inkscape:cy="189.78873"
     inkscape:window-width="1920"
     inkscape:window-height="1043"
     inkscape:window-x="0"
     inkscape:window-y="0"
     inkscape:window-maximized="1"
     inkscape:current-layer="layer1"><inkscape:grid
       id="grid1"
       units="px"
       originx="0"
       originy="0"
       spacingx="0.26458333"
       spacingy="0.26458333"
       empcolor="#0099e5"
       empopacity="0.30196078"
       color="#0099e5"
       opacity="0.14901961"
       empspacing="5"
       dotted="false"
       gridanglex="30"
       gridanglez="30"
       visible="true" /></sodipodi:namedview><defs
     id="defs1" /><g
     inkscape:label="Layer 1"
     inkscape:groupmode="layer"
     id="layer1"><g
       id="g2"
       transform="matrix(0.77312033,0,0,0.77312033,-19.382633,178.26422)"><path
         id="rect1"
         style="fill:#33c255;fill-opacity:1;stroke:none;stroke-width:1;stroke-linecap:round;stroke-linejoin:round;stroke-dasharray:none;stroke-opacity:1;paint-order:fill markers stroke"
         d="m 216.05362,222.25 c -5.86316,0 -10.58204,4.72082 -10.58204,10.58398 v 26.45704 c 0,5.86316 4.71888,10.58398 10.58204,10.58398 h 132.29296 c 5.86316,0 10.58204,-4.72082 10.58204,-10.58398 v -26.45704 c 0,-5.86316 -4.71888,-10.58398 -10.58204,-10.58398 z m 56.50976,11.85547 c 0.61867,0 1.12982,0.20209 1.53516,0.60742 0.40533,0.40533 0.60742,0.96006 0.60742,1.66406 0,0.68267 -0.20209,1.2374 -0.60742,1.66407 -0.40534,0.40533 -0.91649,0.60742 -1.53516,0.60742 -0.59733,0 -1.11044,-0.20209 -1.53711,-0.60742 -0.42666,-0.42667 -0.64062,-0.9814 -0.64062,-1.66407 0,-0.704 0.21396,-1.25873 0.64062,-1.66406 0.42667,-0.40533 0.93978,-0.60742 1.53711,-0.60742 z m 36.76758,2.04687 v 5.2168 h 7.03906 v 2.14453 h -7.03906 v 8.03125 c 0,1.17333 0.1169,2.09062 0.35156,2.75196 0.23467,0.63999 0.61901,1.08775 1.15235,1.34374 0.55466,0.256 1.28969,0.38477 2.20703,0.38477 0.85333,0 1.52691,-0.0753 2.01758,-0.22461 0.51199,-0.17067 0.95975,-0.34105 1.34374,-0.51172 l 0.38282,2.11133 c -0.17067,0.0853 -0.59663,0.26759 -1.2793,0.54492 -0.68267,0.256 -1.57817,0.38477 -2.6875,0.38477 -1.728,0 -3.01971,-0.27737 -3.87305,-0.83203 -0.85333,-0.576 -1.41798,-1.37639 -1.69531,-2.40039 -0.27733,-1.024 -0.41601,-2.21866 -0.41601,-3.58399 v -8 h -3.39258 v -2.14453 h 3.39258 v -4.76758 z m -86.78516,4.83204 c 0.55467,-10e-6 1.04599,0.0119 1.47266,0.0332 0.42667,0.0213 0.85263,0.063 1.2793,0.12695 0.42666,0.064 0.91799,0.14919 1.47265,0.25586 l -0.44726,2.14453 c -0.53334,-0.14933 -1.00287,-0.25631 -1.40821,-0.32031 -0.384,-0.064 -0.76834,-0.0957 -1.15234,-0.0957 -0.36267,-0.0213 -0.78863,-0.0312 -1.2793,-0.0312 -0.78933,0 -1.5798,0.0535 -2.36914,0.16015 -0.768,0.10667 -1.53473,0.27705 -2.30273,0.51172 v 14.17578 h -2.4961 v -15.74414 c 1.216,-0.384 2.43049,-0.68315 3.64649,-0.89648 1.23733,-0.21334 2.43198,-0.32032 3.58398,-0.32031 z m 16,0 c 2.15467,-10e-6 3.84064,0.69341 5.05664,2.08007 1.216,1.36534 1.82422,3.47728 1.82422,6.33594 v 0.38477 0.48046 h -12.1914 c 0.17066,1.89867 0.77888,3.33899 1.82422,4.32032 1.06666,0.96 2.57038,1.43945 4.51171,1.43945 1.088,0 1.99342,-0.0852 2.71875,-0.25586 0.72534,-0.17067 1.24836,-0.33113 1.56836,-0.48047 l 0.35157,2.11133 c -0.256,0.192 -0.86227,0.39604 -1.82227,0.60938 -0.93867,0.21333 -2.00651,0.32031 -3.20117,0.32031 -1.94133,0 -3.54016,-0.38435 -4.79883,-1.15235 -1.23733,-0.78933 -2.15657,-1.8453 -2.75391,-3.16796 -0.59733,-1.32267 -0.89453,-2.77485 -0.89453,-4.35352 0,-1.472 0.22388,-2.75184 0.67188,-3.83984 0.448,-1.088 1.04435,-1.9835 1.79101,-2.6875 0.768,-0.72534 1.61197,-1.25828 2.5293,-1.59961 0.91733,-0.36267 1.85445,-0.54493 2.81445,-0.54492 z m 17.56836,0 c 1.536,0 2.82772,0.10697 3.87305,0.32031 1.04533,0.21333 1.84377,0.4055 2.39844,0.57617 v 15.00781 c 0,2.51733 -0.64984,4.32021 -1.95117,5.40821 -1.28,1.10933 -3.18986,1.66406 -5.72852,1.66406 -1.04533,0 -2.00424,-0.0852 -2.87891,-0.25586 -0.85333,-0.14934 -1.56853,-0.32964 -2.14453,-0.54297 l 0.41602,-2.24023 c 0.61866,0.25599 1.32199,0.45808 2.11133,0.60742 0.81066,0.14933 1.66454,0.22461 2.56054,0.22461 1.17333,0 2.1342,-0.16047 2.88086,-0.48047 0.768,-0.29867 1.33265,-0.79991 1.69531,-1.50391 0.36267,-0.68266 0.54493,-1.59004 0.54493,-2.7207 v -0.54297 c -0.256,0.14933 -0.76911,0.35142 -1.53711,0.60742 -0.74667,0.256 -1.62038,0.38477 -2.62305,0.38477 -1.23733,0 -2.40028,-0.27737 -3.48828,-0.83203 -1.088,-0.576 -1.96367,-1.46159 -2.625,-2.65625 -0.66133,-1.216 -0.99219,-2.7633 -0.99219,-4.64063 0,-1.536 0.28924,-2.93274 0.86524,-4.19141 0.576,-1.27999 1.41801,-2.29435 2.52734,-3.04101 1.13066,-0.768 2.4957,-1.15234 4.0957,-1.15234 z m 36.25586,0 c 0.87467,0 1.79196,0.0654 2.75196,0.19335 0.95999,0.128 1.7703,0.2766 2.43164,0.44727 l -0.44727,2.33594 c -0.256,-0.17067 -0.65026,-0.30935 -1.18359,-0.41602 -0.512,-0.128 -1.07665,-0.22311 -1.69532,-0.28711 -0.61866,-0.0853 -1.22688,-0.1289 -1.82422,-0.1289 -1.36533,0 -2.41138,0.18225 -3.13671,0.54492 -0.704,0.36266 -1.05664,0.97088 -1.05664,1.82422 0,0.448 0.18225,0.84226 0.54492,1.18359 0.36266,0.32 0.84212,0.60728 1.43945,0.86328 0.59733,0.23467 1.24913,0.48033 1.95313,0.73633 0.72533,0.27733 1.45044,0.57648 2.17578,0.89648 0.74666,0.29867 1.42821,0.64936 2.04687,1.05469 0.61867,0.40533 1.10999,0.89666 1.47266,1.47266 0.384,0.55466 0.57617,1.21637 0.57617,1.98437 0,1.024 -0.26745,1.8878 -0.80078,2.5918 -0.512,0.68267 -1.30052,1.19382 -2.36719,1.53516 -1.04533,0.34133 -2.37867,0.51367 -4,0.51367 -1.04533,0 -2.0379,-0.0872 -2.97656,-0.25781 -0.93867,-0.14934 -1.87774,-0.4267 -2.81641,-0.83204 l 0.54492,-2.36718 c 0.832,0.40533 1.70572,0.72627 2.62305,0.96093 0.93867,0.23467 1.94115,0.35157 3.00781,0.35157 1.408,0 2.46397,-0.18226 3.16797,-0.54493 0.704,-0.38399 1.05664,-0.97043 1.05664,-1.75976 0,-0.576 -0.22387,-1.05545 -0.67187,-1.43945 -0.42667,-0.40534 -0.99132,-0.75798 -1.69531,-1.05664 -0.68267,-0.29867 -1.41966,-0.57604 -2.20899,-0.83204 -0.66133,-0.23466 -1.32304,-0.49024 -1.98437,-0.76757 -0.66134,-0.29867 -1.25769,-0.62952 -1.79102,-0.99219 -0.53333,-0.384 -0.9593,-0.84167 -1.2793,-1.375 -0.32,-0.53333 -0.48047,-1.16334 -0.48046,-1.88867 0,-0.87467 0.23379,-1.65327 0.70312,-2.33594 0.49067,-0.68267 1.22765,-1.21561 2.20898,-1.59961 0.98134,-0.40533 2.21761,-0.60937 3.71094,-0.60937 z m 35.77735,0 c 2.15466,-10e-6 3.83868,0.69341 5.05468,2.08007 1.216,1.36534 1.82422,3.47728 1.82422,6.33594 v 0.38477 0.48046 h -12.1914 c 0.17066,1.89867 0.77888,3.33899 1.82421,4.32032 1.06667,0.96 2.57039,1.43945 4.51172,1.43945 1.088,0 1.99537,-0.0852 2.72071,-0.25586 0.72533,-0.17067 1.2464,-0.33113 1.5664,-0.48047 l 0.35352,2.11133 c -0.256,0.192 -0.86422,0.39604 -1.82422,0.60938 -0.93867,0.21333 -2.00651,0.32031 -3.20117,0.32031 -1.94133,0 -3.54017,-0.38435 -4.79883,-1.15235 -1.23733,-0.78933 -2.15462,-1.8453 -2.75195,-3.16796 -0.59734,-1.32267 -0.89649,-2.77485 -0.89649,-4.35352 0,-1.472 0.22388,-2.75184 0.67188,-3.83984 0.448,-1.088 1.04435,-1.9835 1.79101,-2.6875 0.768,-0.72534 1.61197,-1.25828 2.5293,-1.59961 0.91733,-0.36267 1.85641,-0.54493 2.81641,-0.54492 z m 19.83984,0 c 0.55467,-10e-6 1.04404,0.0119 1.4707,0.0332 0.42667,0.0213 0.85459,0.063 1.28125,0.12695 0.42667,0.064 0.91604,0.14919 1.47071,0.25586 l -0.44727,2.14453 c -0.53333,-0.14933 -1.00287,-0.25631 -1.4082,-0.32031 -0.384,-0.064 -0.76835,-0.0957 -1.15235,-0.0957 -0.36266,-0.0213 -0.78863,-0.0312 -1.27929,-0.0312 -0.78934,0 -1.57981,0.0535 -2.36914,0.16015 -0.768,0.10667 -1.53474,0.27705 -2.30274,0.51172 v 14.17578 h -2.49609 v -15.74414 c 1.216,-0.384 2.43244,-0.68315 3.64843,-0.89648 1.23734,-0.21334 2.43199,-0.32032 3.58399,-0.32031 z m -80.83203,0.38476 h 7.32812 v 10.17578 c 0,1.216 0.10503,2.15508 0.31836,2.81641 0.23467,0.64 0.56552,1.07783 0.99219,1.3125 0.448,0.23466 0.97103,0.35156 1.56836,0.35156 0.768,0 1.43962,-0.0971 2.01562,-0.28906 0.59734,-0.192 1.01338,-0.35052 1.24805,-0.47852 l 0.35352,2.17578 c -0.0427,0.0427 -0.24671,0.13778 -0.60938,0.28711 -0.34133,0.14934 -0.78908,0.28802 -1.34375,0.41602 -0.53333,0.128 -1.11976,0.19336 -1.75976,0.19336 -1.36534,0 -2.43122,-0.24566 -3.19922,-0.73633 -0.74667,-0.49067 -1.2697,-1.21578 -1.56836,-2.17578 -0.29867,-0.98133 -0.44922,-2.21956 -0.44922,-3.71289 v -8.19141 h -4.89453 z m -28.67188,1.75977 c -0.96,0 -1.81388,0.24566 -2.56054,0.73632 -0.72534,0.46934 -1.31177,1.08747 -1.75977,1.85547 -0.448,0.74667 -0.72536,1.52527 -0.83203,2.33594 h 9.43945 c 0,-1.04533 -0.19217,-1.93092 -0.57617,-2.65625 -0.36267,-0.72533 -0.86391,-1.28006 -1.50391,-1.66406 -0.63999,-0.40533 -1.37503,-0.60742 -2.20703,-0.60742 z m 89.59961,0 c -0.96,0 -1.81388,0.24566 -2.56054,0.73632 -0.72534,0.46934 -1.31177,1.08747 -1.75977,1.85547 -0.448,0.74667 -0.72536,1.52527 -0.83203,2.33594 h 9.43945 c 0,-1.04533 -0.19217,-1.93092 -0.57617,-2.65625 -0.36267,-0.72533 -0.86391,-1.28006 -1.50391,-1.66406 -0.64,-0.40533 -1.37503,-0.60742 -2.20703,-0.60742 z m -71.87304,0.1914 c -1.57867,0 -2.80503,0.5666 -3.67969,1.69727 -0.85333,1.13066 -1.2793,2.59081 -1.2793,4.38281 0,1.36533 0.22388,2.47479 0.67188,3.32813 0.448,0.85333 1.01264,1.47342 1.69531,1.85742 0.704,0.384 1.42911,0.57617 2.17578,0.57617 0.81067,0 1.58927,-0.11885 2.33594,-0.35352 0.74666,-0.23466 1.33505,-0.51203 1.76172,-0.83203 v -10.20703 c -0.27734,-0.10667 -0.71517,-0.20373 -1.3125,-0.28906 -0.576,-0.10667 -1.36648,-0.16016 -2.36914,-0.16016 z" /><rect
         style="fill:none;fill-opacity:1;stroke:#33c255;stroke-width:5.60245;stroke-linecap:round;stroke-linejoin:round;stroke-dasharray:none;stroke-opacity:1;paint-order:fill markers stroke"
         id="rect1-2"
         width="192.66658"
         height="47.624996"
         x="187.42931"
         y="164.04166"
         rx="15.875001"
         ry="15.875001" /><rect
         style="fill:none;fill-opacity:1;stroke:#33c255;stroke-width:5.60245;stroke-linecap:round;stroke-linejoin:round;stroke-dasharray:none;stroke-opacity:1;paint-order:fill markers stroke"
         id="rect1-2-7"
         width="192.66658"
         height="47.624996"
         x="187.42931"
         y="103.33333"
         rx="13.083332"
         ry="13.083332" /><text
         xml:space="preserve"
         style="font-size:32px;font-family:'Ubuntu Mono';-inkscape-font-specification:'Ubuntu Mono';fill:#33c255;fill-opacity:1;stroke:none;stroke-width:5;stroke-linecap:round;stroke-linejoin:round;stroke-dasharray:none;stroke-opacity:1;paint-order:fill markers stroke"
         x="212.05064"
         y="199.88744"
         id="text1-6"><tspan
           sodipodi:role="line"
           id="tspan1-0"
           x="212.05064"
           y="199.88744">password</tspan></text><text
         xml:space="preserve"
         style="font-size:32px;font-family:'Ubuntu Mono';-inkscape-font-specification:'Ubuntu Mono';fill:#33c255;fill-opacity:1;stroke:none;stroke-width:5;stroke-linecap:round;stroke-linejoin:round;stroke-dasharray:none;stroke-opacity:1;paint-order:fill markers stroke"
         x="211.66666"
         y="139.0285"
         id="text1-6-1"><tspan
           sodipodi:role="line"
           id="tspan1-0-8"
           x="211.66666"
           y="139.0285">username</tspan></text></g><g
       id="g1"
       transform="matrix(10.910203,0,0,10.910203,112.71838,-10.694882)"><circle
         style="fill:#33c255;fill-opacity:1;stroke-width:2.11955;stroke-linecap:round;stroke-linejoin:round;paint-order:stroke fill markers"
         id="path1"
         cx="8"
         cy="5"
         r="2.9999998" /><path
         style="fill:#33c255;fill-opacity:1;stroke-width:3.53258;stroke-linecap:round;stroke-linejoin:round;paint-order:stroke fill markers"
         id="path1-3"
         sodipodi:type="arc"
         sodipodi:cx="-8"
         sodipodi:cy="-14"
         sodipodi:rx="5"
         sodipodi:ry="5"
         sodipodi:start="0"
         sodipodi:end="3.1415927"
         sodipodi:arc-type="slice"
         d="M -3,-14 A 5,5 0 0 1 -5.5000001,-9.6698729 5,5 0 0 1 -10.5,-9.6698731 5,5 0 0 1 -13,-14 h 5 z"
         transform="scale(-1)" /></g><g
       id="path2"><g
         id="g7"><path
           style="color:#000000;fill:#33c255;stroke-linecap:round;-inkscape-stroke:none"
           d="m 189.03906,221.49805 a 1.826985,1.826985 0 0 0 -1.29297,0.53515 1.826985,1.826985 0 0 0 0,2.58399 L 200,236.87109 l 12.25391,-12.2539 a 1.826985,1.826985 0 0 0 0,-2.58399 1.826985,1.826985 0 0 0 -2.58399,0 L 200,231.70508 190.33008,222.0332 a 1.826985,1.826985 0 0 0 -1.29102,-0.53515 z"
           id="path7" /></g><path
         style="color:#000000;fill:#33c255;stroke-linecap:round;stroke-linejoin:round;-inkscape-stroke:none;paint-order:fill markers stroke"
         d="m 200,161.42578 a 1.826985,1.826985 0 0 0 -1.82617,1.82617 V 233.375 A 1.826985,1.826985 0 0 0 200,235.20117 1.826985,1.826985 0 0 0 201.82617,233.375 V 163.25195 A 1.826985,1.826985 0 0 0 200,161.42578 Z"
         id="path8" /></g></g></svg>
