<?xml version="1.0" encoding="UTF-8" standalone="no"?>
<!-- Created with Inkscape (http://www.inkscape.org/) -->

<svg
   width="384"
   height="440"
   viewBox="0 0 384 440"
   version="1.1"
   id="svg1"
   inkscape:version="1.3 (1:1.3+202307231459+0e150ed6c4)"
   sodipodi:docname="shell_mondot_communication_1.svg"
   xml:space="preserve"
   xmlns:inkscape="http://www.inkscape.org/namespaces/inkscape"
   xmlns:sodipodi="http://sodipodi.sourceforge.net/DTD/sodipodi-0.dtd"
   xmlns:xlink="http://www.w3.org/1999/xlink"
   xmlns="http://www.w3.org/2000/svg"
   xmlns:svg="http://www.w3.org/2000/svg"><sodipodi:namedview
     id="namedview1"
     pagecolor="#ffffff"
     bordercolor="#111111"
     borderopacity="1"
     inkscape:showpageshadow="false"
     inkscape:pageopacity="0"
     inkscape:pagecheckerboard="1"
     inkscape:deskcolor="#afafaf"
     inkscape:document-units="px"
     showgrid="true"
     labelstyle="default"
     inkscape:zoom="1.4538721"
     inkscape:cx="181.92797"
     inkscape:cy="275.81519"
     inkscape:window-width="1920"
     inkscape:window-height="1016"
     inkscape:window-x="1920"
     inkscape:window-y="27"
     inkscape:window-maximized="1"
     inkscape:current-layer="layer1"><inkscape:grid
       id="grid1"
       units="px"
       originx="0"
       originy="0"
       spacingx="1"
       spacingy="1"
       empcolor="#0099e5"
       empopacity="0.30196078"
       color="#0099e5"
       opacity="0.14901961"
       empspacing="8"
       dotted="false"
       gridanglex="30"
       gridanglez="30"
       visible="true" /></sodipodi:namedview><defs
     id="defs1"><linearGradient
       id="a"
       x1="-133.26801"
       y1="-202.91"
       x2="-133.198"
       y2="-202.84"
       gradientTransform="matrix(189.38,0,0,189.81,25243.061,38519.17)"
       gradientUnits="userSpaceOnUse"><stop
         offset="0"
         stop-color="#387eb8"
         id="stop1" /><stop
         offset="1"
         stop-color="#366994"
         id="stop2" /></linearGradient><linearGradient
       id="b"
       x1="-133.575"
       y1="-203.203"
       x2="-133.495"
       y2="-203.133"
       gradientTransform="matrix(189.38,0,0,189.81,25309.061,38583.42)"
       gradientUnits="userSpaceOnUse"><stop
         offset="0"
         stop-color="#ffe052"
         id="stop3" /><stop
         offset="1"
         stop-color="#ffc331"
         id="stop4" /></linearGradient><linearGradient
       id="a-6"
       x1="-133.26801"
       y1="-202.91"
       x2="-133.198"
       y2="-202.84"
       gradientTransform="matrix(189.38,0,0,189.81,25243.061,38519.17)"
       gradientUnits="userSpaceOnUse"><stop
         offset="0"
         stop-color="#387eb8"
         id="stop1-9" /><stop
         offset="1"
         stop-color="#366994"
         id="stop2-3" /></linearGradient><linearGradient
       id="b-7"
       x1="-133.575"
       y1="-203.203"
       x2="-133.495"
       y2="-203.133"
       gradientTransform="matrix(189.38,0,0,189.81,25309.061,38583.42)"
       gradientUnits="userSpaceOnUse"><stop
         offset="0"
         stop-color="#ffe052"
         id="stop3-4" /><stop
         offset="1"
         stop-color="#ffc331"
         id="stop4-5" /></linearGradient><linearGradient
       id="linearGradient8385"><stop
         offset="0"
         id="stop1-7" /><stop
         stop-color="#fff"
         offset="1"
         id="stop2-2" /></linearGradient><linearGradient
       id="linearGradient3002"
       x1="-553.27002"
       x2="-666.12"
       y1="525.90997"
       y2="413.04999"
       gradientTransform="matrix(0.99884,0,0,0.9987,689.01,-388.84)"
       gradientUnits="userSpaceOnUse"
       xlink:href="#linearGradient8385" /><linearGradient
       id="linearGradient3005"
       x1="-666.12"
       x2="-553.27002"
       y1="413.04001"
       y2="525.90997"
       gradientTransform="matrix(0.99884,0,0,0.9987,689.01,-388.84)"
       gradientUnits="userSpaceOnUse"
       xlink:href="#linearGradient8385" /></defs><g
     inkscape:label="Layer 1"
     inkscape:groupmode="layer"
     id="layer1"><g
       id="g5"
       transform="translate(0,56)"><path
         style="fill:#3ecc5f;fill-opacity:1;stroke:#3ecc5f;stroke-width:4.53115;stroke-linecap:round;stroke-linejoin:round;stroke-dasharray:none;stroke-opacity:1"
         d="m 204,257 c 0,31.76112 0,32 0,32 z"
         id="path1-2" /><path
         sodipodi:type="star"
         style="fill:#3ecc5f;stroke:#3ecc5f;stroke-width:8;stroke-linecap:round;stroke-linejoin:round"
         id="path2-9"
         inkscape:flatsided="true"
         sodipodi:sides="3"
         sodipodi:cx="212.29822"
         sodipodi:cy="73.948601"
         sodipodi:r1="8.3193407"
         sodipodi:r2="4.1596704"
         sodipodi:arg1="2.0943951"
         sodipodi:arg2="3.1415927"
         inkscape:rounded="0"
         inkscape:randomized="0"
         d="m 208.13855,81.153361 0,-14.409521 12.47901,7.204761 z"
         inkscape:transform-center-x="1.1171561"
         transform="matrix(0,-0.53714004,-0.53714004,0,243.73912,367.65099)" /></g><text
       xml:space="preserve"
       style="font-weight:bold;font-size:21.3333px;line-height:1;font-family:Manjari;-inkscape-font-specification:'Manjari Bold';text-align:center;text-anchor:middle;fill:#3ecc5f;fill-opacity:1;stroke:none;stroke-width:8;stroke-linecap:round;stroke-linejoin:round"
       x="204.98434"
       y="207.95837"
       id="text4-2"><tspan
         sodipodi:role="line"
         id="tspan4-8"
         x="204.98434"
         y="207.95837">xxxxx_out_0</tspan></text><path
       id="path5"
       style="fill:#3ecc5f;fill-opacity:1;stroke:none;stroke-width:9.80337;stroke-linecap:round;stroke-linejoin:round"
       d="m 188,96 a 11.999997,24.000002 0 0 0 -12,24 11.999997,24.000002 0 0 0 11.47852,23.93164 A 3.9999993,8.000001 0 0 1 184,136 a 3.9999993,8.000001 0 0 1 4,-8 3.9999993,8.000001 0 0 1 4,8 3.9999993,8.000001 0 0 1 -3.47852,7.93164 A 11.999997,24.000002 0 0 0 200,120 11.999997,24.000002 0 0 0 188,96 Z" /><path
       id="path5-1"
       style="fill:#3ecc5f;fill-opacity:1;stroke:none;stroke-width:9.80337;stroke-linecap:round;stroke-linejoin:round"
       d="m 220,96 a 11.999997,24.000002 0 0 0 -12,24 11.999997,24.000002 0 0 0 11.47852,23.93164 A 3.9999993,8.000001 0 0 1 216,136 a 3.9999993,8.000001 0 0 1 4,-8 3.9999993,8.000001 0 0 1 4,8 3.9999993,8.000001 0 0 1 -3.47852,7.93164 A 11.999997,24.000002 0 0 0 232,120 11.999997,24.000002 0 0 0 220,96 Z" /><g
       id="g2"
       transform="translate(-120)"><path
         id="rect2-4"
         style="fill:#3ecc5f;stroke-width:3.67527;-inkscape-stroke:none"
         d="M 266.69922,8 C 265.20391,8 264,9.2039053 264,10.699219 v 74.705078 c 0,1.495309 1.20391,2.699219 2.69922,2.699219 h 106.60156 c 1.49532,0 2.69922,-1.20391 2.69922,-2.699219 V 10.699219 C 376,9.2039053 374.7961,8 373.30078,8 Z m 88.55469,1 h 7.49218 C 362.88636,9 363,9.1136359 363,9.2539062 V 16.746094 C 363,16.886365 362.88636,17 362.74609,17 h -7.49218 C 355.11363,17 355,16.886365 355,16.746094 V 9.2539062 C 355,9.1136359 355.11363,9 355.25391,9 Z m 11.625,0.5683594 c 0.0647,0 0.13009,0.024626 0.17968,0.074219 L 369,11.583984 370.94141,9.6425781 c 0.0992,-0.099186 0.26018,-0.099186 0.35937,0 l 1.05664,1.0566409 c 0.0992,0.09919 0.0992,0.260188 0,0.359375 L 370.41602,13 l 1.9414,1.941406 c 0.0992,0.09919 0.0992,0.260189 0,0.359375 l -1.05664,1.056641 c -0.0992,0.09919 -0.26019,0.09919 -0.35937,0 L 369,14.416016 l -1.94141,1.941406 c -0.0992,0.09919 -0.26018,0.09919 -0.35937,0 l -1.05664,-1.056641 c -0.0992,-0.09919 -0.0992,-0.260188 0,-0.359375 L 367.58398,13 l -1.9414,-1.941406 c -0.0992,-0.09919 -0.0992,-0.260189 0,-0.359375 l 1.05664,-1.0566409 c 0.0496,-0.049593 0.11496,-0.074219 0.17969,-0.074219 z M 345.25391,15 h 7.49218 C 352.88636,15 353,15.113635 353,15.253906 v 1.492188 C 353,16.886365 352.88636,17 352.74609,17 h -7.49218 C 345.11363,17 345,16.886365 345,16.746094 V 15.253906 C 345,15.113635 345.11363,15 345.25391,15 Z m -78.34375,2.871094 H 373.08984 V 86.128906 H 266.91016 Z" /><rect
         style="fill:#3ecc5f;fill-opacity:1;stroke-width:0.790927;-inkscape-stroke:none"
         id="rect3-7"
         width="6"
         height="6"
         x="356"
         y="10"
         ry="0.12251627" /><rect
         style="fill:#3ecc5f;stroke-width:4.33073;stroke-linecap:round;stroke-linejoin:round"
         id="rect1-4"
         width="84"
         height="44"
         x="288"
         y="20"
         rx="0"
         ry="0" /><rect
         style="fill:#3ecc5f;stroke-width:2.66626;stroke-linecap:round;stroke-linejoin:round"
         id="rect1-5-4"
         width="84"
         height="16.677698"
         x="288"
         y="67.322304"
         rx="0"
         ry="0" /><rect
         style="fill:#3ecc5f;stroke-width:2.41781;stroke-linecap:round;stroke-linejoin:round"
         id="rect1-5-2-3"
         width="18"
         height="64"
         x="268"
         y="20"
         rx="0"
         ry="0" /></g><g
       inkscape:label="Layer 1"
       id="layer1-0-0"
       transform="translate(136,344)"><path
         id="rect2-9-7"
         style="fill:#3ecc5f;stroke-width:3.67527;-inkscape-stroke:none"
         d="M 10.699219,8 C 9.2039053,8 8,9.2039053 8,10.699219 v 74.705078 c 0,1.495309 1.2039053,2.699219 2.699219,2.699219 H 117.30078 c 1.49532,0 2.69922,-1.20391 2.69922,-2.699219 V 10.699219 C 120,9.2039053 118.7961,8 117.30078,8 Z m 88.554687,1 h 7.492184 C 106.88636,9 107,9.1136359 107,9.2539062 V 16.746094 C 107,16.886365 106.88636,17 106.74609,17 H 99.253906 C 99.113635,17 99,16.886365 99,16.746094 V 9.2539062 C 99,9.1136359 99.113635,9 99.253906,9 Z m 11.625004,0.5683594 c 0.0647,0 0.13009,0.024626 0.17968,0.074219 L 113,11.583984 114.94141,9.6425781 c 0.0992,-0.099186 0.26018,-0.099186 0.35937,0 l 1.05664,1.0566409 c 0.0992,0.09919 0.0992,0.260188 0,0.359375 L 114.41602,13 l 1.9414,1.941406 c 0.0992,0.09919 0.0992,0.260189 0,0.359375 l -1.05664,1.056641 c -0.0992,0.09919 -0.26019,0.09919 -0.35937,0 L 113,14.416016 l -1.94141,1.941406 c -0.0992,0.09919 -0.26018,0.09919 -0.35937,0 l -1.05664,-1.056641 c -0.0992,-0.09919 -0.0992,-0.260188 0,-0.359375 L 111.58398,13 l -1.9414,-1.941406 c -0.0992,-0.09919 -0.0992,-0.260189 0,-0.359375 l 1.05664,-1.0566409 c 0.0496,-0.049593 0.11496,-0.074219 0.17969,-0.074219 z M 89.253906,15 h 7.492188 C 96.886365,15 97,15.113635 97,15.253906 v 1.492188 C 97,16.886365 96.886365,17 96.746094,17 H 89.253906 C 89.113635,17 89,16.886365 89,16.746094 V 15.253906 C 89,15.113635 89.113635,15 89.253906,15 Z m -78.34375,2.871094 H 117.08984 V 86.128906 H 10.910156 Z" /><rect
         style="fill:#3ecc5f;fill-opacity:1;stroke-width:0.790927;-inkscape-stroke:none"
         id="rect3-3-8"
         width="6"
         height="6"
         x="100"
         y="10"
         ry="0.12251627" /><text
         xml:space="preserve"
         style="font-weight:bold;font-size:21.3333px;line-height:1;font-family:Manjari;-inkscape-font-specification:'Manjari Bold';text-align:center;text-anchor:middle;fill:#3ecc5f;fill-opacity:1;stroke:none;stroke-width:4;stroke-linecap:round;stroke-linejoin:round"
         x="25"
         y="31"
         id="text1-6"><tspan
           sodipodi:role="line"
           id="tspan1-8"
           x="25"
           y="31">&gt;_</tspan></text></g><path
       id="rect4-2"
       style="fill:#3ecc5f;fill-opacity:1;stroke:none;stroke-width:7.10056;stroke-linecap:round;stroke-linejoin:round"
       d="m 176,216 v 80 h 56 V 231.36133 H 216 V 216 Z m 11.20312,19.82227 c 0.53125,0 0.92709,0.42773 0.9375,0.92773 l 0.0195,0.60352 v 0.15625 c 0,0.46874 -0.55209,0.80273 -0.9375,0.80273 -0.53125,0 -0.92709,-0.42774 -0.9375,-0.92773 l -0.0195,-0.59375 v -0.15625 c 0,-0.46875 0.54167,-0.8125 0.9375,-0.8125 z m 8.35352,3.74023 c 1.97916,0 3.71875,0.9375 4.5,2.40625 0.0729,0.125 0.125,0.35417 0.125,0.5 0,0.57292 -0.4681,1.04102 -1.04102,1.04102 -0.35416,0 -0.77148,-0.25977 -0.92773,-0.57227 -0.45833,-0.85416 -1.4056,-1.29102 -2.66601,-1.29102 -1.10417,0 -2.96876,0.39454 -2.96876,1.48829 0,1.07291 2.66602,1.16666 3.72852,1.28125 2.04166,0.21875 4.25977,0.77084 4.25977,3.125 0,2.52082 -2.50001,3.63671 -4.96875,3.63671 -2.26041,0 -4.25912,-0.91797 -5.14454,-2.63671 -0.0625,-0.125 -0.125,-0.34245 -0.125,-0.48829 0,-0.57291 0.46811,-1.04296 1.04102,-1.04296 0.35417,0 0.78125,0.26106 0.9375,0.58398 0.54167,1.05208 1.70834,1.5 3.28125,1.5 1.23958,0 2.89649,-0.375 2.89649,-1.5625 0,-0.91666 -1.43816,-0.93685 -2.39649,-1.04102 -2.43749,-0.26041 -5.59375,-0.5638 -5.59375,-3.35546 0,-2.51041 2.72917,-3.57227 5.0625,-3.57227 z m 20.39648,0 c 0.57292,0 0.85352,0.47852 1.00977,1.04102 l 0.17773,0.625 c 0.75,-0.72917 1.77996,-1.63477 3.17579,-1.63477 1.82291,0 3.03255,1.125 3.60547,2.40625 0.44791,1.01041 0.46874,2.03125 0.46874,2.90625 v 5.25977 c 0,0.57291 -0.47005,1.04296 -1.04296,1.04296 -0.57292,0 -1.04102,-0.47005 -1.04102,-1.04296 v -5.25977 c 0,-0.8125 -0.0514,-1.52149 -0.29102,-2.05273 -0.27083,-0.61459 -0.82356,-1.17579 -1.67773,-1.17579 -2.05208,0 -3.19792,1.68686 -3.1875,4.35352 l 0.01,4.15625 c 0,0.57292 -0.4681,1.04102 -1.04102,1.04102 -0.58333,0 -1.04102,-0.46745 -1.04102,-1.05079 l -0.0215,-9.57421 c 0,-0.57292 0.32357,-1.04102 0.89648,-1.04102 z m -8.11523,0.0215 c 3.18749,0 5.71875,2.66538 5.71875,5.83204 0,3.12499 -2.57292,5.77148 -5.71875,5.77148 -3.12499,0 -5.70898,-2.58399 -5.70898,-5.77148 0,-3.15625 2.57357,-5.83204 5.70898,-5.83204 z m -20.66601,0.01 c 0.45833,0 1.08203,0.2819 1.08203,0.86523 l 0.043,10.25 c 0,2.77083 -1.1784,5.29102 -4.13672,5.29102 -0.46875,0 -0.96745,-0.0827 -1.45704,-0.29102 -0.40624,-0.16666 -0.61523,-0.53125 -0.61523,-1 0,-0.44791 0.4681,-0.90625 0.91602,-0.90625 0.17708,0 0.33333,0.0195 0.46875,0.082 0.27083,0.11458 0.5013,0.15625 0.73046,0.15625 1.61458,0 2.11329,-1.55079 2.11329,-3.51954 l -0.041,-10.09375 c 0,-0.41666 0.51107,-0.83398 0.89649,-0.83398 z m 20.66601,2.09375 c -2.06249,0 -3.60351,1.71876 -3.60351,3.75 0,2.02083 1.64453,3.64648 3.61328,3.64648 1.99999,0 3.60546,-1.6888 3.60546,-3.66796 0,-2.02083 -1.57357,-3.72852 -3.61523,-3.72852 z" /><path
       id="path4-36-3"
       style="fill:#3ecc5f;fill-opacity:1;stroke-width:7.94531;stroke-linecap:round;stroke-linejoin:round"
       d="m 218,230 v -14 l 14,14 z"
       sodipodi:nodetypes="cccc"
       inkscape:transform-center-y="-2.23698" /><g
       fill-rule="evenodd"
       id="g3"
       transform="matrix(0.15,0,0,0.14999985,192,264.00002)"><path
         d="m 79.865,119.1 c 35.398,48.255 70.04,-13.469 69.989,-50.587 C 149.7938,24.627 105.313,0.099 79.836,0.099 38.944,0.099 0,33.895 0,80.135 0,131.531 44.64,160 79.836,160 71.8715,158.8532 45.33,153.166 44.973,92.033 44.73313,50.686 58.461,34.167 79.778,41.434 c 0.47743,0.17707 23.514,9.2645 23.514,38.951 0,29.56 -23.427,38.715 -23.427,38.715 z"
         color="#000000"
         fill="url(#linearGradient3005)"
         id="path2-2"
         style="fill:url(#linearGradient3005)" /><path
         d="M 79.823,41.401 C 56.433,33.3391 27.78,52.617 27.78,91.23 27.78,154.278 74.501,160 80.164,160 121.056,160 160,126.204 160,79.964 160,28.568 115.36,0.099 80.164,0.099 c 9.7481,-1.35 52.541,10.55 52.541,69.037 0,38.141 -31.953,58.905 -52.735,50.033 -0.47743,-0.17707 -23.514,-9.2645 -23.514,-38.951 0,-29.56 23.367,-38.818 23.367,-38.818 z"
         color="#000000"
         fill="url(#linearGradient3002)"
         id="path3"
         style="fill:url(#linearGradient3002)" /></g><text
       xml:space="preserve"
       style="font-weight:bold;font-size:48px;line-height:1;font-family:Manjari;-inkscape-font-specification:'Manjari Bold';text-align:center;text-anchor:middle;fill:#3ecc5f;fill-opacity:1;stroke-width:8;stroke-linecap:round;stroke-linejoin:round"
       x="32"
       y="40"
       id="text2-3"><tspan
         sodipodi:role="line"
         id="tspan2-5"
         x="32"
         y="40">(2)</tspan></text></g></svg>
