<?xml version="1.0"?>
<svg xmlns="http://www.w3.org/2000/svg" viewBox="0 0 50 50">
    <path d="M 43.1875 0.1875 L 41.8125 1.6875 L 38.5 5.3125 C 37.7 5.1125 36.9 5 36 5 L 11 5 C 6 5 2 9 2 14 L 2 39 C 2 44 6 48 11 48 L 36 48 C 41 48 45 44 45 39 L 45 14 C 45 13.3 44.9125 12.60625 44.8125 11.90625 L 48.59375 7.8125 L 49.90625 6.3125 L 48.40625 5 L 44.6875 1.59375 L 43.1875 0.1875 z M 43.40625 3.1875 L 47 6.5 L 44 9.8125 L 29.59375 25.59375 L 18.3125 14.8125 L 21.6875 11.1875 L 29.40625 18.5 L 43.40625 3.1875 z M 13.3125 22.5 C 17.1125 22.5 19.9 24.7125 20 27.8125 L 17.1875 27.8125 C 16.8875 26.1125 15.3875 25 13.1875 25 C 10.8875 25 9.40625 26.1125 9.40625 27.8125 C 9.40625 29.1125 10.4125 29.9 12.8125 30.5 L 14.90625 31 C 18.70625 31.9 20.3125 33.5125 20.3125 36.3125 C 20.3125 39.8125 17.49375 42 13.09375 42 C 8.99375 42 6.2 39.9 6 36.5 L 8.90625 36.5 C 9.10625 38.3 10.90625 39.40625 13.40625 39.40625 C 15.70625 39.40625 17.40625 38.2 17.40625 36.5 C 17.40625 35.1 16.30625 34.19375 13.90625 33.59375 L 11.5 33 C 8 32.3 6.5 30.7 6.5 28 C 6.5 24.7 9.2125 22.5 13.3125 22.5 z M 29.59375 27.40625 C 33.49375 27.40625 35.90625 30.1 35.90625 34.5 L 35.90625 35.5 L 25.90625 35.5 L 25.90625 35.6875 C 26.00625 38.1875 27.3875 39.6875 29.6875 39.6875 C 31.3875 39.6875 32.5 39.1 33 38 L 35.6875 38 C 35.0875 40.5 32.79375 42.09375 29.59375 42.09375 C 25.59375 42.09375 23.09375 39.3125 23.09375 34.8125 C 23.09375 30.3125 25.59375 27.40625 29.59375 27.40625 z M 29.59375 29.6875 C 27.49375 29.6875 26.10625 31.20625 25.90625 33.40625 L 33 33.40625 C 33 31.20625 31.59375 29.6875 29.59375 29.6875 z"/>
</svg>
