<?xml version="1.0" encoding="UTF-8" standalone="no"?>
<!-- Created with Inkscape (http://www.inkscape.org/) -->

<svg
   width="400"
   height="400"
   viewBox="0 0 400 400"
   version="1.1"
   id="svg1"
   inkscape:version="1.3.2 (1:1.3.2+202311252150+091e20ef0f)"
   sodipodi:docname="username_password.svg"
   xmlns:inkscape="http://www.inkscape.org/namespaces/inkscape"
   xmlns:sodipodi="http://sodipodi.sourceforge.net/DTD/sodipodi-0.dtd"
   xmlns="http://www.w3.org/2000/svg"
   xmlns:svg="http://www.w3.org/2000/svg">
  <sodipodi:namedview
     id="namedview1"
     pagecolor="#ffffff"
     bordercolor="#000000"
     borderopacity="0.25"
     inkscape:showpageshadow="2"
     inkscape:pageopacity="0.0"
     inkscape:pagecheckerboard="true"
     inkscape:deskcolor="#d1d1d1"
     inkscape:document-units="px"
     showgrid="true"
     inkscape:zoom="1.42"
     inkscape:cx="80.28169"
     inkscape:cy="217.95775"
     inkscape:window-width="1920"
     inkscape:window-height="1011"
     inkscape:window-x="1920"
     inkscape:window-y="32"
     inkscape:window-maximized="1"
     inkscape:current-layer="layer1">
    <inkscape:grid
       id="grid1"
       units="px"
       originx="0"
       originy="0"
       spacingx="0.26458333"
       spacingy="0.26458333"
       empcolor="#0099e5"
       empopacity="0.30196078"
       color="#0099e5"
       opacity="0.14901961"
       empspacing="5"
       dotted="false"
       gridanglex="30"
       gridanglez="30"
       visible="true" />
  </sodipodi:namedview>
  <defs
     id="defs1" />
  <g
     inkscape:label="Layer 1"
     inkscape:groupmode="layer"
     id="layer1">
    <path
       id="rect1"
       style="fill:#33c255;fill-opacity:1;stroke:none;stroke-width:1;stroke-linecap:round;stroke-linejoin:round;stroke-dasharray:none;stroke-opacity:1;paint-order:fill markers stroke"
       d="M 132.29102 222.25 C 126.42786 222.25 121.70898 226.97082 121.70898 232.83398 L 121.70898 259.29102 C 121.70898 265.15418 126.42786 269.875 132.29102 269.875 L 264.58398 269.875 C 270.44714 269.875 275.16602 265.15418 275.16602 259.29102 L 275.16602 232.83398 C 275.16602 226.97082 270.44714 222.25 264.58398 222.25 L 132.29102 222.25 z M 157.51953 233.27344 L 164.84766 233.27344 L 164.84766 251.54492 C 164.84766 252.73959 164.94472 253.66875 165.13672 254.33008 C 165.35005 254.97008 165.65912 255.41783 166.06445 255.67383 C 166.46979 255.90849 166.99281 256.02539 167.63281 256.02539 C 168.29415 256.02539 168.91228 255.95011 169.48828 255.80078 C 170.08561 255.65145 170.58685 255.47115 170.99219 255.25781 L 171.34375 257.43359 C 171.04508 257.60426 170.53393 257.79643 169.80859 258.00977 C 169.08326 258.2231 168.35815 258.33008 167.63281 258.33008 C 166.22481 258.33008 165.14706 258.08442 164.40039 257.59375 C 163.65372 257.08175 163.1307 256.33485 162.83203 255.35352 C 162.5547 254.37218 162.41602 253.13396 162.41602 251.64062 L 162.41602 235.44922 L 157.51953 235.44922 L 157.51953 233.27344 z M 216.6875 234.10547 C 217.30617 234.10547 217.81928 234.30756 218.22461 234.71289 C 218.62994 235.11822 218.83203 235.67295 218.83203 236.37695 C 218.83203 237.05962 218.62994 237.61435 218.22461 238.04102 C 217.81928 238.44635 217.30617 238.64844 216.6875 238.64844 C 216.09017 238.64844 215.57901 238.44635 215.15234 238.04102 C 214.72568 237.61435 214.51172 237.05962 214.51172 236.37695 C 214.51172 235.67295 214.72568 235.11822 215.15234 234.71289 C 215.57901 234.30756 216.09017 234.10547 216.6875 234.10547 z M 182.22461 240.98438 C 183.67527 240.98438 184.95512 241.34693 186.06445 242.07227 C 187.19512 242.7976 188.0807 243.81195 188.7207 245.11328 C 189.3607 246.39328 189.67969 247.90692 189.67969 249.65625 C 189.67969 251.40558 189.3607 252.93109 188.7207 254.23242 C 188.0807 255.51242 187.19512 256.5149 186.06445 257.24023 C 184.95512 257.94423 183.67527 258.29688 182.22461 258.29688 C 180.81661 258.29688 179.5566 257.94423 178.44727 257.24023 C 177.35927 256.5149 176.49547 255.51242 175.85547 254.23242 C 175.21547 252.93109 174.89648 251.40558 174.89648 249.65625 C 174.89648 247.90692 175.20555 246.39328 175.82422 245.11328 C 176.46422 243.81195 177.33793 242.7976 178.44727 242.07227 C 179.5566 241.34693 180.81661 240.98437 182.22461 240.98438 z M 200.24023 240.98438 C 201.77623 240.98438 203.066 241.09135 204.11133 241.30469 C 205.15666 241.51802 205.95705 241.71019 206.51172 241.88086 L 206.51172 256.88867 C 206.51172 259.406 205.86188 261.20888 204.56055 262.29688 C 203.28055 263.40621 201.3707 263.96094 198.83203 263.96094 C 197.7867 263.96094 196.82584 263.87574 195.95117 263.70508 C 195.09784 263.55574 194.38459 263.37544 193.80859 263.16211 L 194.22461 260.92188 C 194.84328 261.17787 195.5466 261.37996 196.33594 261.5293 C 197.1466 261.67863 198.00049 261.75391 198.89648 261.75391 C 200.06982 261.75391 201.02872 261.59344 201.77539 261.27344 C 202.54339 260.97477 203.10999 260.47353 203.47266 259.76953 C 203.83532 259.08687 204.01562 258.17949 204.01562 257.04883 L 204.01562 256.50586 C 203.75963 256.65519 203.24847 256.85728 202.48047 257.11328 C 201.7338 257.36928 200.85813 257.49805 199.85547 257.49805 C 198.61814 257.49805 197.45519 257.22068 196.36719 256.66602 C 195.27919 256.09002 194.40547 255.20443 193.74414 254.00977 C 193.08281 252.79377 192.75195 251.24647 192.75195 249.36914 C 192.75195 247.83314 193.03923 246.4364 193.61523 245.17773 C 194.19123 243.89774 195.0352 242.88338 196.14453 242.13672 C 197.2752 241.36872 198.64024 240.98438 200.24023 240.98438 z M 235.75977 241.01758 C 237.14643 241.01758 238.34108 241.25137 239.34375 241.7207 C 240.34642 242.1687 241.1151 242.91561 241.64844 243.96094 C 242.2031 244.98494 242.48047 246.37176 242.48047 248.12109 L 242.48047 257.94531 L 239.98438 257.94531 L 239.98438 248.63281 C 239.98438 247.09681 239.7922 245.95565 239.4082 245.20898 C 239.0242 244.44099 238.50118 243.92983 237.83984 243.67383 C 237.19984 243.41783 236.47473 243.28906 235.66406 243.28906 C 235.13073 243.28906 234.56608 243.32077 233.96875 243.38477 C 233.37142 243.44877 232.7949 243.53396 232.24023 243.64062 L 232.24023 257.94531 L 229.74414 257.94531 L 229.74414 241.81641 C 230.87481 241.51774 231.96248 241.31565 233.00781 241.20898 C 234.05314 241.08098 234.97043 241.01758 235.75977 241.01758 z M 211.2793 241.36914 L 218.60742 241.36914 L 218.60742 251.54492 C 218.60742 252.76092 218.7144 253.7 218.92773 254.36133 C 219.1624 255.00133 219.49326 255.43916 219.91992 255.67383 C 220.36792 255.90849 220.89095 256.02539 221.48828 256.02539 C 222.25628 256.02539 222.92791 255.92833 223.50391 255.73633 C 224.10124 255.54433 224.51729 255.38581 224.75195 255.25781 L 225.10352 257.43359 C 225.06085 257.47626 224.85876 257.57137 224.49609 257.7207 C 224.15476 257.87004 223.70701 258.00872 223.15234 258.13672 C 222.61901 258.26472 222.03258 258.33008 221.39258 258.33008 C 220.02725 258.33008 218.95941 258.08442 218.19141 257.59375 C 217.44474 257.10308 216.92171 256.37797 216.62305 255.41797 C 216.32438 254.43664 216.17578 253.19841 216.17578 251.70508 L 216.17578 243.51367 L 211.2793 243.51367 L 211.2793 241.36914 z M 182.22461 243.25781 C 180.81661 243.25781 179.67545 243.83238 178.80078 244.98438 C 177.92612 246.11504 177.48828 247.67225 177.48828 249.65625 C 177.48828 251.64025 177.93603 253.19941 178.83203 254.33008 C 179.72803 255.43941 180.86919 255.99219 182.25586 255.99219 C 183.70652 255.99219 184.86947 255.43941 185.74414 254.33008 C 186.64014 253.19941 187.08789 251.64025 187.08789 249.65625 C 187.08789 247.67225 186.64014 246.11504 185.74414 244.98438 C 184.84814 243.83238 183.67527 243.25781 182.22461 243.25781 z M 200.33594 243.32031 C 198.75727 243.32031 197.53092 243.88691 196.65625 245.01758 C 195.80292 246.14824 195.37695 247.60839 195.37695 249.40039 C 195.37695 250.76572 195.60083 251.87518 196.04883 252.72852 C 196.49683 253.58185 197.06147 254.20194 197.74414 254.58594 C 198.44814 254.96994 199.17326 255.16211 199.91992 255.16211 C 200.73059 255.16211 201.50919 255.04326 202.25586 254.80859 C 203.00253 254.57393 203.58896 254.29656 204.01562 253.97656 L 204.01562 243.76953 C 203.73829 243.66286 203.30046 243.5658 202.70312 243.48047 C 202.12713 243.3738 201.3386 243.32031 200.33594 243.32031 z " />
    <rect
       style="fill:none;fill-opacity:1;stroke:#33c255;stroke-width:5.60245;stroke-linecap:round;stroke-linejoin:round;stroke-dasharray:none;stroke-opacity:1;paint-order:fill markers stroke"
       id="rect1-2"
       width="192.66658"
       height="47.624996"
       x="103.66672"
       y="164.04166"
       rx="15.875001"
       ry="15.875001" />
    <rect
       style="fill:none;fill-opacity:1;stroke:#33c255;stroke-width:5.60245;stroke-linecap:round;stroke-linejoin:round;stroke-dasharray:none;stroke-opacity:1;paint-order:fill markers stroke"
       id="rect1-2-7"
       width="192.66658"
       height="47.624996"
       x="103.66672"
       y="103.33333"
       rx="13.083332"
       ry="13.083332" />
    <text
       xml:space="preserve"
       style="font-size:32px;font-family:'Ubuntu Mono';-inkscape-font-specification:'Ubuntu Mono';fill:#33c255;fill-opacity:1;stroke:none;stroke-width:5;stroke-linecap:round;stroke-linejoin:round;stroke-dasharray:none;stroke-opacity:1;paint-order:fill markers stroke"
       x="128.28806"
       y="199.88744"
       id="text1-6"><tspan
         sodipodi:role="line"
         id="tspan1-0"
         x="128.28806"
         y="199.88744">password</tspan></text>
    <text
       xml:space="preserve"
       style="font-size:32px;font-family:'Ubuntu Mono';-inkscape-font-specification:'Ubuntu Mono';fill:#33c255;fill-opacity:1;stroke:none;stroke-width:5;stroke-linecap:round;stroke-linejoin:round;stroke-dasharray:none;stroke-opacity:1;paint-order:fill markers stroke"
       x="127.90406"
       y="139.0285"
       id="text1-6-1"><tspan
         sodipodi:role="line"
         id="tspan1-0-8"
         x="127.90406"
         y="139.0285">username</tspan></text>
  </g>
</svg>
