<?xml version="1.0" encoding="UTF-8" standalone="no"?>
<!-- Created with Inkscape (http://www.inkscape.org/) -->

<svg
   width="400"
   height="350"
   viewBox="0 0 400 350"
   version="1.1"
   id="svg1"
   inkscape:version="1.3.2 (1:1.3.2+202404261509+091e20ef0f)"
   sodipodi:docname="haha.svg"
   xmlns:inkscape="http://www.inkscape.org/namespaces/inkscape"
   xmlns:sodipodi="http://sodipodi.sourceforge.net/DTD/sodipodi-0.dtd"
   xmlns="http://www.w3.org/2000/svg"
   xmlns:svg="http://www.w3.org/2000/svg">
  <sodipodi:namedview
     id="namedview1"
     pagecolor="#ffffff"
     bordercolor="#000000"
     borderopacity="0.25"
     inkscape:showpageshadow="2"
     inkscape:pageopacity="0.0"
     inkscape:pagecheckerboard="true"
     inkscape:deskcolor="#d1d1d1"
     inkscape:document-units="px"
     showgrid="true"
     inkscape:zoom="2.8400001"
     inkscape:cx="190.3169"
     inkscape:cy="232.74647"
     inkscape:window-width="1920"
     inkscape:window-height="1011"
     inkscape:window-x="1920"
     inkscape:window-y="32"
     inkscape:window-maximized="1"
     inkscape:current-layer="layer1">
    <inkscape:grid
       id="grid1"
       units="px"
       originx="0"
       originy="0"
       spacingx="0.26458333"
       spacingy="0.26458333"
       empcolor="#0099e5"
       empopacity="0.30196078"
       color="#0099e5"
       opacity="0.14901961"
       empspacing="5"
       dotted="false"
       gridanglex="30"
       gridanglez="30"
       visible="true" />
  </sodipodi:namedview>
  <defs
     id="defs1" />
  <g
     inkscape:label="Layer 1"
     inkscape:groupmode="layer"
     id="layer1">
    <text
       xml:space="preserve"
       style="font-style:normal;font-variant:normal;font-weight:normal;font-stretch:normal;font-size:96px;font-family:'FiraCode Nerd Font';-inkscape-font-specification:'FiraCode Nerd Font';fill:#33c255;fill-opacity:1;stroke:none;stroke-opacity:1"
       x="74.083328"
       y="111.12499"
       id="text1"><tspan
         sodipodi:role="line"
         id="tspan1"
         x="74.083328"
         y="111.12499">HA</tspan></text>
    <path
       id="path1-2"
       style="fill:#33c255;fill-opacity:1;stroke:none;stroke-width:0.790888;stroke-opacity:1"
       d="m 234.74203,197.05384 a 64.540418,64.540418 0 0 0 61.75569,45.89932 64.540418,64.540418 0 0 0 61.75724,-45.89932 z" />
    <path
       id="path1-2-9"
       style="fill:#33c255;fill-opacity:1;stroke:none;stroke-width:0.790888;stroke-opacity:1"
       d="m 308.0717,89.784844 a 64.540418,64.540418 0 0 0 -52.82112,32.196246 64.540418,64.540418 0 0 0 -5.2211,12.02397 l 109.20434,63.04861 a 64.540418,64.540418 0 0 0 7.8023,-10.53333 64.540418,64.540418 0 0 0 -23.62315,-88.162396 64.540418,64.540418 0 0 0 -35.34127,-8.5731 z m -4.40703,13.686076 a 16.228384,16.228384 0 0 1 4.58622,0.54837 16.228384,16.228384 0 0 1 11.4756,19.87568 16.228384,16.228384 0 0 1 -19.8757,11.47407 16.228384,16.228384 0 0 1 -11.4756,-19.8757 16.228384,16.228384 0 0 1 15.28948,-12.02242 z m 42.26308,25.53085 a 16.228384,16.228384 0 0 1 4.58622,0.54837 16.228384,16.228384 0 0 1 11.47406,19.8757 16.228384,16.228384 0 0 1 -19.8757,11.47405 16.228384,16.228384 0 0 1 -11.47405,-19.8757 16.228384,16.228384 0 0 1 15.28947,-12.02242 z" />
    <circle
       style="fill:#33c255;fill-opacity:1;stroke:none;stroke-width:0.562376;stroke-opacity:1"
       id="path1-1"
       cx="378.89722"
       cy="54.156914"
       r="8.1868334"
       transform="rotate(15)" />
    <circle
       style="fill:#33c255;fill-opacity:1;stroke:none;stroke-width:0.562376;stroke-opacity:1"
       id="path1-1-4"
       cx="317.6857"
       cy="33.593746"
       r="8.1868334"
       transform="rotate(15)" />
    <rect
       style="fill:#33c255;stroke-width:0.845324"
       id="rect1"
       width="79.899612"
       height="117.59081"
       x="256.54868"
       y="252.62753"
       rx="27.912851"
       ry="27.912851" />
  </g>
</svg>
