<?xml version="1.0" encoding="UTF-8" standalone="no"?>
<!-- Created with Inkscape (http://www.inkscape.org/) -->

<svg
   width="128"
   height="192"
   viewBox="0 0 128 192"
   version="1.1"
   id="svg1"
   inkscape:version="1.3 (1:1.3+202307231459+0e150ed6c4)"
   sodipodi:docname="shell_python_code.svg"
   xmlns:inkscape="http://www.inkscape.org/namespaces/inkscape"
   xmlns:sodipodi="http://sodipodi.sourceforge.net/DTD/sodipodi-0.dtd"
   xmlns="http://www.w3.org/2000/svg"
   xmlns:svg="http://www.w3.org/2000/svg">
  <sodipodi:namedview
     id="namedview1"
     pagecolor="#ffffff"
     bordercolor="#111111"
     borderopacity="1"
     inkscape:showpageshadow="false"
     inkscape:pageopacity="0"
     inkscape:pagecheckerboard="1"
     inkscape:deskcolor="#afafaf"
     inkscape:document-units="px"
     showgrid="true"
     labelstyle="default"
     inkscape:zoom="2.907744"
     inkscape:cx="39.377606"
     inkscape:cy="103.17277"
     inkscape:window-width="1920"
     inkscape:window-height="1016"
     inkscape:window-x="1920"
     inkscape:window-y="27"
     inkscape:window-maximized="1"
     inkscape:current-layer="layer1">
    <inkscape:grid
       id="grid1"
       units="px"
       originx="0"
       originy="0"
       spacingx="1"
       spacingy="1"
       empcolor="#0099e5"
       empopacity="0.30196078"
       color="#0099e5"
       opacity="0.14901961"
       empspacing="8"
       dotted="false"
       gridanglex="30"
       gridanglez="30"
       visible="true" />
  </sodipodi:namedview>
  <defs
     id="defs1" />
  <g
     inkscape:label="Layer 1"
     inkscape:groupmode="layer"
     id="layer1">
    <path
       id="rect1"
       style="fill:#3ecc5f;stroke-width:8.49415;stroke-linecap:round;stroke-linejoin:round"
       d="M 16.734375 8 C 11.895943 8 8 11.895943 8 16.734375 L 8 175.26562 C 8 180.10407 11.895943 184 16.734375 184 L 111.26562 184 C 116.10407 184 120 180.10407 120 175.26562 L 120 136 L 111.57031 136 L 95.744141 136 L 48.429688 136 C 43.760022 136 40 132.23999 40 127.57031 L 40 64.429688 C 40 59.760022 43.760022 56 48.429688 56 L 94.744141 56 L 111.57031 56 L 120 56 L 120 16.734375 C 120 11.895943 116.10407 8 111.26562 8 L 16.734375 8 z M 46.65625 16 C 46.942709 16 47.177734 16.229817 47.177734 16.505859 L 47.177734 18.775391 C 47.44336 18.212889 48.016275 17.900391 48.490234 17.900391 C 50.125655 17.900391 50.833984 18.979163 50.833984 20.53125 L 50.833984 20.578125 L 50.828125 23.208984 L 50.828125 23.212891 C 50.828125 23.488933 50.5931 23.71875 50.306641 23.71875 C 50.020182 23.71875 49.787109 23.488933 49.787109 23.212891 L 49.787109 23.208984 L 49.791016 20.603516 L 49.791016 20.59375 C 49.791016 19.526039 49.516278 18.947266 48.490234 18.947266 C 47.620441 18.947266 47.1875 19.620441 47.1875 20.568359 L 47.1875 23.21875 C 47.1875 23.494792 46.952475 23.724609 46.666016 23.724609 C 46.363932 23.724609 46.134766 23.484376 46.134766 23.21875 L 46.134766 16.505859 C 46.134766 16.229817 46.364583 16 46.65625 16 z M 58.208984 16 C 58.542318 16 58.761068 16.266275 58.755859 16.521484 L 58.755859 23.228516 C 58.755859 23.504558 58.479167 23.693359 58.265625 23.693359 C 57.963541 23.693359 57.712891 23.479167 57.712891 23.171875 L 57.712891 16.521484 C 57.712891 16.255859 57.927734 16 58.208984 16 z M 60.240234 16 C 60.573568 16 60.792318 16.266275 60.787109 16.521484 L 60.787109 23.228516 C 60.787109 23.504558 60.510417 23.693359 60.296875 23.693359 C 59.994791 23.693359 59.744141 23.479167 59.744141 23.171875 L 59.744141 16.521484 C 59.744141 16.255859 59.958984 16 60.240234 16 z M 70.525391 17.865234 C 70.728516 17.865234 70.921875 18 71 18.171875 L 72.771484 22.197266 L 74.287109 18.208984 C 74.360026 18.021484 74.557942 17.880859 74.771484 17.880859 C 75.057943 17.880859 75.291016 18.113932 75.291016 18.400391 C 75.291016 18.468099 75.276042 18.546224 75.25 18.603516 L 73.333984 23.603516 C 73.318359 23.692057 73.275391 23.766276 73.244141 23.818359 L 72.953125 24.546875 C 72.807291 24.911459 72.629558 25.33789 72.275391 25.697266 C 71.936848 26.051433 71.421225 26.328125 70.884766 26.328125 C 70.593098 26.328125 70.365234 26.083334 70.365234 25.796875 C 70.365234 25.520833 70.582682 25.285807 70.853516 25.275391 C 71.462892 25.233724 71.750651 24.738934 71.990234 24.150391 L 72.240234 23.515625 L 70.052734 18.609375 C 70.021484 18.536458 70.005859 18.457682 70.005859 18.384766 C 70.005859 18.098307 70.238932 17.865234 70.525391 17.865234 z M 42.615234 17.884766 C 43.60482 17.884766 44.474609 18.353514 44.865234 19.087891 C 44.901693 19.150391 44.927734 19.264974 44.927734 19.337891 C 44.927734 19.62435 44.692709 19.859375 44.40625 19.859375 C 44.229166 19.859375 44.021485 19.728516 43.943359 19.572266 C 43.714192 19.145181 43.239585 18.927734 42.609375 18.927734 C 42.05729 18.927734 41.125 19.124999 41.125 19.671875 C 41.125 20.208334 42.458983 20.255208 42.990234 20.3125 C 44.01107 20.421875 45.119141 20.697914 45.119141 21.875 C 45.119141 23.135419 43.869143 23.693359 42.634766 23.693359 C 41.504555 23.693359 40.505209 23.234377 40.0625 22.375 C 40.03125 22.3125 40 22.203776 40 22.130859 C 40 21.8444 40.235025 21.609375 40.521484 21.609375 C 40.698568 21.609375 40.912109 21.738932 40.990234 21.900391 C 41.261068 22.426433 41.844399 22.650391 42.630859 22.650391 C 43.250652 22.650391 44.078125 22.462892 44.078125 21.869141 C 44.078125 21.410806 43.360027 21.401693 42.880859 21.349609 C 41.662107 21.219401 40.083984 21.067711 40.083984 19.671875 C 40.083984 18.416664 41.448565 17.884766 42.615234 17.884766 z M 64.869141 17.884766 C 65.1556 17.884766 65.286458 18.124999 65.328125 18.40625 L 65.390625 18.828125 C 65.786459 18.260415 66.50065 17.912109 67.146484 17.912109 C 68.714196 17.912109 69.875 19.270179 69.875 20.806641 C 69.875 21.593101 69.582684 22.36979 69.009766 22.9375 C 68.504556 23.432293 67.81771 23.712891 67.109375 23.712891 C 66.385415 23.712891 65.838543 23.386069 65.390625 22.865234 L 65.390625 25.056641 C 65.390625 25.3431 65.1556 25.578125 64.869141 25.578125 C 64.582682 25.578125 64.349609 25.3431 64.349609 25.056641 L 64.349609 18.40625 C 64.349609 18.119791 64.582682 17.884766 64.869141 17.884766 z M 54.359375 17.912109 C 55.739586 17.912109 56.912109 19.05208 56.912109 20.46875 C 56.912109 20.567709 56.906901 20.666666 56.896484 20.765625 C 56.865234 21.020834 56.630209 21.224609 56.375 21.224609 L 52.734375 21.228516 C 52.911459 21.978517 53.598305 22.666016 54.431641 22.666016 C 55.025392 22.666016 55.521484 22.328777 55.787109 21.943359 C 55.870443 21.813151 56.0625 21.708984 56.21875 21.708984 C 56.505209 21.708984 56.740234 21.947916 56.740234 22.234375 C 56.740234 22.322917 56.698568 22.458333 56.646484 22.53125 C 56.214192 23.16146 55.436851 23.697266 54.447266 23.697266 C 52.848304 23.697266 51.640625 22.339196 51.640625 20.771484 C 51.640625 19.261064 52.838538 17.912109 54.359375 17.912109 z M 54.359375 18.953125 C 53.604165 18.953125 52.97461 19.52604 52.771484 20.1875 L 55.837891 20.181641 C 55.702474 19.499347 55.09896 18.953125 54.359375 18.953125 z M 67.15625 18.953125 C 66.703124 18.953125 66.228516 19.166015 65.916016 19.509766 C 65.603515 19.853516 65.427734 20.349608 65.427734 20.833984 C 65.427734 21.833987 66.136066 22.6875 67.130859 22.6875 C 68.115237 22.6875 68.837891 21.775393 68.837891 20.806641 C 68.837891 19.83268 68.119794 18.953125 67.15625 18.953125 z M 62.552734 21.90625 C 63.026694 21.90625 63.4375 22.280598 63.4375 22.759766 C 63.4375 23.238933 63.026694 23.619141 62.552734 23.619141 C 62.078775 23.619141 61.671875 23.238933 61.671875 22.759766 C 61.671875 22.280598 62.078775 21.90625 62.552734 21.90625 z " />
    <path
       id="rect1-5-2"
       style="fill:#3ecc5f;stroke-width:3.87199;stroke-linecap:round;stroke-linejoin:round;fill-opacity:1"
       d="M 54.744141 64 C 51.008398 64 48 67.008398 48 70.744141 L 48 121.25586 C 48 124.9916 51.008398 128 54.744141 128 L 105.25586 128 C 108.9916 128 112 124.9916 112 121.25586 L 112 70.744141 C 112 67.008398 108.9916 64 105.25586 64 L 54.744141 64 z M 72.900391 72 C 73.18685 72 73.421875 72.235025 73.421875 72.521484 L 73.421875 79.171875 C 73.421875 79.458334 73.18685 79.693359 72.900391 79.693359 C 72.613932 79.693359 72.485026 79.453126 72.443359 79.171875 L 72.380859 78.75 C 71.985025 79.31771 71.270835 79.666016 70.625 79.666016 C 69.057288 79.666016 67.896484 78.307946 67.896484 76.771484 C 67.896484 75.985024 68.186848 75.208335 68.759766 74.640625 C 69.264975 74.145832 69.953775 73.865234 70.662109 73.865234 C 71.386069 73.865234 71.932942 74.192056 72.380859 74.712891 L 72.380859 72.521484 C 72.380859 72.235025 72.613932 72 72.900391 72 z M 89.078125 73.837891 C 89.28125 73.837891 89.474609 73.974609 89.552734 74.146484 L 91.322266 78.171875 L 92.837891 74.181641 C 92.910807 73.99414 93.108723 73.853516 93.322266 73.853516 C 93.608725 73.853516 93.84375 74.088541 93.84375 74.375 C 93.84375 74.442708 93.828776 74.520833 93.802734 74.578125 L 91.884766 79.578125 C 91.869141 79.666667 91.828125 79.738932 91.796875 79.791016 L 91.505859 80.521484 C 91.360026 80.886068 91.182292 81.312499 90.828125 81.671875 C 90.489583 82.026042 89.973959 82.302734 89.4375 82.302734 C 89.145833 82.302734 88.916016 82.057943 88.916016 81.771484 C 88.916016 81.495442 89.135416 81.260417 89.40625 81.25 C 90.015626 81.208333 90.301432 80.713543 90.541016 80.125 L 90.791016 79.490234 L 88.603516 74.583984 C 88.572266 74.511068 88.556641 74.432292 88.556641 74.359375 C 88.556641 74.072916 88.791666 73.837891 89.078125 73.837891 z M 83.421875 73.859375 C 83.708334 73.859375 83.839193 74.099609 83.880859 74.380859 L 83.943359 74.802734 C 84.339194 74.235025 85.051431 73.884766 85.697266 73.884766 C 87.264977 73.884766 88.427734 75.244788 88.427734 76.78125 C 88.427734 77.56771 88.135418 78.3444 87.5625 78.912109 C 87.057291 79.406902 86.370444 79.6875 85.662109 79.6875 C 84.938149 79.6875 84.391277 79.358725 83.943359 78.837891 L 83.943359 81.03125 C 83.943359 81.317709 83.708334 81.552734 83.421875 81.552734 C 83.135416 81.552734 82.900391 81.317709 82.900391 81.03125 L 82.900391 74.380859 C 82.900391 74.0944 83.135416 73.859375 83.421875 73.859375 z M 58.708984 73.865234 C 59.849612 73.865234 60.714192 74.604816 61.052734 75.458984 C 61.073568 75.511068 61.087891 75.598958 61.087891 75.65625 C 61.087891 75.942709 60.854818 76.177734 60.568359 76.177734 C 60.370442 76.177734 60.156901 76.025391 60.083984 75.837891 C 59.886067 75.33789 59.380861 74.90625 58.708984 74.90625 C 57.755857 74.90625 57.041016 75.791665 57.041016 76.765625 C 57.041016 77.760419 57.775388 78.666016 58.759766 78.666016 C 59.395184 78.666016 59.880859 78.291668 60.115234 77.859375 C 60.198568 77.708333 60.40625 77.583984 60.578125 77.583984 C 60.864584 77.583984 61.099609 77.817057 61.099609 78.103516 C 61.099609 78.176432 61.067708 78.291667 61.03125 78.359375 C 60.635416 79.088543 59.822268 79.708984 58.759766 79.708984 C 57.181637 79.708984 56 78.333337 56 76.765625 C 56 75.229163 57.167314 73.865234 58.708984 73.865234 z M 64.521484 73.869141 C 66.115238 73.869141 67.380859 75.203773 67.380859 76.787109 C 67.380859 78.349613 66.094404 79.671875 64.521484 79.671875 C 62.958981 79.671875 61.666016 78.380863 61.666016 76.787109 C 61.666016 75.208981 62.953773 73.869141 64.521484 73.869141 z M 76.974609 73.884766 C 78.354821 73.884766 79.525391 75.02669 79.525391 76.443359 C 79.525391 76.542318 79.520182 76.641276 79.509766 76.740234 C 79.478516 76.995443 79.245443 77.197266 78.990234 77.197266 L 75.349609 77.203125 C 75.526693 77.953127 76.21354 78.640625 77.046875 78.640625 C 77.640626 78.640625 78.134765 78.301433 78.400391 77.916016 C 78.483724 77.785807 78.677734 77.681641 78.833984 77.681641 C 79.120443 77.681641 79.353516 77.922525 79.353516 78.208984 C 79.353516 78.297526 79.311849 78.432943 79.259766 78.505859 C 78.827473 79.136069 78.052085 79.671875 77.0625 79.671875 C 75.463538 79.671875 74.255859 78.311852 74.255859 76.744141 C 74.255859 75.233721 75.453773 73.884766 76.974609 73.884766 z M 70.640625 74.890625 C 69.656248 74.890625 68.931641 75.802732 68.931641 76.771484 C 68.931641 77.745445 69.651691 78.625 70.615234 78.625 C 71.06836 78.625 71.541015 78.41211 71.853516 78.068359 C 72.166016 77.724609 72.34375 77.228517 72.34375 76.744141 C 72.34375 75.744138 71.635419 74.890625 70.640625 74.890625 z M 64.521484 74.921875 C 63.490232 74.921875 62.71875 75.781248 62.71875 76.796875 C 62.71875 77.807294 63.541013 78.619141 64.525391 78.619141 C 65.525393 78.619141 66.328125 77.776695 66.328125 76.787109 C 66.328125 75.776691 65.54232 74.921875 64.521484 74.921875 z M 76.974609 74.927734 C 76.219399 74.927734 75.587891 75.50065 75.384766 76.162109 L 78.453125 76.15625 C 78.317708 75.473957 77.714194 74.927734 76.974609 74.927734 z M 85.708984 74.927734 C 85.255858 74.927734 84.781251 75.140624 84.46875 75.484375 C 84.156249 75.828126 83.978516 76.322265 83.978516 76.806641 C 83.978516 77.806643 84.686847 78.662109 85.681641 78.662109 C 86.666018 78.662109 87.390625 77.750002 87.390625 76.78125 C 87.390625 75.80729 86.672528 74.927734 85.708984 74.927734 z M 81.103516 77.880859 C 81.577475 77.880859 81.990234 78.255207 81.990234 78.734375 C 81.990234 79.213543 81.577475 79.59375 81.103516 79.59375 C 80.629556 79.59375 80.224609 79.213543 80.224609 78.734375 C 80.224609 78.255207 80.629556 77.880859 81.103516 77.880859 z " />
  </g>
</svg>
