<?xml version="1.0" encoding="UTF-8" standalone="no"?>
<!-- Created with Inkscape (http://www.inkscape.org/) -->

<svg
   width="400"
   height="400"
   viewBox="0 0 400 400"
   version="1.1"
   id="svg1"
   inkscape:version="1.3.2 (1:1.3.2+202311252150+091e20ef0f)"
   xml:space="preserve"
   sodipodi:docname="hazbin_hotel_lucifer.svg"
   xmlns:inkscape="http://www.inkscape.org/namespaces/inkscape"
   xmlns:sodipodi="http://sodipodi.sourceforge.net/DTD/sodipodi-0.dtd"
   xmlns="http://www.w3.org/2000/svg"
   xmlns:svg="http://www.w3.org/2000/svg"><sodipodi:namedview
     id="namedview1"
     pagecolor="#ffffff"
     bordercolor="#111111"
     borderopacity="1"
     inkscape:showpageshadow="0"
     inkscape:pageopacity="0"
     inkscape:pagecheckerboard="1"
     inkscape:deskcolor="#d1d1d1"
     inkscape:document-units="px"
     showgrid="true"
     inkscape:zoom="1.622"
     inkscape:cx="226.57213"
     inkscape:cy="243.21825"
     inkscape:window-width="1920"
     inkscape:window-height="1011"
     inkscape:window-x="1920"
     inkscape:window-y="32"
     inkscape:window-maximized="1"
     inkscape:current-layer="layer1"><inkscape:grid
       id="grid1"
       units="px"
       originx="0"
       originy="0"
       spacingx="1"
       spacingy="1"
       empcolor="#0099e5"
       empopacity="0.30196078"
       color="#0099e5"
       opacity="0.14901961"
       empspacing="5"
       dotted="false"
       gridanglex="30"
       gridanglez="30"
       visible="true" /></sodipodi:namedview><defs
     id="defs1" /><g
     inkscape:label="Layer 1"
     inkscape:groupmode="layer"
     id="layer1"><path
       id="path1"
       style="fill:#3ecc5f;fill-opacity:1;stroke-width:0.840139"
       d="m 271.33607,163.94546 -148.46006,85.71189 a 118.91926,118.91926 0 0 0 -3.71462,28.43714 118.91926,118.91926 0 0 0 118.91925,118.91927 118.91926,118.91926 0 0 0 118.91927,-118.91927 118.91926,118.91926 0 0 0 -85.66384,-114.14903 z m -0.45011,11.63243 a 36.905977,36.905977 0 0 1 36.90598,36.90598 36.905977,36.905977 0 0 1 -36.90598,36.90598 36.905977,36.905977 0 0 1 -36.90598,-36.90597 36.905977,36.905977 0 0 1 36.90598,-36.90599 z M 164.26869,232.9872 a 36.905977,36.905977 0 0 1 36.90598,36.90597 36.905977,36.905977 0 0 1 -36.90598,36.90597 36.905977,36.905977 0 0 1 -36.90598,-36.90597 36.905977,36.905977 0 0 1 36.90598,-36.90597 z m 159.68563,11.55072 c 1.13588,0 2.05033,0.91446 2.05033,2.05033 v 49.20798 c 0,0.36359 -0.11886,0.68644 -0.28353,0.98191 0.0158,0.72318 -0.3441,1.43108 -1.01715,1.81968 l -99.4347,57.40929 c -0.64263,0.37103 -1.38395,0.32416 -1.98946,-0.005 -0.36794,0.011 -0.74253,-0.0724 -1.08604,-0.2707 L 179.5773,331.12765 c -0.9837,-0.56794 -1.31759,-1.81627 -0.74965,-2.79997 0.56794,-0.98371 1.81628,-1.3192 2.79998,-0.75126 l 42.34257,24.4454 97.93379,-56.54271 V 246.5883 c 0,-1.13589 0.91444,-2.05033 2.05033,-2.05033 z" /><path
       id="rect5"
       style="fill:#3ecc5f;stroke-width:2.40989"
       d="M 23.18886,105.4297 193.65027,7.0137571 241.50449,130.90635 106.55588,208.81896 Z"
       sodipodi:nodetypes="ccccc" /><rect
       style="fill:#3ecc5f;fill-opacity:1;stroke:none;stroke-width:2.49447;stroke-dasharray:none;stroke-opacity:1"
       id="rect4"
       width="295.2478"
       height="49.20797"
       x="-81.840675"
       y="225.91916"
       rx="16.402657"
       ry="16.402657"
       transform="rotate(-30)" /><ellipse
       style="fill:#3ecc5f;fill-opacity:1;stroke-width:0.0745696"
       id="path1-9"
       cx="132.38733"
       cy="300.09061"
       rx="8.0470161"
       ry="13.844893"
       transform="matrix(0.88398446,-0.46751629,0.53320116,0.84598849,0,0)" /><ellipse
       style="fill:#3ecc5f;fill-opacity:1;stroke-width:0.0745696"
       id="path1-9-1"
       cx="-21.894264"
       cy="302.07977"
       rx="8.0470161"
       ry="13.844893"
       transform="matrix(0.88398446,-0.46751629,0.53320116,0.84598849,0,0)" /></g></svg>
