<?xml version="1.0" encoding="UTF-8" standalone="no"?>
<!-- Created with Inkscape (http://www.inkscape.org/) -->

<svg
   width="400"
   height="400"
   viewBox="0 0 400 400"
   version="1.1"
   id="svg1"
   inkscape:version="1.3.2 (1:1.3.2+202311252150+091e20ef0f)"
   xml:space="preserve"
   sodipodi:docname="tired_and_angry_face.svg"
   xmlns:inkscape="http://www.inkscape.org/namespaces/inkscape"
   xmlns:sodipodi="http://sodipodi.sourceforge.net/DTD/sodipodi-0.dtd"
   xmlns="http://www.w3.org/2000/svg"
   xmlns:svg="http://www.w3.org/2000/svg"><sodipodi:namedview
     id="namedview1"
     pagecolor="#ffffff"
     bordercolor="#111111"
     borderopacity="1"
     inkscape:showpageshadow="0"
     inkscape:pageopacity="0"
     inkscape:pagecheckerboard="1"
     inkscape:deskcolor="#d1d1d1"
     inkscape:document-units="px"
     showgrid="true"
     inkscape:zoom="2.2938544"
     inkscape:cx="250.01587"
     inkscape:cy="158.4669"
     inkscape:window-width="1920"
     inkscape:window-height="1011"
     inkscape:window-x="1920"
     inkscape:window-y="32"
     inkscape:window-maximized="1"
     inkscape:current-layer="layer1"><inkscape:grid
       id="grid1"
       units="px"
       originx="0"
       originy="0"
       spacingx="1"
       spacingy="1"
       empcolor="#0099e5"
       empopacity="0.30196078"
       color="#0099e5"
       opacity="0.14901961"
       empspacing="5"
       dotted="false"
       gridanglex="30"
       gridanglez="30"
       visible="true" /></sodipodi:namedview><defs
     id="defs1" /><g
     inkscape:label="Layer 1"
     inkscape:groupmode="layer"
     id="layer1"><path
       id="path2"
       style="fill:#3ecc5f;fill-opacity:1;stroke:#3ecc5f;stroke-linecap:round;stroke-linejoin:round;stroke-opacity:1;paint-order:stroke fill markers"
       d="M 200 72.109375 A 127.89122 127.89122 0 0 0 72.109375 200 A 127.89122 127.89122 0 0 0 200 327.89062 A 127.89122 127.89122 0 0 0 327.89062 200 A 127.89122 127.89122 0 0 0 200 72.109375 z M 133.52539 95 C 134.42556 95 135.32591 95.345406 136.01562 96.035156 L 173.96484 133.98438 C 175.34435 135.36384 175.34435 137.58537 173.96484 138.96484 C 172.58537 140.34435 170.36384 140.34435 168.98438 138.96484 L 131.03516 101.01562 C 129.65565 99.63614 129.65565 97.414662 131.03516 96.035156 C 131.72491 95.345406 132.62522 95 133.52539 95 z M 226.47461 95 C 227.37478 95 228.27509 95.345407 228.96484 96.035156 C 230.34435 97.414661 230.34435 99.636146 228.96484 101.01562 L 191.01562 138.96484 C 189.63617 140.34435 187.41462 140.34435 186.03516 138.96484 C 184.65565 137.58538 184.65565 135.36383 186.03516 133.98438 L 223.98438 96.035156 C 224.67408 95.345407 225.57444 95 226.47461 95 z M 270.4668 117.57812 L 272.12891 117.81445 C 272.62067 119.01161 272.97123 120.21839 273.18359 121.43164 C 273.39595 122.64488 273.42432 123.8243 273.26758 124.9707 C 273.13363 126.11666 272.78356 127.20307 272.21875 128.23047 C 271.65982 129.24717 270.93858 130.10894 270.05469 130.81445 C 269.18771 131.53021 268.20426 132.08941 267.10352 132.49219 C 265.99686 132.90566 264.8249 133.19346 263.58594 133.35547 L 262.55859 131.96094 C 263.79757 131.79893 264.90121 131.51235 265.87109 131.10156 C 266.84098 130.69078 267.6924 130.15118 268.42188 129.48047 C 269.15133 128.80976 269.77327 128.00233 270.29102 127.06055 C 270.80876 126.11876 271.16322 125.14921 271.35156 124.15039 C 271.53991 123.15157 271.56026 122.109 271.41406 121.02148 C 271.26786 119.93399 270.95269 118.78599 270.4668 117.57812 z M 289.64062 117.57812 C 289.15475 118.78598 288.83956 119.93399 288.69336 121.02148 C 288.54716 122.10899 288.56752 123.15158 288.75586 124.15039 C 288.9442 125.1492 289.29671 126.11877 289.81445 127.06055 C 290.33219 128.00233 290.95608 128.80976 291.68555 129.48047 C 292.41501 130.15117 293.26449 130.69078 294.23438 131.10156 C 295.20424 131.51235 296.30986 131.79893 297.54883 131.96094 L 296.52148 133.35547 C 295.28253 133.19346 294.11054 132.90567 293.00391 132.49219 C 291.90315 132.08942 290.91776 131.53021 290.05078 130.81445 C 289.1669 130.10895 288.44564 129.24716 287.88672 128.23047 C 287.32191 127.20307 286.97379 126.11665 286.83984 124.9707 C 286.68311 123.8243 286.70951 122.64488 286.92188 121.43164 C 287.13422 120.21841 287.48675 119.01161 287.97852 117.81445 L 289.64062 117.57812 z M 134.51562 127.46484 A 33.769135 28.877914 0 0 1 168.28516 156.3418 A 33.769135 28.877914 0 0 1 134.51562 185.21875 A 33.769135 28.877914 0 0 1 100.74805 156.3418 A 33.769135 28.877914 0 0 1 134.51562 127.46484 z M 226.73438 127.46484 A 33.769135 28.877914 0 0 1 260.50195 156.3418 A 33.769135 28.877914 0 0 1 226.73438 185.21875 A 33.769135 28.877914 0 0 1 192.96484 156.3418 A 33.769135 28.877914 0 0 1 226.73438 127.46484 z M 263.58594 138.64453 C 264.8249 138.80654 265.99687 139.09434 267.10352 139.50781 C 268.20423 139.91059 269.18771 140.46979 270.05469 141.18555 C 270.93856 141.89105 271.65983 142.75284 272.21875 143.76953 C 272.78355 144.79692 273.13363 145.88335 273.26758 147.0293 C 273.42432 148.1757 273.39595 149.35513 273.18359 150.56836 C 272.97123 151.78159 272.62068 152.98839 272.12891 154.18555 L 270.4668 154.42188 C 270.95268 153.21403 271.26787 152.06599 271.41406 150.97852 C 271.56027 149.89101 271.53991 148.84842 271.35156 147.84961 C 271.16322 146.8508 270.80875 145.88123 270.29102 144.93945 C 269.77328 143.99767 269.15131 143.19024 268.42188 142.51953 C 267.69241 141.84883 266.84097 141.30922 265.87109 140.89844 C 264.90122 140.48765 263.79755 140.20108 262.55859 140.03906 L 263.58594 138.64453 z M 296.52148 138.64453 L 297.54883 140.03906 C 296.30986 140.20107 295.20426 140.48765 294.23438 140.89844 C 293.26449 141.30922 292.41502 141.84882 291.68555 142.51953 C 290.95607 143.19024 290.3322 143.99767 289.81445 144.93945 C 289.29671 145.88124 288.9442 146.85079 288.75586 147.84961 C 288.56751 148.84843 288.54716 149.891 288.69336 150.97852 C 288.83956 152.06603 289.15474 153.21402 289.64062 154.42188 L 287.97852 154.18555 C 287.48674 152.98839 287.13423 151.7816 286.92188 150.56836 C 286.70951 149.35511 286.6831 148.1757 286.83984 147.0293 C 286.97379 145.88334 287.32191 144.79693 287.88672 143.76953 C 288.44565 142.75283 289.16689 141.89106 290.05078 141.18555 C 290.91776 140.46979 291.90314 139.91059 293.00391 139.50781 C 294.11055 139.09433 295.28251 138.80654 296.52148 138.64453 z M 120.29297 246.66016 L 235.95703 246.66016 C 238.26341 246.66016 240.12109 248.48506 240.12109 250.75 C 240.12109 253.01495 238.26341 254.83789 235.95703 254.83789 L 120.29297 254.83789 C 117.98659 254.83789 116.12891 253.01495 116.12891 250.75 C 116.12891 248.48506 117.98659 246.66016 120.29297 246.66016 z " /><path
       id="path2-5"
       style="fill:#149f5f;fill-opacity:1;stroke:#3ecc5f;stroke-width:0.263968;stroke-linecap:round;stroke-linejoin:round;stroke-opacity:1;paint-order:stroke fill markers"
       d="m 260.33984,158.28125 a 33.769135,28.877914 0 0 1 -33.60546,26.9375 33.769135,28.877914 0 0 1 -33.56641,-26.45898 33.759239,33.759239 0 0 0 -0.19336,2.69141 33.759239,33.759239 0 0 0 33.75977,33.75781 33.759239,33.759239 0 0 0 33.75781,-33.75781 33.759239,33.759239 0 0 0 -0.15235,-3.16993 z" /><path
       id="path2-5-6"
       style="fill:#149f5f;fill-opacity:1;stroke:#3ecc5f;stroke-width:0.263968;stroke-linecap:round;stroke-linejoin:round;stroke-opacity:1;paint-order:stroke fill markers"
       d="m 168.12305,158.27735 a 33.769135,28.877914 0 0 1 -33.60743,26.9414 33.769135,28.877914 0 0 1 -33.56445,-26.45898 33.759239,33.759239 0 0 0 -0.19336,2.69141 33.759239,33.759239 0 0 0 33.75781,33.75781 33.759239,33.759239 0 0 0 33.75977,-33.75781 33.759239,33.759239 0 0 0 -0.15234,-3.17383 z" /><ellipse
       style="fill:#3ecc5f;fill-opacity:1;stroke:#3ecc5f;stroke-width:0.678797;stroke-linecap:round;stroke-linejoin:round;stroke-opacity:1;paint-order:stroke fill markers"
       id="path3"
       cx="120.62498"
       cy="155.3418"
       rx="9.6605949"
       ry="9.6606026" /><circle
       style="fill:#3ecc5f;fill-opacity:1;stroke:#3ecc5f;stroke-width:0.678798;stroke-linecap:round;stroke-linejoin:round;stroke-opacity:1;paint-order:stroke fill markers"
       id="path3-8"
       cx="210.625"
       cy="155.3418"
       r="9.6606016" /></g></svg>
