<?xml version="1.0" encoding="UTF-8" standalone="no"?>
<!-- Created with Inkscape (http://www.inkscape.org/) -->

<svg
   width="300"
   height="300"
   viewBox="0 0 300 300"
   version="1.1"
   id="svg1"
   xml:space="preserve"
   inkscape:export-filename="player_looking1.png"
   inkscape:export-xdpi="96"
   inkscape:export-ydpi="96"
   inkscape:version="1.3.2 (1:1.3.2+202311252150+091e20ef0f)"
   sodipodi:docname="vector_x_negative_x_axis.svg"
   xmlns:inkscape="http://www.inkscape.org/namespaces/inkscape"
   xmlns:sodipodi="http://sodipodi.sourceforge.net/DTD/sodipodi-0.dtd"
   xmlns="http://www.w3.org/2000/svg"
   xmlns:svg="http://www.w3.org/2000/svg"><sodipodi:namedview
     id="namedview1"
     pagecolor="#ffffff"
     bordercolor="#111111"
     borderopacity="1"
     inkscape:showpageshadow="0"
     inkscape:pageopacity="0"
     inkscape:pagecheckerboard="1"
     inkscape:deskcolor="#d1d1d1"
     inkscape:document-units="px"
     showgrid="true"
     inkscape:zoom="2.889927"
     inkscape:cx="134.43246"
     inkscape:cy="134.08643"
     inkscape:window-width="1920"
     inkscape:window-height="1011"
     inkscape:window-x="1920"
     inkscape:window-y="32"
     inkscape:window-maximized="1"
     inkscape:current-layer="layer1"><inkscape:grid
       id="grid1"
       units="px"
       originx="0"
       originy="0"
       spacingx="1"
       spacingy="1"
       empcolor="#0099e5"
       empopacity="0.30196078"
       color="#0099e5"
       opacity="0.14901961"
       empspacing="5"
       dotted="false"
       gridanglex="30"
       gridanglez="30"
       visible="true" /></sodipodi:namedview><defs
     id="defs1" /><g
     inkscape:label="Layer 1"
     inkscape:groupmode="layer"
     id="layer1"><path
       style="opacity:0.99909;fill:#ff0000;stroke:#ff0000;stroke-width:1.86773;stroke-linecap:round;stroke-linejoin:round;paint-order:stroke fill markers"
       d="M 88.968,65 H 201.032"
       id="path1"
       sodipodi:nodetypes="cc" /><path
       style="opacity:0.99909;fill:#3ecc5f;stroke:#3ecc5f;stroke-width:1.86773;stroke-linecap:round;stroke-linejoin:round;paint-order:stroke fill markers"
       d="M 145,8.968 V 121.032"
       id="path1-5"
       sodipodi:nodetypes="cc" /><g
       id="path2"
       style="opacity:0.99909"><path
         style="color:#000000;fill:#0000ff;stroke-linecap:round;stroke-linejoin:round;-inkscape-stroke:none;paint-order:stroke fill markers"
         d="m 199.44922,11.097656 -55.09766,53.230469 a 0.93386501,0.93386501 0 0 0 -0.0234,1.320312 0.93386501,0.93386501 0 0 0 1.32032,0.02344 l 55.09765,-53.230469 a 0.93386501,0.93386501 0 0 0 0.0234,-1.320312 0.93386501,0.93386501 0 0 0 -1.32031,-0.02344 z"
         id="path9" /><path
         style="color:#000000;fill:#008000;stroke-linecap:round;stroke-linejoin:round;-inkscape-stroke:none;paint-order:stroke fill markers"
         d="M 145,65 200.09813,11.7696"
         id="path10" /><g
         id="g8"><path
           style="color:#000000;fill:#0000ff;fill-rule:evenodd;-inkscape-stroke:none"
           d="m 201.44139,10.471879 -0.13661,7.92293 -2.68651,2.595442 0.1366,-7.92293 -7.92293,-0.136602 2.68652,-2.595442 z"
           id="path8" /></g></g><g
       id="path4"
       style="opacity:0.99909"><path
         style="color:#000000;fill:#800080;stroke-linecap:round;stroke-linejoin:round;-inkscape-stroke:none;paint-order:stroke fill markers"
         d="m 206.89648,26.072266 a 0.93386501,0.93386501 0 0 0 -0.625,0.34375 0.93386501,0.93386501 0 0 0 0.14454,1.3125 c 0,0 4.51615,3.652583 6.73242,8.75 1.10813,2.548708 1.63923,5.406522 0.83008,8.40039 -0.80916,2.993869 -2.97271,6.192419 -7.51368,9.371094 a 0.93386501,0.93386501 0 0 0 -0.23047,1.300781 0.93386501,0.93386501 0 0 0 1.30079,0.230469 c 4.79769,-3.358385 7.30425,-6.929238 8.24609,-10.414063 0.94184,-3.484824 0.30661,-6.813746 -0.91992,-9.634765 -2.45306,-5.642039 -7.27735,-9.460938 -7.27735,-9.460938 a 0.93386501,0.93386501 0 0 0 -0.6875,-0.199218 z"
         id="path7" /><g
         id="g2"><path
           style="color:#000000;fill:#800080;fill-rule:evenodd;-inkscape-stroke:none"
           d="m 205.54155,25.833238 7.87564,-0.87507 2.9169,2.333523 -7.87564,0.875071 0.87507,7.875641 -2.9169,-2.333523 z"
           id="path6" /></g></g><text
       xml:space="preserve"
       style="font-size:22.4128px;font-family:Ubuntu;-inkscape-font-specification:Ubuntu;opacity:0.99909;fill:#800080;fill-opacity:1;stroke:none;stroke-width:1.86773;stroke-linecap:round;stroke-linejoin:round;paint-order:stroke fill markers"
       x="215.94659"
       y="50.801025"
       id="text5"><tspan
         sodipodi:role="line"
         id="tspan5"
         x="215.94659"
         y="50.801025"
         style="stroke-width:1.86773">45ยบ</tspan></text><path
       style="opacity:0.99909;fill:#ff0000;stroke:#ff0000;stroke-width:1.86773;stroke-linecap:round;stroke-linejoin:round;paint-order:stroke fill markers"
       d="M 89.90187,219.06613 H 201.96588"
       id="path1-7"
       sodipodi:nodetypes="cc" /><path
       style="opacity:0.99909;fill:#3ecc5f;stroke:#3ecc5f;stroke-width:1.86773;stroke-linecap:round;stroke-linejoin:round;paint-order:stroke fill markers"
       d="m 145.93387,163.03413 v 112.064"
       id="path1-5-0"
       sodipodi:nodetypes="cc" /><g
       id="path2-9"
       style="opacity:0.99909"><path
         style="color:#000000;fill:#0000ff;stroke-linecap:round;stroke-linejoin:round;-inkscape-stroke:none;paint-order:stroke fill markers"
         d="m 91.550781,165.09766 a 0.93386501,0.93386501 0 0 0 -1.320312,0.0234 0.93386501,0.93386501 0 0 0 0.02344,1.32032 l 55.097654,53.23046 a 0.93386501,0.93386501 0 0 0 1.32031,-0.0234 0.93386501,0.93386501 0 0 0 -0.0234,-1.32032 z"
         id="path12" /><path
         style="color:#000000;fill:#008000;stroke-linecap:round;stroke-linejoin:round;-inkscape-stroke:none;paint-order:stroke fill markers"
         d="M 146,219 90.901875,165.7696"
         id="path13" /><g
         id="g11"><path
           style="color:#000000;fill:#0000ff;fill-rule:evenodd;-inkscape-stroke:none"
           d="m 89.55862,164.47188 7.92293,-0.1366 2.68651,2.59544 -7.92293,0.1366 0.136602,7.92293 -2.686511,-2.59544 z"
           id="path11" /></g></g><g
       id="path4-3"
       style="opacity:0.99909"
       transform="matrix(-0.70710678,0.70710678,0.70710678,0.70710678,62.971156,1.5957795)"><path
         style="color:#000000;fill:#800080;stroke-linecap:round;stroke-linejoin:round;-inkscape-stroke:none;paint-order:stroke fill markers"
         d="m 84.103516,186.07227 a 0.93386501,0.93386501 0 0 0 -0.6875,0.19921 c 0,0 -4.824284,3.8189 -7.277344,9.46094 -1.22653,2.82102 -1.861766,6.14994 -0.919922,9.63477 0.941844,3.48482 3.448402,7.05568 8.246094,10.41406 a 0.93386501,0.93386501 0 0 0 1.300781,-0.23047 0.93386501,0.93386501 0 0 0 -0.230469,-1.30078 c -4.540963,-3.17867 -6.704518,-6.37723 -7.513672,-9.37109 -0.809153,-2.99387 -0.278055,-5.85169 0.830078,-8.40039 2.216268,-5.09742 6.732422,-8.75 6.732422,-8.75 a 0.93386501,0.93386501 0 0 0 0.144532,-1.3125 0.93386501,0.93386501 0 0 0 -0.625,-0.34375 z"
         id="path15" /><g
         id="g14"><path
           style="color:#000000;fill:#800080;fill-rule:evenodd;-inkscape-stroke:none"
           d="m 85.458452,185.83324 -0.87507,7.87564 -2.916904,2.33352 0.87507,-7.87564 -7.875641,-0.87507 2.916903,-2.33352 z"
           id="path14" /></g></g><text
       xml:space="preserve"
       style="font-size:22.4128px;font-family:Ubuntu;-inkscape-font-specification:Ubuntu;opacity:0.99909;fill:#800080;fill-opacity:1;stroke:none;stroke-width:1.86773;stroke-linecap:round;stroke-linejoin:round;paint-order:stroke fill markers"
       x="154.37244"
       y="189.6638"
       id="text5-6"><tspan
         sodipodi:role="line"
         id="tspan5-0"
         x="154.37244"
         y="189.6638"
         style="stroke-width:1.86773">135ยบ</tspan></text></g></svg>
