<?xml version="1.0" encoding="UTF-8" standalone="no"?>
<!-- Created with Inkscape (http://www.inkscape.org/) -->

<svg
   width="400"
   height="400"
   viewBox="0 0 400 400"
   version="1.1"
   id="svg1"
   inkscape:version="1.3.2 (1:1.3.2+202311252150+091e20ef0f)"
   sodipodi:docname="nope_again.svg"
   xmlns:inkscape="http://www.inkscape.org/namespaces/inkscape"
   xmlns:sodipodi="http://sodipodi.sourceforge.net/DTD/sodipodi-0.dtd"
   xmlns="http://www.w3.org/2000/svg"
   xmlns:svg="http://www.w3.org/2000/svg">
  <sodipodi:namedview
     id="namedview1"
     pagecolor="#ffffff"
     bordercolor="#000000"
     borderopacity="0.25"
     inkscape:showpageshadow="2"
     inkscape:pageopacity="0.0"
     inkscape:pagecheckerboard="true"
     inkscape:deskcolor="#d1d1d1"
     inkscape:document-units="px"
     showgrid="true"
     inkscape:zoom="1.42"
     inkscape:cx="83.09859"
     inkscape:cy="272.88732"
     inkscape:window-width="1920"
     inkscape:window-height="1043"
     inkscape:window-x="0"
     inkscape:window-y="0"
     inkscape:window-maximized="1"
     inkscape:current-layer="layer1">
    <inkscape:grid
       id="grid1"
       units="px"
       originx="0"
       originy="0"
       spacingx="0.26458333"
       spacingy="0.26458333"
       empcolor="#0099e5"
       empopacity="0.30196078"
       color="#0099e5"
       opacity="0.14901961"
       empspacing="5"
       dotted="false"
       gridanglex="30"
       gridanglez="30"
       visible="true" />
  </sodipodi:namedview>
  <defs
     id="defs1" />
  <g
     inkscape:label="Layer 1"
     inkscape:groupmode="layer"
     id="layer1">
    <path
       id="path2"
       style="fill:#33c255;fill-opacity:1;stroke:none;stroke-width:4;stroke-linecap:round;stroke-linejoin:round"
       d="M 201.08398 52.916016 A 142.875 142.875 0 0 0 58.208984 195.79102 A 142.875 142.875 0 0 0 201.08398 338.66602 A 142.875 142.875 0 0 0 343.95898 195.79102 A 142.875 142.875 0 0 0 201.08398 52.916016 z M 127 111.125 A 31.74999 31.74999 0 0 1 158.75 142.875 A 31.74999 31.74999 0 0 1 127 174.625 A 31.74999 31.74999 0 0 1 95.25 142.875 A 31.74999 31.74999 0 0 1 127 111.125 z M 232.83398 111.125 A 31.74999 31.74999 0 0 1 264.58398 142.875 A 31.74999 31.74999 0 0 1 232.83398 174.625 A 31.74999 31.74999 0 0 1 201.08398 142.875 A 31.74999 31.74999 0 0 1 232.83398 111.125 z M 177.11328 242.85547 C 178.47514 242.847 179.81898 242.87175 181.14062 242.92578 C 198.76254 243.64619 212.44531 249.51172 212.44531 249.51172 A 2 2 0 0 1 213.50781 252.13281 A 2 2 0 0 1 210.88672 253.19531 C 210.88672 253.19531 177.12386 239.11092 149.06055 253.14258 A 2 2 0 0 1 146.37695 252.24805 A 2 2 0 0 1 147.27148 249.56445 C 157.16278 244.61881 167.58028 242.91473 177.11328 242.85547 z " />
    <rect
       style="fill:#00aad4;fill-opacity:1;stroke:none;stroke-width:4;stroke-linecap:round;stroke-linejoin:round"
       id="rect3"
       width="42.333332"
       height="169.33333"
       x="211.66666"
       y="158.74998"
       rx="19.578514"
       ry="19.578514" />
    <rect
       style="fill:#00aad4;fill-opacity:1;stroke:none;stroke-width:4;stroke-linecap:round;stroke-linejoin:round"
       id="rect3-2"
       width="42.333332"
       height="169.33333"
       x="105.83333"
       y="158.74998"
       rx="19.578514"
       ry="19.578514" />
  </g>
</svg>
