<?xml version="1.0" encoding="UTF-8" standalone="no"?>
<!-- Created with Inkscape (http://www.inkscape.org/) -->

<svg
   width="420"
   height="400"
   viewBox="0 0 420 400"
   version="1.1"
   id="svg1"
   inkscape:version="1.3.2 (1:1.3.2+202404261509+091e20ef0f)"
   sodipodi:docname="very_surprise.svg"
   xml:space="preserve"
   xmlns:inkscape="http://www.inkscape.org/namespaces/inkscape"
   xmlns:sodipodi="http://sodipodi.sourceforge.net/DTD/sodipodi-0.dtd"
   xmlns="http://www.w3.org/2000/svg"
   xmlns:svg="http://www.w3.org/2000/svg"><sodipodi:namedview
     id="namedview1"
     pagecolor="#ffffff"
     bordercolor="#000000"
     borderopacity="0.25"
     inkscape:showpageshadow="2"
     inkscape:pageopacity="0.0"
     inkscape:pagecheckerboard="0"
     inkscape:deskcolor="#d1d1d1"
     inkscape:document-units="px"
     showgrid="true"
     inkscape:zoom="0.9860316"
     inkscape:cx="-19.776242"
     inkscape:cy="275.85323"
     inkscape:window-width="1920"
     inkscape:window-height="1011"
     inkscape:window-x="1920"
     inkscape:window-y="32"
     inkscape:window-maximized="1"
     inkscape:current-layer="layer1"><inkscape:grid
       id="grid1"
       units="px"
       originx="0"
       originy="0"
       spacingx="0.26458333"
       spacingy="0.26458333"
       empcolor="#0099e5"
       empopacity="0.30196078"
       color="#0099e5"
       opacity="0.14901961"
       empspacing="5"
       dotted="false"
       gridanglex="30"
       gridanglez="30"
       visible="true" /></sodipodi:namedview><defs
     id="defs1" /><g
     inkscape:label="Layer 1"
     inkscape:groupmode="layer"
     id="layer1"><path
       id="path1"
       style="fill:#33c255;fill-opacity:0.999822;stroke:#33c255;stroke-width:1.22371;stroke-linecap:round;stroke-linejoin:round"
       d="M 215.16427,61.921899 A 138.07794,138.07794 0 0 0 78.560747,180.03908 c 10.81848,-10.1317 23.138863,-20.39087 33.804693,-28.73437 a 38.6563,38.6563 0 0 1 37.45508,-29.51953 38.6563,38.6563 0 0 1 38.65625,38.65625 38.6563,38.6563 0 0 1 -38.65625,38.65624 38.6563,38.6563 0 0 1 -7.49219,-0.98632 c -18.9641,7.75087 -44.628243,16.9722 -63.869143,21.06445 a 138.07794,138.07794 0 0 0 23.667973,59.57813 10,10 0 0 1 3.625,-3.86719 10,10 0 0 1 12.22656,2.46875 c 2.35346,-4.48936 5.46286,-11.89608 9.05078,-19.49414 2.16978,-4.59488 4.48591,-9.07902 7.94336,-13.07813 3.45746,-3.9991 9.43789,-8.16028 16.54297,-7.30469 7.10509,0.85561 12.12835,5.49348 16.56836,11.49219 2.99789,4.05034 5.97369,9.5873 9.02539,15.94336 0.25271,-0.71494 0.55785,-1.52113 0.82422,-2.26562 a 31.875782,53.473255 0 0 1 31.83008,-52.81055 31.875782,53.473255 0 0 1 31.875,53.47266 31.875782,53.473255 0 0 1 -0.0195,0.80078 c 0.65461,1.26882 1.31407,2.56293 1.98437,3.91601 a 10,10 0 0 1 -3.7832,12.98242 31.875782,53.473255 0 0 1 -30.05664,35.77539 31.875782,53.473255 0 0 1 -26.16797,-23.46093 c -1.61904,0.92346 -3.60604,1.6035 -5.98242,1.61328 -4.83627,0.0198 -8.36183,-2.88069 -10.25782,-5.19531 -1.89597,-2.31464 -3.05132,-4.65973 -4.23242,-7.48243 -4.42067,-10.56493 -8.28225,-17.56309 -11.11523,-21.39062 -1.07043,-1.44621 -1.68232,-1.93737 -2.27149,-2.46484 -1.22265,1.5615 -2.92909,4.41495 -4.62109,7.99804 -3.68205,7.79737 -6.80403,17.73615 -12.36133,25.625 -1.38932,1.97222 -2.98966,3.92044 -5.42187,5.64649 -1.70294,1.2085 -4.02368,2.25894 -6.57617,2.66797 a 138.07794,138.07794 0 0 0 94.4082,37.73632 A 138.07794,138.07794 0 0 0 353.24239,200.00002 138.07794,138.07794 0 0 0 215.16427,61.921899 Z m 48.20117,49.417971 a 38.6563,38.6563 0 0 1 38.65625,38.65624 38.6563,38.6563 0 0 1 -38.65625,38.65625 38.6563,38.6563 0 0 1 -0.6582,-0.0859 c -31.3823,13.29112 -89.32015,33.72824 -95.96289,22.22265 -5.97683,-10.35212 31.21663,-43.74175 58.55859,-65.30078 a 38.6563,38.6563 0 0 1 38.0625,-34.14843 z" /><g
       id="path1-47-0-4-0"
       transform="matrix(0.94921585,-0.54803003,0.54803003,0.94921585,-56.014634,106.57059)"
       style="fill:#000000;fill-opacity:1" /><g
       id="path1-47-0-4-0-6"
       transform="matrix(0.94921585,-0.54803003,0.54803003,0.94921585,58.618404,99.421949)"
       style="fill:#000000;fill-opacity:1" /><g
       id="path1-47"
       transform="rotate(-30,234.83634,224.03925)"><path
         id="path2"
         style="color:#000000;fill:#33c255;stroke-linecap:round;stroke-linejoin:round;-inkscape-stroke:none"
         d="m 203.81282,102.52708 c -3.94233,-2.1416 -8.45981,-3.358118 -13.26174,-3.358119 -15.36621,-3e-6 -104.089532,12.457299 -104.089531,27.823509 3e-6,15.3662 88.722411,27.82261 104.088611,27.82261 15.36621,0 27.82316,-12.45773 27.82316,-27.82394 0,-10.56426 -5.88738,-19.75254 -14.5605,-24.46406 z M 98.67073,122.28695 a 6.1166539,6.1166539 0 0 1 2.23905,8.35623 6.1166539,6.1166539 0 0 1 -8.355261,2.23736 6.1166539,6.1166539 0 0 1 -2.238331,-8.35357 6.1166539,6.1166539 0 0 1 8.354542,-2.24002 z" /><path
         style="color:#000000;fill:#33c255;stroke-linecap:round;stroke-linejoin:round;-inkscape-stroke:none"
         d="m 190.55078,99.044922 c -15.43283,0 -27.94531,12.514428 -27.94531,27.947268 0,15.43283 12.51248,27.94531 27.94531,27.94531 15.43284,0 27.94727,-12.51248 27.94727,-27.94531 0,-15.43284 -12.51443,-27.947268 -27.94727,-27.947268 z m 0,0.248047 c 15.29958,0 27.69922,12.399641 27.69922,27.699221 0,15.29957 -12.39964,27.69922 -27.69922,27.69922 -15.29957,0 -27.69922,-12.39965 -27.69922,-27.69922 0,-15.29958 12.39965,-27.699221 27.69922,-27.699221 z"
         id="path3" /></g><g
       id="path1-47-0"
       transform="rotate(-30,278.81331,6.5567628)"><path
         id="path2-7"
         style="color:#000000;fill:#33c255;stroke-linecap:round;stroke-linejoin:round;-inkscape-stroke:none"
         d="m 203.81252,102.52714 c -3.94233,-2.1416 -8.45981,-3.358114 -13.26174,-3.358115 -15.36621,-3e-6 -104.089532,12.457305 -104.089531,27.823505 3e-6,15.3662 88.722411,27.82261 104.088611,27.82261 15.36621,0 27.82485,-12.45675 27.82485,-27.82296 0,-10.56426 -5.88907,-19.75351 -14.56219,-24.46504 z M 99.527288,122.5607 a 6.1166539,6.1166539 0 0 1 2.239042,8.35624 6.1166539,6.1166539 0 0 1 -8.356229,2.23904 6.1166539,6.1166539 0 0 1 -2.237355,-8.35525 6.1166539,6.1166539 0 0 1 8.354542,-2.24003 z" /><path
         style="color:#000000;fill:#33c255;stroke-linecap:round;stroke-linejoin:round;-inkscape-stroke:none"
         d="m 190.55078,99.044922 c -15.43283,0 -27.94531,12.514428 -27.94531,27.947268 0,15.43283 12.51248,27.94531 27.94531,27.94531 15.43284,0 27.94727,-12.51248 27.94727,-27.94531 0,-15.43284 -12.51443,-27.947268 -27.94727,-27.947268 z m 0,0.248047 c 15.29958,0 27.69922,12.399641 27.69922,27.699221 0,15.29957 -12.39964,27.69922 -27.69922,27.69922 -15.29957,0 -27.69922,-12.39965 -27.69922,-27.69922 0,-15.29958 12.39965,-27.699221 27.69922,-27.699221 z"
         id="path3-8" /></g><path
       style="fill:none;fill-opacity:1;stroke:#33c255;stroke-width:15;stroke-linecap:round;stroke-linejoin:round;stroke-dasharray:none;stroke-opacity:1"
       d="m 234.64359,272.46717 c -46.34233,-93.54779 -46.8039,42.9556 -62.29578,5.93176 -36.79396,-87.93342 -39.42761,42.84847 -61.53923,5.11532"
       id="path4"
       sodipodi:nodetypes="csc" /><path
       id="path1-5"
       style="fill:#33c255;fill-opacity:0.999822;stroke:#33c255;stroke-width:1.22371;stroke-linecap:round;stroke-linejoin:round"
       d="m 215.16426,61.921856 a 138.07794,138.07794 0 0 0 -5.58984,0.400391 v 96.085933 c 5.35632,-4.54033 10.70822,-8.96144 15.72851,-12.91992 a 38.6563,38.6563 0 0 1 38.0625,-34.14844 38.6563,38.6563 0 0 1 38.65625,38.65625 38.6563,38.6563 0 0 1 -38.65625,38.65625 38.6563,38.6563 0 0 1 -0.6582,-0.0859 c -14.60193,6.18425 -34.87475,13.8193 -53.13281,19.16015 v 2.14649 a 31.875782,53.473255 0 0 1 0.18945,-0.0352 31.875782,53.473255 0 0 1 31.875,53.47266 31.875782,53.473255 0 0 1 -31.875,53.4746 31.875782,53.473255 0 0 1 -0.18945,-0.0351 v 20.92578 a 138.07794,138.07794 0 0 0 5.58984,0.40234 A 138.07794,138.07794 0 0 0 353.24239,199.99998 138.07794,138.07794 0 0 0 215.16426,61.921856 Z" /></g></svg>
