<?xml version="1.0" encoding="UTF-8" standalone="no"?>
<!-- Created with Inkscape (http://www.inkscape.org/) -->

<svg
   width="400"
   height="400"
   viewBox="0 0 400 400"
   version="1.1"
   id="svg1"
   inkscape:version="1.3.2 (1:1.3.2+202311252150+091e20ef0f)"
   xml:space="preserve"
   sodipodi:docname="deadpool.svg"
   xmlns:inkscape="http://www.inkscape.org/namespaces/inkscape"
   xmlns:sodipodi="http://sodipodi.sourceforge.net/DTD/sodipodi-0.dtd"
   xmlns:xlink="http://www.w3.org/1999/xlink"
   xmlns="http://www.w3.org/2000/svg"
   xmlns:svg="http://www.w3.org/2000/svg"><sodipodi:namedview
     id="namedview1"
     pagecolor="#ffffff"
     bordercolor="#111111"
     borderopacity="1"
     inkscape:showpageshadow="0"
     inkscape:pageopacity="0"
     inkscape:pagecheckerboard="1"
     inkscape:deskcolor="#d1d1d1"
     inkscape:document-units="px"
     showgrid="true"
     inkscape:zoom="0.5734636"
     inkscape:cx="-360.9645"
     inkscape:cy="541.44675"
     inkscape:window-width="1920"
     inkscape:window-height="1011"
     inkscape:window-x="1920"
     inkscape:window-y="32"
     inkscape:window-maximized="1"
     inkscape:current-layer="layer1"><inkscape:grid
       id="grid1"
       units="px"
       originx="0"
       originy="0"
       spacingx="1"
       spacingy="1"
       empcolor="#0099e5"
       empopacity="0.30196078"
       color="#0099e5"
       opacity="0.14901961"
       empspacing="5"
       dotted="false"
       gridanglex="30"
       gridanglez="30"
       visible="true" /></sodipodi:namedview><defs
     id="defs1" /><g
     inkscape:label="Layer 1"
     inkscape:groupmode="layer"
     id="layer1"><g
       id="g5"
       transform="matrix(1.4755436,0,0,1.4755436,391.86758,-40.639904)"><g
         id="g4"
         transform="translate(130.45134,-38)"><path
           style="fill:#3ecc5f;stroke:#3ecc5f;stroke-linecap:round;stroke-linejoin:round;paint-order:stroke fill markers"
           d="m -260.98948,78.499999 -10.26467,0.13541 -12.25369,1.40142 -11.51661,3.80633 -10.11573,4.45018 -8.88456,6.60379 -6.42728,5.969461 -6.43677,9.2186 -5.80797,10.37114 -2.77255,7.39433 -1.8382,5.80892 -1.68852,5.49497 -1.84828,6.29758 -1.05544,7.38105 -1.07116,7.52076 -0.78247,10.75873 -0.63775,8.1987 -1.07891,4.70922 0.45479,6.61592 0.46239,17.23543 2.94354,19.35727 1.84663,6.11498 3.83972,12.74227 2.59862,6.6028 3.08164,6.67624 4.91781,8.70216 5.45162,8.89595 8.87583,12.25168 7.66161,8.46006 7.13615,7.34304 9.19516,6.73356 11.14625,7.34023 12.61042,4.57901 2.74786,-0.61652 z"
           id="path2" /><path
           style="fill:#000000;stroke:#000000;stroke-linecap:round;stroke-linejoin:round;paint-order:stroke fill markers"
           d="m -316.3494,130.49999 7.60694,2.39099 9.94314,3.67782 9.2741,3.58427 5.32977,4.80547 3.47933,6.95236 3.02524,9.13219 3.8107,12.40822 3.59487,11.86328 3.92917,12.58893 0.85614,3.02114 -1.18342,7.82925 -1.41683,4.34667 -2.15537,5.9583 -3.11687,7.82553 -3.91869,6.27442 -1.85277,3.23241 -3.04046,3.26483 -3.15466,3.91758 -4.24474,3.80878 -4.6792,4.12885 -6.10044,4.21963 -2.48893,0.56452 -1.73788,-0.975 -7.53414,-8.20125 -4.12532,-5.64354 -3.69609,-5.20438 -3.95082,-7.28743 -3.22028,-7.75595 -1.38671,-4.46289 -1.2998,-4.78247 -1.20503,-6.20274 -0.4972,-8.3529 0.3127,-5.94384 0.0996,-7.21422 1.41076,-10.11693 1.86347,-9.1156 1.7323,-8.69072 2.50669,-8.87146 2.634,-8.70239 2.0741,-6.21148 z"
           id="path3" /><path
           style="fill:#3ecc5f;stroke:#3ecc5f;stroke-linecap:round;stroke-linejoin:round;paint-order:stroke fill markers"
           d="m -310.3971,203.96603 1.2231,1.57696 1.46358,1.67321 1.02989,0.64103 1.03208,0.81516 1.41095,0.70479 1.63153,0.5446 1.84019,0.49044 2.12104,0.48834 2.06604,0.32696 2.77264,0.21798 h 2.4508 l 2.61177,0.0545 2.71826,-0.38145 2.77438,-0.32696 2.75796,-1.19324 3.90359,-2.38133 1.08931,-1.30729 -1.73945,-2.28154 -2.17545,-1.89446 -2.55414,-1.95771 -3.48213,-1.78986 -4.67366,-1.51592 -4.51468,-0.81485 c 0,0 -2.21366,-0.10899 -2.92168,0.0545 -0.70802,0.16348 -2.34282,0.59943 -2.34282,0.59943 l -1.84799,0.49044 -2.01003,0.92639 -2.2321,1.4692 -1.79663,1.68496 -1.68744,1.84878 z"
           id="path4" /></g><use
         x="0"
         y="0"
         xlink:href="#g4"
         id="use4"
         transform="matrix(-1,0,0,1,-260.06359,0)" /></g></g></svg>
