<?xml version="1.0" encoding="UTF-8" standalone="no"?>
<!-- Created with Inkscape (http://www.inkscape.org/) -->

<svg
   width="400"
   height="400"
   viewBox="0 0 400 400"
   version="1.1"
   id="svg1"
   inkscape:version="1.3.2 (1:1.3.2+202311252150+091e20ef0f)"
   xml:space="preserve"
   sodipodi:docname="tired_face.svg"
   xmlns:inkscape="http://www.inkscape.org/namespaces/inkscape"
   xmlns:sodipodi="http://sodipodi.sourceforge.net/DTD/sodipodi-0.dtd"
   xmlns="http://www.w3.org/2000/svg"
   xmlns:svg="http://www.w3.org/2000/svg"><sodipodi:namedview
     id="namedview1"
     pagecolor="#ffffff"
     bordercolor="#111111"
     borderopacity="1"
     inkscape:showpageshadow="0"
     inkscape:pageopacity="0"
     inkscape:pagecheckerboard="1"
     inkscape:deskcolor="#d1d1d1"
     inkscape:document-units="px"
     showgrid="true"
     inkscape:zoom="4.5877088"
     inkscape:cx="225.7118"
     inkscape:cy="146.36936"
     inkscape:window-width="1920"
     inkscape:window-height="1043"
     inkscape:window-x="0"
     inkscape:window-y="0"
     inkscape:window-maximized="1"
     inkscape:current-layer="layer1"><inkscape:grid
       id="grid1"
       units="px"
       originx="0"
       originy="0"
       spacingx="1"
       spacingy="1"
       empcolor="#0099e5"
       empopacity="0.30196078"
       color="#0099e5"
       opacity="0.14901961"
       empspacing="5"
       dotted="false"
       gridanglex="30"
       gridanglez="30"
       visible="true" /></sodipodi:namedview><defs
     id="defs1" /><g
     inkscape:label="Layer 1"
     inkscape:groupmode="layer"
     id="layer1"><path
       id="path2"
       style="fill:#3ecc5f;fill-opacity:1;stroke:#3ecc5f;stroke-linecap:round;stroke-linejoin:round;stroke-opacity:1;paint-order:stroke fill markers"
       d="M 200,72.109372 A 127.89122,127.89122 0 0 0 72.109378,200 127.89122,127.89122 0 0 0 200,327.89063 127.89122,127.89122 0 0 0 327.89062,200 127.89122,127.89122 0 0 0 200,72.109372 Z m -65.48438,55.355478 a 33.769135,28.877914 0 0 1 33.76954,28.87695 33.769135,28.877914 0 0 1 -33.76954,28.87695 33.769135,28.877914 0 0 1 -33.76757,-28.87695 33.769135,28.877914 0 0 1 33.76757,-28.87695 z m 92.21876,0 a 33.769135,28.877914 0 0 1 33.76757,28.87695 33.769135,28.877914 0 0 1 -33.76757,28.87695 33.769135,28.877914 0 0 1 -33.76954,-28.87695 33.769135,28.877914 0 0 1 33.76954,-28.87695 z M 120.29297,246.66016 h 115.66406 c 2.30638,0 4.16406,1.8249 4.16406,4.08984 0,2.26495 -1.85768,4.08789 -4.16406,4.08789 H 120.29297 c -2.30638,0 -4.16406,-1.82294 -4.16406,-4.08789 0,-2.26494 1.85768,-4.08984 4.16406,-4.08984 z" /><path
       id="path2-5"
       style="fill:#149f5f;fill-opacity:1;stroke:#3ecc5f;stroke-width:0.263968;stroke-linecap:round;stroke-linejoin:round;stroke-opacity:1;paint-order:stroke fill markers"
       d="m 260.33984,158.28125 a 33.769135,28.877914 0 0 1 -33.60546,26.9375 33.769135,28.877914 0 0 1 -33.56641,-26.45898 33.759239,33.759239 0 0 0 -0.19336,2.69141 33.759239,33.759239 0 0 0 33.75977,33.75781 33.759239,33.759239 0 0 0 33.75781,-33.75781 33.759239,33.759239 0 0 0 -0.15235,-3.16993 z" /><path
       id="path2-5-6"
       style="fill:#149f5f;fill-opacity:1;stroke:#3ecc5f;stroke-width:0.263968;stroke-linecap:round;stroke-linejoin:round;stroke-opacity:1;paint-order:stroke fill markers"
       d="m 168.12305,158.27735 a 33.769135,28.877914 0 0 1 -33.60743,26.9414 33.769135,28.877914 0 0 1 -33.56445,-26.45898 33.759239,33.759239 0 0 0 -0.19336,2.69141 33.759239,33.759239 0 0 0 33.75781,33.75781 33.759239,33.759239 0 0 0 33.75977,-33.75781 33.759239,33.759239 0 0 0 -0.15234,-3.17383 z" /><ellipse
       style="fill:#3ecc5f;fill-opacity:1;stroke:#3ecc5f;stroke-width:0.678797;stroke-linecap:round;stroke-linejoin:round;stroke-opacity:1;paint-order:stroke fill markers"
       id="path3"
       cx="120.62498"
       cy="155.3418"
       rx="9.6605949"
       ry="9.6606026" /><circle
       style="fill:#3ecc5f;fill-opacity:1;stroke:#3ecc5f;stroke-width:0.678798;stroke-linecap:round;stroke-linejoin:round;stroke-opacity:1;paint-order:stroke fill markers"
       id="path3-8"
       cx="210.625"
       cy="155.3418"
       r="9.6606016" /></g></svg>
