<?xml version="1.0" encoding="UTF-8" standalone="no"?>
<!-- Created with Inkscape (http://www.inkscape.org/) -->

<svg
   width="400"
   height="400"
   viewBox="0 0 400 400"
   version="1.1"
   id="svg1"
   inkscape:version="1.3.2 (1:1.3.2+202311252150+091e20ef0f)"
   xml:space="preserve"
   sodipodi:docname="two_asking_for_data.svg"
   xmlns:inkscape="http://www.inkscape.org/namespaces/inkscape"
   xmlns:sodipodi="http://sodipodi.sourceforge.net/DTD/sodipodi-0.dtd"
   xmlns="http://www.w3.org/2000/svg"
   xmlns:svg="http://www.w3.org/2000/svg"><sodipodi:namedview
     id="namedview1"
     pagecolor="#ffffff"
     bordercolor="#111111"
     borderopacity="1"
     inkscape:showpageshadow="0"
     inkscape:pageopacity="0"
     inkscape:pagecheckerboard="1"
     inkscape:deskcolor="#d1d1d1"
     inkscape:document-units="px"
     showgrid="true"
     inkscape:zoom="1.622"
     inkscape:cx="83.538841"
     inkscape:cy="190.81381"
     inkscape:window-width="1920"
     inkscape:window-height="1011"
     inkscape:window-x="1920"
     inkscape:window-y="32"
     inkscape:window-maximized="1"
     inkscape:current-layer="layer1"><inkscape:grid
       id="grid1"
       units="px"
       originx="0"
       originy="0"
       spacingx="1"
       spacingy="1"
       empcolor="#0099e5"
       empopacity="0.30196078"
       color="#0099e5"
       opacity="0.14901961"
       empspacing="5"
       dotted="false"
       gridanglex="30"
       gridanglez="30"
       visible="true" /></sodipodi:namedview><defs
     id="defs1" /><g
     inkscape:label="Layer 1"
     inkscape:groupmode="layer"
     id="layer1"><path
       id="path1"
       style="fill:#3ecc5f;fill-opacity:1;stroke:#3ecc5f;stroke-width:1.59681;stroke-linecap:round;stroke-linejoin:round;stroke-opacity:1;paint-order:stroke fill markers"
       d="M 126.63672 130.79883 A 57.564938 57.564945 0 0 0 69.072266 188.36328 A 57.564938 57.564945 0 0 0 126.63672 245.92773 A 57.564938 57.564945 0 0 0 184.20117 188.36328 A 57.564938 57.564945 0 0 0 126.63672 130.79883 z M 106.37109 160.45508 A 1.5278092 1.4729916 0 0 1 107.7793 161.92578 L 107.7793 183.00586 C 107.7793 183.60033 107.90109 183.87343 107.90039 183.93164 C 108.03695 183.99862 108.39973 184.1505 109.09375 184.24609 A 1.5278092 1.4729916 0 0 1 110.38281 185.96094 L 110.00781 188 A 1.5278092 1.4729916 0 0 1 108.43945 189.21484 C 107.21384 189.1656 106.12234 188.97142 105.16211 188.56641 A 1.5278092 1.4729916 0 0 1 105.14648 188.55859 C 104.16513 188.13129 103.33999 187.39816 102.84766 186.48047 A 1.5278092 1.4729916 0 0 1 102.83789 186.46094 C 102.34495 185.51041 102.16602 184.41545 102.16602 183.17188 L 102.16602 162.35156 A 1.5278092 1.4729916 0 0 1 103.43359 160.90039 L 105.99023 160.47266 L 105.99219 160.47266 A 1.5278092 1.4729916 0 0 1 106.37109 160.45508 z M 95.095703 168.54297 C 96.115055 168.54297 97.100255 168.62687 98.042969 168.79883 C 98.976157 168.96904 99.759046 169.18662 100.44531 169.5332 A 1.5278092 1.4729916 0 0 1 101.19922 171.26172 L 100.55078 173.33594 A 1.5278092 1.4729916 0 0 1 98.462891 174.25195 C 98.109428 174.0986 97.687151 173.96296 97.197266 173.84961 C 96.813001 173.76069 96.158673 173.69336 95.300781 173.69336 C 93.748039 173.69336 92.862907 174.09329 92.160156 174.92188 C 91.463426 175.76979 91.031251 177.05914 91.03125 178.96289 C 91.03125 180.12807 91.211517 181.09931 91.537109 181.9043 C 91.837383 182.62597 92.267856 183.12773 92.919922 183.53906 C 93.50963 183.89095 94.41033 184.13281 95.710938 184.13281 C 96.480351 184.13281 97.103763 184.04428 97.578125 183.90234 A 1.5278092 1.4729916 0 0 1 97.59375 183.89844 C 98.234235 183.71319 98.685438 183.543 98.847656 183.46484 A 1.5278092 1.4729916 0 0 1 101.01953 184.44727 L 101.53125 186.55078 A 1.5278092 1.4729916 0 0 1 100.75586 188.19141 C 100.1097 188.51928 99.362961 188.73484 98.408203 188.94727 C 97.404199 189.17065 96.365054 189.28125 95.300781 189.28125 C 93.23103 189.28125 91.381754 188.87602 89.84375 187.98633 A 1.5278092 1.4729916 0 0 1 89.826172 187.97656 C 88.326433 187.08271 87.158284 185.78837 86.408203 184.21289 C 85.665809 182.65357 85.314453 180.88878 85.314453 178.96289 C 85.314453 177.01113 85.679085 175.22594 86.451172 173.66016 C 87.220233 172.10051 88.374357 170.8174 89.84375 169.92383 L 89.845703 169.92188 C 89.846925 169.92089 89.848387 169.92067 89.849609 169.91992 C 91.364494 168.9922 93.154987 168.54297 95.095703 168.54297 z M 118.22656 168.54297 C 120.01702 168.54297 121.56827 168.83451 122.83398 169.57617 C 124.03538 170.26734 124.96482 171.29496 125.49414 172.5293 C 126.02038 173.68433 126.26758 174.97515 126.26758 176.36328 L 126.26758 187.05078 A 1.5278092 1.4729916 0 0 1 125.09375 188.48438 C 124.53006 188.61378 123.67522 188.76533 122.43359 188.96484 C 121.10598 189.17817 119.65829 189.28125 118.08789 189.28125 C 116.66887 189.28125 115.35251 189.0854 114.15625 188.66602 C 112.89713 188.22458 111.81593 187.44998 111.06836 186.41211 C 110.2768 185.31315 109.94336 183.94891 109.94336 182.44727 C 109.94336 180.95851 110.34567 179.57911 111.23242 178.50781 C 112.06635 177.47946 113.22921 176.73717 114.57812 176.3125 A 1.5278092 1.4729916 0 0 1 114.58789 176.30859 C 115.89955 175.90393 117.3336 175.7129 118.875 175.71289 C 119.42304 175.7129 119.99862 175.78254 120.57422 175.85156 C 120.53306 175.54459 120.52818 175.22166 120.44141 174.93359 A 1.5278092 1.4729916 0 0 1 120.42773 174.87891 C 120.32208 174.47146 120.15952 174.23008 119.82031 173.97852 C 119.62665 173.83488 119.06784 173.62696 118.05469 173.62695 C 116.87796 173.62695 116.01655 173.724 115.5957 173.83594 C 114.95409 174.00658 114.4831 174.14553 114.23633 174.23047 A 1.5278092 1.4729916 0 0 1 112.21289 173.07031 L 111.87305 170.9668 A 1.5278092 1.4729916 0 0 1 112.76172 169.39258 C 113.37496 169.12981 114.07318 168.96325 114.97461 168.79883 C 115.93955 168.6228 117.01819 168.54297 118.22656 168.54297 z M 137.125 168.60742 C 139.15568 168.60742 140.89416 168.95974 142.26953 169.84375 C 143.56222 170.67463 144.5071 171.90242 145.01172 173.35156 C 145.513 174.70648 145.74805 176.22838 145.74805 177.91016 L 145.74805 187.44531 A 1.5278092 1.4729916 0 0 1 144.2207 188.91992 L 141.66016 188.91992 A 1.5278092 1.4729916 0 0 1 140.13281 187.44531 L 140.13281 178.59961 C 140.13281 177.13277 139.98155 176.0153 139.75781 175.31836 C 139.54434 174.65344 139.27843 174.34467 138.91992 174.13281 C 138.55811 173.91901 137.85808 173.72461 136.7832 173.72461 C 135.88867 173.72461 135.1231 173.77859 134.49609 173.87305 C 134.41515 173.88522 134.42868 173.88441 134.35352 173.89648 L 134.35352 187.44531 A 1.5278092 1.4729916 0 0 1 132.82617 188.91992 L 130.26562 188.91992 A 1.5278092 1.4729916 0 0 1 128.73828 187.44531 L 128.73828 171.00195 A 1.5278092 1.4729916 0 0 1 129.88672 169.57617 C 130.635 169.39 131.5761 169.18939 132.73047 168.9668 C 134.002 168.72162 135.46033 168.60742 137.125 168.60742 z M 157.14648 168.60742 L 157.14844 168.60742 C 158.80913 168.60751 160.20929 168.71943 161.39453 168.97266 C 161.39657 168.97313 161.40031 168.97218 161.40234 168.97266 C 162.46332 169.17379 163.35205 169.37729 164.08203 169.5957 A 1.5278092 1.4729916 0 0 1 165.1582 171.00195 L 165.1582 186.42773 C 165.1582 189.24681 164.3565 191.60418 162.53125 193.07812 C 160.77459 194.51482 158.31002 195.10156 155.30469 195.10156 C 154.10721 195.10156 152.97844 195.0076 151.91602 194.8125 C 150.9116 194.62804 150.03092 194.41908 149.26172 194.17188 A 1.5278092 1.4729916 0 0 1 148.25586 192.44727 L 148.76758 190.27734 A 1.5278092 1.4729916 0 0 1 150.82422 189.23438 C 151.25581 189.40082 151.92851 189.58591 152.80078 189.75 A 1.5278092 1.4729916 0 0 1 152.83789 189.75781 C 153.66106 189.93208 154.50369 190.01953 155.375 190.01953 C 156.6122 190.01953 157.53243 189.85951 158.10742 189.63477 C 158.66288 189.41767 158.94288 189.16174 159.16602 188.74414 A 1.5278092 1.4729916 0 0 1 159.18359 188.71484 C 159.2891 188.52828 159.29766 188.06803 159.37109 187.77148 C 158.49905 188.02213 157.60609 188.22852 156.53516 188.22852 C 154.93922 188.22852 153.40397 187.90678 151.99414 187.26562 A 1.5278092 1.4729916 0 0 1 151.96289 187.25 C 150.50704 186.5482 149.31499 185.42823 148.45898 184.00977 A 1.5278092 1.4729916 0 0 1 148.44922 183.99219 C 147.57115 182.49023 147.19336 180.65756 147.19336 178.53516 C 147.19336 176.72025 147.56997 175.02899 148.3457 173.5332 A 1.5278092 1.4729916 0 0 1 148.35547 173.51562 C 149.15755 172.02058 150.33828 170.79989 151.82031 169.94141 C 153.3585 169.04144 155.17197 168.60771 157.14648 168.60742 z M 157.18164 173.72461 C 156.1799 173.72461 155.44733 173.92909 154.85938 174.28711 C 154.24925 174.65862 153.8024 175.152 153.45508 175.88867 A 1.5278092 1.4729916 0 0 1 153.44922 175.90039 C 153.10325 176.61756 152.91016 177.4889 152.91016 178.56641 C 152.91016 179.51052 153.04515 180.25931 153.25977 180.81641 C 153.49385 181.42401 153.77932 181.85331 154.09961 182.16211 C 154.45888 182.50849 154.82072 182.72867 155.2168 182.87109 C 155.69274 183.03378 156.15619 183.11133 156.63672 183.11133 C 157.42009 183.11133 158.10958 183.00276 158.73242 182.79688 A 1.5278092 1.4729916 0 0 1 158.74609 182.79297 C 159.17069 182.65651 159.33157 182.53277 159.57812 182.40039 L 159.57812 173.86914 C 159.51971 173.85981 159.50312 173.84868 159.44141 173.83984 C 158.98686 173.7724 158.20717 173.72461 157.18164 173.72461 z M 123.37695 174.10938 C 123.38001 174.11792 123.3778 174.12788 123.38086 174.13672 C 123.38361 174.14614 123.39054 174.15424 123.39258 174.16406 L 123.37695 174.10938 z M 150.68164 174.65625 L 150.67578 174.66797 C 150.67782 174.66502 150.68062 174.6631 150.68164 174.66016 C 150.68218 174.65917 150.68111 174.65723 150.68164 174.65625 z M 123.21289 178.56445 A 1.5278092 1.4729916 0 0 1 123.125 178.71875 A 1.5278092 1.4729916 0 0 1 123.21289 178.85547 L 123.21289 178.56445 z M 118.94141 180.66406 C 118.32507 180.66406 117.69539 180.72985 117.04297 180.86328 C 116.53398 180.96737 116.17831 181.14883 115.86523 181.41992 C 115.73432 181.54281 115.58984 181.75924 115.58984 182.41406 C 115.58984 183.33507 115.76879 183.55165 116.07031 183.73438 C 116.53883 184.01831 117.31296 184.23047 118.46484 184.23047 C 119.21898 184.23047 119.88595 184.20939 120.4707 184.16992 C 120.561 184.1605 120.60431 184.14849 120.68945 184.13867 L 120.68945 180.79297 C 120.29952 180.71878 119.71396 180.66602 118.94141 180.66602 L 118.94141 180.66406 z M 162.10352 184.36914 A 1.5278092 1.4729916 0 0 1 162.08789 184.39648 C 162.06661 184.41377 162.03321 184.41866 162.01172 184.43555 A 1.5278092 1.4729916 0 0 1 162.10352 184.58203 L 162.10352 184.36914 z M 161.88477 190.09375 C 161.88202 190.09925 161.87415 190.10348 161.87109 190.10938 C 161.86804 190.11409 161.86829 190.12009 161.86523 190.125 L 161.88477 190.09375 z " /><path
       id="rect1"
       style="fill:#3ecc5f;fill-opacity:1;stroke:#3ecc5f;stroke-width:1.7231;stroke-linecap:round;stroke-linejoin:round;stroke-opacity:1;paint-order:stroke fill markers"
       d="M 118.75 255.36914 C 108.50725 255.36914 100.26172 263.61662 100.26172 273.85938 L 100.26172 291.5957 L 107.28516 279.42578 C 112.00832 271.24192 122.39541 268.45864 130.57617 273.18359 C 138.75693 277.90855 141.54152 288.30051 136.81836 296.48438 L 102.71484 355.57422 C 102.01656 356.78415 101.18222 357.85909 100.26172 358.82617 L 100.26172 365.65039 C 100.26172 375.89314 108.50725 384.13867 118.75 384.13867 L 134.52344 384.13867 C 144.76619 384.13867 153.01172 375.89314 153.01172 365.65039 L 153.01172 273.85938 C 153.01172 263.61662 144.76619 255.36914 134.52344 255.36914 L 118.75 255.36914 z " /><rect
       style="fill:#3ecc5f;fill-opacity:1;stroke:#3ecc5f;stroke-width:1.59295;stroke-linecap:round;stroke-linejoin:round;stroke-opacity:1;paint-order:stroke fill markers"
       id="rect2"
       width="30.577152"
       height="91.748878"
       x="234.37396"
       y="176.30209"
       transform="matrix(0.86594319,0.50014236,-0.49985761,0.8661076,0,0)"
       rx="15.288576"
       ry="15.291479" /><rect
       style="fill:#3ecc5f;fill-opacity:1;stroke:#3ecc5f;stroke-width:1.58378;stroke-linecap:round;stroke-linejoin:round;stroke-opacity:1;paint-order:stroke fill markers"
       id="rect2-5"
       width="30.403963"
       height="91.211891"
       x="-202.5853"
       y="230.16571"
       transform="rotate(-44.999997)"
       rx="15.201982"
       ry="15.201982" /><path
       id="path1-9"
       style="fill:#3ecc5f;fill-opacity:1;stroke:#3ecc5f;stroke-width:1.59681;stroke-linecap:round;stroke-linejoin:round;stroke-opacity:1;paint-order:stroke fill markers"
       d="M 322.23633 131.29102 A 57.564938 57.564945 0 0 0 264.67188 188.85547 A 57.564938 57.564945 0 0 0 322.23633 246.41992 A 57.564938 57.564945 0 0 0 379.80078 188.85547 A 57.564938 57.564945 0 0 0 374.67383 165.14258 L 374.67383 186.87695 A 1.5679383 1.4352924 0 0 1 373.57617 188.24414 C 373.07812 188.38811 372.49132 188.53728 371.80078 188.69531 A 1.5679383 1.4352924 0 0 1 371.75 188.70508 C 371.0257 188.84716 370.21745 188.96165 369.33008 189.05273 C 368.40432 189.17295 367.38542 189.23047 366.25781 189.23047 C 364.22128 189.23047 362.3352 188.83018 360.69531 188.00195 A 1.5679383 1.4352924 0 0 1 360.67773 187.99219 C 359.04421 187.14139 357.73751 185.90317 356.84375 184.36914 A 1.5679383 1.4352924 0 0 1 356.83789 184.35938 C 355.93552 182.78476 355.51172 180.9537 355.51172 178.93359 C 355.51172 177.0218 355.86528 175.27354 356.61328 173.72656 A 1.5679383 1.4352924 0 0 1 356.62305 173.70703 C 357.39887 172.15983 358.56065 170.88455 360.05273 169.99023 C 361.59949 169.05521 363.45288 168.60352 365.46875 168.60352 C 366.70838 168.60352 367.84426 168.78671 368.88477 169.13477 L 368.88477 162.36133 A 1.5679383 1.4352924 0 0 1 370.18164 160.94531 L 372.36523 160.59375 A 57.564938 57.564945 0 0 0 322.23633 131.29102 z M 291.56055 160.51953 A 1.5679383 1.4352924 0 0 1 293.39844 161.93359 L 293.39844 182.9707 C 293.39844 183.58383 293.5343 183.86463 293.5293 183.91797 C 293.6719 183.98668 294.06671 184.1427 294.8125 184.24023 A 1.5679383 1.4352924 0 0 1 296.13281 185.91211 L 295.74023 187.94727 A 1.5679383 1.4352924 0 0 1 294.13086 189.12891 C 292.84605 189.0799 291.70267 188.88819 290.69922 188.48633 A 1.5679383 1.4352924 0 0 1 290.68359 188.47852 C 289.65904 188.05496 288.80081 187.32906 288.28711 186.41992 A 1.5679383 1.4352924 0 0 1 288.27539 186.40039 C 287.76106 185.45876 287.57227 184.37224 287.57227 183.13477 L 287.57227 162.36133 A 1.5679383 1.4352924 0 0 1 288.87109 160.94531 L 291.56055 160.51953 z M 280.10547 168.57227 C 281.17465 168.57227 282.20507 168.65502 283.19336 168.82617 C 284.17185 168.99562 284.99093 169.21132 285.70703 169.55469 A 1.5679383 1.4352924 0 0 1 286.48047 171.24219 L 285.80078 173.30859 A 1.5679383 1.4352924 0 0 1 283.65625 174.20508 C 283.28225 174.05102 282.83713 173.91237 282.32031 173.79883 C 281.91191 173.70907 281.22379 173.64062 280.32031 173.64062 C 278.6801 173.64062 277.73425 174.04568 276.98828 174.88086 C 276.24909 175.73485 275.79297 177.02863 275.79297 178.93359 C 275.79297 180.09984 275.98582 181.07477 276.33008 181.88281 C 276.64838 182.60919 277.10517 183.11508 277.79688 183.5293 C 278.42451 183.88499 279.38005 184.12695 280.75195 184.12695 C 281.5635 184.12695 282.21952 184.03943 282.72266 183.89648 A 1.5679383 1.4352924 0 0 1 282.73828 183.89453 C 283.41246 183.7094 283.89011 183.53878 284.06445 183.45898 A 1.5679383 1.4352924 0 0 1 286.29102 184.41406 L 286.83008 186.51562 A 1.5679383 1.4352924 0 0 1 286.03516 188.11328 C 285.36135 188.43792 284.57793 188.65361 283.57617 188.86523 C 282.52387 189.08753 281.43615 189.19727 280.32031 189.19727 C 278.1501 189.19727 276.21284 188.79406 274.60352 187.91016 A 1.5679383 1.4352924 0 0 1 274.58398 187.90039 C 273.01394 187.01193 271.79333 185.72474 271.00781 184.1582 C 270.23017 182.60739 269.86133 180.85137 269.86133 178.93359 C 269.86133 176.9901 270.24406 175.21335 271.05273 173.65625 C 271.85939 172.10303 273.06804 170.82977 274.60938 169.94141 C 276.19511 169.01914 278.07133 168.57227 280.10547 168.57227 z M 304.41211 168.57227 C 306.2895 168.57227 307.9143 168.8621 309.23633 169.59766 C 310.49156 170.28325 311.46395 171.30174 312.01758 172.52539 C 312.56887 173.67341 312.83008 174.95778 312.83008 176.33984 L 312.83008 187.00586 A 1.5679383 1.4352924 0 0 1 311.62305 188.40234 C 311.03276 188.531 310.13468 188.68377 308.83008 188.88281 C 307.43723 189.09531 305.91828 189.19727 304.26953 189.19727 C 302.78175 189.19727 301.40085 189.00284 300.14844 188.58594 C 298.8315 188.14757 297.70508 187.37944 296.92383 186.34961 C 296.09741 185.26026 295.74805 183.90569 295.74805 182.41211 C 295.74805 180.93244 296.16448 179.56375 297.08984 178.50195 C 297.96148 177.48083 299.17942 176.74444 300.5918 176.32227 A 1.5679383 1.4352924 0 0 1 300.60156 176.32031 C 301.97578 175.91776 303.47896 175.72461 305.0957 175.72461 C 305.68573 175.72461 306.30293 175.79466 306.92383 175.86719 C 306.88079 175.54401 306.87525 175.20477 306.7793 174.90234 A 1.5679383 1.4352924 0 0 1 306.76367 174.85156 C 306.65075 174.43807 306.47211 174.18901 306.10938 173.93359 C 305.896 173.78334 305.30198 173.57422 304.23242 173.57422 C 302.99387 173.57422 302.08688 173.67197 301.63867 173.78516 C 300.9639 173.95556 300.46815 174.09434 300.20703 174.17969 A 1.5679383 1.4352924 0 0 1 298.13086 173.05078 L 297.77148 170.95117 A 1.5679383 1.4352924 0 0 1 298.68555 169.41602 C 299.32502 169.15584 300.05604 168.98998 301.00195 168.82617 C 302.01305 168.65106 303.14388 168.57227 304.41211 168.57227 z M 324.27539 168.63672 C 326.40495 168.63672 328.22531 168.98645 329.66211 169.86328 C 331.01228 170.68726 332.0008 171.90442 332.5293 173.3418 C 333.05577 174.69053 333.30078 176.20747 333.30078 177.88477 L 333.30078 187.40039 A 1.5679383 1.4352924 0 0 1 331.73242 188.83594 L 329.04492 188.83594 A 1.5679383 1.4352924 0 0 1 327.47656 187.40039 L 327.47656 178.57422 C 327.47656 177.10837 327.31701 175.98978 327.08008 175.28906 C 326.8537 174.61956 326.56506 174.30019 326.17969 174.08398 C 325.79096 173.86588 325.05005 173.67383 323.91602 173.67383 C 322.97437 173.67383 322.16733 173.72569 321.50586 173.82031 C 321.40303 173.83495 321.42003 173.83712 321.32617 173.85156 L 321.32617 187.40039 A 1.5679383 1.4352924 0 0 1 319.75781 188.83594 L 317.07031 188.83594 A 1.5679383 1.4352924 0 0 1 315.50195 187.40039 L 315.50195 170.99219 A 1.5679383 1.4352924 0 0 1 316.67773 169.60156 C 317.4631 169.41605 318.45321 169.21422 319.66602 168.99219 C 320.99905 168.74814 322.52764 168.63672 324.27539 168.63672 z M 345.32031 168.63672 C 347.0649 168.63672 348.53126 168.748 349.77344 169 C 349.77553 169.00046 349.78111 168.99954 349.7832 169 C 350.89789 169.2006 351.83217 169.40363 352.59766 169.62109 A 1.5679383 1.4352924 0 0 1 353.69922 170.99219 L 353.69922 186.38281 C 353.69922 189.18995 352.86256 191.53167 350.95508 192.99414 C 349.11854 194.42033 346.5382 195.00586 343.38477 195.00586 C 342.12828 195.00586 340.94206 194.91298 339.82812 194.71875 C 338.77371 194.53491 337.8512 194.3261 337.04492 194.08008 A 1.5679383 1.4352924 0 0 1 336.01172 192.40039 L 336.54883 190.23438 A 1.5679383 1.4352924 0 0 1 338.66016 189.21875 C 339.11714 189.38608 339.82787 189.56841 340.74609 189.73242 A 1.5679383 1.4352924 0 0 1 340.7793 189.74023 C 341.64715 189.9146 342.53867 190.00195 343.45703 190.00195 C 344.76046 190.00195 345.73285 189.84195 346.34375 189.61523 C 346.93459 189.39597 347.23801 189.13679 347.47656 188.71289 A 1.5679383 1.4352924 0 0 1 347.49219 188.68359 C 347.6112 188.48383 347.62369 188.00528 347.70312 187.68359 C 346.77746 187.94308 345.82051 188.14648 344.67578 188.14648 C 343.00362 188.14648 341.39463 187.82706 339.91797 187.18945 A 1.5679383 1.4352924 0 0 1 339.88672 187.17578 C 338.3634 186.47856 337.11717 185.36554 336.2207 183.95508 A 1.5679383 1.4352924 0 0 1 336.20898 183.9375 C 335.29042 182.44568 334.89648 180.61975 334.89648 178.50586 C 334.89648 176.69931 335.28915 175.02056 336.10156 173.5332 A 1.5679383 1.4352924 0 0 1 336.11133 173.51562 C 336.95088 172.02979 338.18758 170.81631 339.73828 169.96289 C 341.34924 169.06755 343.24916 168.63672 345.32031 168.63672 z M 369 169.14648 C 369.01066 169.15002 369.01668 169.15242 369.02734 169.15625 C 369.03414 169.15912 369.04256 169.15729 369.04883 169.16016 L 369 169.14648 z M 369.18164 171.40234 C 369.18599 171.4049 369.18949 171.40807 369.19531 171.41016 C 369.19845 171.41143 369.2039 171.41115 369.20703 171.41211 L 369.18164 171.40234 z M 362.3125 171.47266 L 362.29492 171.48047 C 362.29879 171.47878 362.30351 171.48043 362.30664 171.47852 C 362.30978 171.47756 362.30936 171.47361 362.3125 171.47266 z M 371.53711 172.07422 A 1.5679383 1.4352924 0 0 1 371.2832 172.45703 C 371.3298 172.48985 371.40396 172.50695 371.44922 172.54102 A 1.5679383 1.4352924 0 0 1 371.53711 172.71094 L 371.53711 172.07422 z M 345.35742 173.67383 C 344.29901 173.67383 343.51929 173.87903 342.89453 174.24023 C 342.24702 174.6146 341.77197 175.11306 341.4043 175.85352 A 1.5679383 1.4352924 0 0 1 341.40039 175.86328 C 341.03408 176.58422 340.83008 177.4598 340.83008 178.53906 C 340.83008 179.48423 340.9697 180.23602 341.19727 180.79688 C 341.44481 181.40694 341.74878 181.84013 342.08984 182.15234 C 342.47093 182.50119 342.85568 182.72326 343.27734 182.86719 C 343.78153 183.0309 344.27374 183.11133 344.7832 183.11133 C 345.61021 183.11133 346.33916 183.00171 346.99805 182.79492 A 1.5679383 1.4352924 0 0 1 347.00977 182.79102 C 347.46638 182.65169 347.64702 182.52224 347.91016 182.38672 L 347.91016 173.82031 C 347.83661 173.80893 347.81308 173.79821 347.73438 173.78711 C 347.25327 173.71933 346.43631 173.67383 345.35742 173.67383 z M 365.75586 173.67383 C 364.86611 173.67383 364.19917 173.81715 363.69727 174.04688 A 1.5679383 1.4352924 0 0 1 363.67773 174.05469 C 363.16625 174.28124 362.78364 174.58154 362.45312 175.00195 C 362.12455 175.4502 361.86759 175.98198 361.69336 176.62891 C 361.5307 177.32408 361.44336 178.07934 361.44336 178.90039 C 361.44336 180.15283 361.67892 181.1372 362.07617 181.9043 C 362.50617 182.66693 363.03326 183.19203 363.72266 183.57227 C 364.44675 183.95875 365.26611 184.16016 366.29297 184.16016 C 367.29453 184.16016 368.09123 184.1153 368.64648 184.04297 C 368.64857 184.04279 368.6513 184.04316 368.65234 184.04297 C 368.75771 184.02623 368.7884 184.01617 368.88477 184 L 368.88477 174.48438 C 368.62493 174.34708 368.46053 174.23093 368.00586 174.06445 A 1.5679383 1.4352924 0 0 1 367.9707 174.04883 C 367.3528 173.80641 366.62936 173.67383 365.75586 173.67383 z M 309.78906 174.10352 C 309.7922 174.11194 309.79179 174.1203 309.79492 174.12891 C 309.79774 174.13809 309.80455 174.14668 309.80664 174.15625 L 309.78906 174.10352 z M 338.55664 174.65234 L 338.55078 174.66406 C 338.55287 174.66119 338.5556 174.65912 338.55664 174.65625 C 338.55718 174.65529 338.5561 174.6533 338.55664 174.65234 z M 309.69336 178.41211 A 1.5679383 1.4352924 0 0 1 309.52539 178.69141 A 1.5679383 1.4352924 0 0 1 309.69336 178.94336 L 309.69336 178.41211 z M 305.16602 180.59961 C 304.51549 180.59961 303.85023 180.66325 303.16211 180.79688 C 302.62117 180.90191 302.2405 181.08832 301.90625 181.36328 C 301.75977 181.49376 301.60547 181.71908 301.60547 182.37891 C 301.60547 183.30516 301.79979 183.53525 302.12891 183.72461 C 302.6294 184.01261 303.44875 184.22656 304.66406 184.22656 C 305.45769 184.22656 306.16148 184.20543 306.77734 184.16602 C 306.88588 184.1553 306.93953 184.14215 307.04102 184.13086 L 307.04102 180.73047 C 306.62823 180.65382 305.99289 180.59961 305.16602 180.59961 z M 350.56445 184.18164 A 1.5679383 1.4352924 0 0 1 350.48828 184.33008 C 350.45926 184.35237 350.41239 184.35914 350.38281 184.38086 A 1.5679383 1.4352924 0 0 1 350.56445 184.6543 L 350.56445 184.18164 z M 371.53711 185.74414 A 1.5679383 1.4352924 0 0 1 371.49414 185.79492 C 371.50982 185.79138 371.52154 185.78898 371.53711 185.78516 L 371.53711 185.74414 z M 350.26172 190.02734 C 350.25951 190.02992 350.25558 190.03209 350.25391 190.03516 C 350.24973 190.04147 350.25027 190.04994 350.24609 190.05664 L 350.26172 190.02734 z M 340.10938 192.54297 L 340.14258 192.55078 C 340.13202 192.54887 340.12764 192.54488 340.11719 192.54297 C 340.11405 192.54244 340.11251 192.54349 340.10938 192.54297 z " /><path
       id="rect1-7"
       style="fill:#3ecc5f;fill-opacity:1;stroke:#3ecc5f;stroke-width:1.7231;stroke-linecap:round;stroke-linejoin:round;stroke-opacity:1;paint-order:stroke fill markers"
       d="m 314.34983,255.86155 c -10.24275,0 -18.48828,8.24748 -18.48828,18.49024 v 17.73632 l 7.02344,-12.16992 c 4.72316,-8.18386 15.11025,-10.96714 23.29101,-6.24219 8.18076,4.72496 10.96535,15.11692 6.24219,23.30079 l -34.10352,59.08984 c -0.69828,1.20993 -1.53262,2.28487 -2.45312,3.25195 v 6.82422 c 0,10.24275 8.24553,18.48828 18.48828,18.48828 h 15.77344 c 10.24275,0 18.48828,-8.24553 18.48828,-18.48828 v -91.79101 c 0,-10.24276 -8.24553,-18.49024 -18.48828,-18.49024 z" /><rect
       style="fill:#3ecc5f;fill-opacity:1;stroke:#3ecc5f;stroke-width:1.59295;stroke-linecap:round;stroke-linejoin:round;stroke-opacity:1;paint-order:stroke fill markers"
       id="rect2-3"
       width="30.577152"
       height="91.748878"
       x="404.03061"
       y="78.900726"
       transform="matrix(0.86594319,0.50014236,-0.49985761,0.8661076,0,0)"
       rx="15.288576"
       ry="15.291479" /><rect
       style="fill:#3ecc5f;fill-opacity:1;stroke:#3ecc5f;stroke-width:1.58378;stroke-linecap:round;stroke-linejoin:round;stroke-opacity:1;paint-order:stroke fill markers"
       id="rect2-5-6"
       width="30.403963"
       height="91.211891"
       x="-64.623505"
       y="368.82385"
       transform="rotate(-44.999997)"
       rx="15.201982"
       ry="15.201982" /><rect
       style="fill:#3ecc5f;fill-opacity:1;stroke:#3ecc5f;stroke-width:0.980437;stroke-linecap:round;stroke-linejoin:round;stroke-opacity:1;paint-order:stroke fill markers"
       id="rect3"
       width="69.019562"
       height="9.2892122"
       x="5.4902182"
       y="280.22055"
       rx="0"
       ry="0" /><rect
       style="fill:#3ecc5f;fill-opacity:1;stroke:#3ecc5f;stroke-width:0.980437;stroke-linecap:round;stroke-linejoin:round;stroke-opacity:1;paint-order:stroke fill markers"
       id="rect3-3"
       width="69.019562"
       height="9.2892122"
       x="5.4902186"
       y="265.49023"
       rx="0"
       ry="0" /><rect
       style="fill:#3ecc5f;fill-opacity:1;stroke:#3ecc5f;stroke-width:0.980437;stroke-linecap:round;stroke-linejoin:round;stroke-opacity:1;paint-order:stroke fill markers"
       id="rect3-7"
       width="69.019562"
       height="9.2892122"
       x="5.4902186"
       y="250.22057"
       rx="0"
       ry="0" /><rect
       style="fill:#3ecc5f;fill-opacity:1;stroke:#3ecc5f;stroke-width:0.980437;stroke-linecap:round;stroke-linejoin:round;stroke-opacity:1;paint-order:stroke fill markers"
       id="rect3-0"
       width="69.019562"
       height="9.2892122"
       x="5.4902186"
       y="235.49022"
       rx="0"
       ry="0" /><rect
       style="fill:#3ecc5f;fill-opacity:1;stroke:#3ecc5f;stroke-width:0.980437;stroke-linecap:round;stroke-linejoin:round;stroke-opacity:1;paint-order:stroke fill markers"
       id="rect3-06"
       width="69.019562"
       height="9.2892122"
       x="5.4902186"
       y="220.22057"
       rx="0"
       ry="0" /><text
       xml:space="preserve"
       style="font-size:33.4951px;font-family:Ubuntu;-inkscape-font-specification:Ubuntu;fill:none;fill-opacity:1;stroke:none;stroke-width:2.791;stroke-linecap:round;stroke-linejoin:round;stroke-dasharray:none;stroke-opacity:1;paint-order:stroke fill markers"
       x="88.34594"
       y="159.81032"
       id="text3-5"
       transform="scale(1.0184376,0.9818962)"><tspan
         id="tspan3-4"
         x="88.34594"
         y="159.81032"
         style="stroke:none;stroke-width:2.791;stroke-dasharray:none;stroke-opacity:1;fill:none;fill-opacity:1"
         sodipodi:role="line">clang</tspan></text><path
       id="path3"
       style="fill:#3ecc5f;fill-opacity:1;stroke:#3ecc5f;stroke-width:1.02385;stroke-linecap:round;stroke-linejoin:round;stroke-opacity:1;paint-order:stroke fill markers"
       d="M 225 40.511719 A 74.488075 39.488075 0 0 0 150.51172 80 A 74.488075 39.488075 0 0 0 225 119.48828 A 74.488075 39.488075 0 0 0 299.48828 80 A 74.488075 39.488075 0 0 0 225 40.511719 z M 261.52734 54.5625 L 263.5293 54.5625 A 1.5691222 1.4342095 0 0 1 265.09766 55.996094 L 265.09766 60.363281 C 265.09766 61.038372 265.07965 61.679635 265.04492 62.285156 L 265.04492 62.292969 C 265.02714 62.87022 264.99308 63.435555 264.94141 63.986328 C 264.89124 64.520957 264.83236 65.039445 264.76562 65.546875 L 264.76172 65.589844 C 264.71137 66.09226 264.65236 66.60116 264.58594 67.117188 A 1.5691222 1.4342095 0 0 1 263.19922 68.244141 C 263.73939 68.365614 264.31226 68.448147 264.69727 68.814453 C 265.2421 69.322029 265.57227 70.068885 265.57227 70.767578 C 265.57227 71.465707 265.2413 72.213143 264.69727 72.720703 C 264.13933 73.25154 263.29488 73.552734 262.52734 73.552734 C 261.74775 73.552734 260.89556 73.271722 260.31836 72.744141 A 1.5691222 1.4342095 0 0 1 260.28516 72.710938 C 259.75523 72.196306 259.45703 71.454615 259.45703 70.767578 C 259.45703 70.080543 259.75523 69.338851 260.28516 68.824219 A 1.5691222 1.4342095 0 0 1 260.31836 68.794922 C 260.71733 68.430255 261.29841 68.354067 261.8457 68.236328 A 1.5691222 1.4342095 0 0 1 260.46875 67.117188 C 260.40223 66.600475 260.33595 66.091217 260.26953 65.589844 C 260.20047 65.069148 260.13935 64.535725 260.08789 63.986328 A 1.5691222 1.4342095 0 0 1 260.08398 63.945312 C 260.05051 63.410273 260.01785 62.860291 259.98438 62.294922 A 1.5691222 1.4342095 0 0 1 259.98242 62.253906 C 259.96527 61.660421 259.95703 61.029886 259.95703 60.363281 L 259.95703 55.996094 A 1.5691222 1.4342095 0 0 1 261.52734 54.5625 z M 223.63281 54.859375 A 1.5691222 1.4342095 0 0 1 225.4707 56.269531 L 225.4707 58.5625 L 228.98047 58.5625 A 1.5691222 1.4342095 0 0 1 230.54883 59.998047 L 230.54883 61.439453 A 1.5691222 1.4342095 0 0 1 228.98047 62.873047 L 225.4707 62.873047 L 225.4707 67.498047 C 225.4707 68.225167 225.58397 68.706164 225.65039 68.857422 C 225.72075 68.987261 225.7553 69.01624 225.76367 69.017578 C 225.93441 69.076456 226.16016 69.128906 226.50391 69.128906 C 227.01381 69.128906 227.36829 69.06658 227.54688 69.007812 A 1.5691222 1.4342095 0 0 1 227.56641 69.001953 C 227.96935 68.874464 228.27447 68.763444 228.44336 68.691406 A 1.5691222 1.4342095 0 0 1 230.39648 69.378906 C 229.91131 68.320658 229.58789 67.182534 229.58789 65.919922 C 229.58789 64.495019 229.8757 63.181579 230.50391 62.033203 A 1.5691222 1.4342095 0 0 1 230.50781 62.023438 C 231.13819 60.889664 232.05514 59.945516 233.19922 59.287109 C 234.3548 58.62207 235.70284 58.289062 237.11133 58.289062 C 238.53281 58.289062 239.88954 58.619947 241.04883 59.287109 C 242.19373 59.945996 243.10097 60.896015 243.71484 62.033203 C 244.04807 62.626393 244.28303 63.266142 244.4375 63.941406 C 244.58762 63.266625 244.81397 62.626773 245.13867 62.033203 A 1.5691222 1.4342095 0 0 1 245.14453 62.023438 C 245.77491 60.88967 246.68796 59.945516 247.83203 59.287109 C 248.98763 58.622074 250.3376 58.289062 251.74609 58.289062 C 253.16759 58.289062 254.52626 58.619944 255.68555 59.287109 C 256.82792 59.944533 257.73385 60.89156 258.34766 62.025391 C 258.99502 63.174657 259.29492 64.492856 259.29492 65.919922 C 259.29492 67.346366 258.99519 68.669354 258.35352 69.828125 C 257.73963 70.966373 256.83126 71.916826 255.68555 72.576172 A 1.5691222 1.4342095 0 0 1 255.67578 72.580078 C 254.52499 73.235005 253.17332 73.552734 251.74609 73.552734 C 250.34519 73.552734 249.00394 73.230706 247.84961 72.585938 A 1.5691222 1.4342095 0 0 1 247.83203 72.576172 C 246.68796 71.917765 245.77296 70.973612 245.14258 69.839844 A 1.5691222 1.4342095 0 0 1 245.13477 69.822266 C 244.71345 69.039229 244.64717 68.096805 244.51758 67.183594 C 244.38757 68.123603 244.16113 69.025701 243.7168 69.828125 C 243.1029 70.966368 242.19453 71.916826 241.04883 72.576172 A 1.5691222 1.4342095 0 0 1 241.04102 72.580078 C 239.89022 73.235001 238.5366 73.552734 237.10938 73.552734 C 235.70846 73.552734 234.36917 73.23071 233.21484 72.585938 A 1.5691222 1.4342095 0 0 1 233.19727 72.576172 C 232.19493 71.999338 231.40623 71.173467 230.79297 70.222656 L 231.02148 71.021484 A 1.5691222 1.4342095 0 0 1 230.3125 72.615234 C 229.84604 72.871048 229.36847 73.025182 228.73633 73.207031 L 228.73242 73.207031 C 227.98643 73.427177 227.18762 73.527344 226.35156 73.527344 C 225.06857 73.527344 223.91551 73.335972 222.9375 72.794922 C 221.9908 72.27118 221.28477 71.424835 220.91797 70.460938 A 1.5691222 1.4342095 0 0 1 220.9082 70.435547 C 220.58634 69.533386 220.45509 68.517091 220.45508 67.361328 L 220.45508 56.568359 A 1.5691222 1.4342095 0 0 1 221.75781 55.15625 L 223.63281 54.859375 z M 207.56445 58.289062 L 207.56641 58.289062 C 208.8721 58.289062 210.10306 58.558589 211.1582 59.130859 C 212.25003 59.699382 213.09859 60.600485 213.64062 61.683594 C 214.20437 62.794193 214.4375 64.086278 214.4375 65.554688 C 214.4375 65.682379 214.42557 65.812751 214.41406 65.943359 C 214.41406 66.133631 214.40258 66.322182 214.37695 66.509766 A 1.5691222 1.4342095 0 0 1 212.81836 67.765625 L 205.88086 67.765625 C 205.98982 67.972431 205.99893 68.358902 206.13867 68.505859 C 206.50622 68.86344 207.1218 69.128906 208.36719 69.128906 C 209.12455 69.128906 209.69086 69.057909 210.01562 68.974609 L 210.01758 68.974609 C 210.5029 68.838283 210.85828 68.711953 210.91602 68.685547 A 1.5691222 1.4342095 0 0 1 213.1543 69.677734 L 213.48047 71.119141 A 1.5691222 1.4342095 0 0 1 212.72266 72.654297 C 212.1866 72.934272 211.70611 73.04572 210.97656 73.224609 L 210.97266 73.226562 C 210.14057 73.434696 209.23981 73.527344 208.26562 73.527344 C 206.54676 73.527344 205.00815 73.227238 203.74023 72.515625 A 1.5691222 1.4342095 0 0 1 203.73047 72.509766 C 202.54521 71.832671 201.62059 70.852297 201.05273 69.679688 A 1.5691222 1.4342095 0 0 1 201.04102 69.660156 C 200.51281 68.527448 200.26758 67.2683 200.26758 65.919922 C 200.26758 64.35936 200.57532 62.960236 201.28711 61.777344 C 201.95197 60.672432 202.86892 59.766471 204.00391 59.167969 A 1.5691222 1.4342095 0 0 1 204.01367 59.160156 C 205.11113 58.592367 206.3266 58.289062 207.56445 58.289062 z M 185.95117 58.335938 C 186.92708 58.335937 187.82848 58.457959 188.64844 58.755859 C 188.99881 58.8806 189.23212 59.162571 189.54297 59.351562 C 189.54506 59.352519 189.54478 59.354513 189.54688 59.355469 C 190.06883 59.068977 190.64988 58.841567 191.30859 58.652344 A 1.5691222 1.4342095 0 0 1 191.32031 58.648438 C 192.09544 58.431955 192.92828 58.335938 193.80664 58.335938 C 195.33583 58.335938 196.68698 58.59058 197.75195 59.337891 C 198.71721 59.990478 199.39165 60.95433 199.69922 62.035156 C 199.97594 62.993377 200.10156 64.04892 200.10156 65.210938 L 200.10156 71.84375 A 1.5691222 1.4342095 0 0 1 198.5332 73.277344 L 196.6582 73.277344 A 1.5691222 1.4342095 0 0 1 195.08984 71.84375 L 195.08984 65.693359 C 195.08984 64.752434 195.01326 64.013205 194.89844 63.523438 A 1.5691222 1.4342095 0 0 1 194.89648 63.515625 C 194.79795 63.08534 194.6656 62.945317 194.57031 62.875 C 194.52677 62.842858 194.26609 62.712891 193.63086 62.712891 C 193.14099 62.712891 192.75968 62.768728 192.48438 62.849609 A 1.5691222 1.4342095 0 0 1 192.44922 62.859375 C 192.25276 62.912581 192.16465 62.964088 192.03125 63.017578 C 192.05771 63.155672 192.11109 63.275334 192.13086 63.417969 C 192.22464 63.976103 192.27148 64.550352 192.27148 65.142578 L 192.27148 71.84375 A 1.5691222 1.4342095 0 0 1 190.70312 73.277344 L 188.82812 73.277344 A 1.5691222 1.4342095 0 0 1 187.25781 71.84375 L 187.25781 65.693359 C 187.25781 64.752434 187.18319 64.013205 187.06836 63.523438 A 1.5691222 1.4342095 0 0 1 187.06641 63.515625 C 186.97026 63.095765 186.84563 62.968889 186.73828 62.892578 A 1.5691222 1.4342095 0 0 1 186.71484 62.875 C 186.68662 62.854162 186.40132 62.712891 185.72461 62.712891 C 185.29504 62.712891 184.91685 62.732618 184.59375 62.769531 A 1.5691222 1.4342095 0 0 1 184.53516 62.775391 C 184.49541 62.778565 184.47927 62.783763 184.44141 62.787109 L 184.44141 71.84375 A 1.5691222 1.4342095 0 0 1 182.87305 73.277344 L 180.99609 73.277344 A 1.5691222 1.4342095 0 0 1 179.42773 71.84375 L 179.42773 60.410156 A 1.5691222 1.4342095 0 0 1 180.60547 59.021484 C 181.15904 58.890908 181.83799 58.751145 182.6543 58.595703 C 183.60606 58.414472 184.69336 58.335938 185.95117 58.335938 z M 189.54297 59.351562 L 189.51172 59.367188 C 189.51486 59.365562 189.51835 59.36686 189.52148 59.365234 C 189.53006 59.36077 189.5346 59.356056 189.54297 59.351562 z M 191.55859 60.109375 L 191.52344 60.119141 C 191.52846 60.117599 191.53579 60.118717 191.54102 60.117188 C 191.54781 60.115371 191.55232 60.111191 191.55859 60.109375 z M 210.23047 60.457031 C 210.23957 60.462318 210.24254 60.473162 210.25195 60.478516 C 210.26084 60.483965 210.27288 60.480783 210.28125 60.486328 L 210.23047 60.457031 z M 188.66406 60.626953 C 188.66825 60.630032 188.66964 60.635613 188.67383 60.638672 C 188.6777 60.641444 188.68136 60.639806 188.68555 60.642578 L 188.66406 60.626953 z M 207.58984 62.642578 C 207.12939 62.642578 206.84255 62.732456 206.56055 62.912109 C 206.32308 63.063383 206.16984 63.286988 206.00391 63.501953 L 209.08984 63.501953 C 208.9295 63.171549 208.76566 63.002167 208.55273 62.878906 A 1.5691222 1.4342095 0 0 1 208.5 62.849609 C 208.31469 62.732806 208.06376 62.642578 207.58984 62.642578 z M 237.10938 62.689453 C 236.55898 62.689452 236.20539 62.79863 235.87891 63.005859 C 235.54018 63.220861 235.26556 63.522183 235.0293 64.013672 C 234.81042 64.503158 234.67773 65.127441 234.67773 65.919922 C 234.67773 66.712402 234.81042 67.336686 235.0293 67.826172 C 235.26556 68.317662 235.54018 68.620936 235.87891 68.835938 C 236.20539 69.043167 236.55898 69.150391 237.10938 69.150391 C 237.68177 69.150391 238.04629 69.03962 238.36719 68.835938 C 238.70351 68.622463 238.96581 68.332376 239.1875 67.841797 A 1.5691222 1.4342095 0 0 1 239.19727 67.818359 C 239.42806 67.333184 239.57031 66.710855 239.57031 65.919922 C 239.57031 65.128988 239.42806 64.508612 239.19727 64.023438 A 1.5691222 1.4342095 0 0 1 239.1875 63.998047 C 238.96581 63.507468 238.70351 63.219335 238.36719 63.005859 C 238.04629 62.802177 237.68179 62.689453 237.10938 62.689453 z M 251.74609 62.689453 C 251.1957 62.689452 250.84016 62.798628 250.51367 63.005859 C 250.17564 63.220421 249.90196 63.522032 249.66602 64.011719 C 249.44676 64.501403 249.3125 65.12669 249.3125 65.919922 C 249.3125 66.713153 249.44676 67.338441 249.66602 67.828125 C 249.90196 68.317812 250.17564 68.621377 250.51367 68.835938 C 250.84016 69.043168 251.1957 69.150391 251.74609 69.150391 C 252.3185 69.150391 252.68106 69.039618 253.00195 68.835938 C 253.33828 68.622464 253.60057 68.332372 253.82227 67.841797 A 1.5691222 1.4342095 0 0 1 253.83398 67.818359 C 254.06478 67.333184 254.20312 66.710855 254.20312 65.919922 C 254.20312 65.128988 254.06478 64.508612 253.83398 64.023438 A 1.5691222 1.4342095 0 0 1 253.82227 63.998047 C 253.60057 63.507472 253.33828 63.219333 253.00195 63.005859 C 252.68106 62.802179 252.3185 62.689453 251.74609 62.689453 z M 242.07617 62.878906 C 242.07808 62.882797 242.07603 62.888658 242.07812 62.892578 C 242.08022 62.897186 242.0858 62.897659 242.08789 62.902344 L 242.07617 62.878906 z M 256.71094 62.878906 C 256.71303 62.884002 256.7147 62.889464 256.7168 62.894531 C 256.71784 62.897495 256.72161 62.89938 256.72266 62.902344 L 256.71094 62.878906 z M 242.08789 68.9375 C 242.0858 68.942108 242.08022 68.94463 242.07812 68.949219 C 242.07622 68.95311 242.07826 68.958971 242.07617 68.962891 L 242.08789 68.9375 z M 256.72266 68.9375 C 256.72161 68.940464 256.71589 68.942349 256.71484 68.945312 C 256.71275 68.950418 256.71303 68.957824 256.71094 68.962891 L 256.72266 68.9375 z M 262.51953 70.707031 C 262.50021 70.714663 262.47814 70.722544 262.45898 70.730469 C 262.44936 70.758729 262.43359 70.80646 262.43359 70.767578 C 262.43359 70.728686 262.44957 70.776408 262.45898 70.804688 C 262.47767 70.812437 262.49847 70.822272 262.51758 70.830078 C 262.5245 70.827747 262.53522 70.823944 262.53711 70.822266 L 262.56836 70.791016 C 262.56722 70.792124 262.57285 70.777894 262.57617 70.767578 C 262.57304 70.757694 262.56713 70.745028 262.56836 70.746094 L 262.53711 70.712891 C 262.53542 70.711394 262.5254 70.708983 262.51953 70.707031 z M 261.52734 83.146484 L 263.5293 83.146484 A 1.5691222 1.4342095 0 0 1 265.09766 84.580078 L 265.09766 88.947266 C 265.09766 89.622352 265.07965 90.261668 265.04492 90.867188 L 265.04492 90.875 C 265.02714 91.452251 264.99308 92.017587 264.94141 92.568359 C 264.89124 93.102988 264.83236 93.621478 264.76562 94.128906 L 264.76172 94.171875 C 264.71137 94.674291 264.65236 95.183191 264.58594 95.699219 A 1.5691222 1.4342095 0 0 1 263.19922 96.826172 C 263.73949 96.947628 264.31221 97.032072 264.69727 97.398438 C 265.24129 97.906 265.57227 98.651489 265.57227 99.349609 C 265.57227 100.04774 265.2413 100.79517 264.69727 101.30273 C 264.13933 101.83357 263.29488 102.13477 262.52734 102.13477 C 261.74775 102.13477 260.89556 101.85375 260.31836 101.32617 A 1.5691222 1.4342095 0 0 1 260.28516 101.29492 C 259.75524 100.78029 259.45703 100.03664 259.45703 99.349609 C 259.45703 98.662569 259.75523 97.922832 260.28516 97.408203 A 1.5691222 1.4342095 0 0 1 260.31836 97.376953 C 260.71733 97.01228 261.29841 96.936096 261.8457 96.818359 A 1.5691222 1.4342095 0 0 1 260.46875 95.699219 C 260.40223 95.182505 260.33595 94.673248 260.26953 94.171875 C 260.20047 93.651181 260.13935 93.117756 260.08789 92.568359 A 1.5691222 1.4342095 0 0 1 260.08398 92.527344 C 260.05051 91.992306 260.01784 91.442325 259.98438 90.876953 A 1.5691222 1.4342095 0 0 1 259.98242 90.837891 C 259.96527 90.244406 259.95703 89.61387 259.95703 88.947266 L 259.95703 84.580078 A 1.5691222 1.4342095 0 0 1 261.52734 83.146484 z M 224.02344 83.423828 A 1.5691222 1.4342095 0 0 1 225.4707 84.855469 L 225.4707 87.148438 L 228.98047 87.148438 A 1.5691222 1.4342095 0 0 1 230.54883 88.582031 L 230.54883 90.021484 A 1.5691222 1.4342095 0 0 1 228.98047 91.455078 L 225.4707 91.455078 L 225.4707 96.080078 C 225.4707 96.807196 225.58397 97.288207 225.65039 97.439453 C 225.72075 97.569255 225.7553 97.600607 225.76367 97.601562 C 225.93441 97.660397 226.16016 97.710937 226.50391 97.710938 C 227.01381 97.710938 227.3683 97.64864 227.54688 97.589844 A 1.5691222 1.4342095 0 0 1 227.56641 97.583984 C 227.96936 97.456497 228.27446 97.345522 228.44336 97.273438 A 1.5691222 1.4342095 0 0 1 230.39648 97.960938 C 229.91131 96.902694 229.58789 95.766517 229.58789 94.503906 C 229.58789 93.079006 229.8757 91.763609 230.50391 90.615234 A 1.5691222 1.4342095 0 0 1 230.50781 90.605469 C 231.13819 89.471697 232.05514 88.5295 233.19922 87.871094 C 234.3548 87.206056 235.70284 86.873047 237.11133 86.873047 C 238.53281 86.873047 239.88954 87.203932 241.04883 87.871094 C 242.19373 88.52998 243.10097 89.478049 243.71484 90.615234 C 244.04836 91.208942 244.28304 91.849472 244.4375 92.525391 C 244.58762 91.850587 244.81396 91.208822 245.13867 90.615234 A 1.5691222 1.4342095 0 0 1 245.14453 90.605469 C 245.77491 89.471703 246.68796 88.5295 247.83203 87.871094 C 248.98763 87.206059 250.33761 86.873047 251.74609 86.873047 C 253.16759 86.873047 254.52626 87.203929 255.68555 87.871094 C 256.82792 88.528517 257.73385 89.473593 258.34766 90.607422 C 258.99502 91.756687 259.29492 93.076843 259.29492 94.503906 C 259.29492 95.930345 258.99518 97.253339 258.35352 98.412109 C 257.73963 99.550354 256.83126 100.50081 255.68555 101.16016 A 1.5691222 1.4342095 0 0 1 255.67578 101.16406 C 254.52499 101.81899 253.17332 102.13477 251.74609 102.13477 C 250.3452 102.13477 249.00394 101.8147 247.84961 101.16992 A 1.5691222 1.4342095 0 0 1 247.83203 101.16016 C 246.68796 100.50175 245.77296 99.555636 245.14258 98.421875 A 1.5691222 1.4342095 0 0 1 245.13477 98.40625 C 244.71345 97.623213 244.64717 96.68079 244.51758 95.767578 C 244.38757 96.707587 244.16113 97.607731 243.7168 98.410156 C 243.1029 99.548401 242.19454 100.50081 241.04883 101.16016 A 1.5691222 1.4342095 0 0 1 241.04102 101.16406 C 239.89022 101.81899 238.53659 102.13477 237.10938 102.13477 C 235.70846 102.13477 234.36917 101.8147 233.21484 101.16992 A 1.5691222 1.4342095 0 0 1 233.19727 101.16016 C 232.19493 100.58332 231.40623 99.75549 230.79297 98.804688 L 231.02148 99.603516 A 1.5691222 1.4342095 0 0 1 230.3125 101.19922 C 229.84603 101.45504 229.36847 101.60917 228.73633 101.79102 L 228.73242 101.79102 C 227.98643 102.01116 227.18761 102.11133 226.35156 102.11133 C 225.06857 102.11133 223.91551 101.91996 222.9375 101.37891 C 221.9908 100.85517 221.28477 100.00686 220.91797 99.042969 A 1.5691222 1.4342095 0 0 1 220.9082 99.017578 C 220.58634 98.115419 220.45509 97.099119 220.45508 95.943359 L 220.45508 85.152344 A 1.5691222 1.4342095 0 0 1 221.75781 83.738281 L 223.63281 83.441406 A 1.5691222 1.4342095 0 0 1 224.02344 83.423828 z M 207.56445 86.873047 L 207.56641 86.873047 C 208.87209 86.873047 210.10306 87.14062 211.1582 87.712891 C 212.25003 88.281411 213.0986 89.182515 213.64062 90.265625 C 214.20437 91.376222 214.4375 92.66831 214.4375 94.136719 C 214.4375 94.265023 214.42567 94.39606 214.41406 94.527344 L 214.4043 94.669922 C 214.3999 94.811895 214.3962 94.953198 214.37695 95.09375 A 1.5691222 1.4342095 0 0 1 212.81836 96.349609 L 205.88086 96.349609 C 205.98965 96.55579 205.99924 96.943225 206.13867 97.089844 C 206.50622 97.447432 207.11985 97.710938 208.36523 97.710938 C 209.11879 97.710938 209.68029 97.643245 210.00586 97.560547 C 210.50024 97.422332 210.85765 97.294252 210.91602 97.267578 A 1.5691222 1.4342095 0 0 1 213.1543 98.261719 L 213.48047 99.701172 A 1.5691222 1.4342095 0 0 1 212.72266 101.23633 C 212.18847 101.51532 211.70768 101.63078 210.98242 101.80859 C 210.1477 102.01841 209.24352 102.11133 208.26562 102.11133 C 206.54677 102.11133 205.00815 101.80927 203.74023 101.09766 A 1.5691222 1.4342095 0 0 1 203.73047 101.0918 C 202.54521 100.41471 201.62059 99.434324 201.05273 98.261719 A 1.5691222 1.4342095 0 0 1 201.04102 98.244141 C 200.51281 97.111431 200.26758 95.85033 200.26758 94.501953 C 200.26758 92.941394 200.57532 91.542266 201.28711 90.359375 C 201.95197 89.254464 202.86892 88.348502 204.00391 87.75 A 1.5691222 1.4342095 0 0 1 204.01367 87.744141 C 205.11113 87.17635 206.3266 86.873047 207.56445 86.873047 z M 185.95117 86.917969 C 186.92852 86.917969 187.83142 87.040982 188.65234 87.339844 C 189.00117 87.464347 189.23338 87.745372 189.54297 87.933594 C 189.54506 87.93455 189.54478 87.936544 189.54688 87.9375 C 190.06882 87.651008 190.64989 87.423598 191.30859 87.234375 A 1.5691222 1.4342095 0 0 1 191.32031 87.232422 C 192.09544 87.015941 192.92828 86.91797 193.80664 86.917969 C 195.33582 86.917969 196.68698 87.172617 197.75195 87.919922 C 198.71721 88.572508 199.39165 89.538314 199.69922 90.619141 L 199.70117 90.623047 C 199.97684 91.579893 200.10156 92.635004 200.10156 93.794922 L 200.10156 100.42578 A 1.5691222 1.4342095 0 0 1 198.5332 101.85938 L 196.6582 101.85938 A 1.5691222 1.4342095 0 0 1 195.08984 100.42578 L 195.08984 94.275391 C 195.08984 93.334467 195.01326 92.595234 194.89844 92.105469 A 1.5691222 1.4342095 0 0 1 194.89648 92.099609 C 194.79795 91.669326 194.6656 91.527348 194.57031 91.457031 C 194.52677 91.42489 194.26609 91.294922 193.63086 91.294922 C 193.14099 91.294922 192.75968 91.352713 192.48438 91.433594 A 1.5691222 1.4342095 0 0 1 192.44922 91.441406 C 192.25262 91.494653 192.16471 91.548035 192.03125 91.601562 C 192.0575 91.739065 192.1112 91.857995 192.13086 92 C 192.22464 92.558133 192.27148 93.134339 192.27148 93.726562 L 192.27148 100.42578 A 1.5691222 1.4342095 0 0 1 190.70312 101.85938 L 188.82812 101.85938 A 1.5691222 1.4342095 0 0 1 187.25781 100.42578 L 187.25781 94.275391 C 187.25781 93.334467 187.18319 92.595234 187.06836 92.105469 A 1.5691222 1.4342095 0 0 1 187.06641 92.099609 C 186.97026 91.679752 186.84563 91.550921 186.73828 91.474609 A 1.5691222 1.4342095 0 0 1 186.71484 91.457031 C 186.68662 91.436193 186.40132 91.294922 185.72461 91.294922 C 185.29504 91.294922 184.91685 91.316603 184.59375 91.353516 A 1.5691222 1.4342095 0 0 1 184.53516 91.357422 C 184.49541 91.360596 184.47927 91.365794 184.44141 91.369141 L 184.44141 100.42578 A 1.5691222 1.4342095 0 0 1 182.87305 101.85938 L 180.99609 101.85938 A 1.5691222 1.4342095 0 0 1 179.42773 100.42578 L 179.42773 88.992188 A 1.5691222 1.4342095 0 0 1 180.60547 87.603516 C 181.15904 87.472939 181.83799 87.333176 182.6543 87.177734 C 183.60606 86.996503 184.69336 86.917969 185.95117 86.917969 z M 189.54297 87.933594 L 189.51172 87.951172 C 189.51486 87.949547 189.51835 87.948891 189.52148 87.947266 C 189.53006 87.942801 189.5346 87.938087 189.54297 87.933594 z M 191.55859 88.691406 L 191.52344 88.701172 C 191.52846 88.699629 191.53579 88.700748 191.54102 88.699219 C 191.54781 88.697402 191.55232 88.693223 191.55859 88.691406 z M 210.23047 89.039062 C 210.23957 89.044349 210.24254 89.055193 210.25195 89.060547 C 210.26084 89.065996 210.27288 89.062814 210.28125 89.068359 L 210.23047 89.039062 z M 188.66406 89.208984 C 188.66825 89.212063 188.66964 89.217644 188.67383 89.220703 C 188.6777 89.223476 188.68136 89.223791 188.68555 89.226562 L 188.66406 89.208984 z M 207.58984 91.226562 C 207.12939 91.226563 206.84255 91.314487 206.56055 91.494141 C 206.32228 91.645924 206.16825 91.869953 206.00195 92.085938 L 209.08984 92.085938 C 208.92921 91.754296 208.76605 91.584425 208.55273 91.460938 A 1.5691222 1.4342095 0 0 1 208.5 91.431641 C 208.31469 91.31483 208.06376 91.226563 207.58984 91.226562 z M 237.10938 91.271484 C 236.55898 91.271484 236.20539 91.380662 235.87891 91.587891 C 235.54018 91.802891 235.26556 92.104214 235.0293 92.595703 C 234.81042 93.085189 234.67773 93.709475 234.67773 94.501953 C 234.67773 95.294436 234.81042 95.920663 235.0293 96.410156 C 235.26556 96.901629 235.54018 97.202974 235.87891 97.417969 C 236.20539 97.625201 236.55898 97.732422 237.10938 97.732422 C 237.68176 97.732422 238.04629 97.621654 238.36719 97.417969 C 238.70351 97.204494 238.96581 96.916356 239.1875 96.425781 A 1.5691222 1.4342095 0 0 1 239.19727 96.402344 C 239.42806 95.917171 239.57031 95.292885 239.57031 94.501953 C 239.57031 93.711021 239.42806 93.090643 239.19727 92.605469 A 1.5691222 1.4342095 0 0 1 239.1875 92.582031 C 238.96581 92.091453 238.70351 91.801365 238.36719 91.587891 C 238.04629 91.384209 237.68176 91.271484 237.10938 91.271484 z M 251.74609 91.271484 C 251.1957 91.271484 250.84016 91.38066 250.51367 91.587891 C 250.17564 91.802451 249.90196 92.104063 249.66602 92.59375 C 249.44676 93.083434 249.3125 93.708723 249.3125 94.501953 C 249.3125 95.295188 249.44676 95.922425 249.66602 96.412109 C 249.90196 96.901785 250.17564 97.203414 250.51367 97.417969 C 250.84016 97.625201 251.1957 97.732422 251.74609 97.732422 C 252.3185 97.732422 252.68106 97.621654 253.00195 97.417969 C 253.33828 97.204494 253.60057 96.916346 253.82227 96.425781 A 1.5691222 1.4342095 0 0 1 253.83398 96.402344 C 254.06478 95.917171 254.20313 95.292885 254.20312 94.501953 C 254.20312 93.711021 254.06478 93.090643 253.83398 92.605469 A 1.5691222 1.4342095 0 0 1 253.82227 92.582031 C 253.60057 92.091457 253.33828 91.801364 253.00195 91.587891 C 252.68106 91.38421 252.3185 91.271484 251.74609 91.271484 z M 242.07617 91.460938 C 242.07826 91.465497 242.07799 91.471974 242.08008 91.476562 C 242.08217 91.480788 242.0858 91.482026 242.08789 91.486328 L 242.07617 91.460938 z M 256.71094 91.460938 C 256.71408 91.466577 256.71366 91.474828 256.7168 91.480469 C 256.71784 91.483432 256.72161 91.483364 256.72266 91.486328 L 256.71094 91.460938 z M 242.08789 97.519531 C 242.0858 97.524025 242.08022 97.52647 242.07812 97.53125 C 242.07623 97.534787 242.07826 97.541098 242.07617 97.544922 L 242.08789 97.519531 z M 256.72266 97.519531 C 256.72161 97.522399 256.71589 97.524476 256.71484 97.527344 C 256.71275 97.532506 256.71303 97.540142 256.71094 97.544922 L 256.72266 97.519531 z M 262.51367 99.291016 C 262.49539 99.29807 262.47632 99.305312 262.45898 99.3125 C 262.44978 99.340321 262.43359 99.389476 262.43359 99.349609 C 262.43359 99.310794 262.44957 99.35842 262.45898 99.386719 C 262.47767 99.394465 262.49847 99.4043 262.51758 99.412109 C 262.5245 99.409758 262.53522 99.406027 262.53711 99.404297 L 262.56836 99.373047 C 262.56722 99.374176 262.57285 99.359916 262.57617 99.349609 C 262.57304 99.339732 262.56713 99.327003 262.56836 99.328125 L 262.53711 99.298828 C 262.53488 99.296856 262.52236 99.293838 262.51367 99.291016 z " /><g
       id="text3-6-3"
       style="font-size:23.9175px;font-family:Ubuntu;-inkscape-font-specification:Ubuntu;fill:none;stroke:#000000;stroke-width:3;stroke-linecap:round;stroke-linejoin:round;paint-order:stroke fill markers"
       transform="scale(1.0459769,0.95604407)"
       aria-label="me too!&#10;me too!" /><path
       sodipodi:type="star"
       style="fill:#3ecc5f;fill-opacity:1;stroke:#3ecc5f;stroke-linecap:round;stroke-linejoin:round;stroke-opacity:1;paint-order:stroke fill markers"
       id="path4"
       inkscape:flatsided="false"
       sodipodi:sides="3"
       sodipodi:cx="66.073074"
       sodipodi:cy="61.698463"
       sodipodi:r1="30.956465"
       sodipodi:r2="15.478232"
       sodipodi:arg1="1.224923"
       sodipodi:arg2="2.2721206"
       inkscape:rounded="0"
       inkscape:randomized="0"
       d="M 76.567886,90.821678 56.086055,73.523653 35.604225,56.225629 60.825669,47.136856 86.047112,38.048083 81.307499,64.434881 Z"
       inkscape:transform-center-x="4.0819516"
       inkscape:transform-center-y="2.0346491"
       transform="matrix(0.77789987,0,0,0.74354465,197.68371,77.089796)" /></g></svg>
