<?xml version="1.0" encoding="UTF-8" standalone="no"?>
<!-- Created with Inkscape (http://www.inkscape.org/) -->

<svg
   width="400"
   height="400"
   viewBox="0 0 400 400"
   version="1.1"
   id="svg1"
   inkscape:version="1.3.2 (1:1.3.2+202311252150+091e20ef0f)"
   sodipodi:docname="username_password.svg"
   xmlns:inkscape="http://www.inkscape.org/namespaces/inkscape"
   xmlns:sodipodi="http://sodipodi.sourceforge.net/DTD/sodipodi-0.dtd"
   xmlns="http://www.w3.org/2000/svg"
   xmlns:svg="http://www.w3.org/2000/svg">
  <sodipodi:namedview
     id="namedview1"
     pagecolor="#ffffff"
     bordercolor="#000000"
     borderopacity="0.25"
     inkscape:showpageshadow="2"
     inkscape:pageopacity="0.0"
     inkscape:pagecheckerboard="true"
     inkscape:deskcolor="#d1d1d1"
     inkscape:document-units="px"
     showgrid="true"
     inkscape:zoom="1.42"
     inkscape:cx="167.60563"
     inkscape:cy="286.26761"
     inkscape:window-width="1920"
     inkscape:window-height="1011"
     inkscape:window-x="1920"
     inkscape:window-y="32"
     inkscape:window-maximized="1"
     inkscape:current-layer="layer1">
    <inkscape:grid
       id="grid1"
       units="px"
       originx="0"
       originy="0"
       spacingx="0.26458333"
       spacingy="0.26458333"
       empcolor="#0099e5"
       empopacity="0.30196078"
       color="#0099e5"
       opacity="0.14901961"
       empspacing="5"
       dotted="false"
       gridanglex="30"
       gridanglez="30"
       visible="true" />
  </sodipodi:namedview>
  <defs
     id="defs1" />
  <g
     inkscape:label="Layer 1"
     inkscape:groupmode="layer"
     id="layer1">
    <path
       id="rect1"
       style="fill:#33c255;fill-opacity:1;stroke:none;stroke-width:0.730709;stroke-linecap:round;stroke-linejoin:round;stroke-dasharray:none;stroke-opacity:1;paint-order:fill markers stroke"
       d="m 38.628033,225.68753 c -4.284265,0 -7.732394,3.44954 -7.732394,7.73381 v 19.3324 c 0,4.28426 3.448129,7.73381 7.732394,7.73381 h 96.667677 c 4.28426,0 7.73239,-3.44955 7.73239,-7.73381 v -19.3324 c 0,-4.28427 -3.44813,-7.73381 -7.73239,-7.73381 z m 18.434702,8.05493 h 5.354731 v 13.35113 c 0,0.87296 0.07092,1.55191 0.211219,2.03515 0.155882,0.46765 0.381722,0.79482 0.677901,0.98189 0.296185,0.17146 0.678361,0.25688 1.146015,0.25688 0.483247,0 0.93492,-0.055 1.355809,-0.16412 0.436474,-0.10912 0.802735,-0.24086 1.09892,-0.39675 l 0.256888,1.58986 c -0.21824,0.12471 -0.591742,0.26513 -1.121755,0.42102 -0.530005,0.15588 -1.05985,0.23405 -1.589862,0.23405 -1.028839,0 -1.81636,-0.1795 -2.361959,-0.53804 -0.545599,-0.37412 -0.927774,-0.91989 -1.146015,-1.63696 -0.202648,-0.71707 -0.303982,-1.62185 -0.303982,-2.71305 v -11.8312 h -3.57791 z m 43.234575,0.60797 c 0.45207,0 0.827,0.14767 1.12318,0.44385 0.29618,0.29617 0.44385,0.70152 0.44385,1.21594 0,0.49883 -0.14767,0.90418 -0.44385,1.21595 -0.29618,0.29618 -0.67111,0.44385 -1.12318,0.44385 -0.436472,0 -0.809981,-0.14767 -1.121753,-0.44385 -0.311764,-0.31177 -0.468106,-0.71712 -0.468106,-1.21595 0,-0.51442 0.156342,-0.91977 0.468106,-1.21594 0.311772,-0.29618 0.685281,-0.44385 1.121753,-0.44385 z m -25.182348,5.02648 c 1.060011,0 1.995209,0.26492 2.805809,0.79493 0.826191,0.53001 1.473292,1.2712 1.940946,2.2221 0.467654,0.9353 0.700743,2.04133 0.700743,3.31959 0,1.27825 -0.233089,2.39295 -0.700743,3.34384 -0.467654,0.93531 -1.114755,1.66783 -1.940946,2.19784 -0.8106,0.51442 -1.745798,0.7721 -2.805809,0.7721 -1.028838,0 -1.949539,-0.25768 -2.760137,-0.7721 -0.795011,-0.53001 -1.426198,-1.26253 -1.893852,-2.19784 -0.467653,-0.95089 -0.700742,-2.06559 -0.700742,-3.34384 0,-1.27826 0.22584,-2.38429 0.677908,-3.31959 0.467654,-0.9509 1.106081,-1.69209 1.916686,-2.2221 0.810598,-0.53001 1.731299,-0.79494 2.760137,-0.79493 z m 13.164181,0 c 1.122369,0 2.064816,0.0782 2.828648,0.23405 0.763832,0.15589 1.348684,0.29631 1.753987,0.42102 v 10.96634 c 0,1.83944 -0.474844,3.15682 -1.425738,3.95183 -0.935308,0.8106 -2.330853,1.21594 -4.185882,1.21594 -0.763832,0 -1.465941,-0.0623 -2.105071,-0.18696 -0.623536,-0.10912 -1.144714,-0.24087 -1.565602,-0.39675 l 0.303989,-1.63696 c 0.452068,0.18706 0.965991,0.33473 1.542768,0.44385 0.592357,0.10912 1.216302,0.16413 1.87101,0.16413 0.857371,0 1.558048,-0.11726 2.103646,-0.35109 0.561185,-0.21824 0.975205,-0.5845 1.240211,-1.09892 0.264999,-0.49882 0.396746,-1.16186 0.396746,-1.98804 v -0.39675 c -0.187055,0.10911 -0.560564,0.25678 -1.121748,0.44384 -0.545599,0.18707 -1.185459,0.28116 -1.918112,0.28116 -0.904128,0 -1.753906,-0.20268 -2.548918,-0.60797 -0.795011,-0.42089 -1.433447,-1.068 -1.916686,-1.94095 -0.48324,-0.88854 -0.725003,-2.01917 -0.725003,-3.39095 0,-1.12237 0.209918,-2.14298 0.630807,-3.0627 0.420888,-0.9353 1.037585,-1.6765 1.848182,-2.22209 0.826191,-0.56119 1.823638,-0.84203 2.992766,-0.84203 z m 25.954447,0.0243 c 1.01325,0 1.88619,0.17083 2.61885,0.51378 0.73266,0.32735 1.29434,0.87313 1.68406,1.63696 0.40529,0.74825 0.60797,1.76161 0.60797,3.03986 v 7.17865 h -1.82391 v -6.80473 c 0,-1.12237 -0.14043,-1.95623 -0.42102,-2.50183 -0.2806,-0.56117 -0.66277,-0.93468 -1.14602,-1.12174 -0.46765,-0.18707 -0.9975,-0.28116 -1.58986,-0.28116 -0.38971,0 -0.80231,0.0232 -1.23878,0.0699 -0.43647,0.0468 -0.85774,0.10901 -1.26305,0.18695 v 10.45257 h -1.82391 v -11.78553 c 0.82619,-0.21825 1.62096,-0.36591 2.38479,-0.44386 0.76383,-0.0935 1.43411,-0.13986 2.01088,-0.13986 z m -17.888098,0.25689 h 5.354728 v 7.43553 c 0,0.88855 0.0782,1.57474 0.23405,2.05798 0.17147,0.46765 0.41324,0.78758 0.725,0.95906 0.32736,0.17146 0.70954,0.25688 1.14602,0.25688 0.56118,0 1.05195,-0.071 1.47284,-0.21122 0.43647,-0.14029 0.74048,-0.25612 0.91195,-0.34965 l 0.2569,1.58986 c -0.0312,0.0312 -0.17885,0.10068 -0.44386,0.20979 -0.24941,0.10913 -0.57659,0.21046 -0.98189,0.30399 -0.38971,0.0935 -0.81822,0.14129 -1.28587,0.14129 -0.99766,0 -1.77794,-0.1795 -2.33913,-0.53804 -0.54559,-0.35854 -0.92778,-0.88838 -1.14601,-1.58986 -0.21824,-0.71707 -0.326826,-1.62186 -0.326826,-2.71305 v -5.98553 h -3.577902 z m -21.23053,1.38007 c -1.028838,0 -1.862694,0.41984 -2.501824,1.26162 -0.639122,0.82618 -0.959055,1.96405 -0.959055,3.41378 0,1.44972 0.327175,2.58901 0.98189,3.41521 0.654715,0.81059 1.488571,1.21451 2.501824,1.21451 1.06001,0 1.909788,-0.40392 2.548918,-1.21451 0.654718,-0.8262 0.981893,-1.96549 0.981893,-3.41521 0,-1.44973 -0.327175,-2.5876 -0.981893,-3.41378 -0.654716,-0.84178 -1.511742,-1.26162 -2.571753,-1.26162 z m 13.234117,0.0457 c -1.153549,0 -2.049654,0.41402 -2.688783,1.24021 -0.623536,0.82618 -0.934796,1.89313 -0.934796,3.20256 0,0.99765 0.163591,1.80835 0.490949,2.43189 0.327357,0.62354 0.739945,1.07664 1.238778,1.35723 0.514419,0.2806 1.044271,0.42102 1.589862,0.42102 0.592364,0 1.161294,-0.0868 1.706893,-0.25832 0.545599,-0.17147 0.974108,-0.37415 1.285873,-0.60798 v -7.45836 c -0.202648,-0.0779 -0.522574,-0.14887 -0.959056,-0.21122 -0.420881,-0.0779 -0.997067,-0.11703 -1.72972,-0.11703 z" />
    <rect
       style="fill:none;fill-opacity:1;stroke:#33c255;stroke-width:4.09376;stroke-linecap:round;stroke-linejoin:round;stroke-dasharray:none;stroke-opacity:1;paint-order:fill markers stroke"
       id="rect1-2"
       width="140.78323"
       height="34.800018"
       x="17.711994"
       y="183.15416"
       rx="11.600008"
       ry="11.600008" />
    <rect
       style="fill:none;fill-opacity:1;stroke:#33c255;stroke-width:4.09376;stroke-linecap:round;stroke-linejoin:round;stroke-dasharray:none;stroke-opacity:1;paint-order:fill markers stroke"
       id="rect1-2-7"
       width="140.78323"
       height="34.800018"
       x="17.711994"
       y="138.79404"
       rx="9.5601101"
       ry="9.5601101" />
    <text
       xml:space="preserve"
       style="font-size:23.3827px;font-family:'Ubuntu Mono';-inkscape-font-specification:'Ubuntu Mono';fill:#33c255;fill-opacity:1;stroke:none;stroke-width:3.65355;stroke-linecap:round;stroke-linejoin:round;stroke-dasharray:none;stroke-opacity:1;paint-order:fill markers stroke"
       x="35.70303"
       y="209.347"
       id="text1-6"><tspan
         sodipodi:role="line"
         id="tspan1-0"
         x="35.70303"
         y="209.347"
         style="stroke-width:3.65355">password</tspan></text>
    <text
       xml:space="preserve"
       style="font-size:23.3827px;font-family:'Ubuntu Mono';-inkscape-font-specification:'Ubuntu Mono';fill:#33c255;fill-opacity:1;stroke:none;stroke-width:3.65355;stroke-linecap:round;stroke-linejoin:round;stroke-dasharray:none;stroke-opacity:1;paint-order:fill markers stroke"
       x="35.422443"
       y="164.87682"
       id="text1-6-1"><tspan
         sodipodi:role="line"
         id="tspan1-0-8"
         x="35.422443"
         y="164.87682"
         style="stroke-width:3.65355">username</tspan></text>
    <path
       id="rect1-5"
       style="fill:#33c255;fill-opacity:1;stroke:none;stroke-width:0.730709;stroke-linecap:round;stroke-linejoin:round;stroke-dasharray:none;stroke-opacity:1;paint-order:fill markers stroke"
       d="m 261.73643,225.68753 c -4.28426,0 -7.73239,3.44954 -7.73239,7.73381 v 19.3324 c 0,4.28426 3.44813,7.73381 7.73239,7.73381 h 96.66768 c 4.28426,0 7.73239,-3.44955 7.73239,-7.73381 v -19.3324 c 0,-4.28427 -3.44813,-7.73381 -7.73239,-7.73381 z m 18.43471,8.05493 h 5.35473 v 13.35113 c 0,0.87296 0.0709,1.55191 0.21122,2.03515 0.15588,0.46765 0.38172,0.79482 0.6779,0.98189 0.29618,0.17146 0.67836,0.25688 1.14601,0.25688 0.48325,0 0.93492,-0.055 1.35581,-0.16412 0.43648,-0.10912 0.80274,-0.24086 1.09892,-0.39675 l 0.25689,1.58986 c -0.21824,0.12471 -0.59174,0.26513 -1.12176,0.42102 -0.53,0.15588 -1.05985,0.23405 -1.58986,0.23405 -1.02884,0 -1.81636,-0.1795 -2.36196,-0.53804 -0.5456,-0.37412 -0.92777,-0.91989 -1.14601,-1.63696 -0.20265,-0.71707 -0.30398,-1.62185 -0.30398,-2.71305 v -11.8312 h -3.57791 z m 43.23457,0.60797 c 0.45207,0 0.827,0.14767 1.12318,0.44385 0.29618,0.29617 0.44385,0.70152 0.44385,1.21594 0,0.49883 -0.14767,0.90418 -0.44385,1.21595 -0.29618,0.29618 -0.67111,0.44385 -1.12318,0.44385 -0.43647,0 -0.80998,-0.14767 -1.12175,-0.44385 -0.31177,-0.31177 -0.46811,-0.71712 -0.46811,-1.21595 0,-0.51442 0.15634,-0.91977 0.46811,-1.21594 0.31177,-0.29618 0.68528,-0.44385 1.12175,-0.44385 z m -25.18235,5.02648 c 1.06001,0 1.99521,0.26492 2.80581,0.79493 0.82619,0.53001 1.47329,1.2712 1.94095,2.2221 0.46765,0.9353 0.70074,2.04133 0.70074,3.31959 0,1.27825 -0.23309,2.39295 -0.70074,3.34384 -0.46766,0.93531 -1.11476,1.66783 -1.94095,2.19784 -0.8106,0.51442 -1.7458,0.7721 -2.80581,0.7721 -1.02883,0 -1.94954,-0.25768 -2.76013,-0.7721 -0.79501,-0.53001 -1.4262,-1.26253 -1.89386,-2.19784 -0.46765,-0.95089 -0.70074,-2.06559 -0.70074,-3.34384 0,-1.27826 0.22584,-2.38429 0.67791,-3.31959 0.46765,-0.9509 1.10608,-1.69209 1.91669,-2.2221 0.81059,-0.53001 1.7313,-0.79494 2.76013,-0.79493 z m 13.16418,0 c 1.12237,0 2.06482,0.0782 2.82865,0.23405 0.76383,0.15589 1.34868,0.29631 1.75399,0.42102 v 10.96634 c 0,1.83944 -0.47485,3.15682 -1.42574,3.95183 -0.93531,0.8106 -2.33085,1.21594 -4.18588,1.21594 -0.76384,0 -1.46594,-0.0623 -2.10507,-0.18696 -0.62354,-0.10912 -1.14472,-0.24087 -1.56561,-0.39675 l 0.30399,-1.63696 c 0.45207,0.18706 0.96599,0.33473 1.54277,0.44385 0.59236,0.10912 1.2163,0.16413 1.87101,0.16413 0.85737,0 1.55805,-0.11726 2.10365,-0.35109 0.56118,-0.21824 0.9752,-0.5845 1.24021,-1.09892 0.265,-0.49882 0.39674,-1.16186 0.39674,-1.98804 v -0.39675 c -0.18705,0.10911 -0.56056,0.25678 -1.12174,0.44384 -0.5456,0.18707 -1.18546,0.28116 -1.91812,0.28116 -0.90412,0 -1.7539,-0.20268 -2.54891,-0.60797 -0.79502,-0.42089 -1.43345,-1.068 -1.91669,-1.94095 -0.48324,-0.88854 -0.725,-2.01917 -0.725,-3.39095 0,-1.12237 0.20991,-2.14298 0.6308,-3.0627 0.42089,-0.9353 1.03759,-1.6765 1.84819,-2.22209 0.82619,-0.56119 1.82363,-0.84203 2.99276,-0.84203 z m 25.95445,0.0243 c 1.01325,0 1.88619,0.17083 2.61885,0.51378 0.73266,0.32735 1.29434,0.87313 1.68406,1.63696 0.40529,0.74825 0.60797,1.76161 0.60797,3.03986 v 7.17865 h -1.82392 v -6.80473 c 0,-1.12237 -0.14042,-1.95623 -0.42102,-2.50183 -0.28059,-0.56117 -0.66276,-0.93468 -1.14601,-1.12174 -0.46765,-0.18707 -0.9975,-0.28116 -1.58986,-0.28116 -0.38971,0 -0.80231,0.0232 -1.23878,0.0699 -0.43648,0.0468 -0.85774,0.10901 -1.26305,0.18695 v 10.45257 h -1.82391 v -11.78553 c 0.82619,-0.21825 1.62096,-0.36591 2.38479,-0.44386 0.76383,-0.0935 1.43411,-0.13986 2.01088,-0.13986 z m -17.8881,0.25689 h 5.35472 v 7.43553 c 0,0.88855 0.0782,1.57474 0.23406,2.05798 0.17147,0.46765 0.41324,0.78758 0.725,0.95906 0.32736,0.17146 0.70954,0.25688 1.14602,0.25688 0.56118,0 1.05195,-0.071 1.47283,-0.21122 0.43648,-0.14029 0.74049,-0.25612 0.91196,-0.34965 l 0.25689,1.58986 c -0.0312,0.0312 -0.17884,0.10068 -0.44385,0.20979 -0.24941,0.10913 -0.57659,0.21046 -0.98189,0.30399 -0.38971,0.0935 -0.81822,0.14129 -1.28587,0.14129 -0.99766,0 -1.77794,-0.1795 -2.33913,-0.53804 -0.5456,-0.35854 -0.92778,-0.88838 -1.14601,-1.58986 -0.21824,-0.71707 -0.32683,-1.62186 -0.32683,-2.71305 v -5.98553 h -3.5779 z m -21.23053,1.38007 c -1.02883,0 -1.86269,0.41984 -2.50182,1.26162 -0.63912,0.82618 -0.95906,1.96405 -0.95906,3.41378 0,1.44972 0.32718,2.58901 0.98189,3.41521 0.65472,0.81059 1.48858,1.21451 2.50183,1.21451 1.06001,0 1.90979,-0.40392 2.54892,-1.21451 0.65471,-0.8262 0.98189,-1.96549 0.98189,-3.41521 0,-1.44973 -0.32718,-2.5876 -0.98189,-3.41378 -0.65472,-0.84178 -1.51175,-1.26162 -2.57176,-1.26162 z m 13.23412,0.0457 c -1.15355,0 -2.04966,0.41402 -2.68879,1.24021 -0.62353,0.82618 -0.93479,1.89313 -0.93479,3.20256 0,0.99765 0.16359,1.80835 0.49095,2.43189 0.32735,0.62354 0.73994,1.07664 1.23878,1.35723 0.51441,0.2806 1.04427,0.42102 1.58986,0.42102 0.59236,0 1.16129,-0.0868 1.70689,-0.25832 0.5456,-0.17147 0.97411,-0.37415 1.28587,-0.60798 v -7.45836 c -0.20264,-0.0779 -0.52257,-0.14887 -0.95905,-0.21122 -0.42088,-0.0779 -0.99707,-0.11703 -1.72972,-0.11703 z" />
    <rect
       style="fill:none;fill-opacity:1;stroke:#33c255;stroke-width:4.09376;stroke-linecap:round;stroke-linejoin:round;stroke-dasharray:none;stroke-opacity:1;paint-order:fill markers stroke"
       id="rect1-2-3"
       width="140.78323"
       height="34.800018"
       x="240.82039"
       y="183.15416"
       rx="11.600008"
       ry="11.600008" />
    <rect
       style="fill:none;fill-opacity:1;stroke:#33c255;stroke-width:4.09376;stroke-linecap:round;stroke-linejoin:round;stroke-dasharray:none;stroke-opacity:1;paint-order:fill markers stroke"
       id="rect1-2-7-5"
       width="140.78323"
       height="34.800018"
       x="240.82039"
       y="138.79404"
       rx="9.5601101"
       ry="9.5601101" />
    <text
       xml:space="preserve"
       style="font-size:23.3827px;font-family:'Ubuntu Mono';-inkscape-font-specification:'Ubuntu Mono';fill:#33c255;fill-opacity:1;stroke:none;stroke-width:3.65355;stroke-linecap:round;stroke-linejoin:round;stroke-dasharray:none;stroke-opacity:1;paint-order:fill markers stroke"
       x="258.81143"
       y="209.34702"
       id="text1-6-6"><tspan
         sodipodi:role="line"
         id="tspan1-0-2"
         x="258.81143"
         y="209.34702"
         style="stroke-width:3.65355">password</tspan></text>
    <text
       xml:space="preserve"
       style="font-size:23.3827px;font-family:'Ubuntu Mono';-inkscape-font-specification:'Ubuntu Mono';fill:#33c255;fill-opacity:1;stroke:none;stroke-width:3.65355;stroke-linecap:round;stroke-linejoin:round;stroke-dasharray:none;stroke-opacity:1;paint-order:fill markers stroke"
       x="277.4982"
       y="165.06778"
       id="text1-6-1-9"><tspan
         sodipodi:role="line"
         id="tspan1-0-8-1"
         x="277.4982"
         y="165.06778"
         style="stroke-width:3.65355">email</tspan></text>
    <path
       style="fill:none;fill-opacity:1;stroke:#33c255;stroke-width:4;stroke-linecap:round;stroke-linejoin:round;stroke-opacity:1;stroke-dasharray:none"
       d="M 235.5865,80.230286 157.3551,302.17376"
       id="path1" />
  </g>
</svg>
