<?xml version="1.0" encoding="UTF-8" standalone="no"?>
<!-- Created with Inkscape (http://www.inkscape.org/) -->

<svg
   width="400"
   height="400"
   viewBox="0 0 400 400"
   version="1.1"
   id="svg1"
   inkscape:version="1.3.2 (1:1.3.2+202311252150+091e20ef0f)"
   sodipodi:docname="email_password.svg"
   xmlns:inkscape="http://www.inkscape.org/namespaces/inkscape"
   xmlns:sodipodi="http://sodipodi.sourceforge.net/DTD/sodipodi-0.dtd"
   xmlns="http://www.w3.org/2000/svg"
   xmlns:svg="http://www.w3.org/2000/svg">
  <sodipodi:namedview
     id="namedview1"
     pagecolor="#ffffff"
     bordercolor="#000000"
     borderopacity="0.25"
     inkscape:showpageshadow="2"
     inkscape:pageopacity="0.0"
     inkscape:pagecheckerboard="true"
     inkscape:deskcolor="#d1d1d1"
     inkscape:document-units="px"
     showgrid="true"
     inkscape:zoom="1.0040916"
     inkscape:cx="127.97637"
     inkscape:cy="280.3529"
     inkscape:window-width="1920"
     inkscape:window-height="1011"
     inkscape:window-x="1920"
     inkscape:window-y="32"
     inkscape:window-maximized="1"
     inkscape:current-layer="layer1">
    <inkscape:grid
       id="grid1"
       units="px"
       originx="0"
       originy="0"
       spacingx="0.26458333"
       spacingy="0.26458333"
       empcolor="#0099e5"
       empopacity="0.30196078"
       color="#0099e5"
       opacity="0.14901961"
       empspacing="5"
       dotted="false"
       gridanglex="30"
       gridanglez="30"
       visible="true" />
  </sodipodi:namedview>
  <defs
     id="defs1" />
  <g
     inkscape:label="Layer 1"
     inkscape:groupmode="layer"
     id="layer1">
    <g
       id="g1"
       transform="translate(-2.0958633,-16.861346)">
      <path
         id="rect1-5"
         style="fill:#33c255;fill-opacity:1;stroke:none;stroke-width:1.34134;stroke-linecap:round;stroke-linejoin:round;stroke-dasharray:none;stroke-opacity:1;paint-order:fill markers stroke"
         d="m 111.27484,266.55337 c -7.86451,0 -14.194149,6.33223 -14.194149,14.19676 v 35.48799 c 0,7.8645 6.329639,14.19675 14.194149,14.19675 H 288.7252 c 7.8645,0 14.19415,-6.33225 14.19415,-14.19675 v -35.48799 c 0,-7.86453 -6.32965,-14.19676 -14.19415,-14.19676 z m 33.84012,14.78623 h 9.82954 v 24.50832 c 0,1.60247 0.13015,2.84881 0.38773,3.73588 0.28614,0.85845 0.70071,1.45903 1.2444,1.80243 0.54369,0.31474 1.24525,0.47154 2.1037,0.47154 0.88709,0 1.71621,-0.10096 2.48883,-0.30127 0.80123,-0.20031 1.47357,-0.44214 2.01726,-0.7283 l 0.47156,2.91846 c -0.40061,0.22893 -1.08624,0.4867 -2.05918,0.77286 -0.97291,0.28615 -1.94554,0.42964 -2.91847,0.42964 -1.88861,0 -3.33424,-0.3295 -4.33579,-0.98767 -1.00154,-0.68676 -1.70308,-1.68861 -2.1037,-3.00492 -0.372,-1.31631 -0.55801,-2.97719 -0.55801,-4.98028 v -21.71823 h -6.56787 z m 79.36458,1.11603 c 0.82985,0 1.5181,0.27108 2.06179,0.81477 0.54369,0.54367 0.81477,1.28776 0.81477,2.23207 0,0.91569 -0.27108,1.65978 -0.81477,2.23209 -0.54369,0.54369 -1.23194,0.81476 -2.06179,0.81476 -0.80122,0 -1.48686,-0.27107 -2.05917,-0.81476 -0.57231,-0.57231 -0.8593,-1.3164 -0.8593,-2.23209 0,-0.94431 0.28699,-1.6884 0.8593,-2.23207 0.57231,-0.54369 1.25795,-0.81477 2.05917,-0.81477 z m -46.22659,9.22698 c 1.94583,0 3.66256,0.48631 5.15055,1.45924 1.51662,0.97292 2.70448,2.33351 3.56296,4.07905 0.85845,1.7169 1.28633,3.74721 1.28633,6.09368 0,2.34645 -0.42788,4.39268 -1.28633,6.1382 -0.85848,1.71693 -2.04634,3.0616 -3.56296,4.03452 -1.48799,0.94431 -3.20472,1.41733 -5.15055,1.41733 -1.8886,0 -3.57872,-0.47302 -5.0667,-1.41733 -1.45938,-0.97292 -2.61804,-2.31759 -3.47651,-4.03452 -0.85845,-1.74552 -1.28633,-3.79175 -1.28633,-6.1382 0,-2.34647 0.41457,-4.37678 1.24442,-6.09368 0.85846,-1.74554 2.03041,-3.10613 3.51842,-4.07905 1.48798,-0.97293 3.1781,-1.45925 5.0667,-1.45924 z m 24.16515,0 c 2.0603,0 3.79033,0.14355 5.19248,0.42964 1.40214,0.28617 2.47573,0.54393 3.21975,0.77286 v 20.13063 c 0,3.37661 -0.87167,5.79489 -2.61719,7.25427 -1.71693,1.488 -4.27869,2.23207 -7.68392,2.23207 -1.40216,0 -2.69098,-0.11436 -3.86422,-0.3432 -1.14461,-0.20031 -2.10133,-0.44216 -2.87395,-0.7283 l 0.55803,-3.00493 c 0.82985,0.34338 1.77324,0.61446 2.83202,0.81477 1.08738,0.2003 2.23273,0.30128 3.43457,0.30128 1.57385,0 2.86007,-0.21525 3.86161,-0.64448 1.03015,-0.40062 1.79015,-1.07295 2.27662,-2.01726 0.48646,-0.91567 0.72829,-2.1328 0.72829,-3.6494 v -0.7283 c -0.34336,0.20029 -1.02901,0.47137 -2.05915,0.81475 -1.00154,0.3434 -2.17612,0.51611 -3.52104,0.51611 -1.65967,0 -3.21959,-0.37205 -4.67897,-1.11603 -1.4594,-0.77262 -2.63135,-1.9605 -3.51842,-3.56295 -0.88707,-1.63107 -1.33086,-3.70654 -1.33086,-6.22468 0,-2.06031 0.38532,-3.93381 1.15794,-5.62212 0.77262,-1.71691 1.90468,-3.07751 3.39267,-4.07903 1.51662,-1.03017 3.34759,-1.5457 5.49374,-1.5457 z m 47.64391,0.0446 c 1.86,0 3.46243,0.31359 4.80735,0.94313 1.34493,0.60091 2.37599,1.60279 3.09139,3.00493 0.74398,1.37354 1.11603,3.23374 1.11603,5.58019 v 13.17766 h -3.34812 v -12.49126 c 0,-2.06031 -0.25776,-3.591 -0.77285,-4.59255 -0.51508,-1.03012 -1.21662,-1.71577 -2.10371,-2.05915 -0.85845,-0.3434 -1.83108,-0.51612 -2.91846,-0.51612 -0.71538,0 -1.47278,0.0426 -2.274,0.12832 -0.80123,0.0859 -1.57453,0.20011 -2.31854,0.34318 v 19.18751 h -3.34811 v -21.63439 c 1.51662,-0.40064 2.97556,-0.67169 4.3777,-0.81479 1.40214,-0.17163 2.63256,-0.25673 3.69132,-0.25673 z m -32.83672,0.47157 h 9.82952 v 13.64921 c 0,1.63109 0.14355,2.89071 0.42965,3.77778 0.31477,0.85845 0.75858,1.44574 1.33087,1.76052 0.60092,0.31474 1.30248,0.47155 2.10372,0.47155 1.03014,0 1.93104,-0.13034 2.70363,-0.38773 0.80124,-0.25753 1.3593,-0.47016 1.67407,-0.64185 l 0.47156,2.91847 c -0.0573,0.0573 -0.32829,0.18481 -0.81476,0.3851 -0.45784,0.20033 -1.05843,0.38634 -1.80243,0.55803 -0.71538,0.17164 -1.50199,0.25936 -2.36044,0.25936 -1.83138,0 -3.26372,-0.3295 -4.29388,-0.98766 -1.00155,-0.65817 -1.7031,-1.63078 -2.1037,-2.91847 -0.40062,-1.3163 -0.59996,-2.9772 -0.59996,-4.98027 v -10.98749 h -6.56785 z m -38.97234,2.53336 c -1.8886,0 -3.41929,0.77069 -4.59253,2.31592 -1.17321,1.5166 -1.76052,3.60536 -1.76052,6.26659 0,2.66121 0.6006,4.75258 1.80243,6.26921 1.20186,1.48798 2.73255,2.22944 4.59255,2.22944 1.94583,0 3.50575,-0.74146 4.67898,-2.22944 1.20184,-1.51663 1.80243,-3.608 1.80243,-6.26921 0,-2.66123 -0.60059,-4.74999 -1.80243,-6.26659 -1.20185,-1.54523 -2.77508,-2.31592 -4.72091,-2.31592 z m 24.29353,0.0839 c -2.11754,0 -3.7625,0.76 -4.93574,2.27662 -1.1446,1.5166 -1.71597,3.47517 -1.71597,5.87885 0,1.83136 0.3003,3.31955 0.90123,4.46416 0.6009,1.14462 1.35828,1.97636 2.27399,2.49143 0.94429,0.51509 1.91694,0.77286 2.91847,0.77286 1.08738,0 2.13175,-0.15934 3.13329,-0.47419 1.00154,-0.31476 1.78815,-0.68682 2.36044,-1.11605 V 295.4186 c -0.37198,-0.143 -0.95927,-0.27328 -1.7605,-0.38773 -0.7726,-0.143 -1.8303,-0.21483 -3.17521,-0.21483 z" />
      <rect
         style="fill:none;fill-opacity:1;stroke:#33c255;stroke-width:7.51481;stroke-linecap:round;stroke-linejoin:round;stroke-dasharray:none;stroke-opacity:1;paint-order:fill markers stroke"
         id="rect1-2-3"
         width="258.43213"
         height="63.881493"
         x="72.879799"
         y="188.47597"
         rx="21.293835"
         ry="21.293835" />
      <rect
         style="fill:none;fill-opacity:1;stroke:#33c255;stroke-width:7.51481;stroke-linecap:round;stroke-linejoin:round;stroke-dasharray:none;stroke-opacity:1;paint-order:fill markers stroke"
         id="rect1-2-7-5"
         width="258.43213"
         height="63.881493"
         x="72.879799"
         y="107.04523"
         rx="17.549248"
         ry="17.549248" />
      <text
         xml:space="preserve"
         style="font-size:42.923px;font-family:'Ubuntu Mono';-inkscape-font-specification:'Ubuntu Mono';fill:#33c255;fill-opacity:1;stroke:none;stroke-width:6.70673;stroke-linecap:round;stroke-linejoin:round;stroke-dasharray:none;stroke-opacity:1;paint-order:fill markers stroke"
         x="105.90549"
         y="236.55753"
         id="text1-6-6"><tspan
           sodipodi:role="line"
           id="tspan1-0-2"
           x="105.90549"
           y="236.55753"
           style="stroke-width:6.70673">password</tspan></text>
      <text
         xml:space="preserve"
         style="font-size:42.923px;font-family:'Ubuntu Mono';-inkscape-font-specification:'Ubuntu Mono';fill:#33c255;fill-opacity:1;stroke:none;stroke-width:6.70673;stroke-linecap:round;stroke-linejoin:round;stroke-dasharray:none;stroke-opacity:1;paint-order:fill markers stroke"
         x="140.20831"
         y="155.27527"
         id="text1-6-1-9"><tspan
           sodipodi:role="line"
           id="tspan1-0-8-1"
           x="140.20831"
           y="155.27527"
           style="stroke-width:6.70673">email</tspan></text>
    </g>
  </g>
</svg>
