<?xml version="1.0" encoding="UTF-8" standalone="no"?>
<!-- Created with Inkscape (http://www.inkscape.org/) -->

<svg
   width="400"
   height="400"
   viewBox="0 0 400 400"
   version="1.1"
   id="svg1"
   inkscape:version="1.3.2 (1:1.3.2+202311252150+091e20ef0f)"
   sodipodi:docname="database.svg"
   xml:space="preserve"
   xmlns:inkscape="http://www.inkscape.org/namespaces/inkscape"
   xmlns:sodipodi="http://sodipodi.sourceforge.net/DTD/sodipodi-0.dtd"
   xmlns="http://www.w3.org/2000/svg"
   xmlns:svg="http://www.w3.org/2000/svg"><sodipodi:namedview
     id="namedview1"
     pagecolor="#ffffff"
     bordercolor="#000000"
     borderopacity="0.25"
     inkscape:showpageshadow="2"
     inkscape:pageopacity="0.0"
     inkscape:pagecheckerboard="true"
     inkscape:deskcolor="#d1d1d1"
     inkscape:document-units="px"
     showgrid="true"
     inkscape:zoom="1.42"
     inkscape:cx="133.80282"
     inkscape:cy="220.07042"
     inkscape:window-width="1920"
     inkscape:window-height="1011"
     inkscape:window-x="1920"
     inkscape:window-y="32"
     inkscape:window-maximized="1"
     inkscape:current-layer="layer1"><inkscape:grid
       id="grid1"
       units="px"
       originx="0"
       originy="0"
       spacingx="0.26458333"
       spacingy="0.26458333"
       empcolor="#0099e5"
       empopacity="0.30196078"
       color="#0099e5"
       opacity="0.14901961"
       empspacing="5"
       dotted="false"
       gridanglex="30"
       gridanglez="30"
       visible="true" /></sodipodi:namedview><defs
     id="defs1" /><g
     inkscape:label="Layer 1"
     inkscape:groupmode="layer"
     id="layer1"><path
       id="path5-9"
       style="fill:#33c255;fill-opacity:1;stroke:none;stroke-width:4;stroke-linecap:round;stroke-linejoin:round;stroke-opacity:1;paint-order:normal"
       d="M 116.40039,330.90381 A 85.37529,42.597195 0 0 0 114.625,339.0874 85.37529,42.597195 0 0 0 200,381.68506 85.37529,42.597195 0 0 0 285.375,339.0874 85.37529,42.597195 0 0 0 283.76367,330.90381 Z" /><path
       id="rect5"
       style="fill:#33c255;fill-opacity:1;stroke:none;stroke-width:3.93101;stroke-linecap:round;stroke-linejoin:round;stroke-opacity:1;paint-order:fill markers stroke"
       d="m 114.625,195.01904 v 46.81836 c 1.29951,1.46026 2.72065,2.90202 4.34375,4.30469 7.88992,6.81839 19.52226,12.76219 34.02344,16.93945 29.00234,8.35452 65.01328,8.35452 94.01562,0 14.50118,-4.17726 26.13352,-10.12106 34.02344,-16.93945 1.6231,-1.40267 3.04424,-2.84443 4.34375,-4.30469 V 195.01904 A 95.251381,47.52478 0 0 1 200,221.70068 95.251381,47.52478 0 0 1 114.625,195.01904 Z m 0,53.16797 v 50.7168 c 1.29936,1.46002 2.7209,2.90028 4.34375,4.30273 7.88993,6.8184 19.52225,12.7622 34.02344,16.93945 29.00237,8.35454 65.01325,8.35454 94.01562,0 14.50119,-4.17725 26.13351,-10.12105 34.02344,-16.93945 1.62285,-1.40245 3.04439,-2.84271 4.34375,-4.30273 v -50.7168 c -0.47722,0.44329 -0.92363,0.89807 -1.42578,1.33203 -8.55515,7.39328 -20.73545,13.53937 -35.70508,17.85156 -29.93924,8.62439 -66.54904,8.6244 -96.48828,0 -14.96963,-4.31219 -27.14993,-10.45828 -35.70508,-17.85156 -0.50215,-0.43396 -0.94856,-0.88874 -1.42578,-1.33203 z m 0,57.06445 v 33.83594 h 170.75 v -33.83594 c -0.47722,0.44329 -0.92363,0.89808 -1.42578,1.33203 -8.55516,7.3933 -20.73544,13.53936 -35.70508,17.85157 -29.93927,8.6244 -66.54901,8.62441 -96.48828,0 -14.96964,-4.31221 -27.14992,-10.45827 -35.70508,-17.85157 -0.50215,-0.43395 -0.94856,-0.88874 -1.42578,-1.33203 z" /><ellipse
       style="fill:#33c255;fill-opacity:1;stroke:none;stroke-width:4;stroke-linecap:round;stroke-linejoin:round;stroke-opacity:1;paint-order:normal"
       id="path5"
       cx="200"
       cy="174.17619"
       rx="85.37529"
       ry="42.597195" /><text
       xml:space="preserve"
       style="font-size:32px;font-family:'Ubuntu Mono';-inkscape-font-specification:'Ubuntu Mono';fill:#33c255;fill-opacity:1;stroke-width:4;stroke-linecap:round;stroke-linejoin:round"
       x="42.52877"
       y="74.083328"
       id="text1"><tspan
         sodipodi:role="line"
         id="tspan1"
         x="42.52877"
         y="74.083328">username</tspan></text><text
       xml:space="preserve"
       style="font-size:32px;font-family:'Ubuntu Mono';-inkscape-font-specification:'Ubuntu Mono';fill:#33c255;fill-opacity:1;stroke-width:4;stroke-linecap:round;stroke-linejoin:round"
       x="222.67134"
       y="81.475327"
       id="text1-5"><tspan
         sodipodi:role="line"
         id="tspan1-3"
         x="222.67134"
         y="81.475327">*******</tspan></text></g></svg>
