<?xml version="1.0" encoding="UTF-8" standalone="no"?>
<!-- Created with Inkscape (http://www.inkscape.org/) -->

<svg
   width="400"
   height="400"
   viewBox="0 0 400 400"
   version="1.1"
   id="svg1"
   inkscape:version="1.3.2 (1:1.3.2+202311252150+091e20ef0f)"
   sodipodi:docname="login.svg"
   xml:space="preserve"
   xmlns:inkscape="http://www.inkscape.org/namespaces/inkscape"
   xmlns:sodipodi="http://sodipodi.sourceforge.net/DTD/sodipodi-0.dtd"
   xmlns="http://www.w3.org/2000/svg"
   xmlns:svg="http://www.w3.org/2000/svg"><sodipodi:namedview
     id="namedview1"
     pagecolor="#ffffff"
     bordercolor="#000000"
     borderopacity="0.25"
     inkscape:showpageshadow="2"
     inkscape:pageopacity="0.0"
     inkscape:pagecheckerboard="true"
     inkscape:deskcolor="#d1d1d1"
     inkscape:document-units="px"
     showgrid="true"
     inkscape:zoom="1.42"
     inkscape:cx="71.126761"
     inkscape:cy="202.46479"
     inkscape:window-width="1920"
     inkscape:window-height="1043"
     inkscape:window-x="0"
     inkscape:window-y="0"
     inkscape:window-maximized="1"
     inkscape:current-layer="layer1"><inkscape:grid
       id="grid1"
       units="px"
       originx="0"
       originy="0"
       spacingx="0.26458333"
       spacingy="0.26458333"
       empcolor="#0099e5"
       empopacity="0.30196078"
       color="#0099e5"
       opacity="0.14901961"
       empspacing="5"
       dotted="false"
       gridanglex="30"
       gridanglez="30"
       visible="true" /></sodipodi:namedview><defs
     id="defs1" /><g
     inkscape:label="Layer 1"
     inkscape:groupmode="layer"
     id="layer1"><g
       inkscape:label="Layer 1"
       id="layer1-3"
       transform="matrix(0.77312033,0,0,0.77312033,45.375927,180.31345)"><path
         id="rect1-5"
         style="fill:#33c255;fill-opacity:1;stroke:none;stroke-width:1;stroke-linecap:round;stroke-linejoin:round;stroke-dasharray:none;stroke-opacity:1;paint-order:fill markers stroke"
         d="m 132.29102,222.25 c -5.86316,0 -10.58204,4.72082 -10.58204,10.58398 v 26.45704 c 0,5.86316 4.71888,10.58398 10.58204,10.58398 h 132.29296 c 5.86316,0 10.58204,-4.72082 10.58204,-10.58398 v -26.45704 c 0,-5.86316 -4.71888,-10.58398 -10.58204,-10.58398 z m 25.22851,11.02344 h 7.32813 v 18.27148 c 0,1.19467 0.0971,2.12383 0.28906,2.78516 0.21333,0.64 0.5224,1.08775 0.92773,1.34375 0.40534,0.23466 0.92836,0.35156 1.56836,0.35156 0.66134,0 1.27947,-0.0753 1.85547,-0.22461 0.59733,-0.14933 1.09857,-0.32963 1.50391,-0.54297 l 0.35156,2.17578 c -0.29867,0.17067 -0.80982,0.36284 -1.53516,0.57618 -0.72533,0.21333 -1.45044,0.32031 -2.17578,0.32031 -1.408,0 -2.48575,-0.24566 -3.23242,-0.73633 -0.74667,-0.512 -1.26969,-1.2589 -1.56836,-2.24023 -0.27733,-0.98134 -0.41601,-2.21956 -0.41601,-3.7129 v -16.1914 h -4.89649 z m 59.16797,0.83203 c 0.61867,0 1.13178,0.20209 1.53711,0.60742 0.40533,0.40533 0.60742,0.96006 0.60742,1.66406 0,0.68267 -0.20209,1.2374 -0.60742,1.66407 -0.40533,0.40533 -0.91844,0.60742 -1.53711,0.60742 -0.59733,0 -1.10849,-0.20209 -1.53516,-0.60742 -0.42666,-0.42667 -0.64062,-0.9814 -0.64062,-1.66407 0,-0.704 0.21396,-1.25873 0.64062,-1.66406 0.42667,-0.40533 0.93783,-0.60742 1.53516,-0.60742 z m -34.46289,6.87891 c 1.45066,0 2.73051,0.36255 3.83984,1.08789 1.13067,0.72533 2.01625,1.73968 2.65625,3.04101 0.64,1.28 0.95899,2.79364 0.95899,4.54297 0,1.74933 -0.31899,3.27484 -0.95899,4.57617 -0.64,1.28 -1.52558,2.28248 -2.65625,3.00781 -1.10933,0.704 -2.38918,1.05665 -3.83984,1.05665 -1.408,0 -2.66801,-0.35265 -3.77734,-1.05665 -1.088,-0.72533 -1.9518,-1.72781 -2.5918,-3.00781 -0.64,-1.30133 -0.95899,-2.82684 -0.95899,-4.57617 0,-1.74933 0.30907,-3.26297 0.92774,-4.54297 0.64,-1.30133 1.51371,-2.31568 2.62305,-3.04101 1.10933,-0.72534 2.36934,-1.0879 3.77734,-1.08789 z m 18.01562,0 c 1.536,0 2.82577,0.10697 3.8711,0.32031 1.04533,0.21333 1.84572,0.4055 2.40039,0.57617 v 15.00781 c 0,2.51733 -0.64984,4.32021 -1.95117,5.40821 -1.28,1.10933 -3.18985,1.66406 -5.72852,1.66406 -1.04533,0 -2.00619,-0.0852 -2.88086,-0.25586 -0.85333,-0.14934 -1.56658,-0.32964 -2.14258,-0.54297 l 0.41602,-2.24023 c 0.61867,0.25599 1.32199,0.45808 2.11133,0.60742 0.81066,0.14933 1.66455,0.22461 2.56054,0.22461 1.17334,0 2.13224,-0.16047 2.87891,-0.48047 0.768,-0.29867 1.3346,-0.79991 1.69727,-1.50391 0.36266,-0.68266 0.54296,-1.59004 0.54296,-2.7207 v -0.54297 c -0.25599,0.14933 -0.76715,0.35142 -1.53515,0.60742 -0.74667,0.256 -1.62234,0.38477 -2.625,0.38477 -1.23733,0 -2.40028,-0.27737 -3.48828,-0.83203 -1.088,-0.576 -1.96172,-1.46159 -2.62305,-2.65625 -0.66133,-1.216 -0.99219,-2.7633 -0.99219,-4.64063 0,-1.536 0.28728,-2.93274 0.86328,-4.19141 0.576,-1.27999 1.41997,-2.29435 2.5293,-3.04101 1.13067,-0.768 2.49571,-1.15234 4.0957,-1.15234 z m 35.51954,0.0332 c 1.38666,0 2.58131,0.23379 3.58398,0.70312 1.00267,0.448 1.77135,1.19491 2.30469,2.24024 0.55466,1.024 0.83203,2.41082 0.83203,4.16015 v 9.82422 h -2.49609 v -9.3125 c 0,-1.536 -0.19218,-2.67716 -0.57618,-3.42383 -0.384,-0.76799 -0.90702,-1.27915 -1.56836,-1.53515 -0.64,-0.256 -1.36511,-0.38477 -2.17578,-0.38477 -0.53333,0 -1.09798,0.0317 -1.69531,0.0957 -0.59733,0.064 -1.17385,0.14919 -1.72852,0.25585 v 14.30469 h -2.49609 v -16.1289 c 1.13067,-0.29867 2.21834,-0.50076 3.26367,-0.60743 1.04533,-0.128 1.96262,-0.1914 2.75196,-0.1914 z m -24.48047,0.35156 h 7.32812 v 10.17578 c 0,1.216 0.10698,2.15508 0.32031,2.81641 0.23467,0.64 0.56553,1.07783 0.99219,1.3125 0.448,0.23466 0.97103,0.35156 1.56836,0.35156 0.768,0 1.43963,-0.0971 2.01563,-0.28906 0.59733,-0.192 1.01338,-0.35052 1.24804,-0.47852 l 0.35157,2.17578 c -0.0427,0.0427 -0.24476,0.13778 -0.60743,0.28711 -0.34133,0.14934 -0.78908,0.28802 -1.34375,0.41602 -0.53333,0.128 -1.11976,0.19336 -1.75976,0.19336 -1.36533,0 -2.43317,-0.24566 -3.20117,-0.73633 -0.74667,-0.49067 -1.2697,-1.21578 -1.56836,-2.17578 -0.29867,-0.98133 -0.44727,-2.21956 -0.44727,-3.71289 v -8.19141 h -4.89648 z m -29.05469,1.88867 c -1.408,0 -2.54916,0.57457 -3.42383,1.72657 -0.87466,1.13066 -1.3125,2.68787 -1.3125,4.67187 0,1.984 0.44775,3.54316 1.34375,4.67383 0.896,1.10933 2.03716,1.66211 3.42383,1.66211 1.45066,0 2.61361,-0.55278 3.48828,-1.66211 0.896,-1.13067 1.34375,-2.68983 1.34375,-4.67383 0,-1.984 -0.44775,-3.54121 -1.34375,-4.67187 -0.896,-1.152 -2.06887,-1.72657 -3.51953,-1.72657 z m 18.11133,0.0625 c -1.57867,0 -2.80502,0.5666 -3.67969,1.69727 -0.85333,1.13066 -1.2793,2.59081 -1.2793,4.38281 0,1.36533 0.22388,2.47479 0.67188,3.32813 0.448,0.85333 1.01264,1.47342 1.69531,1.85742 0.704,0.384 1.42912,0.57617 2.17578,0.57617 0.81067,0 1.58927,-0.11885 2.33594,-0.35352 0.74667,-0.23466 1.3331,-0.51203 1.75976,-0.83203 v -10.20703 c -0.27733,-0.10667 -0.71516,-0.20373 -1.3125,-0.28906 -0.57599,-0.10667 -1.36452,-0.16016 -2.36718,-0.16016 z" /><rect
         style="fill:none;fill-opacity:1;stroke:#33c255;stroke-width:5.60245;stroke-linecap:round;stroke-linejoin:round;stroke-dasharray:none;stroke-opacity:1;paint-order:fill markers stroke"
         id="rect1-2-6"
         width="192.66658"
         height="47.624996"
         x="103.66672"
         y="164.04166"
         rx="15.875001"
         ry="15.875001" /><rect
         style="fill:none;fill-opacity:1;stroke:#33c255;stroke-width:5.60245;stroke-linecap:round;stroke-linejoin:round;stroke-dasharray:none;stroke-opacity:1;paint-order:fill markers stroke"
         id="rect1-2-7-2"
         width="192.66658"
         height="47.624996"
         x="103.66672"
         y="103.33333"
         rx="13.083332"
         ry="13.083332" /><text
         xml:space="preserve"
         style="font-size:32px;font-family:'Ubuntu Mono';-inkscape-font-specification:'Ubuntu Mono';fill:#33c255;fill-opacity:1;stroke:none;stroke-width:5;stroke-linecap:round;stroke-linejoin:round;stroke-dasharray:none;stroke-opacity:1;paint-order:fill markers stroke"
         x="128.28806"
         y="199.88744"
         id="text1-6-9"><tspan
           sodipodi:role="line"
           id="tspan1-0-1"
           x="128.28806"
           y="199.88744">password</tspan></text><text
         xml:space="preserve"
         style="font-size:32px;font-family:'Ubuntu Mono';-inkscape-font-specification:'Ubuntu Mono';fill:#33c255;fill-opacity:1;stroke:none;stroke-width:5;stroke-linecap:round;stroke-linejoin:round;stroke-dasharray:none;stroke-opacity:1;paint-order:fill markers stroke"
         x="127.90406"
         y="139.0285"
         id="text1-6-1-2"><tspan
           sodipodi:role="line"
           id="tspan1-0-8-7"
           x="127.90406"
           y="139.0285">username</tspan></text></g><g
       id="g1"
       transform="matrix(10.910203,0,0,10.910203,112.71838,-10.694882)"><circle
         style="fill:#33c255;fill-opacity:1;stroke-width:2.11955;stroke-linecap:round;stroke-linejoin:round;paint-order:stroke fill markers"
         id="path1"
         cx="8"
         cy="5"
         r="2.9999998" /><path
         style="fill:#33c255;fill-opacity:1;stroke-width:3.53258;stroke-linecap:round;stroke-linejoin:round;paint-order:stroke fill markers"
         id="path1-3"
         sodipodi:type="arc"
         sodipodi:cx="-8"
         sodipodi:cy="-14"
         sodipodi:rx="5"
         sodipodi:ry="5"
         sodipodi:start="0"
         sodipodi:end="3.1415927"
         sodipodi:arc-type="slice"
         d="M -3,-14 A 5,5 0 0 1 -5.5000001,-9.6698729 5,5 0 0 1 -10.5,-9.6698731 5,5 0 0 1 -13,-14 h 5 z"
         transform="scale(-1)" /></g><g
       id="path2"><g
         id="g7"><path
           style="color:#000000;fill:#33c255;stroke-linecap:round;-inkscape-stroke:none"
           d="m 189.03906,221.49805 a 1.826985,1.826985 0 0 0 -1.29297,0.53515 1.826985,1.826985 0 0 0 0,2.58399 L 200,236.87109 l 12.25391,-12.2539 a 1.826985,1.826985 0 0 0 0,-2.58399 1.826985,1.826985 0 0 0 -2.58399,0 L 200,231.70508 190.33008,222.0332 a 1.826985,1.826985 0 0 0 -1.29102,-0.53515 z"
           id="path7" /></g><path
         style="color:#000000;fill:#33c255;stroke-linecap:round;stroke-linejoin:round;-inkscape-stroke:none;paint-order:fill markers stroke"
         d="m 200,161.42578 a 1.826985,1.826985 0 0 0 -1.82617,1.82617 V 233.375 A 1.826985,1.826985 0 0 0 200,235.20117 1.826985,1.826985 0 0 0 201.82617,233.375 V 163.25195 A 1.826985,1.826985 0 0 0 200,161.42578 Z"
         id="path8" /></g></g></svg>
