<?xml version="1.0" encoding="UTF-8" standalone="no"?>
<!-- Created with Inkscape (http://www.inkscape.org/) -->

<svg
   width="400"
   height="400"
   viewBox="0 0 400 400"
   version="1.1"
   id="svg1"
   inkscape:version="1.3.2 (1:1.3.2+202311252150+091e20ef0f)"
   sodipodi:docname="nope.svg"
   xmlns:inkscape="http://www.inkscape.org/namespaces/inkscape"
   xmlns:sodipodi="http://sodipodi.sourceforge.net/DTD/sodipodi-0.dtd"
   xmlns="http://www.w3.org/2000/svg"
   xmlns:svg="http://www.w3.org/2000/svg">
  <sodipodi:namedview
     id="namedview1"
     pagecolor="#ffffff"
     bordercolor="#000000"
     borderopacity="0.25"
     inkscape:showpageshadow="2"
     inkscape:pageopacity="0.0"
     inkscape:pagecheckerboard="true"
     inkscape:deskcolor="#d1d1d1"
     inkscape:document-units="px"
     showgrid="true"
     inkscape:zoom="2.0081833"
     inkscape:cx="166.81744"
     inkscape:cy="175.03383"
     inkscape:window-width="1920"
     inkscape:window-height="1011"
     inkscape:window-x="1920"
     inkscape:window-y="32"
     inkscape:window-maximized="1"
     inkscape:current-layer="layer1">
    <inkscape:grid
       id="grid1"
       units="px"
       originx="0"
       originy="0"
       spacingx="0.26458333"
       spacingy="0.26458333"
       empcolor="#0099e5"
       empopacity="0.30196078"
       color="#0099e5"
       opacity="0.14901961"
       empspacing="5"
       dotted="false"
       gridanglex="30"
       gridanglez="30"
       visible="true" />
  </sodipodi:namedview>
  <defs
     id="defs1" />
  <g
     inkscape:label="Layer 1"
     inkscape:groupmode="layer"
     id="layer1">
    <path
       id="path1"
       style="fill:#33c255;fill-opacity:1;stroke-width:0.488656;stroke-linecap:round;stroke-linejoin:round"
       d="m 246.86261,52.091997 a 138.74399,137.58333 0 0 0 -138.74414,137.582033 138.74399,137.58333 0 0 0 0.34961,4.8457 46.566639,64.217384 0 0 1 34.04493,-20.56641 46.566639,64.217384 0 0 1 46.5664,64.2168 46.566639,64.217384 0 0 1 -28.30273,59.02539 138.74399,137.58333 0 0 0 86.08593,30.0625 A 138.74399,137.58333 0 0 0 385.60676,189.67403 138.74399,137.58333 0 0 0 246.86261,52.091997 Z m 78.81446,69.373043 a 5,5 0 0 1 4.68164,5.30078 c -0.13611,2.19414 -0.76641,2.46749 -1.07813,2.89844 -0.31172,0.43095 -0.57102,0.70934 -0.8457,0.99219 -0.54936,0.5657 -1.15114,1.09552 -1.88672,1.69336 -1.47116,1.19567 -3.44452,2.60925 -5.88476,4.12304 -4.88053,3.02764 -11.59533,6.43271 -19.39844,8.65625 -15.60625,4.44713 -36.39747,3.53716 -51.73438,-15.49218 a 5,5 0 0 1 0.75586,-7.03125 5,5 0 0 1 7.0293,0.75586 c 12.78494,15.86297 27.90488,15.94148 41.20898,12.15039 6.65207,-1.89556 12.64041,-4.91504 16.86719,-7.53711 2.1134,-1.31105 3.79524,-2.52943 4.84766,-3.38477 0.52621,-0.42767 0.90322,-0.77861 1.02148,-0.90039 0.0592,-0.0609 0.0553,-0.0765 -0.082,0.11328 -0.13728,0.18979 -0.67252,0.27615 -0.80078,2.34375 a 5,5 0 0 1 5.29883,-4.68164 z m -101.08203,1.51953 a 5,5 0 0 1 4.68164,5.30078 c -0.13611,2.19414 -0.76641,2.46749 -1.07813,2.89844 -0.31172,0.43095 -0.57102,0.70934 -0.8457,0.99219 -0.54936,0.5657 -1.15309,1.09552 -1.88867,1.69336 -1.47116,1.19567 -3.44255,2.60924 -5.88281,4.12305 -4.88053,3.02763 -11.59532,6.43269 -19.39844,8.65624 -15.60626,4.44713 -36.39746,3.53718 -51.73438,-15.49218 a 5,5 0 0 1 0.75391,-7.03125 5,5 0 0 1 7.03125,0.75586 c 12.78495,15.86299 27.9029,15.94149 41.20703,12.15039 6.65206,-1.89556 12.64234,-4.91502 16.86914,-7.53711 2.1134,-1.31105 3.79524,-2.52943 4.84766,-3.38477 0.52621,-0.42767 0.90322,-0.77861 1.02148,-0.90039 0.0592,-0.0609 0.0553,-0.0765 -0.082,0.11328 -0.13728,0.18979 -0.67448,0.27616 -0.80273,2.34375 a 5,5 0 0 1 5.30078,-4.68164 z" />
    <ellipse
       style="fill:none;fill-opacity:1;stroke:#33c255;stroke-width:7.40839;stroke-linecap:round;stroke-linejoin:round;stroke-dasharray:none;stroke-opacity:1"
       id="path1-5"
       cx="142.51364"
       cy="238.16975"
       rx="46.566639"
       ry="64.217384" />
    <text
       xml:space="preserve"
       style="font-size:32px;font-family:'FiraCode Nerd Font';-inkscape-font-specification:'FiraCode Nerd Font';fill:none;fill-opacity:1;stroke:#33c255;stroke-width:3;stroke-linecap:round;stroke-linejoin:round;stroke-dasharray:none;stroke-opacity:1"
       x="13.073439"
       y="236.29231"
       id="text3"><tspan
         sodipodi:role="line"
         id="tspan3"
         x="13.073439"
         y="236.29231">NOOOOOPE</tspan></text>
    <path
       style="fill:none;fill-opacity:1;stroke:#2ca949;stroke-width:3;stroke-linecap:round;stroke-linejoin:round;stroke-dasharray:none;stroke-opacity:1"
       d="m 142.51365,174.15494 c 51.27371,15.99593 107.69646,10.69075 107.69646,10.69075"
       id="path3"
       sodipodi:nodetypes="cc" />
    <path
       style="fill:none;fill-opacity:1;stroke:#2ca949;stroke-width:3;stroke-linecap:round;stroke-linejoin:round;stroke-dasharray:none;stroke-opacity:1"
       d="M 146.15177,304.59133 C 197.42548,288.5954 253.84823,293.90058 253.84823,293.90058"
       id="path3-6"
       sodipodi:nodetypes="cc" />
  </g>
</svg>
