<?xml version="1.0" encoding="UTF-8" standalone="no"?>
<!-- Created with Inkscape (http://www.inkscape.org/) -->

<svg
   width="400"
   height="400"
   viewBox="0 0 400 400"
   version="1.1"
   id="svg1"
   inkscape:version="1.3.2 (1:1.3.2+202311252150+091e20ef0f)"
   sodipodi:docname="server_angrily_reading.svg"
   xmlns:inkscape="http://www.inkscape.org/namespaces/inkscape"
   xmlns:sodipodi="http://sodipodi.sourceforge.net/DTD/sodipodi-0.dtd"
   xmlns="http://www.w3.org/2000/svg"
   xmlns:svg="http://www.w3.org/2000/svg">
  <sodipodi:namedview
     id="namedview1"
     pagecolor="#ffffff"
     bordercolor="#000000"
     borderopacity="0.25"
     inkscape:showpageshadow="2"
     inkscape:pageopacity="0.0"
     inkscape:pagecheckerboard="true"
     inkscape:deskcolor="#d1d1d1"
     inkscape:document-units="px"
     showgrid="true"
     inkscape:zoom="1.42"
     inkscape:cx="204.92958"
     inkscape:cy="189.78873"
     inkscape:window-width="1920"
     inkscape:window-height="1011"
     inkscape:window-x="1920"
     inkscape:window-y="32"
     inkscape:window-maximized="1"
     inkscape:current-layer="layer1">
    <inkscape:grid
       id="grid1"
       units="px"
       originx="0"
       originy="0"
       spacingx="0.26458333"
       spacingy="0.26458333"
       empcolor="#0099e5"
       empopacity="0.30196078"
       color="#0099e5"
       opacity="0.14901961"
       empspacing="5"
       dotted="false"
       gridanglex="30"
       gridanglez="30"
       visible="true" />
  </sodipodi:namedview>
  <defs
     id="defs1" />
  <g
     inkscape:label="Layer 1"
     inkscape:groupmode="layer"
     id="layer1">
    <path
       id="rect2"
       style="fill:#33c255;fill-opacity:1;stroke:none;stroke-width:5;stroke-linecap:round;stroke-linejoin:round;stroke-opacity:1;paint-order:fill markers stroke"
       d="M 162.20703 21.166016 C 135.82268 21.166016 114.58203 42.408601 114.58203 68.792969 L 114.58203 216.95898 L 246.3418 216.95898 C 250.09761 216.95898 253.12109 219.98247 253.12109 223.73828 L 253.12109 287.58398 L 333.375 287.58398 C 359.75936 287.58398 381 266.34337 381 239.95898 L 381 68.792969 C 381 42.408601 359.75936 21.166016 333.375 21.166016 L 162.20703 21.166016 z M 158.45898 74.191406 L 222.25 74.191406 L 222.25 137.58398 L 158.45898 137.58398 L 158.45898 74.191406 z M 274.875 74.191406 L 338.66602 74.191406 L 338.66602 137.58398 L 274.875 137.58398 L 274.875 74.191406 z M 179.91602 195.79102 L 312.20898 195.79102 L 312.20898 210.2168 L 179.91602 210.2168 L 179.91602 195.79102 z " />
    <rect
       style="fill:#33c255;fill-opacity:1;stroke:none;stroke-width:1.19174;stroke-linecap:round;stroke-linejoin:round;stroke-opacity:1;paint-order:fill markers stroke"
       id="rect2-5"
       width="63.499969"
       height="63.499969"
       x="222.25002"
       y="317.5"
       rx="11.351378"
       ry="11.351378" />
    <rect
       style="fill:#33c255;fill-opacity:1;stroke:none;stroke-width:1.19174;stroke-linecap:round;stroke-linejoin:round;stroke-opacity:1;paint-order:fill markers stroke"
       id="rect2-5-2"
       width="63.499969"
       height="63.499969"
       x="52.916664"
       y="317.5"
       rx="11.351378"
       ry="11.351378" />
    <path
       id="rect3"
       style="fill:#33c255;fill-opacity:1;stroke:none;stroke-width:3.1137;stroke-linecap:round;stroke-linejoin:round;stroke-opacity:1;paint-order:fill markers stroke"
       d="M 90.253906 222.25 L 90.253906 312.20898 L 108.46484 312.20898 C 115.80161 312.20898 121.70898 318.1144 121.70898 325.45117 L 121.70898 373.04883 C 121.70898 380.3856 115.80161 386.29102 108.46484 386.29102 L 90.253906 386.29102 L 90.253906 400 L 248.41406 400 L 248.41406 386.29102 L 230.20117 386.29102 C 222.86441 386.29102 216.95898 380.38559 216.95898 373.04883 L 216.95898 325.45117 C 216.95898 318.11441 222.86441 312.20898 230.20117 312.20898 L 248.41406 312.20898 L 248.41406 222.25 L 90.253906 222.25 z " />
    <rect
       style="fill:#33c255;fill-opacity:1;stroke:none;stroke-width:2.1524;stroke-linecap:round;stroke-linejoin:round;stroke-dasharray:none;stroke-opacity:1;paint-order:fill markers stroke"
       id="rect4-3-2-7"
       width="22.365488"
       height="22.225376"
       x="161.39583"
       y="112.71212" />
    <rect
       style="fill:#33c255;fill-opacity:1;stroke:none;stroke-width:2.1524;stroke-linecap:round;stroke-linejoin:round;stroke-dasharray:none;stroke-opacity:1;paint-order:fill markers stroke"
       id="rect4-3-2-7-2"
       width="22.365488"
       height="22.225376"
       x="276.61368"
       y="112.71212" />
    <path
       style="fill:none;stroke:#2ca949;stroke-width:3;stroke-linecap:round;stroke-linejoin:round"
       d="m 216.30259,73.16794 -2.24083,11.441451 -8.20197,1.238023"
       id="path2" />
    <path
       style="fill:none;stroke:#2ca949;stroke-width:3;stroke-linecap:round;stroke-linejoin:round"
       d="m 183.76132,74.270552 -11.18275,14.932372 7.0932,12.926696"
       id="path3" />
    <path
       style="fill:none;stroke:#2ca949;stroke-width:3;stroke-linecap:round;stroke-linejoin:round"
       d="m 171.0786,88.200086 -5.60879,9.786691 5.60879,5.642843"
       id="path4" />
    <path
       style="fill:none;stroke:#2ca949;stroke-width:3;stroke-linecap:round;stroke-linejoin:round"
       d="m 221.70389,112.71212 -10.6227,-10.74176 -6.7214,7.59393 -6.02135,-2.60793"
       id="path5" />
    <path
       style="fill:none;stroke:#2ca949;stroke-width:3;stroke-linecap:round;stroke-linejoin:round"
       d="m 213.14316,136.55537 -4.48167,-12.73056 -10.5693,6.89315 -7.2159,4.21954"
       id="path6" />
    <path
       style="fill:none;stroke:#2ca949;stroke-width:3;stroke-linecap:round;stroke-linejoin:round"
       d="m 204.35979,125.57438 -8.5094,-4.10819 -6.4741,4.35015"
       id="path7" />
    <path
       style="fill:none;stroke:#2ca949;stroke-width:3;stroke-linecap:round;stroke-linejoin:round"
       d="m 196.83844,75.660465 -3.73852,15.541687 -7.8386,3.226332"
       id="path8" />
    <path
       style="fill:none;stroke:#2ca949;stroke-width:3;stroke-linecap:round;stroke-linejoin:round"
       d="m 194.36951,90.94979 2.46893,7.297123 -5.78856,3.600627"
       id="path9" />
    <path
       style="fill:none;stroke:#2ca949;stroke-width:3;stroke-linecap:round;stroke-linejoin:round"
       d="m 298.97917,74.160465 -5.13733,17.429854 5.13733,8.880111"
       id="path10" />
    <path
       style="fill:none;stroke:#2ca949;stroke-width:3;stroke-linecap:round;stroke-linejoin:round"
       d="m 292.34185,92.035306 -4.54543,6.346826"
       id="path11" />
    <path
       style="fill:none;stroke:#2ca949;stroke-width:3;stroke-linecap:round;stroke-linejoin:round"
       d="m 310.73834,138.05537 4.97963,-10.73903 -4.82128,-4.99145"
       id="path12" />
    <path
       style="fill:none;stroke:#2ca949;stroke-width:3;stroke-linecap:round;stroke-linejoin:round"
       d="m 311.13175,134.9375 -5.47418,-4.74737 0.51224,-6.36532"
       id="path13" />
    <path
       style="fill:none;stroke:#2ca949;stroke-width:3;stroke-linecap:round;stroke-linejoin:round"
       d="m 318.49518,74.160465 0.74694,16.374841 -10.84746,2.010994"
       id="path14" />
    <path
       style="fill:none;stroke:#2ca949;stroke-width:3;stroke-linecap:round;stroke-linejoin:round"
       d="m 320.74211,90.535306 -3.52417,9.346826"
       id="path15" />
    <path
       style="fill:none;stroke:#2ca949;stroke-width:3;stroke-linecap:round;stroke-linejoin:round"
       d="m 337.54115,108.91268 -10.5752,-7.53055 -11.24801,12.82999 -6.4796,-10.86458"
       id="path16" />
    <path
       style="fill:none;stroke:#2ca949;stroke-width:3;stroke-linecap:round;stroke-linejoin:round"
       d="m 315.71794,114.21212 -6.4796,3.60316"
       id="path17" />
    <path
       style="fill:none;stroke:#2ca949;stroke-width:3;stroke-linecap:round;stroke-linejoin:round"
       d="m 340.38474,141.80977 -10.33272,-14.49343 -7.80991,-13.10422"
       id="path18" />
    <path
       style="fill:none;stroke:#2ca949;stroke-width:3;stroke-linecap:round;stroke-linejoin:round"
       d="m 328.78523,127.31634 -5.39549,2.87379"
       id="path19" />
  </g>
</svg>
