<?xml version="1.0" encoding="UTF-8" standalone="no"?>
<!-- Created with Inkscape (http://www.inkscape.org/) -->

<svg
   width="128"
   height="96"
   viewBox="0 0 128 96"
   version="1.1"
   id="svg1"
   inkscape:version="1.3 (1:1.3+202307231459+0e150ed6c4)"
   sodipodi:docname="notebook.svg"
   xmlns:inkscape="http://www.inkscape.org/namespaces/inkscape"
   xmlns:sodipodi="http://sodipodi.sourceforge.net/DTD/sodipodi-0.dtd"
   xmlns="http://www.w3.org/2000/svg"
   xmlns:svg="http://www.w3.org/2000/svg">
  <sodipodi:namedview
     id="namedview1"
     pagecolor="#ffffff"
     bordercolor="#111111"
     borderopacity="1"
     inkscape:showpageshadow="false"
     inkscape:pageopacity="0"
     inkscape:pagecheckerboard="1"
     inkscape:deskcolor="#afafaf"
     inkscape:document-units="px"
     showgrid="true"
     labelstyle="default"
     inkscape:zoom="4.1121711"
     inkscape:cx="47.055435"
     inkscape:cy="83.410926"
     inkscape:window-width="1920"
     inkscape:window-height="1016"
     inkscape:window-x="1920"
     inkscape:window-y="27"
     inkscape:window-maximized="1"
     inkscape:current-layer="layer1">
    <inkscape:grid
       id="grid1"
       units="px"
       originx="0"
       originy="0"
       spacingx="1"
       spacingy="1"
       empcolor="#0099e5"
       empopacity="0.30196078"
       color="#0099e5"
       opacity="0.14901961"
       empspacing="8"
       dotted="false"
       gridanglex="30"
       gridanglez="30"
       visible="true" />
  </sodipodi:namedview>
  <defs
     id="defs1" />
  <g
     inkscape:label="Layer 1"
     inkscape:groupmode="layer"
     id="layer1">
    <path
       id="rect1"
       style="fill:#3ecc5f;stroke-width:1.16147;-inkscape-stroke:none"
       d="M 20 16.103516 C 17.784002 16.103516 16 17.887518 16 20.103516 L 16 76.103516 C 16 78.319513 17.784002 80.103516 20 80.103516 L 108 80.103516 C 110.216 80.103516 112 78.319513 112 76.103516 L 112 20.103516 C 112 17.887518 110.216 16.103516 108 16.103516 L 20 16.103516 z M 28 24.103516 L 100 24.103516 C 102.216 24.103516 104 25.887518 104 28.103516 L 104 68.103516 C 104 70.319513 102.216 72.103516 100 72.103516 L 28 72.103516 C 25.784002 72.103516 24 70.319513 24 68.103516 L 24 28.103516 C 24 25.887518 25.784002 24.103516 28 24.103516 z " />
    <rect
       style="fill:#3ecc5f;stroke-width:1.16147;-inkscape-stroke:none"
       id="rect2"
       width="112"
       height="8"
       x="8"
       y="80.103691"
       ry="4" />
    <rect
       style="fill:#3ecc5f;fill-opacity:1;stroke-width:0.818456;-inkscape-stroke:none"
       id="rect4"
       width="32"
       height="2.8963096"
       x="32"
       y="29.207382"
       ry="1.4481548" />
    <rect
       style="fill:#3ecc5f;fill-opacity:1;stroke-width:1.0024;-inkscape-stroke:none"
       id="rect4-5"
       width="48"
       height="2.8963096"
       x="32"
       y="37.103691"
       ry="1.4481548" />
    <rect
       style="fill:#3ecc5f;fill-opacity:1;stroke-width:1.08272;-inkscape-stroke:none"
       id="rect4-5-2"
       width="56"
       height="2.8963096"
       x="32"
       y="45.207382"
       ry="1.4481548" />
    <rect
       style="fill:#3ecc5f;fill-opacity:1;stroke-width:0.818456;-inkscape-stroke:none"
       id="rect4-5-7"
       width="32"
       height="2.8963096"
       x="32"
       y="53.207382"
       ry="1.4481548" />
    <rect
       style="fill:#3ecc5f;fill-opacity:1;stroke-width:0.915062;-inkscape-stroke:none"
       id="rect4-5-6"
       width="40"
       height="2.8963096"
       x="32"
       y="61.207382"
       ry="1.4481548" />
  </g>
</svg>
