<?xml version="1.0" encoding="UTF-8" standalone="no"?>
<!-- Created with Inkscape (http://www.inkscape.org/) -->

<svg
   width="384"
   height="180"
   viewBox="0 0 384 180"
   version="1.1"
   id="svg1"
   inkscape:version="1.3 (1:1.3+202307231459+0e150ed6c4)"
   sodipodi:docname="ast_example.svg"
   xml:space="preserve"
   xmlns:inkscape="http://www.inkscape.org/namespaces/inkscape"
   xmlns:sodipodi="http://sodipodi.sourceforge.net/DTD/sodipodi-0.dtd"
   xmlns:xlink="http://www.w3.org/1999/xlink"
   xmlns="http://www.w3.org/2000/svg"
   xmlns:svg="http://www.w3.org/2000/svg"><sodipodi:namedview
     id="namedview1"
     pagecolor="#ffffff"
     bordercolor="#111111"
     borderopacity="1"
     inkscape:showpageshadow="false"
     inkscape:pageopacity="0"
     inkscape:pagecheckerboard="1"
     inkscape:deskcolor="#afafaf"
     inkscape:document-units="px"
     showgrid="true"
     labelstyle="default"
     inkscape:zoom="2.0560856"
     inkscape:cx="159.28325"
     inkscape:cy="196.48987"
     inkscape:window-width="1920"
     inkscape:window-height="1016"
     inkscape:window-x="1920"
     inkscape:window-y="27"
     inkscape:window-maximized="1"
     inkscape:current-layer="layer1"><inkscape:grid
       id="grid1"
       units="px"
       originx="0"
       originy="0"
       spacingx="1"
       spacingy="1"
       empcolor="#0099e5"
       empopacity="0.30196078"
       color="#0099e5"
       opacity="0.14901961"
       empspacing="8"
       dotted="false"
       gridanglex="30"
       gridanglez="30"
       visible="true" /></sodipodi:namedview><defs
     id="defs1"><linearGradient
       id="a"
       x1="-133.26801"
       y1="-202.91"
       x2="-133.198"
       y2="-202.84"
       gradientTransform="matrix(189.38,0,0,189.81,25243.061,38519.17)"
       gradientUnits="userSpaceOnUse"><stop
         offset="0"
         stop-color="#387eb8"
         id="stop1" /><stop
         offset="1"
         stop-color="#366994"
         id="stop2" /></linearGradient><linearGradient
       id="b"
       x1="-133.575"
       y1="-203.203"
       x2="-133.495"
       y2="-203.133"
       gradientTransform="matrix(189.38,0,0,189.81,25309.061,38583.42)"
       gradientUnits="userSpaceOnUse"><stop
         offset="0"
         stop-color="#ffe052"
         id="stop3" /><stop
         offset="1"
         stop-color="#ffc331"
         id="stop4" /></linearGradient><linearGradient
       id="a-6"
       x1="-133.26801"
       y1="-202.91"
       x2="-133.198"
       y2="-202.84"
       gradientTransform="matrix(189.38,0,0,189.81,25243.061,38519.17)"
       gradientUnits="userSpaceOnUse"><stop
         offset="0"
         stop-color="#387eb8"
         id="stop1-9" /><stop
         offset="1"
         stop-color="#366994"
         id="stop2-3" /></linearGradient><linearGradient
       id="b-7"
       x1="-133.575"
       y1="-203.203"
       x2="-133.495"
       y2="-203.133"
       gradientTransform="matrix(189.38,0,0,189.81,25309.061,38583.42)"
       gradientUnits="userSpaceOnUse"><stop
         offset="0"
         stop-color="#ffe052"
         id="stop3-4" /><stop
         offset="1"
         stop-color="#ffc331"
         id="stop4-5" /></linearGradient><linearGradient
       id="linearGradient8385"><stop
         offset="0"
         id="stop1-7" /><stop
         stop-color="#fff"
         offset="1"
         id="stop2-2" /></linearGradient><linearGradient
       id="linearGradient3002"
       x1="-553.27002"
       x2="-666.12"
       y1="525.90997"
       y2="413.04999"
       gradientTransform="matrix(0.99884,0,0,0.9987,689.01,-388.84)"
       gradientUnits="userSpaceOnUse"
       xlink:href="#linearGradient8385" /><linearGradient
       id="linearGradient3005"
       x1="-666.12"
       x2="-553.27002"
       y1="413.04001"
       y2="525.90997"
       gradientTransform="matrix(0.99884,0,0,0.9987,689.01,-388.84)"
       gradientUnits="userSpaceOnUse"
       xlink:href="#linearGradient8385" /></defs><g
     inkscape:label="Layer 1"
     inkscape:groupmode="layer"
     id="layer1"><path
       id="rect1"
       style="fill:#3ecc5f;fill-opacity:1;stroke-width:3.45641;stroke-linecap:round;stroke-linejoin:round"
       d="M 120,8 V 48 H 264 V 8 Z m 92.82031,8 c 0.75,0 1.24219,0.597657 1.23047,1.171875 v 15.09375 c 0,0.621093 -0.62109,1.042969 -1.10156,1.042969 -0.67969,0 -1.24219,-0.48047 -1.24219,-1.171875 V 17.171875 C 211.70703,16.574219 212.1875,16 212.82031,16 Z m -17.29687,0.05859 c 0.64453,0 1.17187,0.527344 1.17187,1.171875 v 14.964843 c 0,0.644531 -0.52734,1.171876 -1.17187,1.171876 -0.64453,0 -0.9375,-0.539064 -1.03125,-1.171876 l -0.14063,-0.949218 c -0.89062,1.277342 -2.49609,2.0625 -3.94922,2.0625 -3.52734,0 -6.14062,-3.058597 -6.14062,-6.515625 0,-1.76953 0.65625,-3.515627 1.94531,-4.792969 1.13672,-1.11328 2.6836,-1.746094 4.27735,-1.746094 1.6289,0 2.85937,0.738283 3.86718,1.910156 v -4.933593 c 0,-0.644531 0.52735,-1.171875 1.17188,-1.171875 z m -42.66797,4.183594 c 0.51562,0 0.97266,0.304688 1.24219,1.066406 l 0.22265,0.644531 c 0.49219,-1.031249 1.66407,-1.699219 2.71875,-1.699219 1.51172,0 2.67188,0.843751 3.41016,1.886719 0.8789,-1.007811 2.13281,-1.898437 3.64453,-1.898437 3.01172,0 4.44141,2.695315 4.44141,5.71875 l 0.0117,6.246093 c 0,0.632812 -0.51563,1.148438 -1.17188,1.148438 -0.65625,0 -1.17188,-0.515626 -1.17188,-1.148438 l -0.0117,-6.222656 c 0,-1.781248 -0.37501,-3.410156 -2.01563,-3.410156 -1.73437,0 -2.74219,1.628908 -2.74219,3.421875 l 0.0117,6.246094 c 0,0.621093 -0.52734,1.136718 -1.17187,1.136718 -0.65625,0 -1.17188,-0.515625 -1.17188,-1.148437 v -6.222657 c 0,-2.203122 -1.27734,-3.410156 -2.50781,-3.410156 -1.14844,0 -2.25,1.042971 -2.25,3.328125 v 6.316407 c 0,0.621093 -0.52734,1.136718 -1.17187,1.136718 -0.64454,0 -1.17188,-0.515625 -1.17188,-1.148437 v -10.83984 c 0,-0.632812 0.19922,-1.148437 0.85547,-1.148437 z m 23.8125,0.02344 c 3.58593,0 6.43359,3.000004 6.43359,6.5625 0,3.515621 -2.89453,6.492187 -6.43359,6.492187 -3.51562,0 -6.42188,-2.906253 -6.42188,-6.492187 0,-3.550778 2.89454,-6.5625 6.42188,-6.5625 z m 31.62891,0 c 0.65624,0 1.17187,0.527344 1.17187,1.183594 l 0.0234,10.769531 c 0,0.644531 -0.36328,1.171875 -1.00781,1.171875 -0.64454,0 -0.96094,-0.539063 -1.13672,-1.171875 l -0.19922,-0.703125 c -0.84375,0.820312 -2.00391,1.839844 -3.57422,1.839844 -2.05078,0 -3.41016,-1.265627 -4.05469,-2.707031 -0.5039,-1.136718 -0.52734,-2.285158 -0.52734,-3.269532 v -5.917968 c 0,-0.644531 0.52734,-1.171876 1.17187,-1.171876 0.64453,0 1.17188,0.527345 1.17188,1.171876 v 5.917968 c 0,0.914062 0.0586,1.710938 0.32812,2.308594 0.30469,0.691406 0.92578,1.324219 1.88672,1.324219 2.30859,0 3.59766,-1.898441 3.58594,-4.898438 L 207.125,21.4375 c 0,-0.644531 0.52734,-1.171875 1.17188,-1.171875 z m 13.6875,0.03516 c 3.10546,0 5.74218,2.56641 5.74218,5.753907 0,0.222656 -0.0117,0.445312 -0.0352,0.667968 -0.0703,0.574218 -0.59766,1.03125 -1.17188,1.03125 l -8.19141,0.01172 C 218.72656,29.453123 220.27344,31 222.14844,31 c 1.33593,0 2.44922,-0.76172 3.04687,-1.628906 0.1875,-0.292969 0.6211,-0.527344 0.97266,-0.527344 0.64453,0 1.17187,0.539063 1.17187,1.183594 0,0.199218 -0.0937,0.503906 -0.21093,0.667968 -0.97266,1.417968 -2.71876,2.625 -4.94532,2.625 -3.59765,0 -6.3164,-3.058597 -6.3164,-6.585937 0,-3.398434 2.69531,-6.433594 6.11719,-6.433594 z M 190.4375,22.5625 c -2.21484,0 -3.84375,2.050783 -3.84375,4.230469 0,2.191404 1.61719,4.171875 3.78516,4.171875 1.01953,0 2.08593,-0.48047 2.78906,-1.253906 0.70312,-0.773437 1.10156,-1.88672 1.10156,-2.976563 0,-2.249998 -1.59375,-4.171875 -3.83203,-4.171875 z m -13.76953,0.07031 c -2.32031,0 -4.05469,1.933597 -4.05469,4.21875 0,2.273436 1.85157,4.101563 4.06641,4.101563 2.25,0 4.05469,-1.89844 4.05469,-4.125 0,-2.273435 -1.76954,-4.195313 -4.06641,-4.195313 z m 45.31641,0.01172 c -1.69922,0 -3.11719,1.289064 -3.57422,2.777344 l 6.90234,-0.01172 c -0.30469,-1.535154 -1.66406,-2.765625 -3.32812,-2.765625 z" /><path
       id="rect1-7"
       style="fill:#3ecc5f;fill-opacity:1;stroke-width:3.45641;stroke-linecap:round;stroke-linejoin:round"
       d="m 24,88 v 40 H 168 V 88 Z m 60.382812,8.246094 1.289063,0.02344 c 0.632812,0 1.160156,0.539063 1.160156,1.171875 0,0.644531 -0.515625,1.136719 -1.171875,1.136719 l -1.3125,-0.1875 c -1.218749,0 -1.3125,0.433595 -1.300781,2.121092 l 0.01172,0.10547 2.367187,0.0117 c 0.621093,0 1.113281,0.48047 1.113281,1.07812 0,0.50391 -0.480469,1.06641 -0.996093,1.06641 l -2.484375,0.0234 0.02344,9.44531 v 0.0117 c 0,0.62109 -0.527344,1.11328 -1.171875,1.11328 -0.64453,0 -1.171875,-0.49219 -1.171875,-1.11328 v -0.0117 l -0.02344,-9.46875 -1.570313,-0.0117 c -0.632812,0 -1.113281,-0.48047 -1.113281,-1.17188 0,-0.45703 0.421876,-0.98437 0.949219,-0.98437 l 1.734375,-0.0117 v -0.15234 c 0.04687,-2.636717 1.101565,-4.242188 3.667968,-4.195313 z m 18.269528,3.996096 c 0.36328,0 0.92579,0.26953 1.125,1.00781 l 0.11719,0.84375 c 0.30469,-0.65625 1.5586,-1.83984 2.85938,-1.83984 1.59374,0 2.74218,0.23437 2.74218,1.48828 0,0.63281 -0.33984,0.97265 -0.90234,1.04297 -0.44531,0.0469 -1.17188,-0.46875 -1.85156,-0.46875 -2.05078,0 -2.73047,1.72265 -2.73047,3.89062 v 6.04688 c 0,0.6914 -0.44531,1.125 -1.17188,1.125 -0.72656,0 -1.17187,-0.4336 -1.17187,-1.13672 v -10.79297 c 0,-0.70313 0.375,-1.20703 0.98437,-1.20703 z m -9.105465,0.0234 c 3.585934,0 6.433594,3.00001 6.433594,6.5625 0,3.51563 -2.894535,6.49219 -6.433594,6.49219 -3.515621,0 -6.421875,-2.90625 -6.421875,-6.49219 0,-3.55077 2.894535,-6.5625 6.421875,-6.5625 z m 0,2.36719 c -2.32031,0 -4.054687,1.9336 -4.054687,4.21875 0,2.27344 1.851564,4.10156 4.066406,4.10156 2.249998,0 4.054687,-1.89843 4.054687,-4.125 0,-2.27343 -1.769533,-4.19531 -4.066406,-4.19531 z" /><path
       id="rect1-6"
       style="fill:#3ecc5f;fill-opacity:1;stroke-width:3.45641;stroke-linecap:round;stroke-linejoin:round"
       d="m 216,88 v 40 H 360 V 88 Z m 101.49805,8.011719 c 0.65625,0 1.16015,0.527344 1.17187,1.160156 l 0.0117,0.703125 c 0,0.609374 -0.44531,1.183594 -1.08984,1.183594 -0.72656,0 -1.21875,-0.503907 -1.23047,-1.160156 l -0.0234,-0.890626 c 0,-0.585936 0.66797,-0.996093 1.16016,-0.996093 z m -63.76172,4.230471 c 0.64453,0 0.9375,0.53906 1.03125,1.17187 l 0.14062,0.94922 c 0.89063,-1.27734 2.4961,-2.0625 3.94922,-2.0625 3.52734,0 6.14063,3.0586 6.14063,6.51563 0,1.76953 -0.65625,3.51562 -1.94532,4.79297 -1.13671,1.11328 -2.68359,1.74609 -4.27734,1.74609 -1.6289,0 -2.85938,-0.73828 -3.86719,-1.91016 v 4.9336 c 0,0.64453 -0.52734,1.17187 -1.17187,1.17187 -0.64453,0 -1.17188,-0.52734 -1.17188,-1.17187 v -14.96485 c 0,-0.64453 0.52735,-1.17187 1.17188,-1.17187 z m 13.94531,0 c 0.36328,0 0.92578,0.26953 1.125,1.00781 l 0.11719,0.84375 c 0.30469,-0.65625 1.55859,-1.83984 2.85937,-1.83984 1.59375,0 2.74219,0.23437 2.74219,1.48828 0,0.63281 -0.33984,0.97265 -0.90234,1.04297 -0.44532,0.0469 -1.17188,-0.46875 -1.85157,-0.46875 -2.05077,0 -2.73046,1.72265 -2.73046,3.89062 v 6.04688 c 0,0.6914 -0.44532,1.125 -1.17188,1.125 -0.72656,0 -1.17187,-0.4336 -1.17187,-1.13672 v -10.79297 c 0,-0.70313 0.375,-1.20703 0.98437,-1.20703 z m 26.85938,0 c 2.22656,0 4.18359,1.05469 5.0625,2.70703 0.082,0.14062 0.14062,0.39844 0.14062,0.5625 0,0.64453 -0.52734,1.17187 -1.17187,1.17187 -0.39844,0 -0.86719,-0.29297 -1.04297,-0.64453 -0.51563,-0.96093 -1.58204,-1.45312 -3,-1.45312 -1.24219,0 -3.33985,0.44531 -3.33985,1.67578 0,1.20703 3,1.3125 4.19532,1.4414 2.29687,0.2461 4.79296,0.8672 4.79296,3.51563 0,2.83593 -2.8125,4.08984 -5.58984,4.08984 -2.54297,0 -4.79297,-1.03125 -5.78906,-2.96484 -0.0703,-0.14062 -0.14063,-0.38672 -0.14063,-0.55078 0,-0.64453 0.52735,-1.17188 1.17188,-1.17188 0.39844,0 0.8789,0.29297 1.05469,0.65625 0.60937,1.1836 1.92187,1.6875 3.6914,1.6875 1.39453,0 3.25781,-0.42187 3.25781,-1.75781 0,-1.03125 -1.61718,-1.05469 -2.69531,-1.17187 -2.74218,-0.29297 -6.29297,-0.63282 -6.29297,-3.77344 0,-2.82422 3.07032,-4.01953 5.69532,-4.01953 z m 13.86328,0 c 2.22656,0 4.18359,1.05469 5.0625,2.70703 0.082,0.14062 0.14062,0.39844 0.14062,0.5625 0,0.64453 -0.52734,1.17187 -1.17187,1.17187 -0.39844,0 -0.86719,-0.29297 -1.04297,-0.64453 -0.51563,-0.96093 -1.58203,-1.45312 -3,-1.45312 -1.24219,0 -3.33985,0.44531 -3.33985,1.67578 0,1.20703 3.00001,1.3125 4.19532,1.4414 2.29687,0.2461 4.79297,0.8672 4.79297,3.51563 0,2.83593 -2.81251,4.08984 -5.58985,4.08984 -2.54296,0 -4.79297,-1.03125 -5.78906,-2.96484 -0.0703,-0.14062 -0.14063,-0.38672 -0.14063,-0.55078 0,-0.64453 0.52735,-1.17188 1.17188,-1.17188 0.39844,0 0.87891,0.29297 1.05469,0.65625 0.60937,1.1836 1.92187,1.6875 3.6914,1.6875 1.39453,0 3.25782,-0.42187 3.25782,-1.75781 0,-1.03125 -1.61719,-1.05469 -2.69532,-1.17187 -2.74218,-0.29297 -6.29297,-0.63282 -6.29297,-3.77344 0,-2.82422 3.07032,-4.01953 5.69532,-4.01953 z m 27.53906,0 c 0.64453,0 0.96094,0.53906 1.13672,1.17187 l 0.19922,0.70313 c 0.84375,-0.82031 2.0039,-1.83985 3.57422,-1.83985 2.05077,0 3.41015,1.26563 4.05468,2.70704 0.50391,1.13671 0.52735,2.28515 0.52735,3.26953 v 5.91797 c 0,0.64453 -0.52735,1.17187 -1.17188,1.17187 -0.64453,0 -1.17187,-0.52734 -1.17187,-1.17187 v -5.91797 c 0,-0.91407 -0.0586,-1.71094 -0.32813,-2.3086 -0.30469,-0.6914 -0.92578,-1.32422 -1.88672,-1.32422 -2.30859,0 -3.59765,1.89844 -3.58593,4.89844 l 0.0117,4.67578 c 0,0.64453 -0.52734,1.17188 -1.17187,1.17188 -0.65625,0 -1.17188,-0.52735 -1.17188,-1.1836 l -0.0234,-10.76953 c 0,-0.64453 0.36328,-1.17187 1.00781,-1.17187 z m -18.51563,0.0234 c 0.67969,0 1.24219,0.44532 1.24219,1.11329 v 0.0117 l 0.0234,10.85157 c 0,0.62109 -0.52735,1.125 -1.17188,1.125 -0.65624,0 -1.17187,-0.51563 -1.17187,-1.13672 l -0.0234,-10.95703 c 0,-0.58594 0.63281,-1.00782 1.10156,-1.00782 z m 9.38672,0 c 3.58594,0 6.4336,3.00001 6.4336,6.5625 0,3.51563 -2.89454,6.49219 -6.4336,6.49219 -3.51562,0 -6.42187,-2.90625 -6.42187,-6.49219 0,-3.55077 2.89453,-6.5625 6.42187,-6.5625 z m -95.13281,0.0352 c 3.10547,0 5.74219,2.56641 5.74219,5.75391 0,0.22265 -0.0117,0.44531 -0.0352,0.66797 -0.0703,0.57421 -0.59765,1.03125 -1.17187,1.03125 l -8.19141,0.0117 c 0.39844,1.6875 1.94532,3.23438 3.82031,3.23438 1.33594,0 2.44922,-0.76172 3.04688,-1.62891 0.1875,-0.29296 0.62109,-0.52734 0.97265,-0.52734 0.64453,0 1.17188,0.53906 1.17188,1.18359 0,0.19922 -0.0937,0.50391 -0.21094,0.66797 -0.97265,1.41797 -2.71875,2.625 -4.94531,2.625 -3.59765,0 -6.31641,-3.05859 -6.31641,-6.58593 0,-3.39844 2.69532,-6.4336 6.11719,-6.4336 z m 8.25,0 c 0.30469,0 0.67969,0.17578 0.86719,0.38672 l 3.96094,4.27734 3.94921,-4.26562 c 0.1875,-0.21094 0.57422,-0.39844 0.86719,-0.39844 0.65625,0 1.1836,0.55078 1.1836,1.1836 0,0.25781 -0.15235,0.62109 -0.32813,0.80859 l -4.07812,4.39453 4.13671,4.47656 c 0.17579,0.1875 0.32813,0.55078 0.32813,0.8086 0,0.64453 -0.52735,1.17187 -1.17188,1.17187 -0.29296,0 -0.6914,-0.17578 -0.8789,-0.38672 l -4.00781,-4.34765 -4.01954,4.33593 c -0.1875,0.21094 -0.57421,0.38672 -0.86718,0.38672 -0.64453,0 -1.17188,-0.52734 -1.17188,-1.17187 0,-0.25781 0.15235,-0.6211 0.32813,-0.8086 l 4.13672,-4.46484 -4.07813,-4.41797 c -0.17578,-0.1875 -0.32812,-0.53906 -0.32812,-0.79687 0,-0.64453 0.52734,-1.17188 1.17187,-1.17188 z m 41.12109,0 c 3.10547,0 5.74219,2.56641 5.74219,5.75391 0,0.22265 -0.0117,0.44531 -0.0351,0.66797 -0.0703,0.57421 -0.59766,1.03125 -1.17188,1.03125 l -8.19141,0.0117 c 0.39844,1.6875 1.94532,3.23438 3.82032,3.23438 1.33593,0 2.44922,-0.76172 3.04687,-1.62891 0.1875,-0.29296 0.6211,-0.52734 0.97266,-0.52734 0.64453,0 1.17187,0.53906 1.17187,1.18359 0,0.19922 -0.0937,0.50391 -0.21093,0.66797 -0.97266,1.41797 -2.71876,2.625 -4.94532,2.625 -3.59765,0 -6.3164,-3.05859 -6.3164,-6.58593 0,-3.39844 2.69531,-6.4336 6.11718,-6.4336 z m 45.76172,2.33203 c -2.32031,0 -4.05468,1.9336 -4.05468,4.21875 0,2.27344 1.85156,4.10156 4.0664,4.10156 2.25,0 4.05469,-1.89843 4.05469,-4.125 0,-2.27343 -1.76953,-4.19531 -4.06641,-4.19531 z m -95.13281,0.0117 c -1.69922,0 -3.11719,1.28907 -3.57422,2.77735 l 6.90235,-0.0117 c -0.30469,-1.53516 -1.66407,-2.76563 -3.32813,-2.76563 z m 27.19922,0 c -1.01953,0 -2.08594,0.48047 -2.78906,1.25391 -0.70313,0.77343 -1.10157,1.88672 -1.10157,2.97656 0,2.25 1.59376,4.17188 3.83204,4.17188 2.21484,0 3.84375,-2.05079 3.84375,-4.23047 0,-2.19141 -1.61719,-4.17188 -3.78516,-4.17188 z m 22.17187,0 c -1.69921,0 -3.11718,1.28907 -3.57421,2.77735 l 6.90234,-0.0117 c -0.30469,-1.53516 -1.66406,-2.76563 -3.32813,-2.76563 z" /><text
       xml:space="preserve"
       style="font-weight:bold;font-size:24px;line-height:1;font-family:Manjari;-inkscape-font-specification:'Manjari Bold';text-align:center;text-anchor:middle;fill:#3ecc5f;fill-opacity:1;stroke-width:8;stroke-linecap:round;stroke-linejoin:round"
       x="95.716797"
       y="175.95312"
       id="text1-0"><tspan
         sodipodi:role="line"
         id="tspan1-3"
         x="95.716797"
         y="175.95312"
         style="font-size:24px;fill:#3ecc5f;fill-opacity:1">...</tspan></text><text
       xml:space="preserve"
       style="font-weight:bold;font-size:24px;line-height:1;font-family:Manjari;-inkscape-font-specification:'Manjari Bold';text-align:center;text-anchor:middle;fill:#3ecc5f;fill-opacity:1;stroke-width:8;stroke-linecap:round;stroke-linejoin:round"
       x="288"
       y="176"
       id="text1-0-5"><tspan
         sodipodi:role="line"
         id="tspan1-3-3"
         x="288"
         y="176"
         style="font-size:24px;fill:#3ecc5f;fill-opacity:1">...</tspan></text><rect
       style="fill:#3ecc5f;fill-opacity:1;stroke-width:4.53016;stroke-linecap:round;stroke-linejoin:round"
       id="rect2"
       width="8"
       height="24"
       x="171.36249"
       y="-90.225395"
       rx="0"
       ry="0"
       transform="rotate(45)" /><rect
       style="fill:#3ecc5f;fill-opacity:1;stroke-width:4.53016;stroke-linecap:round;stroke-linejoin:round"
       id="rect2-8"
       width="8"
       height="24"
       x="-100.16652"
       y="181.3036"
       rx="0"
       ry="0"
       transform="matrix(-0.70710678,0.70710678,0.70710678,0.70710678,0,0)" /><path
       sodipodi:type="star"
       style="fill:#3ecc5f;fill-opacity:1;stroke-width:8;stroke-linecap:round;stroke-linejoin:round"
       id="path2"
       inkscape:flatsided="true"
       sodipodi:sides="3"
       sodipodi:cx="119.79929"
       sodipodi:cy="71.169022"
       sodipodi:r1="8.623971"
       sodipodi:r2="4.3119855"
       sodipodi:arg1="0"
       sodipodi:arg2="1.0471976"
       inkscape:rounded="0"
       inkscape:randomized="0"
       d="M 128.42326,71.169022 115.48731,78.6376 V 63.700444 Z"
       inkscape:transform-center-x="-1.1160181"
       transform="rotate(135,141.83726,85.663893)"
       inkscape:transform-center-y="-1.1160208" /><rect
       style="fill:#3ecc5f;fill-opacity:1;stroke-width:4.53016;stroke-linecap:round;stroke-linejoin:round"
       id="rect2-6"
       width="8"
       height="24"
       x="91.468567"
       y="130.90918"
       rx="0"
       ry="0" /><path
       sodipodi:type="star"
       style="fill:#3ecc5f;fill-opacity:1;stroke-width:8;stroke-linecap:round;stroke-linejoin:round"
       id="path2-8"
       inkscape:flatsided="true"
       sodipodi:sides="3"
       sodipodi:cx="119.79929"
       sodipodi:cy="71.169022"
       sodipodi:r1="8.623971"
       sodipodi:r2="4.3119855"
       sodipodi:arg1="0"
       sodipodi:arg2="1.0471976"
       inkscape:rounded="0"
       inkscape:randomized="0"
       d="M 128.42326,71.169022 115.48731,78.6376 V 63.700444 Z"
       inkscape:transform-center-x="-2.5843841e-06"
       transform="rotate(90,63.530432,103.10717)"
       inkscape:transform-center-y="2.1560039" /><rect
       style="fill:#3ecc5f;fill-opacity:1;stroke-width:4.53016;stroke-linecap:round;stroke-linejoin:round"
       id="rect2-6-6"
       width="8"
       height="24"
       x="283.46857"
       y="130.90918"
       rx="0"
       ry="0" /><path
       sodipodi:type="star"
       style="fill:#3ecc5f;fill-opacity:1;stroke-width:8;stroke-linecap:round;stroke-linejoin:round"
       id="path2-8-4"
       inkscape:flatsided="true"
       sodipodi:sides="3"
       sodipodi:cx="119.79929"
       sodipodi:cy="71.169022"
       sodipodi:r1="8.623971"
       sodipodi:r2="4.3119855"
       sodipodi:arg1="0"
       sodipodi:arg2="1.0471976"
       inkscape:rounded="0"
       inkscape:randomized="0"
       d="M 128.42326,71.169022 115.48731,78.6376 V 63.700444 Z"
       inkscape:transform-center-x="-2.5843841e-06"
       transform="rotate(90,159.53043,199.10717)"
       inkscape:transform-center-y="2.1560039" /><path
       sodipodi:type="star"
       style="fill:#3ecc5f;fill-opacity:1;stroke-width:8;stroke-linecap:round;stroke-linejoin:round"
       id="path2-4"
       inkscape:flatsided="true"
       sodipodi:sides="3"
       sodipodi:cx="119.79929"
       sodipodi:cy="71.169022"
       sodipodi:r1="8.623971"
       sodipodi:r2="4.3119855"
       sodipodi:arg1="0"
       sodipodi:arg2="1.0471976"
       inkscape:rounded="0"
       inkscape:randomized="0"
       d="M 128.42326,71.169022 115.48731,78.6376 V 63.700444 Z"
       inkscape:transform-center-x="1.116018"
       transform="matrix(0.70710678,0.70710678,0.70710678,-0.70710678,81.295126,45.943321)"
       inkscape:transform-center-y="-1.1160209" /></g></svg>
