<?xml version="1.0" encoding="UTF-8" standalone="no"?>
<!-- Created with Inkscape (http://www.inkscape.org/) -->

<svg
   width="240"
   height="240"
   viewBox="0 0 80 80"
   version="1.1"
   id="svg1"
   inkscape:version="1.3 (1:1.3+202307231459+0e150ed6c4)"
   sodipodi:docname="hidding.svg"
   xmlns:inkscape="http://www.inkscape.org/namespaces/inkscape"
   xmlns:sodipodi="http://sodipodi.sourceforge.net/DTD/sodipodi-0.dtd"
   xmlns="http://www.w3.org/2000/svg"
   xmlns:svg="http://www.w3.org/2000/svg">
  <sodipodi:namedview
     id="namedview1"
     pagecolor="#ffffff"
     bordercolor="#111111"
     borderopacity="1"
     inkscape:showpageshadow="false"
     inkscape:pageopacity="0"
     inkscape:pagecheckerboard="1"
     inkscape:deskcolor="#afafaf"
     inkscape:document-units="px"
     showgrid="true"
     labelstyle="default"
     inkscape:zoom="2.9077441"
     inkscape:cx="135.84414"
     inkscape:cy="112.11441"
     inkscape:window-width="1920"
     inkscape:window-height="1016"
     inkscape:window-x="1920"
     inkscape:window-y="27"
     inkscape:window-maximized="1"
     inkscape:current-layer="layer1">
    <inkscape:grid
       id="grid1"
       units="px"
       originx="0"
       originy="0"
       spacingx="1"
       spacingy="1"
       empcolor="#0099e5"
       empopacity="0.30196078"
       color="#0099e5"
       opacity="0.14901961"
       empspacing="8"
       dotted="false"
       gridanglex="30"
       gridanglez="30"
       visible="true" />
  </sodipodi:namedview>
  <defs
     id="defs1" />
  <g
     inkscape:label="Layer 1"
     inkscape:groupmode="layer"
     id="layer1">
    <path
       id="path2"
       style="fill:#3ecc5f;fill-opacity:1;stroke:none;stroke-width:0.99457;-inkscape-stroke:none"
       d="M 53.166015,9.3583458 A 15.835648,15.835648 0 0 0 50,9.8739708 V 40.505482 a 15.835648,15.835648 0 0 0 17.634114,-7.41211 15.835648,15.835648 0 0 0 -5.796875,-21.63151 15.835648,15.835648 0 0 0 -8.671224,-2.1035162 z m 1.893881,3.1393232 a 3.4580238,3.9577382 30 0 1 1.762369,0.405599 3.4580238,3.9577382 30 0 1 1.016276,5.15625 3.4580238,3.9577382 30 0 1 -4.973958,1.698568 3.4580238,3.9577382 30 0 1 -1.015625,-5.15625 3.4580238,3.9577382 30 0 1 3.210938,-2.104167 z m 8.660156,5 a 3.4580238,3.9577382 30 0 1 1.76237,0.405599 3.4580238,3.9577382 30 0 1 1.016276,5.15625 3.4580238,3.9577382 30 0 1 -4.973959,1.698568 3.4580238,3.9577382 30 0 1 -1.015625,-5.15625 3.4580238,3.9577382 30 0 1 3.210938,-2.104167 z" />
    <path
       id="rect1"
       style="fill:#3ecc5f;fill-opacity:1;stroke:none;stroke-width:1.05835;-inkscape-stroke:none"
       d="M 2.0833333 8 C 2.0371384 8 2 8.0371384 2 8.0833333 L 2 15.020833 C 2 15.009283 2.0092834 15 2.0208333 15 L 11.145833 15 C 11.064984 15 11 14.935016 11 14.854167 L 11 8.1458333 C 11 8.0649846 11.064984 8 11.145833 8 L 2.0833333 8 z M 11.854167 8 C 11.935016 8 12 8.0649846 12 8.1458333 L 12 14.854167 C 12 14.935016 11.935016 15 11.854167 15 L 24.145833 15 C 24.064984 15 24 14.935016 24 14.854167 L 24 8.1458333 C 24 8.0649845 24.064984 8 24.145833 8 L 11.854167 8 z M 24.854167 8 C 24.935016 8 25 8.0649845 25 8.1458333 L 25 14.854167 C 25 14.935016 24.935016 15 24.854167 15 L 37.145833 15 C 37.064984 15 37 14.935016 37 14.854167 L 37 8.1458333 C 37 8.0649844 37.064984 8 37.145833 8 L 24.854167 8 z M 37.854167 8 C 37.935016 8 38 8.0649844 38 8.1458333 L 38 14.854167 C 38 14.935016 37.935016 15 37.854167 15 L 50.145833 15 C 50.064984 15 50 14.935016 50 14.854167 L 50 8.1458333 C 50 8.0649843 50.064984 8 50.145833 8 L 37.854167 8 z M 50.854167 8 C 50.935016 8 51 8.0649843 51 8.1458333 L 51 8.0833333 C 51 8.0371384 50.962866 8 50.916667 8 L 50.854167 8 z M 51 14.854167 C 51 14.935016 50.935016 15 50.854167 15 L 50.979167 15 C 50.990717 15 51 15.009283 51 15.020833 L 51 14.854167 z M 2 15.979167 L 2 23.020833 C 2 23.009283 2.0092834 23 2.0208333 23 L 4.1458333 23 C 4.0649847 23 4 22.935016 4 22.854167 L 4 16.145833 C 4 16.064984 4.0649847 16 4.1458333 16 L 2.0208333 16 C 2.0092834 16 2 15.990717 2 15.979167 z M 51 15.979167 C 51 15.990717 50.990717 16 50.979167 16 L 50.854167 16 C 50.935016 16 51 16.064984 51 16.145833 L 51 15.979167 z M 4.8541667 16 C 4.9350153 16 5 16.064984 5 16.145833 L 5 22.854167 C 5 22.935016 4.9350153 23 4.8541667 23 L 17.145833 23 C 17.064984 23 17 22.935016 17 22.854167 L 17 16.145833 C 17 16.064984 17.064984 16 17.145833 16 L 4.8541667 16 z M 17.854167 16 C 17.935016 16 18 16.064984 18 16.145833 L 18 22.854167 C 18 22.935016 17.935016 23 17.854167 23 L 30.145833 23 C 30.064984 23 30 22.935016 30 22.854167 L 30 16.145833 C 30 16.064984 30.064984 16 30.145833 16 L 17.854167 16 z M 30.854167 16 C 30.935016 16 31 16.064984 31 16.145833 L 31 22.854167 C 31 22.935016 30.935016 23 30.854167 23 L 43.145833 23 C 43.064984 23 43 22.935016 43 22.854167 L 43 16.145833 C 43 16.064984 43.064984 16 43.145833 16 L 30.854167 16 z M 43.854167 16 C 43.935016 16 44 16.064984 44 16.145833 L 44 22.854167 C 44 22.935016 43.935016 23 43.854167 23 L 50.145833 23 C 50.064984 23 50 22.935016 50 22.854167 L 50 16.145833 C 50 16.064984 50.064984 16 50.145833 16 L 43.854167 16 z M 51 22.854167 C 51 22.935016 50.935016 23 50.854167 23 L 50.979167 23 C 50.990717 23 51 23.009283 51 23.020833 L 51 22.854167 z M 2 23.979167 L 2 31.020833 C 2 31.009283 2.0092834 31 2.0208333 31 L 11.145833 31 C 11.064984 31 11 30.935016 11 30.854167 L 11 24.145833 C 11 24.064984 11.064984 24 11.145833 24 L 2.0208333 24 C 2.0092834 24 2 23.990717 2 23.979167 z M 51 23.979167 C 51 23.990717 50.990717 24 50.979167 24 L 50.854167 24 C 50.935016 24 51 24.064984 51 24.145833 L 51 23.979167 z M 11.854167 24 C 11.935016 24 12 24.064984 12 24.145833 L 12 30.854167 C 12 30.935016 11.935016 31 11.854167 31 L 24.145833 31 C 24.064984 31 24 30.935016 24 30.854167 L 24 24.145833 C 24 24.064984 24.064984 24 24.145833 24 L 11.854167 24 z M 24.854167 24 C 24.935016 24 25 24.064984 25 24.145833 L 25 30.854167 C 25 30.935016 24.935016 31 24.854167 31 L 37.145833 31 C 37.064984 31 37 30.935016 37 30.854167 L 37 24.145833 C 37 24.064984 37.064984 24 37.145833 24 L 24.854167 24 z M 37.854167 24 C 37.935016 24 38 24.064984 38 24.145833 L 38 30.854167 C 38 30.935016 37.935016 31 37.854167 31 L 50.145833 31 C 50.064984 31 50 30.935016 50 30.854167 L 50 24.145833 C 50 24.064984 50.064984 24 50.145833 24 L 37.854167 24 z M 51 30.854167 C 51 30.935016 50.935016 31 50.854167 31 L 50.979167 31 C 50.990717 31 51 31.009283 51 31.020833 L 51 30.854167 z M 2 31.979167 L 2 39.020833 C 2 39.009283 2.0092834 39 2.0208333 39 L 4.1458333 39 C 4.0649855 39 4 38.935016 4 38.854167 L 4 32.145833 C 4 32.064984 4.0649855 32 4.1458333 32 L 2.0208333 32 C 2.0092834 32 2 31.990717 2 31.979167 z M 51 31.979167 C 51 31.990717 50.990717 32 50.979167 32 L 50.854167 32 C 50.935016 32 51 32.064984 51 32.145833 L 51 31.979167 z M 4.8541667 32 C 4.9350145 32 5 32.064984 5 32.145833 L 5 38.854167 C 5 38.935016 4.9350145 39 4.8541667 39 L 17.145833 39 C 17.064984 39 17 38.935016 17 38.854167 L 17 32.145833 C 17 32.064984 17.064984 32 17.145833 32 L 4.8541667 32 z M 17.854167 32 C 17.935016 32 18 32.064984 18 32.145833 L 18 38.854167 C 18 38.935016 17.935016 39 17.854167 39 L 30.145833 39 C 30.064984 39 30 38.935016 30 38.854167 L 30 32.145833 C 30 32.064984 30.064984 32 30.145833 32 L 17.854167 32 z M 30.854167 32 C 30.935016 32 31 32.064984 31 32.145833 L 31 38.854167 C 31 38.935016 30.935016 39 30.854167 39 L 43.145833 39 C 43.064984 39 43 38.935016 43 38.854167 L 43 32.145833 C 43 32.064984 43.064984 32 43.145833 32 L 30.854167 32 z M 43.854167 32 C 43.935016 32 44 32.064984 44 32.145833 L 44 38.854167 C 44 38.935016 43.935016 39 43.854167 39 L 50.145833 39 C 50.064984 39 50 38.935016 50 38.854167 L 50 32.145833 C 50 32.064984 50.064984 32 50.145833 32 L 43.854167 32 z M 51 38.854167 C 51 38.935016 50.935016 39 50.854167 39 L 50.979167 39 C 50.990717 39 51 39.009283 51 39.020833 L 51 38.854167 z M 2 39.979167 L 2 47.020833 C 2 47.009283 2.0092834 47 2.0208333 47 L 11.145833 47 C 11.064984 47 11 46.935016 11 46.854167 L 11 40.145833 C 11 40.064984 11.064984 40 11.145833 40 L 2.0208333 40 C 2.0092834 40 2 39.990717 2 39.979167 z M 51 39.979167 C 51 39.990717 50.990717 40 50.979167 40 L 50.854167 40 C 50.935016 40 51 40.064984 51 40.145833 L 51 39.979167 z M 11.854167 40 C 11.935016 40 12 40.064984 12 40.145833 L 12 46.854167 C 12 46.935016 11.935016 47 11.854167 47 L 24.145833 47 C 24.064984 47 24 46.935016 24 46.854167 L 24 40.145833 C 24 40.064984 24.064984 40 24.145833 40 L 11.854167 40 z M 24.854167 40 C 24.935016 40 25 40.064984 25 40.145833 L 25 46.854167 C 25 46.935016 24.935016 47 24.854167 47 L 37.145833 47 C 37.064984 47 37 46.935016 37 46.854167 L 37 40.145833 C 37 40.064984 37.064984 40 37.145833 40 L 24.854167 40 z M 37.854167 40 C 37.935016 40 38 40.064984 38 40.145833 L 38 46.854167 C 38 46.935016 37.935016 47 37.854167 47 L 50.145833 47 C 50.064984 47 50 46.935016 50 46.854167 L 50 40.145833 C 50 40.064984 50.064984 40 50.145833 40 L 37.854167 40 z M 51 46.854167 C 51 46.935016 50.935016 47 50.854167 47 L 50.979167 47 C 50.990717 47 51 47.009283 51 47.020833 L 51 46.854167 z M 2 47.979167 L 2 55.020833 C 2 55.009283 2.0092834 55 2.0208333 55 L 4.1458333 55 C 4.0649863 55 4 54.935016 4 54.854167 L 4 48.145833 C 4 48.064984 4.0649863 48 4.1458333 48 L 2.0208333 48 C 2.0092834 48 2 47.990717 2 47.979167 z M 51 47.979167 C 51 47.990717 50.990717 48 50.979167 48 L 50.854167 48 C 50.935016 48 51 48.064984 51 48.145833 L 51 47.979167 z M 4.8541667 48 C 4.9350137 48 5 48.064984 5 48.145833 L 5 54.854167 C 5 54.935016 4.9350137 55 4.8541667 55 L 17.145833 55 C 17.064984 55 17 54.935016 17 54.854167 L 17 48.145833 C 17 48.064984 17.064984 48 17.145833 48 L 4.8541667 48 z M 17.854167 48 C 17.935016 48 18 48.064984 18 48.145833 L 18 54.854167 C 18 54.935016 17.935016 55 17.854167 55 L 30.145833 55 C 30.064984 55 30 54.935016 30 54.854167 L 30 48.145833 C 30 48.064984 30.064984 48 30.145833 48 L 17.854167 48 z M 30.854167 48 C 30.935016 48 31 48.064984 31 48.145833 L 31 54.854167 C 31 54.935016 30.935016 55 30.854167 55 L 43.145833 55 C 43.064984 55 43 54.935016 43 54.854167 L 43 48.145833 C 43 48.064984 43.064984 48 43.145833 48 L 30.854167 48 z M 43.854167 48 C 43.935016 48 44 48.064984 44 48.145833 L 44 54.854167 C 44 54.935016 43.935016 55 43.854167 55 L 50.145833 55 C 50.064984 55 50 54.935016 50 54.854167 L 50 48.145833 C 50 48.064984 50.064984 48 50.145833 48 L 43.854167 48 z M 51 54.854167 C 51 54.935016 50.935016 55 50.854167 55 L 50.979167 55 C 50.990717 55 51 55.009283 51 55.020833 L 51 54.854167 z M 2 55.979167 L 2 63.020833 C 2 63.009283 2.0092834 63 2.0208333 63 L 11.145833 63 C 11.064984 63 11 62.935016 11 62.854167 L 11 56.145833 C 11 56.064984 11.064984 56 11.145833 56 L 2.0208333 56 C 2.0092834 56 2 55.990717 2 55.979167 z M 51 55.979167 C 51 55.990717 50.990717 56 50.979167 56 L 50.854167 56 C 50.935016 56 51 56.064984 51 56.145833 L 51 55.979167 z M 11.854167 56 C 11.935016 56 12 56.064984 12 56.145833 L 12 62.854167 C 12 62.935016 11.935016 63 11.854167 63 L 24.145833 63 C 24.064984 63 24 62.935016 24 62.854167 L 24 56.145833 C 24 56.064984 24.064984 56 24.145833 56 L 11.854167 56 z M 24.854167 56 C 24.935016 56 25 56.064984 25 56.145833 L 25 62.854167 C 25 62.935016 24.935016 63 24.854167 63 L 37.145833 63 C 37.064984 63 37 62.935016 37 62.854167 L 37 56.145833 C 37 56.064984 37.064984 56 37.145833 56 L 24.854167 56 z M 37.854167 56 C 37.935016 56 38 56.064984 38 56.145833 L 38 62.854167 C 38 62.935016 37.935016 63 37.854167 63 L 50.145833 63 C 50.064984 63 50 62.935016 50 62.854167 L 50 56.145833 C 50 56.064984 50.064984 56 50.145833 56 L 37.854167 56 z M 51 62.854167 C 51 62.935016 50.935016 63 50.854167 63 L 50.979167 63 C 50.990717 63 51 63.009283 51 63.020833 L 51 62.854167 z M 2 63.979167 L 2 71.020833 C 2 71.009283 2.0092834 71 2.0208333 71 L 4.1458333 71 C 4.0649875 71 4 70.935016 4 70.854167 L 4 64.145833 C 4 64.064984 4.0649875 64 4.1458333 64 L 2.0208333 64 C 2.0092834 64 2 63.990717 2 63.979167 z M 51 63.979167 C 51 63.990717 50.990717 64 50.979167 64 L 50.854167 64 C 50.935016 64 51 64.064984 51 64.145833 L 51 63.979167 z M 4.8541667 64 C 4.9350125 64 5 64.064984 5 64.145833 L 5 70.854167 C 5 70.935016 4.9350125 71 4.8541667 71 L 17.145833 71 C 17.064984 71 17 70.935016 17 70.854167 L 17 64.145833 C 17 64.064984 17.064984 64 17.145833 64 L 4.8541667 64 z M 17.854167 64 C 17.935016 64 18 64.064984 18 64.145833 L 18 70.854167 C 18 70.935016 17.935016 71 17.854167 71 L 30.145833 71 C 30.064984 71 30 70.935016 30 70.854167 L 30 64.145833 C 30 64.064984 30.064984 64 30.145833 64 L 17.854167 64 z M 30.854167 64 C 30.935016 64 31 64.064984 31 64.145833 L 31 70.854167 C 31 70.935016 30.935016 71 30.854167 71 L 43.145833 71 C 43.064984 71 43 70.935016 43 70.854167 L 43 64.145833 C 43 64.064984 43.064984 64 43.145833 64 L 30.854167 64 z M 43.854167 64 C 43.935016 64 44 64.064984 44 64.145833 L 44 70.854167 C 44 70.935016 43.935016 71 43.854167 71 L 50.145833 71 C 50.064984 71 50 70.935016 50 70.854167 L 50 64.145833 C 50 64.064984 50.064984 64 50.145833 64 L 43.854167 64 z M 51 70.854167 C 51 70.935016 50.935016 71 50.854167 71 L 50.979167 71 C 50.990717 71 51 71.009283 51 71.020833 L 51 70.854167 z M 2 71.979167 L 2 77.916667 C 2 77.962866 2.0371384 78 2.0833333 78 L 11.125 78 C 11.0557 78 11 77.9443 11 77.875 L 11 72.125 C 11 72.0557 11.0557 72 11.125 72 L 2.0208333 72 C 2.0092834 72 2 71.990717 2 71.979167 z M 51 71.979167 C 51 71.990717 50.990717 72 50.979167 72 L 50.875 72 C 50.9443 72 51 72.0557 51 72.125 L 51 71.979167 z M 11.875 72 C 11.9443 72 12 72.0557 12 72.125 L 12 77.875 C 12 77.9443 11.9443 78 11.875 78 L 24.125 78 C 24.0557 78 24 77.9443 24 77.875 L 24 72.125 C 24 72.0557 24.0557 72 24.125 72 L 11.875 72 z M 24.875 72 C 24.9443 72 25 72.0557 25 72.125 L 25 77.875 C 25 77.9443 24.9443 78 24.875 78 L 37.125 78 C 37.0557 78 37 77.9443 37 77.875 L 37 72.125 C 37 72.0557 37.0557 72 37.125 72 L 24.875 72 z M 37.875 72 C 37.9443 72 38 72.0557 38 72.125 L 38 77.875 C 38 77.9443 37.9443 78 37.875 78 L 50.125 78 C 50.0557 78 50 77.9443 50 77.875 L 50 72.125 C 50 72.0557 50.0557 72 50.125 72 L 37.875 72 z M 51 77.875 C 51 77.9443 50.9443 78 50.875 78 L 50.916667 78 C 50.962866 78 51 77.962866 51 77.916667 L 51 77.875 z " />
  </g>
</svg>
