<?xml version="1.0" encoding="UTF-8" standalone="no"?>
<svg
   width="400"
   height="400"
   version="1.1"
   id="svg6"
   sodipodi:docname="hooty_crying.svg"
   inkscape:version="1.3.2 (1:1.3.2+202311252150+091e20ef0f)"
   viewBox="0 0 16 16"
   xml:space="preserve"
   inkscape:export-filename="temp.png"
   inkscape:export-xdpi="2400"
   inkscape:export-ydpi="2400"
   xmlns:inkscape="http://www.inkscape.org/namespaces/inkscape"
   xmlns:sodipodi="http://sodipodi.sourceforge.net/DTD/sodipodi-0.dtd"
   xmlns="http://www.w3.org/2000/svg"
   xmlns:svg="http://www.w3.org/2000/svg"><defs
     id="defs6" /><sodipodi:namedview
     id="namedview6"
     pagecolor="#ffffff"
     bordercolor="#111111"
     borderopacity="1"
     inkscape:showpageshadow="0"
     inkscape:pageopacity="0"
     inkscape:pagecheckerboard="1"
     inkscape:deskcolor="#d1d1d1"
     showgrid="true"
     inkscape:zoom="1.4142136"
     inkscape:cx="245.36605"
     inkscape:cy="206.82873"
     inkscape:window-width="1920"
     inkscape:window-height="1011"
     inkscape:window-x="1920"
     inkscape:window-y="32"
     inkscape:window-maximized="1"
     inkscape:current-layer="svg6"><inkscape:grid
       id="grid2"
       units="px"
       originx="0"
       originy="0"
       spacingx="1"
       spacingy="1"
       empcolor="#0099e5"
       empopacity="0.30196078"
       color="#0099e5"
       opacity="0.14901961"
       empspacing="0"
       dotted="false"
       gridanglex="30"
       gridanglez="30"
       visible="true" /></sodipodi:namedview><path
     id="path1"
     style="display:inline;opacity:1;fill:#3ecc5f;fill-opacity:1;stroke:none;stroke-width:0.0991974;stroke-linecap:round;stroke-linejoin:round;paint-order:stroke fill markers"
     inkscape:label="face"
     d="M 8.6953125,0.15625 C 4.8252543,0.15682547 1.6870454,3.6766499 1.6875,8.0195312 1.6881093,12.361571 4.8260066,15.882246 8.6953125,15.882812 12.565462,15.883576 15.702516,12.362518 15.703125,8.0195312 15.70358,3.6757028 12.566214,0.15548602 8.6953125,0.15625 Z m 1.1445313,1.9804688 c 0.8938412,0.0062 1.6391522,0.6850329 1.7304682,1.5742187 0.03747,-0.025134 0.07555,-0.047846 0.113282,-0.070312 0.02627,-0.015457 0.06062,-0.00863 0.07617,0.017578 0.01546,0.026267 0.0067,0.060619 -0.01953,0.076172 -0.05038,0.03 -0.102072,0.064306 -0.152343,0.099609 0.0025,0.018694 0.0059,0.037877 0.0078,0.056641 -0.0024,0.055679 -0.0079,0.1108181 -0.01563,0.1660156 -0.04153,-0.00392 -0.08305,-0.00547 -0.125,-0.00586 -0.05631,0.00403 -0.111585,0.011134 -0.166016,0.021484 -0.328387,0.2917457 -0.639004,0.6607951 -0.890624,0.9960938 -0.182574,0.2432809 -0.335387,0.4686592 -0.4414068,0.6347656 -0.053009,0.083053 -0.094801,0.1513798 -0.1230468,0.1992188 -0.01413,0.023921 -0.026143,0.043847 -0.033203,0.056641 -0.0031,0.00554 -0.00436,0.00688 -0.00586,0.00977 -0.00685,0.026076 -0.031737,0.043373 -0.058594,0.041016 -0.031403,-0.00291 -0.05315,-0.03126 -0.048828,-0.0625 1.1e-5,-8.84e-5 0.00191,-0.00767 0.00195,-0.00781 3.32e-5,-1.438e-4 0.00155,-0.00277 0.00195,-0.00391 8.108e-4,-0.00228 -5.9e-4,-0.00451 0,-0.00586 0.00118,-0.0027 0.00267,-0.00536 0.00391,-0.00781 0.0025,-0.00491 0.00391,-0.010441 0.00781,-0.017578 0.0079,-0.014265 0.020637,-0.034011 0.035156,-0.058594 0.02903,-0.049165 0.071342,-0.1190587 0.125,-0.203125 7.93e-4,-0.00124 0.00115,-0.00266 0.00195,-0.00391 -0.00863,7.841e-4 -0.016748,0.00129 -0.025391,0.00195 -0.967218,1.631e-4 -1.7509227,-0.7827835 -1.7519532,-1.75 C 8.0877281,2.9225644 8.8717823,2.1365561 9.8398438,2.1367188 Z m 1.2578122,1.9609374 c -0.378273,0.096752 -0.628393,0.3371233 -0.630859,0.6054688 0.0036,0.024691 0.0097,0.049963 0.01758,0.074219 0.185236,-0.2322247 0.392587,-0.4698823 0.613281,-0.6796876 z M 4.21875,4.1679688 c 0.9452137,-1.703e-4 1.7108679,0.7200174 1.7109375,1.609375 -0.00586,0.093215 -0.020064,0.1864876 -0.042969,0.2773437 0.00767,-0.00451 0.013527,-0.009 0.021484,-0.013672 C 6.0411519,5.9631588 6.2085923,5.8662282 6.3691406,5.7441406 6.6902385,5.499966 6.977066,5.1683226 6.9082031,4.7089844 c -0.00399,-0.028002 0.015019,-0.054251 0.042969,-0.058594 0.028769,-0.00532 0.05625,0.015981 0.060547,0.044922 0.052126,0.3477104 -0.083043,0.6305692 -0.2792969,0.8554687 0.4049893,0.069969 0.7302455,0.2335231 0.9550781,0.3847657 0.1133512,0.07625 0.2017959,0.1488603 0.2617188,0.2050781 0.02996,0.028109 0.052119,0.05145 0.068359,0.070312 l 0.00195,0.00195 c 0.1717893,-0.039261 0.3303593,-0.056439 0.4726563,-0.054687 0.2253588,0.00277 0.4138573,0.046999 0.5742187,0.1132813 0.320724,0.132563 0.5273556,0.3429058 0.6464844,0.4121094 0.00299,0.00117 0.00508,0.00221 0.00781,0.00391 1.1477215,0.9526102 2.1479195,2.2128808 2.8710935,3.3769534 0.723179,1.16407 1.171106,2.223528 1.207031,2.802735 0.01373,0.375817 -0.189684,0.624208 -0.488281,0.757812 -0.298601,0.133608 -0.691409,0.164208 -1.083985,0.15625 -0.392569,-0.008 -0.787912,-0.05848 -1.083984,-0.109375 -0.02995,-0.0052 -0.04244,-0.01056 -0.07031,-0.01563 -0.195124,0.476854 -0.429842,0.810632 -0.6875,0.984375 -0.27511,0.185459 -0.5692544,0.225511 -0.8320312,0.191406 C 9.2899531,14.797937 9.0557041,14.691432 8.884762,14.58398 8.86353,14.57064 8.855143,14.55817 8.835934,14.54492 8.4514348,14.821256 8.1522837,14.977157 7.9218715,15.009764 7.6813181,15.043804 7.5020469,14.950854 7.3847621,14.785154 7.1501931,14.453759 7.1040527,13.853725 6.9570277,13.28906 c -1.355e-4,-0.0022 -1.355e-4,-0.0037 0,-0.0059 C 6.7823218,11.956721 6.7514045,10.740313 6.7714844,9.8535156 6.7815239,9.4101159 6.8039627,9.0490112 6.828125,8.796875 6.8388008,8.6854758 6.8489734,8.6043614 6.859375,8.5371094 6.4992312,8.6725679 6.2199273,8.851929 6.1425781,8.90625 6.0652327,9.0714377 5.9843885,9.0723018 5.9082031,9.2617188 c -0.00701,0.016016 -0.021812,0.026441 -0.039063,0.029297 -9.478e-4,1.788e-4 -0.020465,1.444e-4 -0.021484,0 -0.00102,-1.447e-4 -0.00904,-0.00195 -0.013672,-0.00391 C 5.8247344,9.2831694 5.817875,9.2782145 5.8125,9.2734375 5.801744,9.2638875 5.7944574,9.2555476 5.7871094,9.2441406 5.7724042,9.2213237 5.7577486,9.1912427 5.7421875,9.1542969 5.7110653,9.0804051 5.673853,8.9759776 5.6367188,8.8496094 5.5624468,8.5968714 5.483239,8.2583749 5.4277344,7.9042969 5.3772887,7.5824814 5.3471554,7.2497462 5.3613281,6.9628906 5.3507161,6.9752876 5.3410761,6.987905 5.3300781,7 5.1080137,6.8410343 4.6797428,6.741649 4.2148438,6.7421875 3.7534472,6.7421419 3.3278853,6.8407103 3.1054688,6.9980469 2.7261944,6.6926604 2.5085328,6.2470351 2.5078125,5.7773438 2.5078821,4.8879862 3.2735363,4.1677984 4.21875,4.1679688 Z M 6.6699219,5.6191406 C 6.5958385,5.6948742 6.5129249,5.7624066 6.4316406,5.8242188 6.264684,5.9511786 6.0937338,6.0530911 5.9609375,6.1308594 5.9225665,6.1533304 5.8958915,6.1709361 5.8652344,6.1894531 5.7915364,6.4336964 5.658046,6.6575425 5.4746094,6.84375 c -0.00144,0.013604 -0.00274,0.028995 -0.00391,0.042969 -0.024407,0.2911295 0.00583,0.6509311 0.060547,1 0.054719,0.3490684 0.1341929,0.6876849 0.2070312,0.9355468 0.036419,0.1239314 0.071079,0.2232747 0.099609,0.2910156 0.00792,0.018816 0.0129,0.02794 0.019531,0.041016 0.042916,-0.1037262 0.089479,-0.1068245 0.1328125,-0.203125 -0.01029,0.00164 -0.019878,5.516e-4 -0.029297,-0.00391 -0.014937,-0.022354 -0.011278,-0.051627 0.00977,-0.068359 0,0 0.0954,-0.04753 0.1054688,-0.054687 0.4183636,-0.880532 0.8456456,-1.6180506 1.28125,-1.9335938 0.5252026,-0.3804469 1.0506777,-0.4147158 1.5214843,-0.2734375 0.4708072,0.1412781 0.8903261,0.4537734 1.2226558,0.7597656 0.332336,0.3059922 0.581683,0.6090986 0.701172,0.7285157 8.01e-4,0.0014 0.0013,0.00244 0.002,0.00391 1.251757,1.5737436 1.953843,2.7979176 2.320312,3.6328126 0.183237,0.417439 0.281441,0.737694 0.324219,0.957031 0.02143,0.109668 0.0282,0.193221 0.02344,0.255859 -0.0023,0.03133 -0.0055,0.05811 -0.01758,0.08203 -0.01203,0.02391 -0.03806,0.04728 -0.07031,0.04883 -0.04774,0.09492 -0.126759,0.174547 -0.257813,0.21289 -0.154776,0.04529 -0.353747,0.06005 -0.587891,0.05664 -0.468278,-0.0069 -1.067608,-0.09171 -1.660156,-0.203125 -1.1563963,-0.217433 -2.2311138,-0.520066 -2.285156,-0.535156 -0.173956,0.402348 -0.1752728,0.800217 -0.1113281,1.097656 0.033148,0.154194 0.081484,0.279548 0.1191406,0.36914 0.018828,0.04479 0.034747,0.08366 0.046875,0.107422 0.00605,0.01187 0.010405,0.01961 0.013672,0.02539 0.00856,0.01185 0.012822,0.02673 0.00977,0.04101 0.00216,-1.27e-4 0.0037,-1.27e-4 0.00586,0 l 0.203125,0.1875 c 0.00259,0.0033 0.00415,0.0078 0.00586,0.01172 0.020299,0.01422 0.031756,0.02661 0.054687,0.04102 0.1608056,0.101082 0.383762,0.198911 0.6269532,0.230469 0.2431904,0.03156 0.5049603,-0.0015 0.7578123,-0.171875 0.23209,-0.156459 0.451467,-0.473351 0.638672,-0.919922 -0.06038,-0.01174 -0.136023,-0.02389 -0.179688,-0.0332 -0.04366,-0.0093 -0.07775,-0.01611 -0.101562,-0.02149 -0.01191,-0.0028 -0.02309,-0.0063 -0.0293,-0.0078 -0.0032,-7.24e-4 -0.0026,-0.0016 -0.0039,-0.002 -0.05616,-0.01367 -0.05158,-0.09516 0.0059,-0.101563 1.01e-4,10e-7 0.0057,-2.04e-4 0.0078,0 h 0.002 l 0.410156,0.05274 c 0.02103,0.0029 0.03792,0.01845 0.04297,0.03906 0.01676,0.003 0.02552,0.0049 0.04297,0.0078 0.292803,0.05034 0.681734,0.10152 1.066407,0.109376 0.384664,0.0079 0.765406,-0.02795 1.039062,-0.150391 0.273065,-0.122179 0.439309,-0.317119 0.427734,-0.654297 -0.03303,-0.532619 -0.471151,-1.599655 -1.189453,-2.755859 C 11.787447,8.9631974 10.790192,7.7103747 9.6542969,6.7675781 9.5068084,6.6798885 9.3252913,6.48953 9.0292969,6.3671875 8.7835468,6.2656128 8.4608931,6.2137385 8.0332031,6.3144531 c -0.012035,0.00995 -0.027668,0.014832 -0.042969,0.011719 l -0.00195,-0.00195 c -0.079578,0.020482 -0.1609449,0.046357 -0.2480468,0.078125 -0.026838,0.00871 -0.057268,-0.00651 -0.066406,-0.033203 -0.00893,-0.026228 0.00541,-0.054447 0.03125,-0.064453 C 7.7733493,6.2797941 7.8381125,6.2583071 7.902347,6.2402381 7.894797,6.2326281 7.88623,6.2235461 7.876956,6.2148471 7.8212992,6.1626305 7.7374558,6.0945046 7.6289062,6.0214844 7.4118077,5.8754441 7.0987958,5.7124261 6.7070312,5.6464844 6.6910439,5.6434285 6.6770601,5.6337695 6.6699219,5.6191406 Z m 0.25,3.3339844 C 6.9005309,9.1905716 6.883355,9.4862581 6.875,9.8554688 6.855024,10.737714 6.886699,11.947583 7.0605469,13.267578 c 0.1486097,0.573857 0.2065206,1.174064 0.4082031,1.458984 0.1012663,0.143069 0.2274465,0.211364 0.4375,0.181641 0.1937097,-0.02741 0.4810791,-0.178598 0.8378906,-0.429687 -0.018798,-0.0154 -0.047256,-0.03458 -0.0625,-0.04883 -0.024961,-0.02335 -0.045314,-0.04641 -0.060547,-0.06641 -0.00734,-0.0096 -0.010228,-0.02153 -0.015625,-0.03125 -0.00166,-0.003 -0.00198,-0.007 -0.00391,-0.0098 -0.2507719,0.140151 -0.4392306,0.203453 -0.5917969,0.203125 -0.1622448,-3.49e-4 -0.2822685,-0.07804 -0.3574218,-0.19336 -0.1503025,-0.230619 -0.1705653,-0.598249 -0.2675782,-0.90039 -9.65e-4,-0.0028 -0.00148,-0.0049 -0.00195,-0.0078 C 7.1897775,12.260505 7.055963,11.017266 6.9824219,10.060547 6.9480914,9.6139337 6.9288578,9.2375673 6.9199219,8.953125 Z m 0.8476562,1.923828 -0.00195,0.01563 a 1.0826722,0.82292634 0 0 1 0.00781,-0.0078 1.5577515,1.6401731 0 0 1 -0.00586,-0.0078 z" /><g
     id="g12"
     inkscape:label="cry"
     transform="matrix(1.033506,0,0,1.033506,0.20145591,-0.29459896)"><path
       style="display:inline;opacity:1;fill:#80e5ff;fill-opacity:1;stroke:#80e5ff;stroke-width:0.1;stroke-linecap:round;stroke-linejoin:round;stroke-opacity:1;paint-order:stroke fill markers"
       d="M 4.9972621,6.986442 C 4.4689226,7.3659702 3.4542646,7.0956593 3.4164088,7.0583155 2.8799416,7.1363207 2.1693851,7.8590953 2.103554,7.840377 1.6792337,7.773061 1.5797075,7.5563923 1.3898722,7.6557201 0.86312431,7.9313313 0.77100313,8.0058237 0.7763409,8.0034475 0.04268561,8.0318309 -0.04439525,7.688413 0.01018942,7.6630213 0.05224355,7.2236535 0.65843321,6.7779549 0.71673245,6.7932493 2.6070844,7.066699 3.0130379,5.9347057 3.7331075,5.7780848 4.6112995,5.6721597 4.9073901,6.3078951 4.8897546,6.3335475 5.2036167,6.1284412 5.5281017,6.1310535 5.5379826,6.1884724 5.3715437,6.9571159 4.9972621,6.986442 4.9972621,6.986442 Z"
       id="path4"
       sodipodi:nodetypes="cccscccccc"
       inkscape:label="cryline" /><path
       style="display:inline;opacity:1;fill:#80e5ff;fill-opacity:1;stroke:#80e5ff;stroke-width:0.00078125;stroke-linecap:round;stroke-linejoin:round;stroke-opacity:1;paint-order:stroke fill markers"
       d="M 0.46562102,7.9368946 C 0.36595594,7.9213995 0.28651305,7.8981576 0.21484375,7.8635269 0.11535999,7.8154562 0.04088585,7.7313524 0.05551237,7.6835938 0.05880226,7.6728516 0.06892844,7.6324219 0.07801499,7.59375 0.09862367,7.5060406 0.15453402,7.3914988 0.22462361,7.2933975 0.32411262,7.1541471 0.53996312,6.9486745 0.66726156,6.8720412 l 0.0438479,-0.026396 0.10056522,0.012745 C 1.1426066,6.9003314 1.5159417,6.8944178 1.796875,6.8427847 2.0952846,6.7879396 2.3722722,6.6827505 2.6367188,6.5238447 2.7723624,6.4423366 2.8469609,6.3901974 3.1036798,6.1974718 3.3504561,6.0122102 3.4216505,5.9644928 3.5384028,5.9061021 c 0.1092956,-0.054661 0.1710586,-0.072554 0.2849774,-0.082556 0.3217405,-0.02825 0.6340743,0.072044 0.839604,0.2696059 0.085134,0.081833 0.1729533,0.2039056 0.1729533,0.2404108 0,0.019183 0.030926,0.053156 0.048388,0.053156 0.0088,0 0.046459,-0.017577 0.083682,-0.039059 C 5.104669,6.2687878 5.2637897,6.217911 5.4003901,6.209411 c 0.063114,-0.00393 0.076172,-0.00282 0.076172,0.00645 0,0.01984 -0.05452,0.2012742 -0.079082,0.2631719 -0.059727,0.1505162 -0.1445632,0.283037 -0.2300035,0.359282 -0.046881,0.041836 -0.1415267,0.095276 -0.168738,0.095276 -0.00813,0 -0.045473,0.0185 -0.08298,0.041111 C 4.762822,7.0669036 4.5991511,7.1107514 4.3389591,7.1292306 4.0899556,7.1469151 3.7057371,7.1009536 3.4819138,7.0267081 3.4395754,7.0126638 3.4049658,7.0055723 3.39207,7.0082991 3.1008845,7.0698719 2.8259324,7.2253327 2.3635355,7.5898438 2.2790487,7.6564453 2.1857692,7.7281388 2.1562477,7.7491627 l -0.053676,0.038225 -0.049333,-0.00949 C 1.9701905,7.7619217 1.8457823,7.7168358 1.71875,7.6566777 1.5696658,7.5860766 1.5483534,7.5790759 1.4836555,7.5794548 c -0.038884,2.276e-4 -0.062808,0.00547 -0.097656,0.02139 C 1.2872342,7.6459704 0.92480649,7.845492 0.80774951,7.9191795 L 0.76003027,7.9492188 0.64759326,7.948462 C 0.58575291,7.9480459 0.5038654,7.9428406 0.46562102,7.9368946 Z"
       id="path6"
       inkscape:label="cryfill" /><path
       style="display:inline;opacity:1;fill:#80e5ff;fill-opacity:1;stroke:#80e5ff;stroke-width:0.1;stroke-linecap:round;stroke-linejoin:round;stroke-opacity:1;paint-order:stroke fill markers"
       d="m 10.498384,3.4144063 c 0.02378,-0.034182 0.592498,-0.4243327 0.857785,0.077935 0.110678,1.0050529 -0.738093,1.3984717 -0.757843,1.3818867 -0.187387,-0.2374799 0.07851,-0.5991245 -4.93e-4,-0.5187106 -0.370546,-0.1266937 -0.457798,0.490396 -0.456136,0.4884133 -0.07986,0.3687401 -0.8763574,0.4098 -0.9259739,0.3515382 C 9.009903,5.3313899 8.5868885,6.0665948 8.2785912,6.106595 7.0132856,6.1767945 7.6471911,5.1312855 7.7718392,5.0789728 8.1008224,4.7268554 9.2839016,4.7234863 9.4587135,4.4630706 9.7345834,4.1484893 9.5939574,3.2960351 10.498384,3.4144063 Z"
       id="path7"
       sodipodi:nodetypes="cccccccccc"
       inkscape:label="cry2line" /><path
       style="display:inline;opacity:1;fill:#80e5ff;fill-opacity:1;stroke:#80e5ff;stroke-width:0.00078125;stroke-linecap:round;stroke-linejoin:round;stroke-opacity:1;paint-order:stroke fill markers"
       d="M 8.0039063,6.0500563 C 7.6400125,6.0069236 7.4992294,5.8304449 7.5782759,5.5165075 7.609988,5.3905616 7.7003631,5.2183497 7.7727169,5.1459959 7.8565249,5.0621879 7.9724108,4.9919752 8.1122127,4.9403027 8.2547038,4.8876364 8.3897066,4.853127 8.8585307,4.7495288 9.1059364,4.6948585 9.2492502,4.6532966 9.3398438,4.6099451 9.4303089,4.566655 9.4661502,4.5396884 9.5114268,4.4808481 9.5699943,4.4047353 9.612404,4.3087526 9.686538,4.0845319 9.7246406,3.9692894 9.7698956,3.8446812 9.7871045,3.8076249 9.8694517,3.6303056 9.9756256,3.5310906 10.13662,3.4810178 c 0.05795,-0.018024 0.07449,-0.019492 0.222755,-0.019775 l 0.160156,-3.054e-4 0.04687,-0.032143 c 0.200302,-0.1373493 0.438804,-0.1747168 0.581839,-0.09116 0.04472,0.026127 0.110257,0.092775 0.138553,0.140911 l 0.0218,0.037079 -4.89e-4,0.15625 c -5.25e-4,0.167393 -0.0098,0.2401678 -0.04692,0.3682752 -0.07219,0.2491208 -0.220925,0.4678182 -0.435709,0.640669 -0.07047,0.056708 -0.174145,0.1208404 -0.19849,0.1227777 -0.02555,0.00203 -0.04176,-0.065215 -0.03834,-0.1590656 0.003,-0.081397 0.01493,-0.1293578 0.06437,-0.2580548 0.01579,-0.041088 0.01089,-0.073234 -0.0131,-0.086075 -0.0089,-0.00475 -0.05894,-0.00925 -0.111236,-0.00999 -0.08834,-0.00125 -0.09826,1.398e-4 -0.139823,0.019619 -0.0246,0.011532 -0.05925,0.032626 -0.07698,0.046875 -0.09291,0.074663 -0.174952,0.2416211 -0.214272,0.436064 -0.02209,0.1092475 -0.05476,0.1569998 -0.1500266,0.2192724 -0.1014177,0.066296 -0.2327785,0.1104165 -0.4056822,0.136258 -0.096337,0.014398 -0.2817485,0.01712 -0.2945444,0.00432 C 9.2325899,5.1380587 9.1983827,5.144002 9.1671878,5.166752 9.1192627,5.2017034 9.038154,5.291655 8.8947309,5.4689141 8.7068599,5.701107 8.6878135,5.7236034 8.5926821,5.8256732 8.500921,5.9241269 8.4045191,6.002357 8.3359375,6.0340213 c -0.038945,0.017981 -0.053577,0.020008 -0.15625,0.021641 -0.062305,9.912e-4 -0.1414062,-0.00153 -0.1757812,-0.00561 z"
       id="path8"
       inkscape:label="cry2fill" /></g></svg>
