<?xml version="1.0" encoding="UTF-8" standalone="no"?>
<!-- Created with Inkscape (http://www.inkscape.org/) -->

<svg
   width="600"
   height="600"
   viewBox="0 0 158.75 158.75"
   version="1.1"
   id="svg1"
   inkscape:version="1.3.2 (1:1.3.2+202311252150+091e20ef0f)"
   sodipodi:docname="robotic_arm_state_5.svg"
   xmlns:inkscape="http://www.inkscape.org/namespaces/inkscape"
   xmlns:sodipodi="http://sodipodi.sourceforge.net/DTD/sodipodi-0.dtd"
   xmlns="http://www.w3.org/2000/svg"
   xmlns:svg="http://www.w3.org/2000/svg">
  <sodipodi:namedview
     id="namedview1"
     pagecolor="#ffffff"
     bordercolor="#111111"
     borderopacity="1"
     inkscape:showpageshadow="0"
     inkscape:pageopacity="0"
     inkscape:pagecheckerboard="1"
     inkscape:deskcolor="#d1d1d1"
     inkscape:document-units="mm"
     showgrid="true"
     inkscape:zoom="2.1241178"
     inkscape:cx="86.153414"
     inkscape:cy="392.86898"
     inkscape:window-width="1920"
     inkscape:window-height="1043"
     inkscape:window-x="0"
     inkscape:window-y="0"
     inkscape:window-maximized="1"
     inkscape:current-layer="layer1">
    <inkscape:grid
       id="grid1"
       units="mm"
       originx="0"
       originy="0"
       spacingx="0.99999997"
       spacingy="0.99999997"
       empcolor="#0099e5"
       empopacity="0.30196078"
       color="#0099e5"
       opacity="0.14901961"
       empspacing="1"
       dotted="false"
       gridanglex="30"
       gridanglez="30"
       visible="true" />
  </sodipodi:namedview>
  <defs
     id="defs1">
    <marker
       style="overflow:visible"
       id="DartArrow"
       refX="0"
       refY="0"
       orient="auto-start-reverse"
       inkscape:stockid="Dart arrow"
       markerWidth="1"
       markerHeight="1"
       viewBox="0 0 1 1"
       inkscape:isstock="true"
       inkscape:collect="always"
       preserveAspectRatio="xMidYMid">
      <path
         style="fill:context-stroke;fill-rule:evenodd;stroke:none"
         d="M 0,0 5,-5 -12.5,0 5,5 Z"
         transform="scale(-0.5)"
         id="path6" />
    </marker>
    <marker
       style="overflow:visible"
       id="DartArrow-2"
       refX="0"
       refY="0"
       orient="auto-start-reverse"
       inkscape:stockid="Dart arrow"
       markerWidth="1"
       markerHeight="1"
       viewBox="0 0 1 1"
       inkscape:isstock="true"
       inkscape:collect="always"
       preserveAspectRatio="xMidYMid">
      <path
         style="fill:context-stroke;fill-rule:evenodd;stroke:none"
         d="M 0,0 5,-5 -12.5,0 5,5 Z"
         transform="scale(-0.5)"
         id="path6-3" />
    </marker>
  </defs>
  <g
     inkscape:label="Layer 1"
     inkscape:groupmode="layer"
     id="layer1">
    <path
       id="path3"
       style="opacity:1;fill:none;stroke:#e3dbdb;stroke-width:0.5;stroke-linecap:round;stroke-linejoin:round;stroke-dasharray:none;stroke-opacity:1"
       d="m -44.101194,37.55311 v 7.449157 a 8.7192106,8.7192106 0 0 0 7.8512,-7.449157 z" />
    <rect
       style="fill:#3ecc5f;fill-opacity:1;stroke:#3ecc5f;stroke-width:1.33212;stroke-linecap:round;stroke-linejoin:round;stroke-dasharray:none;stroke-opacity:1"
       id="rect2"
       width="47.956112"
       height="10.65692"
       x="57.363174"
       y="145.33394"
       rx="0.538535"
       ry="0.33521381" />
    <rect
       style="fill:none;fill-opacity:1;stroke:#3ecc5f;stroke-width:1.33212;stroke-linecap:round;stroke-linejoin:round;stroke-dasharray:none;stroke-opacity:1"
       id="rect2-5"
       width="37.299206"
       height="15.985376"
       x="108.03473"
       y="-89.333931"
       rx="0.41886058"
       ry="0.50282049"
       transform="rotate(90)" />
    <path
       style="fill:#ff0000;stroke:#d40000;stroke-width:0.625;stroke-linecap:round;stroke-linejoin:round;stroke-dasharray:none;stroke-opacity:1;marker-end:url(#DartArrow)"
       d="m -44.30344,37.562498 h 14.397192"
       id="path1" />
    <path
       style="fill:#ff0000;stroke:#3ecc5f;stroke-width:0.557387;stroke-linecap:round;stroke-linejoin:round;stroke-dasharray:none;stroke-opacity:1"
       d="M 22.143422,25.774011 H 33.612634"
       id="path1-56" />
    <rect
       style="fill:none;fill-opacity:1;stroke:#3ecc5f;stroke-width:1.33212;stroke-linecap:round;stroke-linejoin:round;stroke-dasharray:none;stroke-opacity:1"
       id="rect2-5-2"
       width="37.299206"
       height="15.985376"
       x="43.819656"
       y="94.767876"
       rx="0.41886058"
       ry="0.50282049"
       inkscape:transform-center-y="-18.377221" />
    <ellipse
       style="fill:#3ecc5f;fill-opacity:1;stroke:none;stroke-width:1.33212;stroke-linecap:round;stroke-linejoin:round;stroke-dasharray:none;stroke-opacity:1"
       id="path2"
       cx="-102.55107"
       cy="81.491211"
       rx="10.764922"
       ry="10.65692"
       transform="rotate(-90)" />
    <g
       id="path1-8-8"
       transform="rotate(-90,81.284616,102.49969)">
      <path
         style="color:#000000;fill:#ff0000;stroke-linecap:round;stroke-linejoin:round;-inkscape-stroke:none"
         d="m 81.686064,102.69544 h 6.663395"
         id="path13" />
      <path
         style="color:#000000;fill:#d40000;stroke-linecap:round;stroke-linejoin:round;-inkscape-stroke:none"
         d="m 81.685547,102.48242 a 0.212598,0.212598 0 0 0 -0.212891,0.21289 0.212598,0.212598 0 0 0 0.212891,0.21289 h 6.664062 a 0.212598,0.212598 0 0 0 0.212891,-0.21289 0.212598,0.212598 0 0 0 -0.212891,-0.21289 z"
         id="path14" />
      <g
         id="g12">
        <path
           style="color:#000000;fill:#d40000;fill-rule:evenodd;-inkscape-stroke:none"
           d="m 88.349459,102.69544 -1.06299,1.06299 3.720465,-1.06299 -3.720465,-1.06299 z"
           id="path12" />
      </g>
    </g>
    <path
       style="fill:#e9afaf;stroke:#ffd5d5;stroke-width:0.625;stroke-linecap:round;stroke-linejoin:round;stroke-dasharray:none;stroke-opacity:1;marker-end:url(#DartArrow-2)"
       d="M -44.05344,37.437499 V 51.834692"
       id="path1-5" />
    <circle
       style="fill:none;stroke:#3ecc5f;stroke-width:0.499999;stroke-linecap:round;stroke-linejoin:round;stroke-opacity:1"
       id="path4"
       cx="22.031496"
       cy="25.958614"
       r="11.64816" />
    <text
       xml:space="preserve"
       style="font-size:3.88056px;font-family:System-ui;-inkscape-font-specification:System-ui;text-align:center;text-anchor:middle;fill:#3ecc5f;fill-opacity:1;stroke:none;stroke-width:0.499999;stroke-linecap:round;stroke-linejoin:round;stroke-opacity:1"
       x="36.080307"
       y="26.813404"
       id="text4"><tspan
         sodipodi:role="line"
         id="tspan4"
         style="font-size:3.88056px;fill:#3ecc5f;fill-opacity:1;stroke:none;stroke-width:0.5"
         x="36.080307"
         y="26.813404">0</tspan></text>
    <text
       xml:space="preserve"
       style="font-size:3.88056px;font-family:System-ui;-inkscape-font-specification:System-ui;text-align:center;text-anchor:middle;fill:#3ecc5f;fill-opacity:1;stroke:none;stroke-width:0.499999;stroke-linecap:round;stroke-linejoin:round;stroke-opacity:1"
       x="21.970467"
       y="12.961194"
       id="text4-2"><tspan
         sodipodi:role="line"
         id="tspan4-7"
         style="font-size:3.88056px;fill:#3ecc5f;fill-opacity:1;stroke:none;stroke-width:0.5"
         x="21.970467"
         y="12.961194">90</tspan></text>
    <text
       xml:space="preserve"
       style="font-size:3.88056px;font-family:System-ui;-inkscape-font-specification:System-ui;text-align:center;text-anchor:middle;fill:#3ecc5f;fill-opacity:1;stroke:none;stroke-width:0.499999;stroke-linecap:round;stroke-linejoin:round;stroke-opacity:1"
       x="5.8606257"
       y="26.961193"
       id="text4-6"><tspan
         sodipodi:role="line"
         id="tspan4-0"
         style="font-size:3.88056px;fill:#3ecc5f;fill-opacity:1;stroke:none;stroke-width:0.5"
         x="5.8606257"
         y="26.961193">180</tspan></text>
    <text
       xml:space="preserve"
       style="font-size:3.88056px;font-family:System-ui;-inkscape-font-specification:System-ui;text-align:center;text-anchor:middle;fill:#3ecc5f;fill-opacity:1;stroke:none;stroke-width:0.499999;stroke-linecap:round;stroke-linejoin:round;stroke-opacity:1"
       x="22.143255"
       y="41.813404"
       id="text4-1"><tspan
         sodipodi:role="line"
         id="tspan4-8"
         style="font-size:3.88056px;fill:#3ecc5f;fill-opacity:1;stroke:none;stroke-width:0.5"
         x="22.143255"
         y="41.813404">270</tspan></text>
    <rect
       style="fill:none;fill-opacity:1;stroke:#3ecc5f;stroke-width:1.33212;stroke-linecap:round;stroke-linejoin:round;stroke-dasharray:none;stroke-opacity:1"
       id="rect2-5-2-6"
       width="37.299206"
       height="15.985376"
       x="102.95181"
       y="33.105064"
       rx="0.41886055"
       ry="0.50282049"
       transform="matrix(0,1,1,0,0,0)"
       inkscape:transform-center-y="-18.295108" />
    <ellipse
       style="fill:#3ecc5f;fill-opacity:1;stroke:none;stroke-width:1.33212;stroke-linecap:round;stroke-linejoin:round;stroke-dasharray:none;stroke-opacity:1"
       id="path2-7"
       cx="-41.203926"
       cy="-102.94267"
       rx="10.764922"
       ry="10.65692"
       transform="scale(-1)" />
    <g
       id="g1"
       transform="translate(2.771078,83.094962)">
      <path
         id="path2-7-7"
         style="fill:#3ecc5f;fill-opacity:1;stroke:none;stroke-width:1.33212;stroke-linecap:round;stroke-linejoin:round;stroke-dasharray:none;stroke-opacity:1"
         d="m 43.089375,53.108719 a 10.764922,10.656921 30 0 0 -14.650705,3.846785 10.764922,10.656921 30 0 0 -0.23405,0.482047 l 12.178,0.237183 c 0.149707,0.0029 0.272418,0.146311 0.27583,0.321919 l 0.188743,9.434884 c 0.0035,0.175466 -0.114027,0.314721 -0.263737,0.311806 L 28.431401,67.506794 a 10.764922,10.656921 30 0 0 4.001221,4.059985 10.764922,10.656921 30 0 0 14.650699,-3.846781 10.764922,10.656921 30 0 0 -3.993939,-14.611275 z" />
      <g
         id="path1-8"
         transform="rotate(-90,80.917573,62.418997)">
        <path
           style="color:#000000;fill:#ff0000;stroke-linecap:round;stroke-linejoin:round;-inkscape-stroke:none"
           d="m 81.314173,19.838863 h 6.663395"
           id="path7" />
        <path
           style="color:#000000;fill:#d40000;stroke-linecap:round;stroke-linejoin:round;-inkscape-stroke:none"
           d="m 81.314453,19.626953 a 0.212598,0.212598 0 0 0 -0.212891,0.210938 0.212598,0.212598 0 0 0 0.212891,0.21289 h 6.664063 a 0.212598,0.212598 0 0 0 0.210937,-0.21289 0.212598,0.212598 0 0 0 -0.210937,-0.210938 z"
           id="path8" />
        <g
           id="g5">
          <path
             style="color:#000000;fill:#d40000;fill-rule:evenodd;-inkscape-stroke:none"
             d="m 87.977568,19.838863 -1.06299,1.06299 3.720465,-1.06299 -3.720465,-1.06299 z"
             id="path5" />
        </g>
      </g>
    </g>
    <g
       id="path1-8-1"
       transform="rotate(180,61.060748,82.642865)">
      <path
         style="color:#000000;fill:#ff0000;stroke-linecap:round;stroke-linejoin:round;-inkscape-stroke:none"
         d="m 81.212593,62.331468 h 6.663395"
         id="path10" />
      <path
         style="color:#000000;fill:#d40000;stroke-linecap:round;stroke-linejoin:round;-inkscape-stroke:none"
         d="M 81.212891,62.119141 A 0.212598,0.212598 0 0 0 81,62.332031 a 0.212598,0.212598 0 0 0 0.212891,0.212891 h 6.664062 a 0.212598,0.212598 0 0 0 0.210938,-0.212891 0.212598,0.212598 0 0 0 -0.210938,-0.21289 z"
         id="path11" />
      <g
         id="g9">
        <path
           style="color:#000000;fill:#d40000;fill-rule:evenodd;-inkscape-stroke:none"
           d="m 87.875988,62.331468 -1.06299,1.06299 3.720465,-1.06299 -3.720465,-1.06299 z"
           id="path9" />
      </g>
    </g>
    <path
       id="path3-9"
       style="fill:none;stroke:#e3dbdb;stroke-width:0.270242;stroke-linecap:round;stroke-linejoin:round;stroke-dasharray:none;stroke-opacity:1"
       d="M 40.917681,102.5558 V 98.529659 A 4.712586,4.712586 0 0 0 36.67424,102.5558 Z" />
    <path
       id="path3-9-3"
       style="fill:none;stroke:#e3dbdb;stroke-width:0.270242;stroke-linecap:round;stroke-linejoin:round;stroke-dasharray:none;stroke-opacity:1"
       d="m 40.743478,145.17681 v -4.02614 a 4.712586,4.712586 0 0 0 -4.243441,4.02614 z" />
    <path
       id="path3-9-35"
       style="fill:none;stroke:#e3dbdb;stroke-width:0.270242;stroke-linecap:round;stroke-linejoin:round;stroke-dasharray:none;stroke-opacity:1"
       d="M 81.843529,102.10305 H 85.86967 A 4.712586,4.712586 0 0 0 81.843529,97.859609 Z" />
  </g>
</svg>
