<?xml version="1.0" encoding="UTF-8" standalone="no"?>
<!-- Created with Inkscape (http://www.inkscape.org/) -->

<svg
   width="400"
   height="400"
   viewBox="0 0 400 400"
   version="1.1"
   id="svg1"
   inkscape:version="1.3.2 (1:1.3.2+202311252150+091e20ef0f)"
   sodipodi:docname="send_email.svg"
   xmlns:inkscape="http://www.inkscape.org/namespaces/inkscape"
   xmlns:sodipodi="http://sodipodi.sourceforge.net/DTD/sodipodi-0.dtd"
   xmlns="http://www.w3.org/2000/svg"
   xmlns:svg="http://www.w3.org/2000/svg">
  <sodipodi:namedview
     id="namedview1"
     pagecolor="#ffffff"
     bordercolor="#000000"
     borderopacity="0.25"
     inkscape:showpageshadow="2"
     inkscape:pageopacity="0.0"
     inkscape:pagecheckerboard="true"
     inkscape:deskcolor="#d1d1d1"
     inkscape:document-units="px"
     showgrid="true"
     inkscape:zoom="8.0327328"
     inkscape:cx="309.7327"
     inkscape:cy="307.05615"
     inkscape:window-width="1920"
     inkscape:window-height="1011"
     inkscape:window-x="1920"
     inkscape:window-y="32"
     inkscape:window-maximized="1"
     inkscape:current-layer="layer1">
    <inkscape:grid
       id="grid1"
       units="px"
       originx="0"
       originy="0"
       spacingx="0.26458333"
       spacingy="0.26458333"
       empcolor="#0099e5"
       empopacity="0.30196078"
       color="#0099e5"
       opacity="0.14901961"
       empspacing="5"
       dotted="false"
       gridanglex="30"
       gridanglez="30"
       visible="true" />
  </sodipodi:namedview>
  <defs
     id="defs1">
    <marker
       style="overflow:visible"
       id="ArrowWideRounded"
       refX="0"
       refY="0"
       orient="auto-start-reverse"
       inkscape:stockid="Wide, rounded arrow"
       markerWidth="1"
       markerHeight="1"
       viewBox="0 0 1 1"
       inkscape:isstock="true"
       inkscape:collect="always"
       preserveAspectRatio="xMidYMid">
      <path
         style="fill:none;stroke:context-stroke;stroke-width:1;stroke-linecap:round"
         d="M 3,-3 0,0 3,3"
         transform="rotate(180,0.125,0)"
         sodipodi:nodetypes="ccc"
         id="path10" />
    </marker>
    <marker
       style="overflow:visible"
       id="ArrowWideRounded-1"
       refX="0"
       refY="0"
       orient="auto-start-reverse"
       inkscape:stockid="Wide, rounded arrow"
       markerWidth="1"
       markerHeight="1"
       viewBox="0 0 1 1"
       inkscape:isstock="true"
       inkscape:collect="always"
       preserveAspectRatio="xMidYMid">
      <path
         style="fill:none;stroke:context-stroke;stroke-width:1;stroke-linecap:round"
         d="M 3,-3 0,0 3,3"
         transform="rotate(180,0.125,0)"
         sodipodi:nodetypes="ccc"
         id="path10-9" />
    </marker>
    <marker
       style="overflow:visible"
       id="ArrowWideRounded-0"
       refX="0"
       refY="0"
       orient="auto-start-reverse"
       inkscape:stockid="Wide, rounded arrow"
       markerWidth="1"
       markerHeight="1"
       viewBox="0 0 1 1"
       inkscape:isstock="true"
       inkscape:collect="always"
       preserveAspectRatio="xMidYMid">
      <path
         style="fill:none;stroke:context-stroke;stroke-width:1;stroke-linecap:round"
         d="M 3,-3 0,0 3,3"
         transform="rotate(180,0.125,0)"
         sodipodi:nodetypes="ccc"
         id="path10-3" />
    </marker>
  </defs>
  <g
     inkscape:label="Layer 1"
     inkscape:groupmode="layer"
     id="layer1">
    <g
       id="g6">
      <g
         id="g1"
         transform="matrix(0.43688934,0,0,0.43688934,45.368017,-19.380893)">
        <path
           id="rect1-5"
           style="fill:#33c255;fill-opacity:1;stroke:none;stroke-width:1.34134;stroke-linecap:round;stroke-linejoin:round;stroke-dasharray:none;stroke-opacity:1;paint-order:fill markers stroke"
           d="m 111.27484,266.55337 c -7.86451,0 -14.194149,6.33223 -14.194149,14.19676 v 35.48799 c 0,7.8645 6.329639,14.19675 14.194149,14.19675 H 288.7252 c 7.8645,0 14.19415,-6.33225 14.19415,-14.19675 v -35.48799 c 0,-7.86453 -6.32965,-14.19676 -14.19415,-14.19676 z m 33.84012,14.78623 h 9.82954 v 24.50832 c 0,1.60247 0.13015,2.84881 0.38773,3.73588 0.28614,0.85845 0.70071,1.45903 1.2444,1.80243 0.54369,0.31474 1.24525,0.47154 2.1037,0.47154 0.88709,0 1.71621,-0.10096 2.48883,-0.30127 0.80123,-0.20031 1.47357,-0.44214 2.01726,-0.7283 l 0.47156,2.91846 c -0.40061,0.22893 -1.08624,0.4867 -2.05918,0.77286 -0.97291,0.28615 -1.94554,0.42964 -2.91847,0.42964 -1.88861,0 -3.33424,-0.3295 -4.33579,-0.98767 -1.00154,-0.68676 -1.70308,-1.68861 -2.1037,-3.00492 -0.372,-1.31631 -0.55801,-2.97719 -0.55801,-4.98028 v -21.71823 h -6.56787 z m 79.36458,1.11603 c 0.82985,0 1.5181,0.27108 2.06179,0.81477 0.54369,0.54367 0.81477,1.28776 0.81477,2.23207 0,0.91569 -0.27108,1.65978 -0.81477,2.23209 -0.54369,0.54369 -1.23194,0.81476 -2.06179,0.81476 -0.80122,0 -1.48686,-0.27107 -2.05917,-0.81476 -0.57231,-0.57231 -0.8593,-1.3164 -0.8593,-2.23209 0,-0.94431 0.28699,-1.6884 0.8593,-2.23207 0.57231,-0.54369 1.25795,-0.81477 2.05917,-0.81477 z m -46.22659,9.22698 c 1.94583,0 3.66256,0.48631 5.15055,1.45924 1.51662,0.97292 2.70448,2.33351 3.56296,4.07905 0.85845,1.7169 1.28633,3.74721 1.28633,6.09368 0,2.34645 -0.42788,4.39268 -1.28633,6.1382 -0.85848,1.71693 -2.04634,3.0616 -3.56296,4.03452 -1.48799,0.94431 -3.20472,1.41733 -5.15055,1.41733 -1.8886,0 -3.57872,-0.47302 -5.0667,-1.41733 -1.45938,-0.97292 -2.61804,-2.31759 -3.47651,-4.03452 -0.85845,-1.74552 -1.28633,-3.79175 -1.28633,-6.1382 0,-2.34647 0.41457,-4.37678 1.24442,-6.09368 0.85846,-1.74554 2.03041,-3.10613 3.51842,-4.07905 1.48798,-0.97293 3.1781,-1.45925 5.0667,-1.45924 z m 24.16515,0 c 2.0603,0 3.79033,0.14355 5.19248,0.42964 1.40214,0.28617 2.47573,0.54393 3.21975,0.77286 v 20.13063 c 0,3.37661 -0.87167,5.79489 -2.61719,7.25427 -1.71693,1.488 -4.27869,2.23207 -7.68392,2.23207 -1.40216,0 -2.69098,-0.11436 -3.86422,-0.3432 -1.14461,-0.20031 -2.10133,-0.44216 -2.87395,-0.7283 l 0.55803,-3.00493 c 0.82985,0.34338 1.77324,0.61446 2.83202,0.81477 1.08738,0.2003 2.23273,0.30128 3.43457,0.30128 1.57385,0 2.86007,-0.21525 3.86161,-0.64448 1.03015,-0.40062 1.79015,-1.07295 2.27662,-2.01726 0.48646,-0.91567 0.72829,-2.1328 0.72829,-3.6494 v -0.7283 c -0.34336,0.20029 -1.02901,0.47137 -2.05915,0.81475 -1.00154,0.3434 -2.17612,0.51611 -3.52104,0.51611 -1.65967,0 -3.21959,-0.37205 -4.67897,-1.11603 -1.4594,-0.77262 -2.63135,-1.9605 -3.51842,-3.56295 -0.88707,-1.63107 -1.33086,-3.70654 -1.33086,-6.22468 0,-2.06031 0.38532,-3.93381 1.15794,-5.62212 0.77262,-1.71691 1.90468,-3.07751 3.39267,-4.07903 1.51662,-1.03017 3.34759,-1.5457 5.49374,-1.5457 z m 47.64391,0.0446 c 1.86,0 3.46243,0.31359 4.80735,0.94313 1.34493,0.60091 2.37599,1.60279 3.09139,3.00493 0.74398,1.37354 1.11603,3.23374 1.11603,5.58019 v 13.17766 h -3.34812 v -12.49126 c 0,-2.06031 -0.25776,-3.591 -0.77285,-4.59255 -0.51508,-1.03012 -1.21662,-1.71577 -2.10371,-2.05915 -0.85845,-0.3434 -1.83108,-0.51612 -2.91846,-0.51612 -0.71538,0 -1.47278,0.0426 -2.274,0.12832 -0.80123,0.0859 -1.57453,0.20011 -2.31854,0.34318 v 19.18751 h -3.34811 v -21.63439 c 1.51662,-0.40064 2.97556,-0.67169 4.3777,-0.81479 1.40214,-0.17163 2.63256,-0.25673 3.69132,-0.25673 z m -32.83672,0.47157 h 9.82952 v 13.64921 c 0,1.63109 0.14355,2.89071 0.42965,3.77778 0.31477,0.85845 0.75858,1.44574 1.33087,1.76052 0.60092,0.31474 1.30248,0.47155 2.10372,0.47155 1.03014,0 1.93104,-0.13034 2.70363,-0.38773 0.80124,-0.25753 1.3593,-0.47016 1.67407,-0.64185 l 0.47156,2.91847 c -0.0573,0.0573 -0.32829,0.18481 -0.81476,0.3851 -0.45784,0.20033 -1.05843,0.38634 -1.80243,0.55803 -0.71538,0.17164 -1.50199,0.25936 -2.36044,0.25936 -1.83138,0 -3.26372,-0.3295 -4.29388,-0.98766 -1.00155,-0.65817 -1.7031,-1.63078 -2.1037,-2.91847 -0.40062,-1.3163 -0.59996,-2.9772 -0.59996,-4.98027 v -10.98749 h -6.56785 z m -38.97234,2.53336 c -1.8886,0 -3.41929,0.77069 -4.59253,2.31592 -1.17321,1.5166 -1.76052,3.60536 -1.76052,6.26659 0,2.66121 0.6006,4.75258 1.80243,6.26921 1.20186,1.48798 2.73255,2.22944 4.59255,2.22944 1.94583,0 3.50575,-0.74146 4.67898,-2.22944 1.20184,-1.51663 1.80243,-3.608 1.80243,-6.26921 0,-2.66123 -0.60059,-4.74999 -1.80243,-6.26659 -1.20185,-1.54523 -2.77508,-2.31592 -4.72091,-2.31592 z m 24.29353,0.0839 c -2.11754,0 -3.7625,0.76 -4.93574,2.27662 -1.1446,1.5166 -1.71597,3.47517 -1.71597,5.87885 0,1.83136 0.3003,3.31955 0.90123,4.46416 0.6009,1.14462 1.35828,1.97636 2.27399,2.49143 0.94429,0.51509 1.91694,0.77286 2.91847,0.77286 1.08738,0 2.13175,-0.15934 3.13329,-0.47419 1.00154,-0.31476 1.78815,-0.68682 2.36044,-1.11605 V 295.4186 c -0.37198,-0.143 -0.95927,-0.27328 -1.7605,-0.38773 -0.7726,-0.143 -1.8303,-0.21483 -3.17521,-0.21483 z" />
        <rect
           style="fill:none;fill-opacity:1;stroke:#33c255;stroke-width:7.51481;stroke-linecap:round;stroke-linejoin:round;stroke-dasharray:none;stroke-opacity:1;paint-order:fill markers stroke"
           id="rect1-2-3"
           width="258.43213"
           height="63.881493"
           x="72.879799"
           y="188.47597"
           rx="21.293835"
           ry="21.293835" />
        <rect
           style="fill:none;fill-opacity:1;stroke:#33c255;stroke-width:7.51481;stroke-linecap:round;stroke-linejoin:round;stroke-dasharray:none;stroke-opacity:1;paint-order:fill markers stroke"
           id="rect1-2-7-5"
           width="258.43213"
           height="63.881493"
           x="72.879799"
           y="107.04523"
           rx="17.549248"
           ry="17.549248" />
        <text
           xml:space="preserve"
           style="font-size:42.923px;font-family:'Ubuntu Mono';-inkscape-font-specification:'Ubuntu Mono';fill:#33c255;fill-opacity:1;stroke:none;stroke-width:6.70673;stroke-linecap:round;stroke-linejoin:round;stroke-dasharray:none;stroke-opacity:1;paint-order:fill markers stroke"
           x="105.90549"
           y="236.55753"
           id="text1-6-6"><tspan
             sodipodi:role="line"
             id="tspan1-0-2"
             x="105.90549"
             y="236.55753"
             style="stroke-width:6.70673">password</tspan></text>
        <text
           xml:space="preserve"
           style="font-size:42.923px;font-family:'Ubuntu Mono';-inkscape-font-specification:'Ubuntu Mono';fill:#33c255;fill-opacity:1;stroke:none;stroke-width:6.70673;stroke-linecap:round;stroke-linejoin:round;stroke-dasharray:none;stroke-opacity:1;paint-order:fill markers stroke"
           x="140.20831"
           y="155.27527"
           id="text1-6-1-9"><tspan
             sodipodi:role="line"
             id="tspan1-0-8-1"
             x="140.20831"
             y="155.27527"
             style="stroke-width:6.70673">email</tspan></text>
      </g>
      <path
         style="fill:#33c255;fill-opacity:1;stroke-width:4;stroke-linecap:round;stroke-linejoin:round"
         id="path1"
         sodipodi:type="arc"
         sodipodi:cx="42.861309"
         sodipodi:cy="111.21885"
         sodipodi:rx="26.458332"
         sodipodi:ry="26.458332"
         sodipodi:start="3.1654489"
         sodipodi:end="0"
         sodipodi:arc-type="slice"
         d="M 16.410506,110.58771 A 26.458332,26.458332 0 0 1 43.1769,84.762399 26.458332,26.458332 0 0 1 69.319641,111.21885 H 42.861309 Z" />
      <circle
         style="fill:#33c255;fill-opacity:1;stroke-width:4;stroke-linecap:round;stroke-linejoin:round"
         id="path2"
         cx="42.861309"
         cy="68.885521"
         r="15.874999" />
    </g>
    <g
       id="g7">
      <path
         id="rect1-5-2"
         style="fill:#33c255;fill-opacity:1;stroke:none;stroke-width:0.586017;stroke-linecap:round;stroke-linejoin:round;stroke-dasharray:none;stroke-opacity:1;paint-order:fill markers stroke"
         d="m 93.45483,335.10457 c -3.43592,0 -6.201272,2.76648 -6.201272,6.20241 v 15.50432 c 0,3.43592 2.765352,6.20241 6.201272,6.20241 H 170.981 c 3.43592,0 6.20127,-2.76649 6.20127,-6.20241 v -15.50432 c 0,-3.43593 -2.76535,-6.20241 -6.20127,-6.20241 z m 14.78439,6.45994 h 4.29442 v 10.70743 c 0,0.7001 0.0569,1.24461 0.16939,1.63216 0.12502,0.37505 0.30614,0.63744 0.54367,0.78746 0.23753,0.13751 0.54404,0.20602 0.91908,0.20602 0.38756,0 0.7498,-0.0441 1.08735,-0.13163 0.35005,-0.0875 0.64378,-0.19316 0.88132,-0.31818 l 0.20602,1.27504 c -0.17503,0.10002 -0.47457,0.21264 -0.89964,0.33766 -0.42505,0.12501 -0.84998,0.1877 -1.27505,0.1877 -0.82511,0 -1.45669,-0.14395 -1.89426,-0.4315 -0.43756,-0.30004 -0.74405,-0.73774 -0.91908,-1.31282 -0.16252,-0.57508 -0.24379,-1.3007 -0.24379,-2.17583 v -9.48846 h -2.86943 z m 34.67354,0.48758 c 0.36255,0 0.66324,0.11844 0.90077,0.35597 0.23753,0.23752 0.35597,0.56261 0.35597,0.97517 0,0.40005 -0.11844,0.72514 -0.35597,0.97517 -0.23753,0.23753 -0.53822,0.35596 -0.90077,0.35596 -0.35005,0 -0.6496,-0.11843 -0.89963,-0.35596 -0.25004,-0.25003 -0.37542,-0.57512 -0.37542,-0.97517 0,-0.41256 0.12538,-0.73765 0.37542,-0.97517 0.25003,-0.23753 0.54958,-0.35597 0.89963,-0.35597 z m -20.19591,4.03117 c 0.85012,0 1.60014,0.21247 2.25022,0.63753 0.6626,0.42506 1.18156,1.01949 1.55662,1.78209 0.37505,0.7501 0.56199,1.63712 0.56199,2.66227 0,1.02514 -0.18694,1.91911 -0.56199,2.68171 -0.37506,0.75011 -0.89402,1.33758 -1.55662,1.76264 -0.65008,0.41256 -1.4001,0.61922 -2.25022,0.61922 -0.82511,0 -1.5635,-0.20666 -2.21358,-0.61922 -0.63759,-0.42506 -1.1438,-1.01253 -1.51885,-1.76264 -0.37505,-0.7626 -0.56199,-1.65657 -0.56199,-2.68171 0,-1.02515 0.18112,-1.91217 0.54368,-2.66227 0.37505,-0.7626 0.88706,-1.35703 1.53716,-1.78209 0.65008,-0.42506 1.38847,-0.63753 2.21358,-0.63753 z m 10.5575,0 c 0.90012,0 1.65595,0.0627 2.26854,0.18771 0.61258,0.12502 1.08162,0.23764 1.40667,0.33765 v 8.79486 c 0,1.4752 -0.38082,2.53173 -1.14342,3.16931 -0.75011,0.65009 -1.86931,0.97517 -3.35702,0.97517 -0.61259,0 -1.17566,-0.05 -1.68824,-0.14994 -0.50007,-0.0875 -0.91805,-0.19317 -1.2556,-0.31819 l 0.2438,-1.31282 c 0.36255,0.15002 0.77471,0.26845 1.23728,0.35597 0.47506,0.0875 0.97546,0.13162 1.50053,0.13162 0.68759,0 1.24953,-0.094 1.68709,-0.28156 0.45006,-0.17503 0.7821,-0.46876 0.99463,-0.88132 0.21253,-0.40005 0.31819,-0.9318 0.31819,-1.59439 v -0.31818 c -0.15001,0.0875 -0.44957,0.20593 -0.89962,0.35595 -0.43757,0.15003 -0.95073,0.22548 -1.53831,0.22548 -0.72509,0 -1.4066,-0.16254 -2.04419,-0.48758 -0.6376,-0.33755 -1.14961,-0.85652 -1.53716,-1.55661 -0.38755,-0.7126 -0.58144,-1.61935 -0.58144,-2.7195 0,-0.90013 0.16834,-1.71864 0.50589,-2.45624 0.33755,-0.7501 0.83214,-1.34453 1.48222,-1.78209 0.6626,-0.45007 1.46253,-0.6753 2.40016,-0.6753 z m 20.81512,0.0195 c 0.81261,0 1.51269,0.137 2.10028,0.41204 0.58758,0.26253 1.03804,0.70024 1.35059,1.31282 0.32504,0.60009 0.48758,1.41279 0.48758,2.43793 v 5.75718 h -1.46276 v -5.4573 c 0,-0.90013 -0.11261,-1.56887 -0.33765,-2.00644 -0.22503,-0.45004 -0.53152,-0.7496 -0.91908,-0.89962 -0.37505,-0.15002 -0.79998,-0.22548 -1.27505,-0.22548 -0.31254,0 -0.64344,0.0186 -0.99348,0.0561 -0.35005,0.0375 -0.6879,0.0874 -1.01295,0.14993 v 8.38282 h -1.46275 v -9.45184 c 0.66259,-0.17503 1.29999,-0.29345 1.91257,-0.35597 0.61258,-0.075 1.15013,-0.11216 1.6127,-0.11216 z m -14.34602,0.20602 h 4.29442 v 5.9632 c 0,0.7126 0.0627,1.26292 0.1877,1.65047 0.13752,0.37505 0.33142,0.63163 0.58145,0.76915 0.26253,0.13751 0.56904,0.20602 0.91909,0.20602 0.45006,0 0.84365,-0.0569 1.18119,-0.1694 0.35005,-0.11251 0.59386,-0.20541 0.73138,-0.28042 l 0.20602,1.27505 c -0.025,0.025 -0.14343,0.0807 -0.35596,0.16825 -0.20003,0.0875 -0.46242,0.16879 -0.78746,0.2438 -0.31254,0.075 -0.65621,0.11331 -1.03125,0.11331 -0.80011,0 -1.42589,-0.14396 -1.87595,-0.4315 -0.43757,-0.28755 -0.74407,-0.71247 -0.91909,-1.27505 -0.17502,-0.57508 -0.26211,-1.30071 -0.26211,-2.17583 v -4.80031 h -2.86943 z m -17.0266,1.1068 c -0.82511,0 -1.49385,0.33671 -2.00642,1.0118 -0.51257,0.66259 -0.76916,1.57514 -0.76916,2.73781 0,1.16265 0.2624,2.07635 0.78747,2.73895 0.52508,0.65008 1.19382,0.97402 2.00643,0.97402 0.85011,0 1.53163,-0.32394 2.0442,-0.97402 0.52507,-0.6626 0.78746,-1.5763 0.78746,-2.73895 0,-1.16267 -0.26239,-2.07522 -0.78746,-2.73781 -0.52508,-0.67509 -1.2124,-1.0118 -2.06252,-1.0118 z m 10.61359,0.0367 c -0.92513,0 -1.6438,0.33203 -2.15638,0.99463 -0.50006,0.66258 -0.74968,1.51826 -0.74968,2.5684 0,0.8001 0.13119,1.45028 0.39373,1.95035 0.26253,0.50007 0.59342,0.86345 0.99349,1.08848 0.41255,0.22503 0.83749,0.33765 1.27504,0.33765 0.47507,0 0.93134,-0.0696 1.3689,-0.20717 0.43757,-0.13751 0.78123,-0.30006 1.03126,-0.48759 v -5.9815 c -0.16252,-0.0625 -0.4191,-0.1194 -0.76915,-0.1694 -0.33754,-0.0625 -0.79964,-0.0939 -1.38721,-0.0939 z" />
      <rect
         style="fill:none;fill-opacity:1;stroke:#33c255;stroke-width:3.28314;stroke-linecap:round;stroke-linejoin:round;stroke-dasharray:none;stroke-opacity:1;paint-order:fill markers stroke"
         id="rect1-2-3-3"
         width="112.90624"
         height="27.909143"
         x="76.680443"
         y="300.99338"
         rx="9.3030491"
         ry="9.3030491" />
      <text
         xml:space="preserve"
         style="font-size:18.7526px;font-family:'Ubuntu Mono';-inkscape-font-specification:'Ubuntu Mono';fill:#33c255;fill-opacity:1;stroke:none;stroke-width:2.9301;stroke-linecap:round;stroke-linejoin:round;stroke-dasharray:none;stroke-opacity:1;paint-order:fill markers stroke"
         x="91.109016"
         y="321.99969"
         id="text1-6-6-5"><tspan
           sodipodi:role="line"
           id="tspan1-0-2-9"
           x="91.109016"
           y="321.99969"
           style="stroke-width:2.9301">  code  </tspan></text>
      <path
         style="fill:#33c255;fill-opacity:1;stroke-width:4;stroke-linecap:round;stroke-linejoin:round"
         id="path1-8"
         sodipodi:type="arc"
         sodipodi:cx="42.333332"
         sodipodi:cy="349.24997"
         sodipodi:rx="26.458332"
         sodipodi:ry="26.458332"
         sodipodi:start="3.1654489"
         sodipodi:end="0"
         sodipodi:arc-type="slice"
         d="m 15.882529,348.61883 a 26.458332,26.458332 0 0 1 26.766394,-25.82531 26.458332,26.458332 0 0 1 26.142741,26.45645 H 42.333332 Z" />
      <circle
         style="fill:#33c255;fill-opacity:1;stroke-width:4;stroke-linecap:round;stroke-linejoin:round"
         id="path2-9"
         cx="42.333332"
         cy="306.91663"
         r="15.874999" />
    </g>
    <path
       id="rect3"
       style="fill:#33c255;fill-opacity:1;stroke-width:4;stroke-linecap:round;stroke-linejoin:round"
       d="M 312.20898 34.396484 C 307.81164 34.396484 304.27148 37.936625 304.27148 42.333984 L 304.27148 116.41602 C 304.27148 120.81336 307.81164 124.35352 312.20898 124.35352 L 341.3125 124.35352 C 345.70987 124.35352 349.25 120.81336 349.25 116.41602 L 349.25 42.333984 C 349.25 37.936625 345.70987 34.396484 341.3125 34.396484 L 312.20898 34.396484 z M 312.20898 41.009766 A 2.6458333 2.6458333 0 0 1 314.85352 43.65625 A 2.6458333 2.6458333 0 0 1 312.20898 46.302734 A 2.6458333 2.6458333 0 0 1 309.5625 43.65625 A 2.6458333 2.6458333 0 0 1 312.20898 41.009766 z M 312.20898 47.625 A 2.6458333 2.6458333 0 0 1 314.85352 50.271484 A 2.6458333 2.6458333 0 0 1 312.20898 52.916016 A 2.6458333 2.6458333 0 0 1 309.5625 50.271484 A 2.6458333 2.6458333 0 0 1 312.20898 47.625 z M 312.20898 54.240234 A 2.6458333 2.6458333 0 0 1 314.85352 56.884766 A 2.6458333 2.6458333 0 0 1 312.20898 59.53125 A 2.6458333 2.6458333 0 0 1 309.5625 56.884766 A 2.6458333 2.6458333 0 0 1 312.20898 54.240234 z " />
    <path
       id="rect3-2"
       style="fill:#33c255;fill-opacity:1;stroke-width:4;stroke-linecap:round;stroke-linejoin:round"
       d="M 312.20898 275.16602 C 307.81164 275.16602 304.27148 278.70615 304.27148 283.10352 L 304.27148 357.1875 C 304.27148 361.58487 307.81164 365.125 312.20898 365.125 L 341.3125 365.125 C 345.70987 365.125 349.25 361.58487 349.25 357.1875 L 349.25 283.10352 C 349.25 278.70615 345.70987 275.16602 341.3125 275.16602 L 312.20898 275.16602 z M 312.20898 283.10352 A 2.6458333 2.6458333 0 0 1 314.85352 285.75 A 2.6458333 2.6458333 0 0 1 312.20898 288.39648 A 2.6458333 2.6458333 0 0 1 309.5625 285.75 A 2.6458333 2.6458333 0 0 1 312.20898 283.10352 z M 312.20898 289.71875 A 2.6458333 2.6458333 0 0 1 314.85352 292.36523 A 2.6458333 2.6458333 0 0 1 312.20898 295.00977 A 2.6458333 2.6458333 0 0 1 309.5625 292.36523 A 2.6458333 2.6458333 0 0 1 312.20898 289.71875 z M 312.20898 296.33398 A 2.6458333 2.6458333 0 0 1 314.85352 298.97852 A 2.6458333 2.6458333 0 0 1 312.20898 301.625 A 2.6458333 2.6458333 0 0 1 309.5625 298.97852 A 2.6458333 2.6458333 0 0 1 312.20898 296.33398 z " />
    <path
       id="rect4"
       style="fill:#33c255;fill-opacity:1;stroke-width:2.23956;stroke-linecap:round;stroke-linejoin:round"
       d="m 199.08287,196.91198 28.45879,18.97336 28.45878,-18.97336 z m -2.33095,1.55438 v 34.36696 h 61.57947 v -34.36696 l -30.07252,20.04792 a 1.2931364,1.2931364 0 0 1 -1.43443,0 z" />
    <path
       style="fill:#000000;fill-opacity:1;stroke:#33c255;stroke-width:4;stroke-linecap:round;stroke-linejoin:round;stroke-opacity:1;marker-end:url(#ArrowWideRounded)"
       d="m 201.08332,79.374996 h 89.95833"
       id="path7" />
    <path
       style="fill:#000000;fill-opacity:1;stroke:#33c255;stroke-width:4;stroke-linecap:round;stroke-linejoin:round;stroke-opacity:1;marker-end:url(#ArrowWideRounded-0)"
       d="M 285.74998,126.99999 84.666662,275.16665"
       id="path7-0"
       sodipodi:nodetypes="cc" />
    <path
       style="fill:#000000;fill-opacity:1;stroke:#33c255;stroke-width:4;stroke-linecap:round;stroke-linejoin:round;stroke-opacity:1;marker-end:url(#ArrowWideRounded-1)"
       d="m 201,317.49998 h 89.95833"
       id="path7-8" />
  </g>
</svg>
