<?xml version="1.0" encoding="UTF-8" standalone="no"?>
<!-- Created with Inkscape (http://www.inkscape.org/) -->

<svg
   width="384"
   height="320"
   viewBox="0 0 384 320"
   version="1.1"
   id="svg1"
   inkscape:version="1.3 (1:1.3+202307231459+0e150ed6c4)"
   sodipodi:docname="shell_mondot_communication_0.svg"
   xml:space="preserve"
   xmlns:inkscape="http://www.inkscape.org/namespaces/inkscape"
   xmlns:sodipodi="http://sodipodi.sourceforge.net/DTD/sodipodi-0.dtd"
   xmlns:xlink="http://www.w3.org/1999/xlink"
   xmlns="http://www.w3.org/2000/svg"
   xmlns:svg="http://www.w3.org/2000/svg"><sodipodi:namedview
     id="namedview1"
     pagecolor="#ffffff"
     bordercolor="#111111"
     borderopacity="1"
     inkscape:showpageshadow="false"
     inkscape:pageopacity="0"
     inkscape:pagecheckerboard="1"
     inkscape:deskcolor="#afafaf"
     inkscape:document-units="px"
     showgrid="true"
     labelstyle="default"
     inkscape:zoom="2.0560856"
     inkscape:cx="178.73769"
     inkscape:cy="176.54907"
     inkscape:window-width="1920"
     inkscape:window-height="1016"
     inkscape:window-x="1920"
     inkscape:window-y="27"
     inkscape:window-maximized="1"
     inkscape:current-layer="layer1"><inkscape:grid
       id="grid1"
       units="px"
       originx="0"
       originy="0"
       spacingx="1"
       spacingy="1"
       empcolor="#0099e5"
       empopacity="0.30196078"
       color="#0099e5"
       opacity="0.14901961"
       empspacing="8"
       dotted="false"
       gridanglex="30"
       gridanglez="30"
       visible="true" /></sodipodi:namedview><defs
     id="defs1"><linearGradient
       id="a"
       x1="-133.26801"
       y1="-202.91"
       x2="-133.198"
       y2="-202.84"
       gradientTransform="matrix(189.38,0,0,189.81,25243.061,38519.17)"
       gradientUnits="userSpaceOnUse"><stop
         offset="0"
         stop-color="#387eb8"
         id="stop1" /><stop
         offset="1"
         stop-color="#366994"
         id="stop2" /></linearGradient><linearGradient
       id="b"
       x1="-133.575"
       y1="-203.203"
       x2="-133.495"
       y2="-203.133"
       gradientTransform="matrix(189.38,0,0,189.81,25309.061,38583.42)"
       gradientUnits="userSpaceOnUse"><stop
         offset="0"
         stop-color="#ffe052"
         id="stop3" /><stop
         offset="1"
         stop-color="#ffc331"
         id="stop4" /></linearGradient><linearGradient
       id="a-6"
       x1="-133.26801"
       y1="-202.91"
       x2="-133.198"
       y2="-202.84"
       gradientTransform="matrix(189.38,0,0,189.81,25243.061,38519.17)"
       gradientUnits="userSpaceOnUse"><stop
         offset="0"
         stop-color="#387eb8"
         id="stop1-9" /><stop
         offset="1"
         stop-color="#366994"
         id="stop2-3" /></linearGradient><linearGradient
       id="b-7"
       x1="-133.575"
       y1="-203.203"
       x2="-133.495"
       y2="-203.133"
       gradientTransform="matrix(189.38,0,0,189.81,25309.061,38583.42)"
       gradientUnits="userSpaceOnUse"><stop
         offset="0"
         stop-color="#ffe052"
         id="stop3-4" /><stop
         offset="1"
         stop-color="#ffc331"
         id="stop4-5" /></linearGradient><linearGradient
       id="linearGradient8385"><stop
         offset="0"
         id="stop1-7" /><stop
         stop-color="#fff"
         offset="1"
         id="stop2-2" /></linearGradient><linearGradient
       id="linearGradient3002"
       x1="-553.27002"
       x2="-666.12"
       y1="525.90997"
       y2="413.04999"
       gradientTransform="matrix(0.99884,0,0,0.9987,689.01,-388.84)"
       gradientUnits="userSpaceOnUse"
       xlink:href="#linearGradient8385" /><linearGradient
       id="linearGradient3005"
       x1="-666.12"
       x2="-553.27002"
       y1="413.04001"
       y2="525.90997"
       gradientTransform="matrix(0.99884,0,0,0.9987,689.01,-388.84)"
       gradientUnits="userSpaceOnUse"
       xlink:href="#linearGradient8385" /></defs><g
     inkscape:label="Layer 1"
     inkscape:groupmode="layer"
     id="layer1"><g
       id="g1"
       transform="translate(-120)"><path
         id="rect2"
         style="fill:#3ecc5f;stroke-width:3.67527;-inkscape-stroke:none"
         d="M 266.69922,8 C 265.20391,8 264,9.2039053 264,10.699219 v 74.705078 c 0,1.495309 1.20391,2.699219 2.69922,2.699219 h 106.60156 c 1.49532,0 2.69922,-1.20391 2.69922,-2.699219 V 10.699219 C 376,9.2039053 374.7961,8 373.30078,8 Z m 88.55469,1 h 7.49218 C 362.88636,9 363,9.1136359 363,9.2539062 V 16.746094 C 363,16.886365 362.88636,17 362.74609,17 h -7.49218 C 355.11363,17 355,16.886365 355,16.746094 V 9.2539062 C 355,9.1136359 355.11363,9 355.25391,9 Z m 11.625,0.5683594 c 0.0647,0 0.13009,0.024626 0.17968,0.074219 L 369,11.583984 370.94141,9.6425781 c 0.0992,-0.099186 0.26018,-0.099186 0.35937,0 l 1.05664,1.0566409 c 0.0992,0.09919 0.0992,0.260188 0,0.359375 L 370.41602,13 l 1.9414,1.941406 c 0.0992,0.09919 0.0992,0.260189 0,0.359375 l -1.05664,1.056641 c -0.0992,0.09919 -0.26019,0.09919 -0.35937,0 L 369,14.416016 l -1.94141,1.941406 c -0.0992,0.09919 -0.26018,0.09919 -0.35937,0 l -1.05664,-1.056641 c -0.0992,-0.09919 -0.0992,-0.260188 0,-0.359375 L 367.58398,13 l -1.9414,-1.941406 c -0.0992,-0.09919 -0.0992,-0.260189 0,-0.359375 l 1.05664,-1.0566409 c 0.0496,-0.049593 0.11496,-0.074219 0.17969,-0.074219 z M 345.25391,15 h 7.49218 C 352.88636,15 353,15.113635 353,15.253906 v 1.492188 C 353,16.886365 352.88636,17 352.74609,17 h -7.49218 C 345.11363,17 345,16.886365 345,16.746094 V 15.253906 C 345,15.113635 345.11363,15 345.25391,15 Z m -78.34375,2.871094 H 373.08984 V 86.128906 H 266.91016 Z" /><rect
         style="fill:#3ecc5f;fill-opacity:1;stroke-width:0.790927;-inkscape-stroke:none"
         id="rect3"
         width="6"
         height="6"
         x="356"
         y="10"
         ry="0.12251627" /><rect
         style="fill:#3ecc5f;stroke-width:4.33073;stroke-linecap:round;stroke-linejoin:round"
         id="rect1"
         width="84"
         height="44"
         x="288"
         y="20"
         rx="0"
         ry="0" /><rect
         style="fill:#3ecc5f;stroke-width:2.66626;stroke-linecap:round;stroke-linejoin:round"
         id="rect1-5"
         width="84"
         height="16.677698"
         x="288"
         y="67.322304"
         rx="0"
         ry="0" /><rect
         style="fill:#3ecc5f;stroke-width:2.41781;stroke-linecap:round;stroke-linejoin:round"
         id="rect1-5-2"
         width="18"
         height="64"
         x="268"
         y="20"
         rx="0"
         ry="0" /></g><g
       inkscape:label="Layer 1"
       id="layer1-0"
       transform="translate(136,224)"><path
         id="rect2-9"
         style="fill:#3ecc5f;stroke-width:3.67527;-inkscape-stroke:none"
         d="M 10.699219,8 C 9.2039053,8 8,9.2039053 8,10.699219 v 74.705078 c 0,1.495309 1.2039053,2.699219 2.699219,2.699219 H 117.30078 c 1.49532,0 2.69922,-1.20391 2.69922,-2.699219 V 10.699219 C 120,9.2039053 118.7961,8 117.30078,8 Z m 88.554687,1 h 7.492184 C 106.88636,9 107,9.1136359 107,9.2539062 V 16.746094 C 107,16.886365 106.88636,17 106.74609,17 H 99.253906 C 99.113635,17 99,16.886365 99,16.746094 V 9.2539062 C 99,9.1136359 99.113635,9 99.253906,9 Z m 11.625004,0.5683594 c 0.0647,0 0.13009,0.024626 0.17968,0.074219 L 113,11.583984 114.94141,9.6425781 c 0.0992,-0.099186 0.26018,-0.099186 0.35937,0 l 1.05664,1.0566409 c 0.0992,0.09919 0.0992,0.260188 0,0.359375 L 114.41602,13 l 1.9414,1.941406 c 0.0992,0.09919 0.0992,0.260189 0,0.359375 l -1.05664,1.056641 c -0.0992,0.09919 -0.26019,0.09919 -0.35937,0 L 113,14.416016 l -1.94141,1.941406 c -0.0992,0.09919 -0.26018,0.09919 -0.35937,0 l -1.05664,-1.056641 c -0.0992,-0.09919 -0.0992,-0.260188 0,-0.359375 L 111.58398,13 l -1.9414,-1.941406 c -0.0992,-0.09919 -0.0992,-0.260189 0,-0.359375 l 1.05664,-1.0566409 c 0.0496,-0.049593 0.11496,-0.074219 0.17969,-0.074219 z M 89.253906,15 h 7.492188 C 96.886365,15 97,15.113635 97,15.253906 v 1.492188 C 97,16.886365 96.886365,17 96.746094,17 H 89.253906 C 89.113635,17 89,16.886365 89,16.746094 V 15.253906 C 89,15.113635 89.113635,15 89.253906,15 Z m -78.34375,2.871094 H 117.08984 V 86.128906 H 10.910156 Z" /><rect
         style="fill:#3ecc5f;fill-opacity:1;stroke-width:0.790927;-inkscape-stroke:none"
         id="rect3-3"
         width="6"
         height="6"
         x="100"
         y="10"
         ry="0.12251627" /><text
         xml:space="preserve"
         style="font-weight:bold;font-size:21.3333px;line-height:1;font-family:Manjari;-inkscape-font-specification:'Manjari Bold';text-align:center;text-anchor:middle;fill:#3ecc5f;fill-opacity:1;stroke:none;stroke-width:4;stroke-linecap:round;stroke-linejoin:round"
         x="25"
         y="31"
         id="text1"><tspan
           sodipodi:role="line"
           id="tspan1"
           x="25"
           y="31">&gt;_</tspan></text></g><g
       id="g7"><path
         style="fill:#3ecc5f;fill-opacity:1;stroke:#3ecc5f;stroke-width:8.36349;stroke-linecap:round;stroke-linejoin:round;stroke-dasharray:none;stroke-opacity:1"
         d="m 246.69879,205.02036 c 0,-108.206537 0,-109.020357 0,-109.020357 z"
         id="path1" /><path
         sodipodi:type="star"
         style="fill:#3ecc5f;stroke:#3ecc5f;stroke-width:8;stroke-linecap:round;stroke-linejoin:round"
         id="path2"
         inkscape:flatsided="true"
         sodipodi:sides="3"
         sodipodi:cx="212.29822"
         sodipodi:cy="73.948601"
         sodipodi:r1="8.3193407"
         sodipodi:r2="4.1596704"
         sodipodi:arg1="2.0943951"
         sodipodi:arg2="3.1415927"
         inkscape:rounded="0"
         inkscape:randomized="0"
         d="m 208.13855,81.153361 0,-14.409521 12.47901,7.204761 z"
         inkscape:transform-center-x="1.7265391"
         transform="matrix(0,0.8301344,0.8301344,0,185.31151,37.53757)" /></g><g
       id="g14"><g
         id="g13"><g
           id="g12"><path
             id="rect4"
             style="fill:#3ecc5f;fill-opacity:1;stroke:none;stroke-width:7.10056;stroke-linecap:round;stroke-linejoin:round"
             d="m 168,128.375 v 80 h 56 V 143.73633 H 208 V 128.375 Z m 26.31445,23.04102 c 0.40625,0 0.79102,0.27148 0.94727,0.61523 l 3.54297,8.05273 3.03125,-7.98046 c 0.14583,-0.375 0.54167,-0.65625 0.96875,-0.65625 0.57291,0 1.04101,0.47005 1.04101,1.04296 0,0.13542 -0.0319,0.29167 -0.084,0.40625 l -3.83203,10 c -0.0312,0.17709 -0.11524,0.32162 -0.17774,0.42579 l -0.58398,1.45898 c -0.29167,0.72916 -0.64519,1.58399 -1.35352,2.30273 -0.67708,0.70834 -1.70833,1.25977 -2.78125,1.25977 -0.58333,0 -1.04101,-0.48958 -1.04101,-1.0625 0,-0.55208 0.43685,-1.02018 0.97851,-1.04102 1.21875,-0.0833 1.79232,-1.07292 2.27149,-2.25 l 0.5,-1.27148 -4.375,-9.8125 c -0.0625,-0.14583 -0.0937,-0.30143 -0.0937,-0.44727 0,-0.57291 0.4681,-1.04296 1.04101,-1.04296 z m -11.3125,0.043 c 0.57292,0 0.83269,0.47852 0.91602,1.04102 l 0.125,0.84375 c 0.79166,-1.13541 2.22005,-1.83398 3.51172,-1.83398 3.13541,0 5.45703,2.72006 5.45703,5.79296 0,1.57292 -0.58269,3.12436 -1.72852,4.25977 -1.01041,0.98958 -2.38607,1.55273 -3.80273,1.55273 -1.44791,0 -2.54167,-0.65755 -3.4375,-1.69921 v 4.38671 c 0,0.57292 -0.4681,1.04102 -1.04102,1.04102 -0.57291,0 -1.04101,-0.4681 -1.04101,-1.04102 V 152.5 c 0,-0.57292 0.4681,-1.04102 1.04101,-1.04102 z m 4.57227,2.13477 c -0.90625,0 -1.85352,0.42774 -2.47852,1.11523 -0.625,0.6875 -0.97851,1.67579 -0.97851,2.64454 0,1.99999 1.41667,3.70898 3.40625,3.70898 1.96874,0 3.41601,-1.82227 3.41601,-3.75977 0,-1.94791 -1.43815,-3.70898 -3.36523,-3.70898 z" /><path
             id="path4-36"
             style="fill:#3ecc5f;fill-opacity:1;stroke-width:7.94531;stroke-linecap:round;stroke-linejoin:round"
             d="m 210,142.37498 v -14 l 14,14 z"
             sodipodi:nodetypes="cccc"
             inkscape:transform-center-y="-2.23698" /></g><text
           xml:space="preserve"
           style="font-weight:bold;font-size:21.3333px;line-height:1;font-family:Manjari;-inkscape-font-specification:'Manjari Bold';text-align:center;text-anchor:middle;fill:#3ecc5f;fill-opacity:1;stroke:none;stroke-width:8;stroke-linecap:round;stroke-linejoin:round"
           x="197"
           y="123.37498"
           id="text4"><tspan
             sodipodi:role="line"
             id="tspan4"
             x="197"
             y="123.37498">xxxxx</tspan></text></g><g
         id="g9"
         transform="matrix(0.85714276,0,0,0.86256452,182.28572,174.19897)"><path
           d="m 15.885,2.1 c -7.1,0 -6.651,3.07 -6.651,3.07 v 3.19 h 6.752 v 1 H 6.545 C 6.545,9.36 2,8.8 2,16.005 2,23.21 6.013,22.917 6.013,22.917 H 8.33 v -3.361 c 0,0 -0.13,-4.013 3.9,-4.013 h 6.762 c 0,0 3.772,0.06 3.772,-3.652 V 5.8 c 0,0 0.572,-3.712 -6.842,-3.712 v 0 z M 12.153,4.237 A 1.214,1.214 0 1 1 10.97,5.481 v -0.02 a 1.214,1.214 0 0 1 1.214,-1.214 v 0 z"
           style="fill:url(#a)"
           id="path4" /><path
           d="m 16.085,29.91 c 7.1,0 6.651,-3.08 6.651,-3.08 v -3.18 h -6.751 v -1 h 9.47 c 0,0 4.545,0.508 4.545,-6.655 C 30,8.832 25.987,9.083 25.987,9.083 H 23.64 V 12.4 c 0,0 0.13,4.013 -3.9,4.013 h -6.765 c 0,0 -3.775,-0.057 -3.775,3.655 V 26.2 c 0,0 -0.572,3.712 6.842,3.712 h 0.04 z m 3.732,-2.147 A 1.214,1.214 0 1 1 21,26.519 v 0.03 a 1.214,1.214 0 0 1 -1.214,1.214 h 0.03 z"
           style="fill:url(#b)"
           id="path5-7" /></g></g><text
       xml:space="preserve"
       style="font-weight:bold;font-size:48px;line-height:1;font-family:Manjari;-inkscape-font-specification:'Manjari Bold';text-align:center;text-anchor:middle;fill:#3ecc5f;fill-opacity:1;stroke-width:8;stroke-linecap:round;stroke-linejoin:round"
       x="32"
       y="40"
       id="text2"><tspan
         sodipodi:role="line"
         id="tspan2"
         x="32"
         y="40">(1)</tspan></text></g></svg>
