<?xml version="1.0" encoding="UTF-8" standalone="no"?>
<!-- Created with Inkscape (http://www.inkscape.org/) -->

<svg
   width="240"
   height="240"
   viewBox="0 0 80 80"
   version="1.1"
   id="svg1"
   inkscape:version="1.3 (1:1.3+202307231459+0e150ed6c4)"
   sodipodi:docname="oh_fuck.svg"
   xmlns:inkscape="http://www.inkscape.org/namespaces/inkscape"
   xmlns:sodipodi="http://sodipodi.sourceforge.net/DTD/sodipodi-0.dtd"
   xmlns="http://www.w3.org/2000/svg"
   xmlns:svg="http://www.w3.org/2000/svg">
  <sodipodi:namedview
     id="namedview1"
     pagecolor="#ffffff"
     bordercolor="#111111"
     borderopacity="1"
     inkscape:showpageshadow="false"
     inkscape:pageopacity="0"
     inkscape:pagecheckerboard="1"
     inkscape:deskcolor="#afafaf"
     inkscape:document-units="px"
     showgrid="true"
     labelstyle="default"
     inkscape:zoom="2.9077441"
     inkscape:cx="31.123785"
     inkscape:cy="125.011"
     inkscape:window-width="1920"
     inkscape:window-height="1043"
     inkscape:window-x="0"
     inkscape:window-y="0"
     inkscape:window-maximized="1"
     inkscape:current-layer="layer1">
    <inkscape:grid
       id="grid1"
       units="px"
       originx="0"
       originy="0"
       spacingx="1"
       spacingy="1"
       empcolor="#0099e5"
       empopacity="0.30196078"
       color="#0099e5"
       opacity="0.14901961"
       empspacing="8"
       dotted="false"
       gridanglex="30"
       gridanglez="30"
       visible="true" />
  </sodipodi:namedview>
  <defs
     id="defs1" />
  <g
     inkscape:label="Layer 1"
     inkscape:groupmode="layer"
     id="layer1">
    <path
       id="path2"
       style="fill:#3ecc5f;stroke-width:1.44682;stroke-linecap:round;stroke-linejoin:bevel"
       d="M 40 8 A 32 32 0 0 0 8 40 A 32 32 0 0 0 40 72 A 32 32 0 0 0 72 40 A 32 32 0 0 0 40 8 z M 29 16 A 10 10 0 0 1 39 26 A 10 10 0 0 1 29 36 A 10 10 0 0 1 19 26 A 10 10 0 0 1 29 16 z M 51 16 A 10 10 0 0 1 61 26 A 10 10 0 0 1 51 36 A 10 10 0 0 1 41 26 A 10 10 0 0 1 51 16 z M 20.261068 57.033203 L 59.738932 57.033203 C 62.099721 57.033203 64 57.24915 64 57.516927 C 64 57.784704 62.099721 58 59.738932 58 L 20.261068 58 C 17.900279 58 16 57.784704 16 57.516927 C 16 57.24915 17.900279 57.033203 20.261068 57.033203 z " />
    <circle
       style="fill:#3ecc5f;stroke-width:0.203459;stroke-linecap:round;stroke-linejoin:bevel"
       id="path2-7"
       cx="26.5"
       cy="21.5"
       r="4.5" />
    <circle
       style="fill:#3ecc5f;stroke-width:0.203459;stroke-linecap:round;stroke-linejoin:bevel"
       id="path2-7-6"
       cx="53.5"
       cy="21.5"
       r="4.5" />
  </g>
</svg>
