<?xml version="1.0" encoding="UTF-8" standalone="no"?>
<!-- Created with Inkscape (http://www.inkscape.org/) -->

<svg
   width="384"
   height="96"
   viewBox="0 0 384 96"
   version="1.1"
   id="svg1"
   inkscape:version="1.3 (1:1.3+202307231459+0e150ed6c4)"
   sodipodi:docname="shell_mondot.svg"
   xml:space="preserve"
   xmlns:inkscape="http://www.inkscape.org/namespaces/inkscape"
   xmlns:sodipodi="http://sodipodi.sourceforge.net/DTD/sodipodi-0.dtd"
   xmlns="http://www.w3.org/2000/svg"
   xmlns:svg="http://www.w3.org/2000/svg"><sodipodi:namedview
     id="namedview1"
     pagecolor="#ffffff"
     bordercolor="#111111"
     borderopacity="1"
     inkscape:showpageshadow="false"
     inkscape:pageopacity="0"
     inkscape:pagecheckerboard="1"
     inkscape:deskcolor="#afafaf"
     inkscape:document-units="px"
     showgrid="true"
     labelstyle="default"
     inkscape:zoom="5.8154881"
     inkscape:cx="293.95641"
     inkscape:cy="70.157481"
     inkscape:window-width="1920"
     inkscape:window-height="1016"
     inkscape:window-x="1920"
     inkscape:window-y="27"
     inkscape:window-maximized="1"
     inkscape:current-layer="layer1"><inkscape:grid
       id="grid1"
       units="px"
       originx="0"
       originy="0"
       spacingx="1"
       spacingy="1"
       empcolor="#0099e5"
       empopacity="0.30196078"
       color="#0099e5"
       opacity="0.14901961"
       empspacing="8"
       dotted="false"
       gridanglex="30"
       gridanglez="30"
       visible="true" /></sodipodi:namedview><defs
     id="defs1" /><g
     inkscape:label="Layer 1"
     inkscape:groupmode="layer"
     id="layer1"><g
       id="g1"><path
         id="rect2"
         style="fill:#3ecc5f;stroke-width:3.67527;-inkscape-stroke:none"
         d="M 266.69922,8 C 265.20391,8 264,9.2039053 264,10.699219 v 74.705078 c 0,1.495309 1.20391,2.699219 2.69922,2.699219 h 106.60156 c 1.49532,0 2.69922,-1.20391 2.69922,-2.699219 V 10.699219 C 376,9.2039053 374.7961,8 373.30078,8 Z m 88.55469,1 h 7.49218 C 362.88636,9 363,9.1136359 363,9.2539062 V 16.746094 C 363,16.886365 362.88636,17 362.74609,17 h -7.49218 C 355.11363,17 355,16.886365 355,16.746094 V 9.2539062 C 355,9.1136359 355.11363,9 355.25391,9 Z m 11.625,0.5683594 c 0.0647,0 0.13009,0.024626 0.17968,0.074219 L 369,11.583984 370.94141,9.6425781 c 0.0992,-0.099186 0.26018,-0.099186 0.35937,0 l 1.05664,1.0566409 c 0.0992,0.09919 0.0992,0.260188 0,0.359375 L 370.41602,13 l 1.9414,1.941406 c 0.0992,0.09919 0.0992,0.260189 0,0.359375 l -1.05664,1.056641 c -0.0992,0.09919 -0.26019,0.09919 -0.35937,0 L 369,14.416016 l -1.94141,1.941406 c -0.0992,0.09919 -0.26018,0.09919 -0.35937,0 l -1.05664,-1.056641 c -0.0992,-0.09919 -0.0992,-0.260188 0,-0.359375 L 367.58398,13 l -1.9414,-1.941406 c -0.0992,-0.09919 -0.0992,-0.260189 0,-0.359375 l 1.05664,-1.0566409 c 0.0496,-0.049593 0.11496,-0.074219 0.17969,-0.074219 z M 345.25391,15 h 7.49218 C 352.88636,15 353,15.113635 353,15.253906 v 1.492188 C 353,16.886365 352.88636,17 352.74609,17 h -7.49218 C 345.11363,17 345,16.886365 345,16.746094 V 15.253906 C 345,15.113635 345.11363,15 345.25391,15 Z m -78.34375,2.871094 H 373.08984 V 86.128906 H 266.91016 Z" /><rect
         style="fill:#3ecc5f;fill-opacity:1;stroke-width:0.790927;-inkscape-stroke:none"
         id="rect3"
         width="6"
         height="6"
         x="356"
         y="10"
         ry="0.12251627" /><rect
         style="fill:#3ecc5f;stroke-width:4.33073;stroke-linecap:round;stroke-linejoin:round"
         id="rect1"
         width="84"
         height="44"
         x="288"
         y="20"
         rx="0"
         ry="0" /><rect
         style="fill:#3ecc5f;stroke-width:2.66626;stroke-linecap:round;stroke-linejoin:round"
         id="rect1-5"
         width="84"
         height="16.677698"
         x="288"
         y="67.322304"
         rx="0"
         ry="0" /><rect
         style="fill:#3ecc5f;stroke-width:2.41781;stroke-linecap:round;stroke-linejoin:round"
         id="rect1-5-2"
         width="18"
         height="64"
         x="268"
         y="20"
         rx="0"
         ry="0" /></g><g
       inkscape:label="Layer 1"
       id="layer1-0"><path
         id="rect2-9"
         style="fill:#3ecc5f;stroke-width:3.67527;-inkscape-stroke:none"
         d="M 10.699219,8 C 9.2039053,8 8,9.2039053 8,10.699219 v 74.705078 c 0,1.495309 1.2039053,2.699219 2.699219,2.699219 H 117.30078 c 1.49532,0 2.69922,-1.20391 2.69922,-2.699219 V 10.699219 C 120,9.2039053 118.7961,8 117.30078,8 Z m 88.554687,1 h 7.492184 C 106.88636,9 107,9.1136359 107,9.2539062 V 16.746094 C 107,16.886365 106.88636,17 106.74609,17 H 99.253906 C 99.113635,17 99,16.886365 99,16.746094 V 9.2539062 C 99,9.1136359 99.113635,9 99.253906,9 Z m 11.625004,0.5683594 c 0.0647,0 0.13009,0.024626 0.17968,0.074219 L 113,11.583984 114.94141,9.6425781 c 0.0992,-0.099186 0.26018,-0.099186 0.35937,0 l 1.05664,1.0566409 c 0.0992,0.09919 0.0992,0.260188 0,0.359375 L 114.41602,13 l 1.9414,1.941406 c 0.0992,0.09919 0.0992,0.260189 0,0.359375 l -1.05664,1.056641 c -0.0992,0.09919 -0.26019,0.09919 -0.35937,0 L 113,14.416016 l -1.94141,1.941406 c -0.0992,0.09919 -0.26018,0.09919 -0.35937,0 l -1.05664,-1.056641 c -0.0992,-0.09919 -0.0992,-0.260188 0,-0.359375 L 111.58398,13 l -1.9414,-1.941406 c -0.0992,-0.09919 -0.0992,-0.260189 0,-0.359375 l 1.05664,-1.0566409 c 0.0496,-0.049593 0.11496,-0.074219 0.17969,-0.074219 z M 89.253906,15 h 7.492188 C 96.886365,15 97,15.113635 97,15.253906 v 1.492188 C 97,16.886365 96.886365,17 96.746094,17 H 89.253906 C 89.113635,17 89,16.886365 89,16.746094 V 15.253906 C 89,15.113635 89.113635,15 89.253906,15 Z m -78.34375,2.871094 H 117.08984 V 86.128906 H 10.910156 Z" /><rect
         style="fill:#3ecc5f;fill-opacity:1;stroke-width:0.790927;-inkscape-stroke:none"
         id="rect3-3"
         width="6"
         height="6"
         x="100"
         y="10"
         ry="0.12251627" /><text
         xml:space="preserve"
         style="font-weight:bold;font-size:21.3333px;line-height:1;font-family:Manjari;-inkscape-font-specification:'Manjari Bold';text-align:center;text-anchor:middle;fill:#3ecc5f;fill-opacity:1;stroke:none;stroke-width:4;stroke-linecap:round;stroke-linejoin:round"
         x="25"
         y="31"
         id="text1"><tspan
           sodipodi:role="line"
           id="tspan1"
           x="25"
           y="31">&gt;_</tspan></text></g><path
       style="fill:#3ecc5f;fill-opacity:1;stroke:#3ecc5f;stroke-width:8.36349;stroke-linecap:round;stroke-linejoin:round;stroke-dasharray:none;stroke-opacity:1;marker-end:"
       d="m 140.70287,38.766922 c 108.20654,0 109.02036,0 109.02036,0 z"
       id="path1" /><path
       style="fill:#3ecc5f;fill-opacity:1;stroke:#3ecc5f;stroke-width:8.36349;stroke-linecap:round;stroke-linejoin:round;stroke-dasharray:none;stroke-opacity:1;marker-end:"
       d="m 243.19303,57.233077 c -108.20654,0 -109.02036,0 -109.02036,0 z"
       id="path1-8" /><path
       sodipodi:type="star"
       style="fill:#3ecc5f;stroke:#3ecc5f;stroke-width:8;stroke-linecap:round;stroke-linejoin:round"
       id="path2-3"
       inkscape:flatsided="true"
       sodipodi:sides="3"
       sodipodi:cx="212.29822"
       sodipodi:cy="73.948601"
       sodipodi:r1="8.3193407"
       sodipodi:r2="4.1596704"
       sodipodi:arg1="2.0943951"
       sodipodi:arg2="3.1415927"
       inkscape:rounded="0"
       inkscape:randomized="0"
       d="m 208.13855,81.153361 0,-14.409521 12.47901,7.204761 z"
       inkscape:transform-center-x="-1.7265386"
       transform="matrix(0.8301344,0,0,0.8301344,74.53757,-4.1542003)" /><path
       sodipodi:type="star"
       style="fill:#3ecc5f;stroke:#3ecc5f;stroke-width:8;stroke-linecap:round;stroke-linejoin:round"
       id="path2"
       inkscape:flatsided="true"
       sodipodi:sides="3"
       sodipodi:cx="212.29822"
       sodipodi:cy="73.948601"
       sodipodi:r1="8.3193407"
       sodipodi:r2="4.1596704"
       sodipodi:arg1="2.0943951"
       sodipodi:arg2="3.1415927"
       inkscape:rounded="0"
       inkscape:randomized="0"
       d="m 208.13855,81.153361 0,-14.409521 12.47901,7.204761 z"
       inkscape:transform-center-x="1.7265391"
       transform="matrix(-0.8301344,0,0,0.8301344,309.46243,-22.620355)" /></g></svg>
