<?xml version="1.0" encoding="UTF-8" standalone="no"?>
<!-- Created with Inkscape (http://www.inkscape.org/) -->

<svg
   width="128"
   height="96"
   viewBox="0 0 128 96"
   version="1.1"
   id="svg1"
   inkscape:version="1.3 (1:1.3+202307231459+0e150ed6c4)"
   sodipodi:docname="shell.svg"
   xmlns:inkscape="http://www.inkscape.org/namespaces/inkscape"
   xmlns:sodipodi="http://sodipodi.sourceforge.net/DTD/sodipodi-0.dtd"
   xmlns="http://www.w3.org/2000/svg"
   xmlns:svg="http://www.w3.org/2000/svg">
  <sodipodi:namedview
     id="namedview1"
     pagecolor="#ffffff"
     bordercolor="#111111"
     borderopacity="1"
     inkscape:showpageshadow="false"
     inkscape:pageopacity="0"
     inkscape:pagecheckerboard="1"
     inkscape:deskcolor="#afafaf"
     inkscape:document-units="px"
     showgrid="true"
     labelstyle="default"
     inkscape:zoom="8.2243421"
     inkscape:cx="45.778738"
     inkscape:cy="48.271338"
     inkscape:window-width="1920"
     inkscape:window-height="1016"
     inkscape:window-x="1920"
     inkscape:window-y="27"
     inkscape:window-maximized="1"
     inkscape:current-layer="layer1">
    <inkscape:grid
       id="grid1"
       units="px"
       originx="0"
       originy="0"
       spacingx="1"
       spacingy="1"
       empcolor="#0099e5"
       empopacity="0.30196078"
       color="#0099e5"
       opacity="0.14901961"
       empspacing="8"
       dotted="false"
       gridanglex="30"
       gridanglez="30"
       visible="true" />
  </sodipodi:namedview>
  <defs
     id="defs1" />
  <g
     inkscape:label="Layer 1"
     inkscape:groupmode="layer"
     id="layer1">
    <path
       id="rect2"
       style="fill:#3ecc5f;stroke-width:3.67527;-inkscape-stroke:none"
       d="M 10.699219 8 C 9.2039053 8 8 9.2039053 8 10.699219 L 8 85.404297 C 8 86.899606 9.2039053 88.103516 10.699219 88.103516 L 117.30078 88.103516 C 118.7961 88.103516 120 86.899606 120 85.404297 L 120 10.699219 C 120 9.2039053 118.7961 8 117.30078 8 L 10.699219 8 z M 99.253906 9 L 106.74609 9 C 106.88636 9 107 9.1136359 107 9.2539062 L 107 16.746094 C 107 16.886365 106.88636 17 106.74609 17 L 99.253906 17 C 99.113635 17 99 16.886365 99 16.746094 L 99 9.2539062 C 99 9.1136359 99.113635 9 99.253906 9 z M 110.87891 9.5683594 C 110.94363 9.5683594 111.009 9.5929852 111.05859 9.6425781 L 113 11.583984 L 114.94141 9.6425781 C 115.04059 9.5433919 115.20159 9.5433919 115.30078 9.6425781 L 116.35742 10.699219 C 116.45661 10.798405 116.45661 10.959407 116.35742 11.058594 L 114.41602 13 L 116.35742 14.941406 C 116.45661 15.040593 116.45661 15.201595 116.35742 15.300781 L 115.30078 16.357422 C 115.20159 16.456608 115.04059 16.456608 114.94141 16.357422 L 113 14.416016 L 111.05859 16.357422 C 110.95941 16.456608 110.79841 16.456608 110.69922 16.357422 L 109.64258 15.300781 C 109.54339 15.201595 109.54339 15.040593 109.64258 14.941406 L 111.58398 13 L 109.64258 11.058594 C 109.54339 10.959407 109.54339 10.798405 109.64258 10.699219 L 110.69922 9.6425781 C 110.74881 9.5929852 110.81418 9.5683594 110.87891 9.5683594 z M 89.253906 15 L 96.746094 15 C 96.886365 15 97 15.113635 97 15.253906 L 97 16.746094 C 97 16.886365 96.886365 17 96.746094 17 L 89.253906 17 C 89.113635 17 89 16.886365 89 16.746094 L 89 15.253906 C 89 15.113635 89.113635 15 89.253906 15 z M 10.910156 17.871094 L 117.08984 17.871094 L 117.08984 86.128906 L 10.910156 86.128906 L 10.910156 17.871094 z " />
    <rect
       style="fill:#3ecc5f;stroke-width:0.790927;-inkscape-stroke:none;fill-opacity:1"
       id="rect3"
       width="6"
       height="6"
       x="100"
       y="10"
       ry="0.12251627" />
    <text
       xml:space="preserve"
       style="font-weight:bold;font-size:21.3333px;line-height:1;font-family:Manjari;-inkscape-font-specification:'Manjari Bold';text-align:center;text-anchor:middle;fill:#3ecc5f;fill-opacity:1;stroke:none;stroke-width:4;stroke-linecap:round;stroke-linejoin:round"
       x="25"
       y="31"
       id="text1"><tspan
         sodipodi:role="line"
         id="tspan1"
         x="25"
         y="31">&gt;_</tspan></text>
  </g>
</svg>
