<?xml version="1.0" encoding="UTF-8" standalone="no"?>
<!-- Created with Inkscape (http://www.inkscape.org/) -->

<svg
   width="280"
   height="240"
   viewBox="0 0 93.333333 80"
   version="1.1"
   id="svg1"
   inkscape:version="1.3 (1:1.3+202307231459+0e150ed6c4)"
   sodipodi:docname="shrug.svg"
   xmlns:inkscape="http://www.inkscape.org/namespaces/inkscape"
   xmlns:sodipodi="http://sodipodi.sourceforge.net/DTD/sodipodi-0.dtd"
   xmlns="http://www.w3.org/2000/svg"
   xmlns:svg="http://www.w3.org/2000/svg">
  <sodipodi:namedview
     id="namedview1"
     pagecolor="#ffffff"
     bordercolor="#111111"
     borderopacity="1"
     inkscape:showpageshadow="false"
     inkscape:pageopacity="0"
     inkscape:pagecheckerboard="1"
     inkscape:deskcolor="#afafaf"
     inkscape:document-units="px"
     showgrid="true"
     labelstyle="default"
     inkscape:zoom="5.8154882"
     inkscape:cx="117.18707"
     inkscape:cy="87.524896"
     inkscape:window-width="1920"
     inkscape:window-height="1016"
     inkscape:window-x="1920"
     inkscape:window-y="27"
     inkscape:window-maximized="1"
     inkscape:current-layer="layer1">
    <inkscape:grid
       id="grid1"
       units="px"
       originx="0"
       originy="0"
       spacingx="1"
       spacingy="1"
       empcolor="#0099e5"
       empopacity="0.30196078"
       color="#0099e5"
       opacity="0.14901961"
       empspacing="8"
       dotted="false"
       gridanglex="30"
       gridanglez="30"
       visible="true" />
  </sodipodi:namedview>
  <defs
     id="defs1" />
  <g
     inkscape:label="Layer 1"
     inkscape:groupmode="layer"
     id="layer1">
    <path
       id="path1"
       style="fill:#3ecc5f;fill-opacity:1;stroke-width:1.12081;stroke-linecap:round;stroke-linejoin:bevel"
       d="M 46.333333 20 A 14 14 0 0 0 32.333333 34 A 14 14 0 0 0 33.216146 38.791016 L 33.729167 38.791016 C 36.27998 38.791016 38.333333 40.845021 38.333333 43.395833 C 38.333333 44.031576 38.205631 44.636324 37.974609 45.186198 A 14 14 0 0 0 46.333333 48 A 14 14 0 0 0 54.692057 45.186198 C 54.461035 44.636324 54.333333 44.031576 54.333333 43.395833 C 54.333333 40.845018 56.386678 38.791016 58.9375 38.791016 L 59.450521 38.791016 A 14 14 0 0 0 60.333333 34 A 14 14 0 0 0 46.333333 20 z M 41 24 C 41.553994 24 42 24.446006 42 25 L 42 32.500651 C 42 33.054645 41.553994 33.500651 41 33.500651 C 40.446001 33.500651 40 33.054645 40 32.500651 L 40 25 C 40 24.446006 40.446001 24 41 24 z M 49 24 C 49.553993 24 50 24.446007 50 25 L 50 32.500651 C 50 33.054644 49.553993 33.500651 49 33.500651 C 48.446 33.500651 48 33.054644 48 32.500651 L 48 25 C 48 24.446007 48.446 24 49 24 z M 55.333333 29.666667 C 55.733162 39.307328 50.108348 43.00714 41.784505 43.215495 L 55.333333 29.666667 z " />
    <rect
       style="fill:#3ecc5f;fill-opacity:1;stroke-width:1.053;stroke-linecap:round;stroke-linejoin:bevel"
       id="rect1"
       width="19.890175"
       height="8.3674393"
       x="55.333332"
       y="39.211876"
       rx="4.1837196"
       ry="4.1837196" />
    <rect
       style="fill:#3ecc5f;fill-opacity:1;stroke-width:1.053;stroke-linecap:round;stroke-linejoin:bevel"
       id="rect1-2"
       width="19.890175"
       height="8.3674393"
       x="72.223503"
       y="29.21188"
       rx="4.1837196"
       ry="4.1837196" />
    <rect
       style="fill:#3ecc5f;fill-opacity:1;stroke-width:1.053;stroke-linecap:round;stroke-linejoin:bevel"
       id="rect1-5"
       width="19.890175"
       height="8.3674393"
       x="-6.6248651"
       y="78.371986"
       rx="4.1837196"
       ry="4.1837196"
       transform="rotate(-60)" />
    <rect
       style="fill:#3ecc5f;fill-opacity:1;stroke-width:1.053;stroke-linecap:round;stroke-linejoin:bevel"
       id="rect1-7"
       width="19.890175"
       height="8.3674393"
       x="-37.333332"
       y="39.632561"
       rx="4.1837196"
       ry="4.1837196"
       transform="scale(-1,1)" />
    <rect
       style="fill:#3ecc5f;fill-opacity:1;stroke-width:1.053;stroke-linecap:round;stroke-linejoin:bevel"
       id="rect1-2-0"
       width="19.890175"
       height="8.3674393"
       x="-20.443157"
       y="29.632561"
       rx="4.1837196"
       ry="4.1837196"
       transform="scale(-1,1)" />
    <rect
       style="fill:#3ecc5f;fill-opacity:1;stroke-width:1.053;stroke-linecap:round;stroke-linejoin:bevel"
       id="rect1-5-9"
       width="19.890175"
       height="8.3674393"
       x="-53.322521"
       y="-1.669356"
       rx="4.1837196"
       ry="4.1837196"
       transform="matrix(-0.5,-0.8660254,-0.8660254,0.5,0,0)" />
  </g>
</svg>
