<?xml version="1.0" encoding="UTF-8" standalone="no"?>
<!-- Created with Inkscape (http://www.inkscape.org/) -->

<svg
   width="128"
   height="128"
   viewBox="0 0 128 128"
   version="1.1"
   id="svg1"
   inkscape:version="1.3 (1:1.3+202307231459+0e150ed6c4)"
   sodipodi:docname="dice.svg"
   xmlns:inkscape="http://www.inkscape.org/namespaces/inkscape"
   xmlns:sodipodi="http://sodipodi.sourceforge.net/DTD/sodipodi-0.dtd"
   xmlns="http://www.w3.org/2000/svg"
   xmlns:svg="http://www.w3.org/2000/svg">
  <sodipodi:namedview
     id="namedview1"
     pagecolor="#ffffff"
     bordercolor="#111111"
     borderopacity="1"
     inkscape:showpageshadow="false"
     inkscape:pageopacity="0"
     inkscape:pagecheckerboard="1"
     inkscape:deskcolor="#afafaf"
     inkscape:document-units="px"
     showgrid="true"
     labelstyle="default"
     inkscape:zoom="5.8154881"
     inkscape:cx="68.867822"
     inkscape:cy="55.369385"
     inkscape:window-width="1920"
     inkscape:window-height="1016"
     inkscape:window-x="1920"
     inkscape:window-y="27"
     inkscape:window-maximized="1"
     inkscape:current-layer="layer1">
    <inkscape:grid
       id="grid1"
       units="px"
       originx="0"
       originy="0"
       spacingx="1"
       spacingy="1"
       empcolor="#0099e5"
       empopacity="0.30196078"
       color="#0099e5"
       opacity="0.14901961"
       empspacing="8"
       dotted="false"
       gridanglex="30"
       gridanglez="30"
       visible="true" />
  </sodipodi:namedview>
  <defs
     id="defs1" />
  <g
     inkscape:label="Layer 1"
     inkscape:groupmode="layer"
     id="layer1">
    <path
       id="rect19"
       style="fill:#3ecc5f;fill-opacity:1;stroke-width:0.829704;-inkscape-stroke:none"
       d="M 50.911688 -39.59798 C 50.660648 -39.346939 50.505654 -38.99938 50.505654 -38.614659 L 50.505654 38.614659 C 50.505654 39.3841 51.125568 40.004014 51.895009 40.004014 L 129.12433 40.004014 C 129.89377 40.004014 130.51368 39.3841 130.51368 38.614659 L 130.51368 -38.614659 C 130.51368 -39.3841 129.89377 -40.004014 129.12433 -40.004014 L 51.895009 -40.004014 C 51.510288 -40.004014 51.162729 -39.849016 50.911688 -39.59798 z M 60.465916 -29.23997 A 7.9980593 7.9980593 0 0 1 66.509469 -31.999344 A 7.9980593 7.9980593 0 0 1 74.507234 -24.00158 A 7.9980593 7.9980593 0 0 1 66.509469 -16.003815 A 7.9980593 7.9980593 0 0 1 58.511705 -24.00158 A 7.9980593 7.9980593 0 0 1 60.465916 -29.23997 z M 60.465916 18.760427 A 7.9980593 7.9980593 0 0 1 66.509469 16.001053 A 7.9980593 7.9980593 0 0 1 74.507234 23.998817 A 7.9980593 7.9980593 0 0 1 66.509469 31.996582 A 7.9980593 7.9980593 0 0 1 58.511705 23.998817 A 7.9980593 7.9980593 0 0 1 60.465916 18.760427 z M 84.466115 -5.2397717 A 7.9980593 7.9980593 0 0 1 90.509668 -7.9991455 A 7.9980593 7.9980593 0 0 1 98.507432 -0.0013810679 A 7.9980593 7.9980593 0 0 1 90.509668 7.9963833 A 7.9980593 7.9980593 0 0 1 82.511904 -0.0013810679 A 7.9980593 7.9980593 0 0 1 84.466115 -5.2397717 z M 108.46493 -29.238589 A 7.9980593 7.9980593 0 0 1 114.50987 -31.999344 A 7.9980593 7.9980593 0 0 1 122.50763 -24.00158 A 7.9980593 7.9980593 0 0 1 114.50987 -16.003815 A 7.9980593 7.9980593 0 0 1 106.5121 -24.00158 A 7.9980593 7.9980593 0 0 1 108.46493 -29.238589 z M 108.46631 18.760427 A 7.9980593 7.9980593 0 0 1 114.50987 16.001053 A 7.9980593 7.9980593 0 0 1 122.50763 23.998817 A 7.9980593 7.9980593 0 0 1 114.50987 31.996582 A 7.9980593 7.9980593 0 0 1 106.5121 23.998817 A 7.9980593 7.9980593 0 0 1 108.46631 18.760427 z "
       transform="rotate(45)" />
  </g>
</svg>
