<?xml version="1.0" encoding="UTF-8" standalone="no"?>
<!-- Created with Inkscape (http://www.inkscape.org/) -->

<svg
   width="128"
   height="128"
   viewBox="0 0 128 128"
   version="1.1"
   id="svg1"
   inkscape:version="1.3.2 (1:1.3.2+202404261509+091e20ef0f)"
   sodipodi:docname="dino.svg"
   xmlns:inkscape="http://www.inkscape.org/namespaces/inkscape"
   xmlns:sodipodi="http://sodipodi.sourceforge.net/DTD/sodipodi-0.dtd"
   xmlns="http://www.w3.org/2000/svg"
   xmlns:svg="http://www.w3.org/2000/svg">
  <sodipodi:namedview
     id="namedview1"
     pagecolor="#ffffff"
     bordercolor="#111111"
     borderopacity="1"
     inkscape:showpageshadow="false"
     inkscape:pageopacity="0"
     inkscape:pagecheckerboard="1"
     inkscape:deskcolor="#afafaf"
     inkscape:document-units="px"
     showgrid="true"
     labelstyle="default"
     inkscape:zoom="11.630976"
     inkscape:cx="34.863797"
     inkscape:cy="50.038792"
     inkscape:window-width="1920"
     inkscape:window-height="1011"
     inkscape:window-x="1920"
     inkscape:window-y="32"
     inkscape:window-maximized="1"
     inkscape:current-layer="layer1">
    <inkscape:grid
       id="grid1"
       units="px"
       originx="0"
       originy="0"
       spacingx="1"
       spacingy="1"
       empcolor="#0099e5"
       empopacity="0.30196078"
       color="#0099e5"
       opacity="0.14901961"
       empspacing="8"
       dotted="false"
       gridanglex="30"
       gridanglez="30"
       visible="true" />
  </sodipodi:namedview>
  <defs
     id="defs1">
    <inkscape:perspective
       sodipodi:type="inkscape:persp3d"
       inkscape:vp_x="0 : 64 : 1"
       inkscape:vp_y="0 : 1000 : 0"
       inkscape:vp_z="128 : 64 : 1"
       inkscape:persp3d-origin="64 : 42.666667 : 1"
       id="perspective9" />
  </defs>
  <g
     inkscape:label="Layer 1"
     inkscape:groupmode="layer"
     id="layer1">
    <g
       id="g22"
       transform="matrix(1.1741324,0,0,1.1741324,-21.951848,-5.7979973)">
      <path
         id="rect3-6"
         style="fill:#3ecc5f;fill-opacity:1;stroke-width:4.69744;stroke-linejoin:round;paint-order:stroke fill markers"
         d="m -71.641103,-1.4153452 a 14.634159,14.634159 0 0 0 -0.839073,1.46088561 14.634159,14.634159 0 0 0 6.596222,19.61740459 14.634159,14.634159 0 0 0 9.875722,1.117527 l 4.17e-4,6.167549 c 0,10.422775 -8.391392,18.813051 -18.814165,18.813051 l -44.84467,0.0012 c -10.42277,0 -18.81305,-8.39139 -18.81305,-18.814165 l 5.1e-4,-9.817771 c 0,-10.4227737 8.38964,-18.8139197 18.81242,-18.8139197 l 44.845548,0.00144 c 1.084811,0 2.146435,0.092296 3.180119,0.2668205 z M -124.003,7.1995439 a 2.611536,2.611536 0 0 0 -1.31788,-0.2664527 2.611536,2.611536 0 0 0 -0.0114,9.031e-4 2.611536,2.611536 0 0 0 -1.27501,0.4287149 2.611536,2.611536 0 0 0 -0.003,8.803e-4 2.611536,2.611536 0 0 0 -8.7e-4,0.00175 2.611536,2.611536 0 0 0 -0.89266,1.0111903 2.611536,2.611536 0 0 0 -0.15098,0.3829737 2.611536,2.611536 0 0 0 -0.038,0.1512093 2.611536,2.611536 0 0 0 -0.0535,0.2569393 2.611536,2.611536 0 0 0 -0.0187,0.1782363 2.611536,2.611536 0 0 0 -0.005,0.2550643 2.611536,2.611536 0 0 0 0.005,0.1572116 2.611536,2.611536 0 0 0 0.0417,0.2671717 2.611536,2.611536 0 0 0 0.0284,0.158023 2.611536,2.611536 0 0 0 0.002,0.0096 2.611536,2.611536 0 0 0 0.12587,0.370021 2.611536,2.611536 0 0 0 0.0615,0.122124 2.611536,2.611536 0 0 0 0.1299,0.23899 2.611536,2.611536 0 0 0 0.10346,0.147345 2.611536,2.611536 0 0 0 0.16211,0.200474 2.611536,2.611536 0 0 0 0.10949,0.117631 2.611536,2.611536 0 0 0 0.19086,0.168953 2.611536,2.611536 0 0 0 0.13393,0.10796 2.611536,2.611536 0 0 0 0.34819,0.212215 2.611536,2.611536 0 0 0 1.29604,0.262142 2.611536,2.611536 0 0 0 0.0533,-0.0019 2.611536,2.611536 0 0 0 1.23662,-0.417259 2.611536,2.611536 0 0 0 0.0375,-0.02718 2.611536,2.611536 0 0 0 0.87786,-0.994556 2.611536,2.611536 0 0 0 0.26126,-1.2986555 2.611536,2.611536 0 0 0 -0.001,-0.046291 2.611536,2.611536 0 0 0 -0.41727,-1.2409782 2.611536,2.611536 0 0 0 -0.0263,-0.039237 2.611536,2.611536 0 0 0 -0.99368,-0.8752342 z"
         transform="matrix(-0.89559437,-0.44487158,-0.44487158,0.89559437,0,0)" />
      <path
         id="rect3-6-6"
         style="fill:#ff5555;fill-opacity:1;stroke-width:4.22189;stroke-linejoin:round;paint-order:stroke fill markers"
         d="m -70.864585,-20.468998 c 1.462057,1.119675 2.728073,2.478117 3.756031,4.010858 a 14.634159,14.634159 0 0 0 -4.269444,3.866104 14.634159,14.634159 0 0 0 3.074909,20.4669897 14.634159,14.634159 0 0 0 2.3197,1.3664787 c -2.746962,5.6058806 -8.486579,9.4579206 -15.173078,9.4579206 l -40.304963,-1.98e-4 c -9.36763,0 -16.90815,-7.540723 -16.90815,-16.9083555 l -0.002,-8.8232654 c 0,-9.3676321 7.54189,-16.9097241 16.90952,-16.9097241 l 40.304957,1.98e-4 c 3.512863,0 6.769296,1.06086 9.467153,2.880502 0.281027,0.189546 0.556431,0.386812 0.825005,0.592492 z m -52.494405,5.938418 a 2.611536,2.611536 0 0 0 -3.65199,0.548666 2.611536,2.611536 0 0 0 0.54751,3.653562 2.611536,2.611536 0 0 0 3.65315,-0.550237 2.611536,2.611536 0 0 0 -0.54867,-3.651991 z"
         transform="matrix(-0.80431419,-0.59420424,-0.59420424,0.80431419,0,0)" />
      <g
         id="g21">
        <path
           sodipodi:type="star"
           style="fill:#ececec;fill-opacity:1;stroke:none;stroke-width:3.538;stroke-linecap:butt;stroke-linejoin:round;stroke-dasharray:none;stroke-opacity:1;paint-order:stroke fill markers"
           id="path19"
           inkscape:flatsided="false"
           sodipodi:sides="3"
           sodipodi:cx="-5.2588892"
           sodipodi:cy="16.242554"
           sodipodi:r1="8.9267902"
           sodipodi:r2="4.4633951"
           sodipodi:arg1="0.52359878"
           sodipodi:arg2="1.5707963"
           inkscape:rounded="0"
           inkscape:randomized="0"
           d="m 2.4719379,20.705949 -7.730827,0 -7.7308269,0 3.8654132,-6.695093 3.8654136,-6.6950925 3.8654135,6.6950925 z"
           transform="matrix(0.5459443,0.20743942,0.20743942,-0.5459443,103.18586,95.144059)"
           inkscape:transform-center-y="0.98161432" />
        <path
           sodipodi:type="star"
           style="fill:#ececec;fill-opacity:1;stroke:none;stroke-width:3.538;stroke-linecap:butt;stroke-linejoin:round;stroke-dasharray:none;stroke-opacity:1;paint-order:stroke fill markers"
           id="path19-5"
           inkscape:flatsided="false"
           sodipodi:sides="3"
           sodipodi:cx="-5.2588892"
           sodipodi:cy="16.242554"
           sodipodi:r1="8.9267902"
           sodipodi:r2="4.4633951"
           sodipodi:arg1="0.52359878"
           sodipodi:arg2="1.5707963"
           inkscape:rounded="0"
           inkscape:randomized="0"
           d="m 2.4719379,20.705949 -7.730827,0 -7.7308269,0 3.8654132,-6.695093 3.8654136,-6.6950925 3.8654135,6.6950925 z"
           transform="matrix(0.5459443,0.20743942,0.20743942,-0.5459443,95.083972,92.571411)"
           inkscape:transform-center-y="0.98161432" />
        <path
           sodipodi:type="star"
           style="fill:#ececec;fill-opacity:1;stroke:none;stroke-width:3.538;stroke-linecap:butt;stroke-linejoin:round;stroke-dasharray:none;stroke-opacity:1;paint-order:stroke fill markers"
           id="path19-5-1"
           inkscape:flatsided="false"
           sodipodi:sides="3"
           sodipodi:cx="-5.2588892"
           sodipodi:cy="16.242554"
           sodipodi:r1="8.9267902"
           sodipodi:r2="4.4633951"
           sodipodi:arg1="0.52359878"
           sodipodi:arg2="1.5707963"
           inkscape:rounded="0"
           inkscape:randomized="0"
           d="m 2.4719379,20.705949 -7.730827,0 -7.7308269,0 3.8654132,-6.695093 3.8654136,-6.6950925 3.8654135,6.6950925 z"
           transform="matrix(0.5459443,0.20743942,0.20743942,-0.5459443,86.573437,89.132377)"
           inkscape:transform-center-y="0.98161432" />
        <path
           sodipodi:type="star"
           style="fill:#ececec;fill-opacity:1;stroke:none;stroke-width:3.538;stroke-linecap:butt;stroke-linejoin:round;stroke-dasharray:none;stroke-opacity:1;paint-order:stroke fill markers"
           id="path19-5-2"
           inkscape:flatsided="false"
           sodipodi:sides="3"
           sodipodi:cx="-5.2588892"
           sodipodi:cy="16.242554"
           sodipodi:r1="8.9267902"
           sodipodi:r2="4.4633951"
           sodipodi:arg1="0.52359878"
           sodipodi:arg2="1.5707963"
           inkscape:rounded="0"
           inkscape:randomized="0"
           d="m 2.4719379,20.705949 -7.730827,0 -7.7308269,0 3.8654132,-6.695093 3.8654136,-6.6950925 3.8654135,6.6950925 z"
           transform="matrix(0.5459443,0.20743942,0.20743942,-0.5459443,78.226174,85.628389)"
           inkscape:transform-center-y="0.98161432" />
        <path
           sodipodi:type="star"
           style="fill:#ececec;fill-opacity:1;stroke:none;stroke-width:3.538;stroke-linecap:butt;stroke-linejoin:round;stroke-dasharray:none;stroke-opacity:1;paint-order:stroke fill markers"
           id="path19-5-5"
           inkscape:flatsided="false"
           sodipodi:sides="3"
           sodipodi:cx="-5.2588892"
           sodipodi:cy="16.242554"
           sodipodi:r1="8.9267902"
           sodipodi:r2="4.4633951"
           sodipodi:arg1="0.52359878"
           sodipodi:arg2="1.5707963"
           inkscape:rounded="0"
           inkscape:randomized="0"
           d="m 2.4719379,20.705949 -7.730827,0 -7.7308269,0 3.8654132,-6.695093 3.8654136,-6.6950925 3.8654135,6.6950925 z"
           transform="matrix(0.5459443,0.20743942,0.20743942,-0.5459443,70.03905,82.106387)"
           inkscape:transform-center-y="0.98161432" />
      </g>
      <path
         id="rect3"
         style="fill:#3ecc5f;fill-opacity:1;stroke:none;stroke-width:4.69769;stroke-linecap:butt;stroke-linejoin:round;stroke-dasharray:none;stroke-opacity:1;paint-order:markers stroke fill"
         d="m -70.15015,-5.606726 c 1.823417,0.7686815 3.49089,1.8244501 4.964861,3.0975608 a 14.634159,14.634159 0 0 0 -7.118282,7.5660054 14.634159,14.634159 0 0 0 7.936819,19.1143828 14.634159,14.634159 0 0 0 5.328762,1.071235 c -1.706935,8.642513 -9.290526,15.122382 -18.448599,15.122382 l -44.843951,-1.98e-4 c -10.42277,0 -18.81353,-8.390812 -18.81353,-18.813587 l -4.9e-4,-9.818551 c 0,-5.6518803 2.47982,-10.691842 6.40054,-14.1348248 a 2.611536,2.611536 0 0 0 1.50362,1.68005593 2.611536,2.611536 0 0 0 3.41064,-1.41619203 2.611536,2.611536 0 0 0 -0.76735,-3.0220829 c 2.49502,-1.2181054 5.29277,-1.9204871 8.26614,-1.9204871 l 44.843946,1.981e-4 c 2.605695,0 5.084524,0.5246001 7.336874,1.4741028 z m -53.0583,21.362829 a 2.611536,2.611536 0 0 0 -3.41064,1.416192 2.611536,2.611536 0 0 0 1.41544,3.412446 2.611536,2.611536 0 0 0 3.41139,-1.417997 2.611536,2.611536 0 0 0 -1.41619,-3.410641 z"
         transform="matrix(-0.92421029,-0.38188394,-0.38188394,0.92421029,0,0)" />
    </g>
    <circle
       style="fill:#ffffff;fill-opacity:1;stroke-width:3.05608;stroke-linejoin:round;paint-order:stroke fill markers"
       id="path3-5-7-5"
       cx="-43.097076"
       cy="41.070847"
       r="9.0708466"
       transform="scale(-1,1)" />
    <path
       id="path3"
       style="fill:#3ecc5f;fill-opacity:1;stroke-width:11.6183;stroke-linejoin:round;paint-order:stroke fill markers"
       d="M 35.041732,0.92345222 A 34.484483,34.484483 0 0 0 0.55847124,35.409006 34.484483,34.484483 0 0 0 35.041732,69.894559 34.484483,34.484483 0 0 0 69.527284,35.409006 34.484483,34.484483 0 0 0 35.041732,0.92345222 Z M 37.057478,14.925899 A 17.18244,17.18244 0 0 1 54.240632,32.109052 17.18244,17.18244 0 0 1 37.057478,49.292205 17.18244,17.18244 0 0 1 19.874326,32.109052 17.18244,17.18244 0 0 1 37.057478,14.925899 Z" />
    <circle
       style="fill:#000000;fill-opacity:1;stroke-width:1.97323;stroke-linejoin:round;paint-order:stroke fill markers"
       id="path3-5-7"
       cx="-43.097076"
       cy="41.070847"
       r="5.8568029"
       transform="scale(-1,1)" />
    <path
       style="fill:#3ecc5f;fill-opacity:1;stroke-width:5.789;stroke-linejoin:round;paint-order:stroke fill markers"
       id="path3-5-2"
       sodipodi:type="arc"
       sodipodi:cx="48.892529"
       sodipodi:cy="4.2205472"
       sodipodi:rx="17.182442"
       sodipodi:ry="17.182442"
       sodipodi:start="0"
       sodipodi:end="3.1415927"
       sodipodi:arc-type="slice"
       d="m 66.07497,4.2205472 a 17.182442,17.182442 0 0 1 -8.591221,14.8804308 17.182442,17.182442 0 0 1 -17.182442,0 17.182442,17.182442 0 0 1 -8.59122,-14.8804308 h 17.182442 z"
       transform="matrix(0.70710678,0.70710678,0.70710678,-0.70710678,0,0)" />
    <path
       style="fill:#3ecc5f;fill-opacity:1;stroke-width:5.89225;stroke-linejoin:round;paint-order:stroke fill markers"
       d="M 0.86168047,35.265623 C 1.7018975,63.066356 -5.4806515,88.166448 -20.404792,110.66055 l 64.261059,30.81543 C 35.751766,117.58832 31.293302,91.087513 34.350445,65.795762 Z"
       id="path14"
       sodipodi:nodetypes="ccccc" />
    <path
       id="path18"
       style="fill:#3ecc5f;fill-opacity:1;stroke:none;stroke-width:5.5157;stroke-linecap:butt;stroke-linejoin:round;stroke-dasharray:none;stroke-opacity:1;paint-order:stroke fill markers"
       d="M 117.68964,40.66967 A 10.309098,10.309098 0 0 0 107.38158,50.98002 10.309098,10.309098 0 0 0 117.68964,61.288077 10.309098,10.309098 0 0 0 128,50.98002 10.309098,10.309098 0 0 0 117.68964,40.66967 Z m 5.26755,6.35912 a 3.0662891,3.0662891 0 0 1 3.06833,3.066044 3.0662891,3.0662891 0 0 1 -3.06833,3.066046 3.0662891,3.0662891 0 0 1 -3.06604,-3.066046 3.0662891,3.0662891 0 0 1 3.06604,-3.066044 z" />
    <path
       id="path18-3"
       style="fill:#3ecc5f;fill-opacity:1;stroke:none;stroke-width:5.5157;stroke-linecap:butt;stroke-linejoin:round;stroke-dasharray:none;stroke-opacity:1;paint-order:stroke fill markers"
       d="M 99.414927,60.187328 A 10.309098,10.309098 0 0 0 89.10457,70.497679 10.309098,10.309098 0 0 0 99.414927,80.805735 10.309098,10.309098 0 0 0 109.72297,70.497679 10.309098,10.309098 0 0 0 99.414927,60.187328 Z m 5.267543,6.356826 a 3.0662891,3.0662891 0 0 1 3.06602,3.066045 3.0662891,3.0662891 0 0 1 -3.06602,3.068339 3.0662891,3.0662891 0 0 1 -3.06606,-3.068339 3.0662891,3.0662891 0 0 1 3.06606,-3.066045 z" />
  </g>
</svg>
