<?xml version="1.0" encoding="UTF-8" standalone="no"?>
<!-- Created with Inkscape (http://www.inkscape.org/) -->

<svg
   width="480"
   height="480"
   viewBox="0 0 127 127"
   version="1.1"
   id="svg1"
   inkscape:version="1.3 (1:1.3+202307231459+0e150ed6c4)"
   sodipodi:docname="fk.svg"
   xmlns:inkscape="http://www.inkscape.org/namespaces/inkscape"
   xmlns:sodipodi="http://sodipodi.sourceforge.net/DTD/sodipodi-0.dtd"
   xmlns="http://www.w3.org/2000/svg"
   xmlns:svg="http://www.w3.org/2000/svg">
  <sodipodi:namedview
     id="namedview1"
     pagecolor="#ffffff"
     bordercolor="#111111"
     borderopacity="1"
     inkscape:showpageshadow="0"
     inkscape:pageopacity="0"
     inkscape:pagecheckerboard="1"
     inkscape:deskcolor="#d1d1d1"
     inkscape:document-units="mm"
     showgrid="true"
     inkscape:zoom="1.5019781"
     inkscape:cx="199.07081"
     inkscape:cy="218.71158"
     inkscape:window-width="1920"
     inkscape:window-height="1043"
     inkscape:window-x="0"
     inkscape:window-y="0"
     inkscape:window-maximized="1"
     inkscape:current-layer="layer1">
    <inkscape:grid
       id="grid1"
       units="mm"
       originx="0"
       originy="0"
       spacingx="0.99999997"
       spacingy="0.99999997"
       empcolor="#0099e5"
       empopacity="0.30196078"
       color="#0099e5"
       opacity="0.14901961"
       empspacing="1"
       dotted="false"
       gridanglex="30"
       gridanglez="30"
       visible="true" />
  </sodipodi:namedview>
  <defs
     id="defs1" />
  <g
     inkscape:label="Layer 1"
     inkscape:groupmode="layer"
     id="layer1">
    <rect
       style="fill:#3ecc5f;fill-opacity:1;stroke:#3ecc5f;stroke-width:1.33212;stroke-linecap:round;stroke-linejoin:round;stroke-dasharray:none;stroke-opacity:1"
       id="rect2"
       width="47.956112"
       height="10.65692"
       x="76.780167"
       y="99.333939"
       rx="0.538535"
       ry="0.33521381" />
    <rect
       style="fill:none;fill-opacity:1;stroke:#3ecc5f;stroke-width:1.33212;stroke-linecap:round;stroke-linejoin:round;stroke-dasharray:none;stroke-opacity:1"
       id="rect2-5"
       width="37.299206"
       height="15.985376"
       x="62.034729"
       y="-108.75092"
       rx="0.41886058"
       ry="0.50282049"
       transform="rotate(90)" />
    <rect
       style="fill:none;fill-opacity:1;stroke:#3ecc5f;stroke-width:1.33212;stroke-linecap:round;stroke-linejoin:round;stroke-dasharray:none;stroke-opacity:1"
       id="rect2-5-2"
       width="37.299206"
       height="15.985376"
       x="73.041626"
       y="-10.718346"
       rx="0.41886058"
       ry="0.50282049"
       transform="rotate(30)" />
    <path
       id="rect2-5-2-6"
       style="fill:none;fill-opacity:1;stroke:#3ecc5f;stroke-width:1.33212;stroke-linecap:round;stroke-linejoin:round;stroke-dasharray:none;stroke-opacity:1"
       d="M -32.002567 50.115941 C -31.952421 50.090564 -31.897178 50.076499 -31.839166 50.076499 L 3.5558464 50.076639 A 10.656921 10.764922 60 0 0 1.1837528 63.512202 A 10.656921 10.764922 60 0 0 3.2667316 66.061693 L -31.839329 66.061805 C -32.071377 66.061805 -32.258009 65.8374 -32.258009 65.558838 L -32.25792 50.579028 C -32.25792 50.370106 -32.153003 50.192071 -32.002567 50.115941 z "
       transform="matrix(-0.8660254,0.5,0.5,0.8660254,0,0)" />
    <ellipse
       style="fill:#3ecc5f;fill-opacity:1;stroke:none;stroke-width:1.33212;stroke-linecap:round;stroke-linejoin:round;stroke-dasharray:none;stroke-opacity:1"
       id="path2"
       cx="100.65023"
       cy="56.70628"
       rx="10.764922"
       ry="10.65692" />
    <ellipse
       style="fill:#3ecc5f;fill-opacity:1;stroke:none;stroke-width:1.33212;stroke-linecap:round;stroke-linejoin:round;stroke-dasharray:none;stroke-opacity:1"
       id="path2-7"
       cx="60.686787"
       cy="32.72821"
       rx="10.764922"
       ry="10.65692" />
    <path
       id="path2-7-7"
       style="fill:none;fill-opacity:1;stroke:#3ecc5f;stroke-width:1.332;stroke-linecap:round;stroke-linejoin:round;stroke-dasharray:1.33200002,2.66400004;stroke-opacity:1;stroke-dashoffset:0"
       d="M 19.966632,44.938057 A 10.764922,10.656921 0 0 0 9.2021424,55.594819 10.764922,10.656921 0 0 0 9.2404681,56.129313 L 19.905517,50.24572 c 0.131113,-0.07232 0.309076,-0.0095 0.399836,0.140875 l 4.880898,8.076474 c 0.09076,0.150216 0.05861,0.329579 -0.0725,0.401908 L 14.471488,64.73614 A 10.764922,10.656921 0 0 0 19.96664,66.251579 10.764922,10.656921 0 0 0 30.73113,55.594819 10.764922,10.656921 0 0 0 19.96664,44.938057 Z" />
    <text
       xml:space="preserve"
       style="font-size:5.6571px;font-family:Monospace;-inkscape-font-specification:Monospace;fill:#3ecc5f;fill-opacity:1;stroke:none;stroke-width:1.00224;stroke-linecap:round;stroke-linejoin:round;stroke-dasharray:none;stroke-opacity:1"
       x="2.0979443"
       y="72.198624"
       id="text4-9-5"><tspan
         sodipodi:role="line"
         id="tspan4-4-0"
         style="stroke-width:1.00224"
         x="2.0979443"
         y="72.198624">x: ???</tspan><tspan
         sodipodi:role="line"
         style="stroke-width:1.00224"
         x="2.0979443"
         y="79.269997"
         id="tspan1">y: ???</tspan><tspan
         sodipodi:role="line"
         style="stroke-width:1.00224"
         x="2.0979443"
         y="86.341377"
         id="tspan2">θ: ???</tspan></text>
  </g>
</svg>
