<?xml version="1.0" encoding="UTF-8" standalone="no"?>
<!-- Created with Inkscape (http://www.inkscape.org/) -->

<svg
   width="480"
   height="480"
   viewBox="0 0 127 127"
   version="1.1"
   id="svg1"
   inkscape:version="1.3 (1:1.3+202307231459+0e150ed6c4)"
   sodipodi:docname="ik.svg"
   xmlns:inkscape="http://www.inkscape.org/namespaces/inkscape"
   xmlns:sodipodi="http://sodipodi.sourceforge.net/DTD/sodipodi-0.dtd"
   xmlns="http://www.w3.org/2000/svg"
   xmlns:svg="http://www.w3.org/2000/svg">
  <sodipodi:namedview
     id="namedview1"
     pagecolor="#ffffff"
     bordercolor="#111111"
     borderopacity="1"
     inkscape:showpageshadow="0"
     inkscape:pageopacity="0"
     inkscape:pagecheckerboard="1"
     inkscape:deskcolor="#d1d1d1"
     inkscape:document-units="mm"
     showgrid="true"
     inkscape:zoom="1.5019781"
     inkscape:cx="126.49985"
     inkscape:cy="219.37737"
     inkscape:window-width="1920"
     inkscape:window-height="1011"
     inkscape:window-x="1920"
     inkscape:window-y="32"
     inkscape:window-maximized="1"
     inkscape:current-layer="layer1">
    <inkscape:grid
       id="grid1"
       units="mm"
       originx="0"
       originy="0"
       spacingx="0.99999997"
       spacingy="0.99999997"
       empcolor="#0099e5"
       empopacity="0.30196078"
       color="#0099e5"
       opacity="0.14901961"
       empspacing="1"
       dotted="false"
       gridanglex="30"
       gridanglez="30"
       visible="true" />
  </sodipodi:namedview>
  <defs
     id="defs1" />
  <g
     inkscape:label="Layer 1"
     inkscape:groupmode="layer"
     id="layer1">
    <rect
       style="fill:#3ecc5f;fill-opacity:1;stroke:#3ecc5f;stroke-width:1.33212;stroke-linecap:round;stroke-linejoin:round;stroke-dasharray:none;stroke-opacity:1"
       id="rect2"
       width="47.956112"
       height="10.65692"
       x="76.780167"
       y="99.333939"
       rx="0.538535"
       ry="0.33521381" />
    <path
       id="rect2-5"
       style="fill:none;fill-opacity:1;stroke:#3ecc5f;stroke-width:1.33212;stroke-linecap:round;stroke-linejoin:round;stroke-dasharray:none;stroke-opacity:1"
       d="M 63.719108 -108.75098 A 10.65692 10.764922 0 0 1 67.36333 -100.65019 A 10.65692 10.764922 0 0 1 63.933049 -92.765397 L 98.914893 -92.765397 C 99.146941 -92.765397 99.333988 -92.989647 99.333988 -93.268209 L 99.333988 -108.24817 C 99.333988 -108.52674 99.146941 -108.75098 98.914893 -108.75098 L 63.719108 -108.75098 z "
       transform="rotate(90)" />
    <path
       id="rect2-5-2"
       style="fill:none;fill-opacity:1;stroke:#3ecc5f;stroke-width:1.33212;stroke-linecap:round;stroke-linejoin:round;stroke-dasharray:none;stroke-opacity:1"
       d="M 75.198667 -10.71816 A 10.65692 10.764922 60 0 1 78.242891 -7.3822435 A 10.65692 10.764922 60 0 1 76.719341 5.2668475 L 106.94221 5.2671993 A 10.65692 10.764922 60 0 1 106.19615 4.1661879 A 10.65692 10.764922 60 0 1 110.19031 -10.445156 A 10.65692 10.764922 60 0 1 110.26608 -10.486516 C 110.19147 -10.622951 110.06909 -10.718235 109.92226 -10.718235 L 75.198667 -10.71816 z "
       transform="rotate(30)" />
    <path
       id="rect2-5-2-6"
       style="fill:none;fill-opacity:1;stroke:#3ecc5f;stroke-width:1.33212;stroke-linecap:round;stroke-linejoin:round;stroke-dasharray:none;stroke-opacity:1"
       d="M -29.779333 50.076493 L 4.6222347 50.076762 C 4.8542832 50.076762 5.041104 50.300461 5.041104 50.579023 L 5.041015 65.558833 C 5.041015 65.837395 4.8545681 66.06181 4.6225195 66.06181 L -28.492933 66.061903 A 10.65692 10.764922 60 0 0 -26.869618 53.304492 A 10.65692 10.764922 60 0 0 -29.779333 50.076493 z "
       transform="matrix(-0.8660254,0.5,0.5,0.8660254,0,0)" />
    <ellipse
       style="fill:none;fill-opacity:1;stroke:#3ecc5f;stroke-width:1.332;stroke-linecap:round;stroke-linejoin:round;stroke-dasharray:1.33200002,2.66400004;stroke-opacity:1;stroke-dashoffset:0"
       id="path2"
       cx="100.65023"
       cy="56.70628"
       rx="10.764922"
       ry="10.65692" />
    <ellipse
       style="fill:none;fill-opacity:1;stroke:#3ecc5f;stroke-width:1.332;stroke-linecap:round;stroke-linejoin:round;stroke-dasharray:1.33200002,2.66400004;stroke-opacity:1;stroke-dashoffset:0"
       id="path2-7"
       cx="60.686787"
       cy="32.72821"
       rx="10.764922"
       ry="10.65692" />
    <path
       id="path2-7-7"
       style="fill:#3ecc5f;fill-opacity:1;stroke:none;stroke-width:1.33212;stroke-linecap:round;stroke-linejoin:round;stroke-dasharray:none;stroke-opacity:1"
       d="M 19.966632,44.938057 A 10.764922,10.656921 0 0 0 9.2021424,55.594819 10.764922,10.656921 0 0 0 9.2404681,56.129313 L 19.905517,50.24572 c 0.131113,-0.07232 0.309076,-0.0095 0.399836,0.140875 l 4.880898,8.076474 c 0.09076,0.150216 0.05861,0.329579 -0.0725,0.401908 L 14.471488,64.73614 A 10.764922,10.656921 0 0 0 19.96664,66.251579 10.764922,10.656921 0 0 0 30.73113,55.594819 10.764922,10.656921 0 0 0 19.96664,44.938057 Z" />
    <text
       xml:space="preserve"
       style="font-size:5.6571px;font-family:Monospace;-inkscape-font-specification:Monospace;fill:#3ecc5f;fill-opacity:1;stroke:none;stroke-width:1.00224;stroke-linecap:round;stroke-linejoin:round;stroke-dasharray:none;stroke-opacity:1"
       x="67.790062"
       y="8.1986284"
       id="text4-9-5"><tspan
         sodipodi:role="line"
         id="tspan4-4-0"
         style="stroke-width:1.00224"
         x="67.790062"
         y="8.1986284">x: ???</tspan><tspan
         sodipodi:role="line"
         style="stroke-width:1.00224"
         x="67.790062"
         y="15.270001"
         id="tspan1">y: ???</tspan><tspan
         sodipodi:role="line"
         style="stroke-width:1.00224"
         x="67.790062"
         y="22.341383"
         id="tspan2">θ: ???</tspan></text>
    <text
       xml:space="preserve"
       style="font-size:5.6571px;font-family:Monospace;-inkscape-font-specification:Monospace;fill:#3ecc5f;fill-opacity:1;stroke:none;stroke-width:1.00224;stroke-linecap:round;stroke-linejoin:round;stroke-dasharray:none;stroke-opacity:1"
       x="69.999992"
       y="65.999992"
       id="text4-9-5-1"><tspan
         sodipodi:role="line"
         id="tspan4-4-0-9"
         style="stroke-width:1.00224"
         x="69.999992"
         y="65.999992">x: ???</tspan><tspan
         sodipodi:role="line"
         style="stroke-width:1.00224"
         x="69.999992"
         y="73.071373"
         id="tspan1-4">y: ???</tspan><tspan
         sodipodi:role="line"
         style="stroke-width:1.00224"
         x="69.999992"
         y="80.142746"
         id="tspan2-7">θ: ???</tspan></text>
  </g>
</svg>
