<?xml version="1.0" encoding="UTF-8" standalone="no"?>
<!-- Created with Inkscape (http://www.inkscape.org/) -->

<svg
   width="234"
   height="234"
   viewBox="0 0 61.912744 61.9125"
   version="1.1"
   id="svg1"
   inkscape:version="1.3.2 (1:1.3.2+202311252150+091e20ef0f)"
   sodipodi:docname="monkey_face.svg"
   xmlns:inkscape="http://www.inkscape.org/namespaces/inkscape"
   xmlns:sodipodi="http://sodipodi.sourceforge.net/DTD/sodipodi-0.dtd"
   xmlns="http://www.w3.org/2000/svg"
   xmlns:svg="http://www.w3.org/2000/svg">
  <sodipodi:namedview
     id="namedview1"
     pagecolor="#ffffff"
     bordercolor="#111111"
     borderopacity="1"
     inkscape:showpageshadow="0"
     inkscape:pageopacity="0"
     inkscape:pagecheckerboard="1"
     inkscape:deskcolor="#d1d1d1"
     inkscape:document-units="mm"
     showgrid="true"
     inkscape:zoom="3.0039562"
     inkscape:cx="113.51697"
     inkscape:cy="119.00972"
     inkscape:window-width="1920"
     inkscape:window-height="1011"
     inkscape:window-x="1920"
     inkscape:window-y="32"
     inkscape:window-maximized="1"
     inkscape:current-layer="layer1">
    <inkscape:grid
       id="grid1"
       units="mm"
       originx="0"
       originy="0"
       spacingx="0.99999997"
       spacingy="0.99999997"
       empcolor="#0099e5"
       empopacity="0.30196078"
       color="#0099e5"
       opacity="0.14901961"
       empspacing="1"
       dotted="false"
       gridanglex="30"
       gridanglez="30"
       visible="true" />
  </sodipodi:namedview>
  <defs
     id="defs1" />
  <g
     inkscape:label="Layer 1"
     inkscape:groupmode="layer"
     id="layer1">
    <path
       id="path2"
       style="fill:#3ecc5f;fill-opacity:1;stroke:none;stroke-width:3.60679;stroke-linecap:round;stroke-linejoin:round;stroke-dasharray:none;stroke-opacity:1"
       d="M 30.99978 1.9997638 A 29 29 0 0 0 1.9998858 31.000175 A 29 29 0 0 0 30.99978 60.00007 A 29 29 0 0 0 60.000192 31.000175 A 29 29 0 0 0 30.99978 1.9997638 z M 24.085446 10.008092 A 7.0854378 7.9959774 0 0 1 31.17083 18.004018 A 7.0854378 7.9959774 0 0 1 24.085446 25.999944 A 7.0854378 7.9959774 0 0 1 17.000063 18.004018 A 7.0854378 7.9959774 0 0 1 24.085446 10.008092 z M 45.914691 10.008092 A 7.0854378 7.9959774 0 0 1 53.000075 18.004018 A 7.0854378 7.9959774 0 0 1 45.914691 25.999944 A 7.0854378 7.9959774 0 0 1 38.829307 18.004018 A 7.0854378 7.9959774 0 0 1 45.914691 10.008092 z M 27.208782 34.09974 L 46.673821 34.09974 A 1.50001 1.50001 0 0 1 48.173994 35.599396 A 1.50001 1.50001 0 0 1 46.673821 37.099568 L 27.208782 37.099568 A 1.50001 1.50001 0 0 1 25.709126 35.599396 A 1.50001 1.50001 0 0 1 27.208782 34.09974 z " />
    <ellipse
       style="fill:#3ecc5f;fill-opacity:1;stroke:none;stroke-width:0.369282;stroke-linecap:round;stroke-linejoin:round;stroke-dasharray:none;stroke-opacity:1"
       id="path2-5-7"
       cx="20.052141"
       cy="18.009323"
       rx="2.9478579"
       ry="2.9906359" />
    <ellipse
       style="fill:#3ecc5f;fill-opacity:1;stroke:none;stroke-width:0.369282;stroke-linecap:round;stroke-linejoin:round;stroke-dasharray:none;stroke-opacity:1"
       id="path2-5-7-6"
       cx="41.947857"
       cy="17.990572"
       rx="2.9478579"
       ry="2.9906359" />
    <g
       id="path1">
      <path
         style="color:#000000;fill:#000000;stroke-linecap:round;stroke-linejoin:round;-inkscape-stroke:none"
         d="M 27.209265,35.600534 H 46.673007"
         id="path3" />
    </g>
  </g>
</svg>
