<?xml version="1.0" encoding="UTF-8" standalone="no"?>
<!-- Created with Inkscape (http://www.inkscape.org/) -->

<svg
   width="1200"
   height="675"
   viewBox="0 0 1200 675"
   version="1.1"
   id="svg1"
   inkscape:version="1.3 (1:1.3+202307231459+0e150ed6c4)"
   sodipodi:docname="social_card.svg"
   inkscape:export-filename="social_card.png"
   inkscape:export-xdpi="96"
   inkscape:export-ydpi="96"
   xml:space="preserve"
   xmlns:inkscape="http://www.inkscape.org/namespaces/inkscape"
   xmlns:sodipodi="http://sodipodi.sourceforge.net/DTD/sodipodi-0.dtd"
   xmlns="http://www.w3.org/2000/svg"
   xmlns:svg="http://www.w3.org/2000/svg"><sodipodi:namedview
     id="namedview1"
     pagecolor="#ffffff"
     bordercolor="#111111"
     borderopacity="1"
     inkscape:showpageshadow="false"
     inkscape:pageopacity="0"
     inkscape:pagecheckerboard="1"
     inkscape:deskcolor="#afafaf"
     inkscape:document-units="px"
     showgrid="true"
     labelstyle="default"
     inkscape:zoom="1.0280428"
     inkscape:cx="691.60545"
     inkscape:cy="314.18925"
     inkscape:window-width="1920"
     inkscape:window-height="1016"
     inkscape:window-x="1920"
     inkscape:window-y="27"
     inkscape:window-maximized="1"
     inkscape:current-layer="layer1"><inkscape:grid
       id="grid1"
       units="px"
       originx="0"
       originy="0"
       spacingx="1"
       spacingy="1"
       empcolor="#e50000"
       empopacity="0.30196078"
       color="#e50000"
       opacity="0.14901961"
       empspacing="8"
       dotted="false"
       gridanglex="30"
       gridanglez="30"
       visible="true" /></sodipodi:namedview><defs
     id="defs1"><inkscape:path-effect
       effect="fillet_chamfer"
       id="path-effect8"
       is_visible="true"
       lpeversion="1"
       nodesatellites_param="F,0,0,1,0,0,0,1 @ F,0,0,1,0,0,0,1 @ F,0,0,1,0,0,0,1 @ F,0,0,1,0,0,0,1 @ F,0,0,1,0,0,0,1 @ F,0,0,1,0,0,0,1"
       radius="0"
       unit="px"
       method="auto"
       mode="F"
       chamfer_steps="1"
       flexible="false"
       use_knot_distance="true"
       apply_no_radius="true"
       apply_with_radius="true"
       only_selected="false"
       hide_knots="false" /></defs><g
     inkscape:label="Layer 1"
     inkscape:groupmode="layer"
     id="layer1"><rect
       style="fill:#ececec;fill-opacity:1;stroke-width:1.07698;-inkscape-stroke:none"
       id="rect3"
       width="1200"
       height="675"
       x="1.0658141e-13"
       y="-3.5527137e-14"
       ry="1.7831081"
       sodipodi:insensitive="true" /><g
       id="g4"
       transform="translate(0,14)"><g
         id="g3"><circle
           style="fill:#3ecc5f;fill-opacity:1;stroke-width:6.07465;-inkscape-stroke:none"
           id="path10"
           cx="234.24419"
           cy="312.97675"
           r="123.51162" /><ellipse
           style="fill:#f9f9f9;fill-opacity:1;stroke-width:1.02013;-inkscape-stroke:none"
           id="path2"
           cx="216"
           cy="256"
           rx="24"
           ry="36" /><ellipse
           style="fill:#f9f9f9;fill-opacity:1;stroke-width:1.02013;-inkscape-stroke:none"
           id="path2-5"
           cx="296"
           cy="256"
           rx="24"
           ry="36" /><ellipse
           style="fill:#f9f9f9;fill-opacity:1;stroke-width:0.797472;-inkscape-stroke:none"
           id="path2-2"
           cx="256"
           cy="330"
           rx="24"
           ry="22" /></g><rect
         style="fill:#3ecc5f;fill-opacity:1;stroke-width:5.10759;-inkscape-stroke:none"
         id="rect10"
         width="123.51162"
         height="185.26743"
         x="172.48839"
         y="467.36627"
         ry="17.341091" /><g
         id="g1"><rect
           style="fill:#ececec;fill-opacity:1;stroke-width:4.75855;-inkscape-stroke:none"
           id="rect10-6-6"
           width="99.741356"
           height="199.13577"
           x="6.1108513"
           y="440.99368"
           ry="18.639174"
           transform="matrix(0.86527133,-0.50130382,0.49869277,0.86677882,0,0)" /><rect
           style="fill:#3ecc5f;fill-opacity:1;stroke-width:4.4233;-inkscape-stroke:none"
           id="rect10-6"
           width="92.633713"
           height="185.26743"
           x="6.8384118"
           y="447.53424"
           ry="17.341091"
           transform="rotate(-30)" /></g><g
         id="g2"><rect
           style="fill:#ececec;fill-opacity:1;stroke-width:4.75855;-inkscape-stroke:none"
           id="rect10-6-6-1"
           width="99.741356"
           height="199.13577"
           x="-438.94946"
           y="184.18811"
           ry="18.639174"
           transform="matrix(-0.86527134,-0.50130381,-0.49869277,0.86677882,0,0)" /><rect
           style="fill:#3ecc5f;fill-opacity:1;stroke-width:4.4233;-inkscape-stroke:none"
           id="rect10-6-8"
           width="92.633713"
           height="185.26743"
           x="-437.83392"
           y="191.39929"
           ry="17.341091"
           transform="matrix(-0.8660254,-0.5,-0.5,0.8660254,0,0)" /></g></g><text
       xml:space="preserve"
       style="font-weight:bold;font-size:192px;line-height:1;font-family:Manjari;-inkscape-font-specification:'Manjari Bold';text-align:center;text-anchor:middle;fill:#3ecc5f;fill-opacity:1;stroke-width:1.16147;-inkscape-stroke:none"
       x="768"
       y="224"
       id="text1"><tspan
         sodipodi:role="line"
         x="768"
         y="224"
         id="tspan4" /><tspan
         sodipodi:role="line"
         x="768"
         y="416"
         id="tspan1" /></text><g
       inkscape:label="Layer 1"
       id="layer1-3"
       transform="matrix(1.2539541,0,0,1.2539541,904.13331,68.397101)"><circle
         style="fill:#3ecc5f;fill-opacity:1;stroke-width:1.39376;-inkscape-stroke:none"
         id="path1"
         cx="65.254951"
         cy="26.87323"
         r="24" /><rect
         style="fill:#3ecc5f;fill-opacity:1;stroke-width:1.44861;-inkscape-stroke:none"
         id="rect1"
         width="32"
         height="56"
         x="49.254948"
         y="50.87323"
         ry="18.666666" /><rect
         style="fill:#3ecc5f;fill-opacity:1;stroke-width:1.16147;-inkscape-stroke:none"
         id="rect1-5"
         width="24"
         height="48"
         x="-27.678747"
         y="85.805466"
         ry="15.999999"
         transform="rotate(-60)" /><rect
         style="fill:#3ecc5f;fill-opacity:1;stroke-width:1.16147;-inkscape-stroke:none"
         id="rect1-5-7"
         width="24"
         height="48"
         x="68.497421"
         y="-27.425627"
         ry="15.999999"
         transform="rotate(60)" /><rect
         style="fill:#3ecc5f;fill-opacity:1;stroke-width:1.16147;-inkscape-stroke:none"
         id="rect1-5-2"
         width="24"
         height="48"
         x="64.633003"
         y="89.766014"
         ry="15.999999"
         transform="rotate(-15)" /><rect
         style="fill:#3ecc5f;fill-opacity:1;stroke-width:1.16147;-inkscape-stroke:none"
         id="rect1-5-2-61"
         width="24"
         height="48"
         x="103.13844"
         y="-7.425622"
         ry="15.999999"
         transform="rotate(60)" /><rect
         style="fill:#3ecc5f;fill-opacity:1;stroke-width:1.16147;-inkscape-stroke:none"
         id="rect1-5-2-61-2"
         width="24"
         height="48"
         x="30.12808"
         y="103.02186"
         ry="15.999999"
         transform="rotate(6.1197743)" /><rect
         style="fill:#3ecc5f;fill-opacity:1;stroke-width:1.16147;-inkscape-stroke:none"
         id="rect1-5-2-61-2-7"
         width="24"
         height="48"
         x="-3.2576416"
         y="115.5096"
         ry="15.999999"
         transform="rotate(-32.787517)" /><rect
         style="fill:#3ecc5f;fill-opacity:1;stroke-width:1.16147;-inkscape-stroke:none"
         id="rect1-5-2-61-2-7-2"
         width="24"
         height="48"
         x="-95.864029"
         y="120.33727"
         ry="15.999999"
         transform="rotate(-68.807325)" /><rect
         style="fill:#3ecc5f;fill-opacity:1;stroke-width:1.16147;-inkscape-stroke:none"
         id="rect1-5-2-6"
         width="24"
         height="48"
         x="-28.537363"
         y="41.406986"
         ry="15.999999"
         transform="rotate(-30)" /></g><path
       id="rect19"
       style="fill:#3ecc5f;fill-opacity:1;stroke-width:1.18268;-inkscape-stroke:none"
       d="m 981.48888,351.42776 c -0.50603,1e-5 -1.01248,0.1941 -1.40034,0.58187 l -77.84161,77.84164 c -0.77555,0.77555 -0.77555,2.02521 0,2.80075 l 77.84161,77.84166 c 0.77558,0.77554 2.02525,0.77553 2.80082,0 l 77.84154,-77.84166 c 0.7756,-0.77554 0.7756,-2.0252 0,-2.80073 l -77.84154,-77.84166 c -0.38786,-0.38777 -0.89431,-0.58186 -1.40048,-0.58187 z m -0.81007,20.07012 a 11.400645,11.400645 0 0 1 8.87271,3.31022 11.400645,11.400645 0 0 1 0,16.12236 11.400645,11.400645 0 0 1 -16.12229,0 11.400645,11.400645 0 0 1 0,-16.12236 11.400645,11.400645 0 0 1 7.24958,-3.31022 z m -48.38097,48.38098 a 11.400645,11.400645 0 0 1 8.87271,3.31023 11.400645,11.400645 0 0 1 0,16.12234 11.400645,11.400645 0 0 1 -16.12243,0 11.400645,11.400645 0 0 1 0,-16.12234 11.400645,11.400645 0 0 1 7.24972,-3.31023 z m 48.38097,0 a 11.400645,11.400645 0 0 1 8.87271,3.31023 11.400645,11.400645 0 0 1 0,16.12234 11.400645,11.400645 0 0 1 -16.12229,0 11.400645,11.400645 0 0 1 0,-16.12234 11.400645,11.400645 0 0 1 7.24958,-3.31023 z m 48.37809,0 a 11.400645,11.400645 0 0 1 8.8756,3.31023 11.400645,11.400645 0 0 1 0,16.12234 11.400645,11.400645 0 0 1 -16.1223,0 11.400645,11.400645 0 0 1 0,-16.12236 11.400645,11.400645 0 0 1 7.2467,-3.31021 z m -48.37852,48.3806 a 11.400645,11.400645 0 0 1 8.87271,3.31023 11.400645,11.400645 0 0 1 0,16.12234 11.400645,11.400645 0 0 1 -16.12228,1e-5 11.400645,11.400645 0 0 1 0,-16.12237 11.400645,11.400645 0 0 1 7.24957,-3.31021 z" /><g
       inkscape:label="Layer 1"
       id="layer1-36"
       transform="matrix(1.9762647,0,0,1.9762647,522.45873,88.144479)"><path
         id="rect2"
         style="fill:#3ecc5f;stroke-width:3.67527;-inkscape-stroke:none"
         d="M 10.699219,8 C 9.2039053,8 8,9.2039053 8,10.699219 v 74.705078 c 0,1.495309 1.2039053,2.699219 2.699219,2.699219 H 117.30078 c 1.49532,0 2.69922,-1.20391 2.69922,-2.699219 V 10.699219 C 120,9.2039053 118.7961,8 117.30078,8 Z m 88.554687,1 h 7.492184 C 106.88636,9 107,9.1136359 107,9.2539062 V 16.746094 C 107,16.886365 106.88636,17 106.74609,17 H 99.253906 C 99.113635,17 99,16.886365 99,16.746094 V 9.2539062 C 99,9.1136359 99.113635,9 99.253906,9 Z m 11.625004,0.5683594 c 0.0647,0 0.13009,0.024626 0.17968,0.074219 L 113,11.583984 114.94141,9.6425781 c 0.0992,-0.099186 0.26018,-0.099186 0.35937,0 l 1.05664,1.0566409 c 0.0992,0.09919 0.0992,0.260188 0,0.359375 L 114.41602,13 l 1.9414,1.941406 c 0.0992,0.09919 0.0992,0.260189 0,0.359375 l -1.05664,1.056641 c -0.0992,0.09919 -0.26019,0.09919 -0.35937,0 L 113,14.416016 l -1.94141,1.941406 c -0.0992,0.09919 -0.26018,0.09919 -0.35937,0 l -1.05664,-1.056641 c -0.0992,-0.09919 -0.0992,-0.260188 0,-0.359375 L 111.58398,13 l -1.9414,-1.941406 c -0.0992,-0.09919 -0.0992,-0.260189 0,-0.359375 l 1.05664,-1.0566409 c 0.0496,-0.049593 0.11496,-0.074219 0.17969,-0.074219 z M 89.253906,15 h 7.492188 C 96.886365,15 97,15.113635 97,15.253906 v 1.492188 C 97,16.886365 96.886365,17 96.746094,17 H 89.253906 C 89.113635,17 89,16.886365 89,16.746094 V 15.253906 C 89,15.113635 89.113635,15 89.253906,15 Z m -78.34375,2.871094 H 117.08984 V 86.128906 H 10.910156 Z" /><rect
         style="fill:#3ecc5f;fill-opacity:1;stroke-width:0.790927;-inkscape-stroke:none"
         id="rect3-0"
         width="6"
         height="6"
         x="100"
         y="10"
         ry="0.12251627" /><path
         id="rect4"
         style="fill:#3ecc5f;fill-opacity:1;stroke-width:1.75646;-inkscape-stroke:none"
         d="M 16.347656,23.898438 C 16.155061,23.898438 16,24.053498 16,24.246094 v 31.40625 C 16,55.844939 16.155061,56 16.347656,56 H 63.652344 C 63.844939,56 64,55.844939 64,55.652344 v -31.40625 c 0,-0.192596 -0.155061,-0.347656 -0.347656,-0.347656 z M 33.144531,32 40.072266,36 47,40 l -6.927734,4 -6.927735,4 v -8 z" /><rect
         style="fill:#3ecc5f;fill-opacity:1;stroke-width:0.759627;-inkscape-stroke:none"
         id="rect5"
         width="24"
         height="2"
         x="16"
         y="58"
         ry="1"
         rx="1" /><rect
         style="fill:#3ecc5f;fill-opacity:1;stroke-width:0.759627;-inkscape-stroke:none"
         id="rect5-9"
         width="24"
         height="2"
         x="89"
         y="24"
         ry="1"
         rx="1" /><rect
         style="fill:#3ecc5f;fill-opacity:1;stroke-width:0.310116;-inkscape-stroke:none"
         id="rect5-9-7"
         width="8"
         height="1"
         x="89"
         y="27"
         ry="0.5"
         rx="0.33333334" /><rect
         style="fill:#3ecc5f;fill-opacity:1;stroke-width:0.379813;-inkscape-stroke:none"
         id="rect5-9-7-8"
         width="12"
         height="1"
         x="89"
         y="29"
         ry="0.5"
         rx="0.5" /><rect
         style="fill:#3ecc5f;fill-opacity:1;stroke-width:0.955843;-inkscape-stroke:none"
         id="rect5-2"
         width="38"
         height="2"
         x="16"
         y="62"
         ry="1"
         rx="1" /><rect
         style="fill:#3ecc5f;fill-opacity:1;stroke-width:0.675883;-inkscape-stroke:none"
         id="rect5-7"
         width="19"
         height="2"
         x="16"
         y="66"
         ry="1"
         rx="1" /><rect
         style="fill:#3ecc5f;fill-opacity:1;stroke-width:0.759627;-inkscape-stroke:none"
         id="rect5-7-3"
         width="24"
         height="2"
         x="24"
         y="75"
         ry="1"
         rx="1" /><rect
         style="fill:#3ecc5f;fill-opacity:1;stroke-width:0.657856;-inkscape-stroke:none"
         id="rect5-7-1"
         width="18"
         height="2"
         x="24"
         y="78"
         ry="1"
         rx="1" /><rect
         style="fill:#3ecc5f;fill-opacity:1;stroke-width:0.410246;-inkscape-stroke:none"
         id="rect5-7-2-9"
         width="7"
         height="2"
         x="31"
         y="72"
         ry="1"
         rx="1" /><rect
         style="fill:#3ecc5f;fill-opacity:1;stroke-width:0.342269;-inkscape-stroke:none"
         id="rect5-7-2-9-4"
         width="4.872395"
         height="2.0000031"
         x="24"
         y="72"
         ry="1.0000015"
         rx="1.0000015" /><rect
         style="fill:#3ecc5f;fill-opacity:1;stroke-width:1.07477;-inkscape-stroke:none"
         id="rect6"
         width="7"
         height="7"
         x="16"
         y="72"
         ry="0.23548922" /><rect
         style="fill:#3ecc5f;fill-opacity:1;stroke-width:1.50437;-inkscape-stroke:none"
         id="rect6-7"
         width="12"
         height="8"
         x="76"
         y="24"
         ry="0.26913053" /><rect
         style="fill:#3ecc5f;fill-opacity:1;stroke-width:0.580175;-inkscape-stroke:none"
         id="rect5-9-1"
         width="14"
         height="2"
         x="89"
         y="35"
         ry="1"
         rx="0.58333331" /><rect
         style="fill:#3ecc5f;fill-opacity:1;stroke-width:0.258373;-inkscape-stroke:none"
         id="rect5-9-7-4"
         width="5.5531206"
         height="1"
         x="89"
         y="38"
         ry="0.5"
         rx="0.23138003" /><rect
         style="fill:#3ecc5f;fill-opacity:1;stroke-width:0.490336;-inkscape-stroke:none"
         id="rect5-9-7-8-9"
         width="20"
         height="1"
         x="89"
         y="40"
         ry="0.5"
         rx="0.83333331" /><rect
         style="fill:#3ecc5f;fill-opacity:1;stroke-width:1.50437;-inkscape-stroke:none"
         id="rect6-7-2"
         width="12"
         height="8"
         x="76"
         y="35"
         ry="0.26913053" /><rect
         style="fill:#3ecc5f;fill-opacity:1;stroke-width:0.693441;-inkscape-stroke:none"
         id="rect5-9-9"
         width="20"
         height="2"
         x="89"
         y="46"
         ry="1"
         rx="0.83333331" /><rect
         style="fill:#3ecc5f;fill-opacity:1;stroke-width:0.379813;-inkscape-stroke:none"
         id="rect5-9-7-2"
         width="12"
         height="1"
         x="89"
         y="49"
         ry="0.5"
         rx="0.5" /><rect
         style="fill:#3ecc5f;fill-opacity:1;stroke-width:0.245168;-inkscape-stroke:none"
         id="rect5-9-7-8-6"
         width="5"
         height="1"
         x="89"
         y="51"
         ry="0.5"
         rx="0.20833333" /><rect
         style="fill:#3ecc5f;fill-opacity:1;stroke-width:1.50437;-inkscape-stroke:none"
         id="rect6-7-6"
         width="12"
         height="8"
         x="76"
         y="46"
         ry="0.26913053" /><rect
         style="fill:#3ecc5f;fill-opacity:1;stroke-width:0.639321;-inkscape-stroke:none"
         id="rect5-9-0"
         width="17"
         height="2"
         x="89"
         y="57"
         ry="1"
         rx="0.70833331" /><rect
         style="fill:#3ecc5f;fill-opacity:1;stroke-width:0.363643;-inkscape-stroke:none"
         id="rect5-9-7-48"
         width="11"
         height="1"
         x="89"
         y="60"
         ry="0.5"
         rx="0.45833334" /><rect
         style="fill:#3ecc5f;fill-opacity:1;stroke-width:0.424644;-inkscape-stroke:none"
         id="rect5-9-7-8-7"
         width="15"
         height="1"
         x="89"
         y="62"
         ry="0.5"
         rx="0.625" /><rect
         style="fill:#3ecc5f;fill-opacity:1;stroke-width:1.50437;-inkscape-stroke:none"
         id="rect6-7-1"
         width="12"
         height="8"
         x="76"
         y="57"
         ry="0.26913053" /><rect
         style="fill:#3ecc5f;fill-opacity:1;stroke-width:0.790645;-inkscape-stroke:none"
         id="rect5-9-2"
         width="26"
         height="2"
         x="89"
         y="68"
         ry="1"
         rx="1.0833334" /><rect
         style="fill:#3ecc5f;fill-opacity:1;stroke-width:0.379813;-inkscape-stroke:none"
         id="rect5-9-7-26"
         width="12"
         height="1"
         x="89"
         y="71"
         ry="0.5"
         rx="0.5" /><rect
         style="fill:#3ecc5f;fill-opacity:1;stroke-width:0.471249;-inkscape-stroke:none"
         id="rect5-9-7-8-1"
         width="18.473255"
         height="1"
         x="89"
         y="73"
         ry="0.5"
         rx="0.769719" /><rect
         style="fill:#3ecc5f;fill-opacity:1;stroke-width:1.50437;-inkscape-stroke:none"
         id="rect6-7-0"
         width="12"
         height="8"
         x="76"
         y="68"
         ry="0.26913053" /><rect
         style="fill:#3ecc5f;fill-opacity:1;stroke-width:0.580175;-inkscape-stroke:none"
         id="rect5-9-94"
         width="14"
         height="2"
         x="89"
         y="79"
         ry="1"
         rx="0.58333337" /><rect
         style="fill:#3ecc5f;fill-opacity:1;stroke-width:0.310116;-inkscape-stroke:none"
         id="rect5-9-7-9"
         width="8"
         height="1"
         x="89"
         y="82"
         ry="0.5"
         rx="0.33333334" /><rect
         style="fill:#3ecc5f;fill-opacity:1;stroke-width:0.424644;-inkscape-stroke:none"
         id="rect5-9-7-8-0"
         width="15"
         height="1"
         x="89"
         y="84"
         ry="0.5"
         rx="0.625" /><rect
         style="fill:#3ecc5f;fill-opacity:1;stroke-width:0.424644;-inkscape-stroke:none"
         id="rect5-9-7-8-0-1"
         width="15"
         height="1"
         x="89"
         y="75"
         ry="0.5"
         rx="0.625" /><rect
         style="fill:#3ecc5f;fill-opacity:1;stroke-width:1.50437;-inkscape-stroke:none"
         id="rect6-7-9"
         width="12"
         height="8"
         x="76"
         y="79"
         ry="0.26913053" /><text
         xml:space="preserve"
         style="font-weight:bold;font-size:2.66667px;line-height:1;font-family:Manjari;-inkscape-font-specification:'Manjari Bold';text-align:center;text-anchor:middle;fill:#3ecc5f;fill-opacity:1;stroke-width:1.16147;-inkscape-stroke:none"
         x="29.93685"
         y="73.555992"
         id="text6"><tspan
           sodipodi:role="line"
           id="tspan6"
           x="29.93685"
           y="73.555992">@</tspan></text></g><g
       inkscape:label="Layer 1"
       id="layer1-8"
       transform="matrix(2.1376842,0,0,2.1376842,512.12788,328.42104)"><path
         id="rect1-7"
         style="fill:#3ecc5f;stroke-width:1.16147;-inkscape-stroke:none"
         d="m 20,16.103516 c -2.215998,0 -4,1.784002 -4,4 v 56 c 0,2.215997 1.784002,4 4,4 h 88 c 2.216,0 4,-1.784003 4,-4 v -56 c 0,-2.215998 -1.784,-4 -4,-4 z m 8,8 h 72 c 2.216,0 4,1.784002 4,4 v 40 c 0,2.215997 -1.784,4 -4,4 H 28 c -2.215998,0 -4,-1.784003 -4,-4 v -40 c 0,-2.215998 1.784002,-4 4,-4 z" /><rect
         style="fill:#3ecc5f;stroke-width:1.16147;-inkscape-stroke:none"
         id="rect2-9"
         width="112"
         height="8"
         x="8"
         y="80.103691"
         ry="4" /><rect
         style="fill:#3ecc5f;fill-opacity:1;stroke-width:0.818456;-inkscape-stroke:none"
         id="rect4-2"
         width="32"
         height="2.8963096"
         x="32"
         y="29.207382"
         ry="1.4481548" /><rect
         style="fill:#3ecc5f;fill-opacity:1;stroke-width:1.0024;-inkscape-stroke:none"
         id="rect4-5"
         width="48"
         height="2.8963096"
         x="32"
         y="37.103691"
         ry="1.4481548" /><rect
         style="fill:#3ecc5f;fill-opacity:1;stroke-width:1.08272;-inkscape-stroke:none"
         id="rect4-5-2"
         width="56"
         height="2.8963096"
         x="32"
         y="45.207382"
         ry="1.4481548" /><rect
         style="fill:#3ecc5f;fill-opacity:1;stroke-width:0.818456;-inkscape-stroke:none"
         id="rect4-5-7"
         width="32"
         height="2.8963096"
         x="32"
         y="53.207382"
         ry="1.4481548" /><rect
         style="fill:#3ecc5f;fill-opacity:1;stroke-width:0.915062;-inkscape-stroke:none"
         id="rect4-5-6"
         width="40"
         height="2.8963096"
         x="32"
         y="61.207382"
         ry="1.4481548" /></g><text
       xml:space="preserve"
       style="font-weight:bold;font-size:74.6667px;line-height:1;font-family:Manjari;-inkscape-font-specification:'Manjari Bold';text-align:center;text-anchor:middle;fill:#3ecc5f;fill-opacity:1;stroke-width:1.16147;-inkscape-stroke:none"
       x="641.00531"
       y="324.97397"
       id="text7"><tspan
         sodipodi:role="line"
         id="tspan7"
         x="641.00531"
         y="324.97397">Softwares</tspan></text><text
       xml:space="preserve"
       style="font-weight:bold;font-size:74.6667px;line-height:1;font-family:Manjari;-inkscape-font-specification:'Manjari Bold';text-align:center;text-anchor:middle;fill:#3ecc5f;fill-opacity:1;stroke-width:1.16147;-inkscape-stroke:none"
       x="640.66669"
       y="581.01044"
       id="text7-7"><tspan
         sodipodi:role="line"
         x="640.66669"
         y="581.01044"
         id="tspan8">Code</tspan></text><text
       xml:space="preserve"
       style="font-weight:bold;font-size:74.6667px;line-height:1;font-family:Manjari;-inkscape-font-specification:'Manjari Bold';text-align:center;text-anchor:middle;fill:#3ecc5f;fill-opacity:1;stroke-width:1.16147;-inkscape-stroke:none"
       x="980.53131"
       y="573.01044"
       id="text7-7-3"><tspan
         sodipodi:role="line"
         x="980.53131"
         y="573.01044"
         id="tspan8-1">Random</tspan><tspan
         sodipodi:role="line"
         x="980.53131"
         y="647.67712"
         id="tspan9">Subjects</tspan></text><text
       xml:space="preserve"
       style="font-weight:bold;font-size:74.6667px;line-height:1;font-family:Manjari;-inkscape-font-specification:'Manjari Bold';text-align:center;text-anchor:middle;fill:#3ecc5f;fill-opacity:1;stroke-width:1.16147;-inkscape-stroke:none"
       x="981.961"
       y="325.04691"
       id="text7-5"><tspan
         sodipodi:role="line"
         id="tspan7-9"
         x="981.961"
         y="325.04691">Games</tspan></text></g></svg>
